<?xml version="1.0" encoding="utf-8" standalone="no"?>
<!DOCTYPE svg PUBLIC "-//W3C//DTD SVG 1.1//EN"
  "http://www.w3.org/Graphics/SVG/1.1/DTD/svg11.dtd">
<svg height="262.59375pt" version="1.1" viewBox="0 0 397.935938 262.59375" width="397.935938pt" xmlns="http://www.w3.org/2000/svg" xmlns:xlink="http://www.w3.org/1999/xlink">
 <metadata>
  <rdf:RDF xmlns:cc="http://creativecommons.org/ns#" xmlns:dc="http://purl.org/dc/elements/1.1/" xmlns:rdf="http://www.w3.org/1999/02/22-rdf-syntax-ns#">
   <cc:Work>
    <dc:type rdf:resource="http://purl.org/dc/dcmitype/StillImage"/>
    <dc:date>2022-06-24T23:25:37.222688</dc:date>
    <dc:format>image/svg+xml</dc:format>
    <dc:creator>
     <cc:Agent>
      <dc:title>Matplotlib v3.4.0, https://matplotlib.org/</dc:title>
     </cc:Agent>
    </dc:creator>
   </cc:Work>
  </rdf:RDF>
 </metadata>
 <defs>
  <style type="text/css">*{stroke-linecap:butt;stroke-linejoin:round;}</style>
 </defs>
 <g id="figure_1">
  <g id="patch_1">
   <path d="M 0 262.59375 
L 397.935938 262.59375 
L 397.935938 0 
L 0 0 
z
" style="fill:none;"/>
  </g>
  <g id="axes_1">
   <g id="patch_2">
    <path d="M 55.935938 224.64 
L 390.735938 224.64 
L 390.735938 7.2 
L 55.935938 7.2 
z
" style="fill:#ffffff;"/>
   </g>
   <g id="matplotlib.axis_1">
    <g id="xtick_1">
     <g id="line2d_1">
      <defs>
       <path d="M 0 0 
L 0 -3 
" id="m3ed53b7b49" style="stroke:#000000;stroke-width:0.5;"/>
      </defs>
      <g>
       <use style="stroke:#000000;stroke-width:0.5;" x="63.882633" xlink:href="#m3ed53b7b49" y="224.64"/>
      </g>
     </g>
     <g id="line2d_2">
      <defs>
       <path d="M 0 0 
L 0 3 
" id="mf476398ef9" style="stroke:#000000;stroke-width:0.5;"/>
      </defs>
      <g>
       <use style="stroke:#000000;stroke-width:0.5;" x="63.882633" xlink:href="#mf476398ef9" y="7.2"/>
      </g>
     </g>
     <g id="text_1">
      <!-- 0.0 -->
      <g transform="translate(54.340758 237.258125)scale(0.12 -0.12)">
       <defs>
        <path d="M 2034 4250 
Q 1547 4250 1301 3770 
Q 1056 3291 1056 2328 
Q 1056 1369 1301 889 
Q 1547 409 2034 409 
Q 2525 409 2770 889 
Q 3016 1369 3016 2328 
Q 3016 3291 2770 3770 
Q 2525 4250 2034 4250 
z
M 2034 4750 
Q 2819 4750 3233 4129 
Q 3647 3509 3647 2328 
Q 3647 1150 3233 529 
Q 2819 -91 2034 -91 
Q 1250 -91 836 529 
Q 422 1150 422 2328 
Q 422 3509 836 4129 
Q 1250 4750 2034 4750 
z
" id="DejaVuSans-30" transform="scale(0.015625)"/>
        <path d="M 684 794 
L 1344 794 
L 1344 0 
L 684 0 
L 684 794 
z
" id="DejaVuSans-2e" transform="scale(0.015625)"/>
       </defs>
       <use xlink:href="#DejaVuSans-30"/>
       <use x="63.623047" xlink:href="#DejaVuSans-2e"/>
       <use x="95.410156" xlink:href="#DejaVuSans-30"/>
      </g>
     </g>
    </g>
    <g id="xtick_2">
     <g id="line2d_3">
      <g>
       <use style="stroke:#000000;stroke-width:0.5;" x="130.364793" xlink:href="#m3ed53b7b49" y="224.64"/>
      </g>
     </g>
     <g id="line2d_4">
      <g>
       <use style="stroke:#000000;stroke-width:0.5;" x="130.364793" xlink:href="#mf476398ef9" y="7.2"/>
      </g>
     </g>
     <g id="text_2">
      <!-- 0.5 -->
      <g transform="translate(120.822918 237.258125)scale(0.12 -0.12)">
       <defs>
        <path d="M 691 4666 
L 3169 4666 
L 3169 4134 
L 1269 4134 
L 1269 2991 
Q 1406 3038 1543 3061 
Q 1681 3084 1819 3084 
Q 2600 3084 3056 2656 
Q 3513 2228 3513 1497 
Q 3513 744 3044 326 
Q 2575 -91 1722 -91 
Q 1428 -91 1123 -41 
Q 819 9 494 109 
L 494 744 
Q 775 591 1075 516 
Q 1375 441 1709 441 
Q 2250 441 2565 725 
Q 2881 1009 2881 1497 
Q 2881 1984 2565 2268 
Q 2250 2553 1709 2553 
Q 1456 2553 1204 2497 
Q 953 2441 691 2322 
L 691 4666 
z
" id="DejaVuSans-35" transform="scale(0.015625)"/>
       </defs>
       <use xlink:href="#DejaVuSans-30"/>
       <use x="63.623047" xlink:href="#DejaVuSans-2e"/>
       <use x="95.410156" xlink:href="#DejaVuSans-35"/>
      </g>
     </g>
    </g>
    <g id="xtick_3">
     <g id="line2d_5">
      <g>
       <use style="stroke:#000000;stroke-width:0.5;" x="196.846952" xlink:href="#m3ed53b7b49" y="224.64"/>
      </g>
     </g>
     <g id="line2d_6">
      <g>
       <use style="stroke:#000000;stroke-width:0.5;" x="196.846952" xlink:href="#mf476398ef9" y="7.2"/>
      </g>
     </g>
     <g id="text_3">
      <!-- 1.0 -->
      <g transform="translate(187.305077 237.258125)scale(0.12 -0.12)">
       <defs>
        <path d="M 794 531 
L 1825 531 
L 1825 4091 
L 703 3866 
L 703 4441 
L 1819 4666 
L 2450 4666 
L 2450 531 
L 3481 531 
L 3481 0 
L 794 0 
L 794 531 
z
" id="DejaVuSans-31" transform="scale(0.015625)"/>
       </defs>
       <use xlink:href="#DejaVuSans-31"/>
       <use x="63.623047" xlink:href="#DejaVuSans-2e"/>
       <use x="95.410156" xlink:href="#DejaVuSans-30"/>
      </g>
     </g>
    </g>
    <g id="xtick_4">
     <g id="line2d_7">
      <g>
       <use style="stroke:#000000;stroke-width:0.5;" x="263.329112" xlink:href="#m3ed53b7b49" y="224.64"/>
      </g>
     </g>
     <g id="line2d_8">
      <g>
       <use style="stroke:#000000;stroke-width:0.5;" x="263.329112" xlink:href="#mf476398ef9" y="7.2"/>
      </g>
     </g>
     <g id="text_4">
      <!-- 1.5 -->
      <g transform="translate(253.787237 237.258125)scale(0.12 -0.12)">
       <use xlink:href="#DejaVuSans-31"/>
       <use x="63.623047" xlink:href="#DejaVuSans-2e"/>
       <use x="95.410156" xlink:href="#DejaVuSans-35"/>
      </g>
     </g>
    </g>
    <g id="xtick_5">
     <g id="line2d_9">
      <g>
       <use style="stroke:#000000;stroke-width:0.5;" x="329.811271" xlink:href="#m3ed53b7b49" y="224.64"/>
      </g>
     </g>
     <g id="line2d_10">
      <g>
       <use style="stroke:#000000;stroke-width:0.5;" x="329.811271" xlink:href="#mf476398ef9" y="7.2"/>
      </g>
     </g>
     <g id="text_5">
      <!-- 2.0 -->
      <g transform="translate(320.269396 237.258125)scale(0.12 -0.12)">
       <defs>
        <path d="M 1228 531 
L 3431 531 
L 3431 0 
L 469 0 
L 469 531 
Q 828 903 1448 1529 
Q 2069 2156 2228 2338 
Q 2531 2678 2651 2914 
Q 2772 3150 2772 3378 
Q 2772 3750 2511 3984 
Q 2250 4219 1831 4219 
Q 1534 4219 1204 4116 
Q 875 4013 500 3803 
L 500 4441 
Q 881 4594 1212 4672 
Q 1544 4750 1819 4750 
Q 2544 4750 2975 4387 
Q 3406 4025 3406 3419 
Q 3406 3131 3298 2873 
Q 3191 2616 2906 2266 
Q 2828 2175 2409 1742 
Q 1991 1309 1228 531 
z
" id="DejaVuSans-32" transform="scale(0.015625)"/>
       </defs>
       <use xlink:href="#DejaVuSans-32"/>
       <use x="63.623047" xlink:href="#DejaVuSans-2e"/>
       <use x="95.410156" xlink:href="#DejaVuSans-30"/>
      </g>
     </g>
    </g>
    <g id="xtick_6">
     <g id="line2d_11">
      <defs>
       <path d="M 0 0 
L 0 -1.5 
" id="m07d800a1f8" style="stroke:#000000;stroke-width:0.5;"/>
      </defs>
      <g>
       <use style="stroke:#000000;stroke-width:0.5;" x="77.179065" xlink:href="#m07d800a1f8" y="224.64"/>
      </g>
     </g>
     <g id="line2d_12">
      <defs>
       <path d="M 0 0 
L 0 1.5 
" id="m68ab6d46b3" style="stroke:#000000;stroke-width:0.5;"/>
      </defs>
      <g>
       <use style="stroke:#000000;stroke-width:0.5;" x="77.179065" xlink:href="#m68ab6d46b3" y="7.2"/>
      </g>
     </g>
    </g>
    <g id="xtick_7">
     <g id="line2d_13">
      <g>
       <use style="stroke:#000000;stroke-width:0.5;" x="90.475497" xlink:href="#m07d800a1f8" y="224.64"/>
      </g>
     </g>
     <g id="line2d_14">
      <g>
       <use style="stroke:#000000;stroke-width:0.5;" x="90.475497" xlink:href="#m68ab6d46b3" y="7.2"/>
      </g>
     </g>
    </g>
    <g id="xtick_8">
     <g id="line2d_15">
      <g>
       <use style="stroke:#000000;stroke-width:0.5;" x="103.771929" xlink:href="#m07d800a1f8" y="224.64"/>
      </g>
     </g>
     <g id="line2d_16">
      <g>
       <use style="stroke:#000000;stroke-width:0.5;" x="103.771929" xlink:href="#m68ab6d46b3" y="7.2"/>
      </g>
     </g>
    </g>
    <g id="xtick_9">
     <g id="line2d_17">
      <g>
       <use style="stroke:#000000;stroke-width:0.5;" x="117.068361" xlink:href="#m07d800a1f8" y="224.64"/>
      </g>
     </g>
     <g id="line2d_18">
      <g>
       <use style="stroke:#000000;stroke-width:0.5;" x="117.068361" xlink:href="#m68ab6d46b3" y="7.2"/>
      </g>
     </g>
    </g>
    <g id="xtick_10">
     <g id="line2d_19">
      <g>
       <use style="stroke:#000000;stroke-width:0.5;" x="143.661224" xlink:href="#m07d800a1f8" y="224.64"/>
      </g>
     </g>
     <g id="line2d_20">
      <g>
       <use style="stroke:#000000;stroke-width:0.5;" x="143.661224" xlink:href="#m68ab6d46b3" y="7.2"/>
      </g>
     </g>
    </g>
    <g id="xtick_11">
     <g id="line2d_21">
      <g>
       <use style="stroke:#000000;stroke-width:0.5;" x="156.957656" xlink:href="#m07d800a1f8" y="224.64"/>
      </g>
     </g>
     <g id="line2d_22">
      <g>
       <use style="stroke:#000000;stroke-width:0.5;" x="156.957656" xlink:href="#m68ab6d46b3" y="7.2"/>
      </g>
     </g>
    </g>
    <g id="xtick_12">
     <g id="line2d_23">
      <g>
       <use style="stroke:#000000;stroke-width:0.5;" x="170.254088" xlink:href="#m07d800a1f8" y="224.64"/>
      </g>
     </g>
     <g id="line2d_24">
      <g>
       <use style="stroke:#000000;stroke-width:0.5;" x="170.254088" xlink:href="#m68ab6d46b3" y="7.2"/>
      </g>
     </g>
    </g>
    <g id="xtick_13">
     <g id="line2d_25">
      <g>
       <use style="stroke:#000000;stroke-width:0.5;" x="183.55052" xlink:href="#m07d800a1f8" y="224.64"/>
      </g>
     </g>
     <g id="line2d_26">
      <g>
       <use style="stroke:#000000;stroke-width:0.5;" x="183.55052" xlink:href="#m68ab6d46b3" y="7.2"/>
      </g>
     </g>
    </g>
    <g id="xtick_14">
     <g id="line2d_27">
      <g>
       <use style="stroke:#000000;stroke-width:0.5;" x="210.143384" xlink:href="#m07d800a1f8" y="224.64"/>
      </g>
     </g>
     <g id="line2d_28">
      <g>
       <use style="stroke:#000000;stroke-width:0.5;" x="210.143384" xlink:href="#m68ab6d46b3" y="7.2"/>
      </g>
     </g>
    </g>
    <g id="xtick_15">
     <g id="line2d_29">
      <g>
       <use style="stroke:#000000;stroke-width:0.5;" x="223.439816" xlink:href="#m07d800a1f8" y="224.64"/>
      </g>
     </g>
     <g id="line2d_30">
      <g>
       <use style="stroke:#000000;stroke-width:0.5;" x="223.439816" xlink:href="#m68ab6d46b3" y="7.2"/>
      </g>
     </g>
    </g>
    <g id="xtick_16">
     <g id="line2d_31">
      <g>
       <use style="stroke:#000000;stroke-width:0.5;" x="236.736248" xlink:href="#m07d800a1f8" y="224.64"/>
      </g>
     </g>
     <g id="line2d_32">
      <g>
       <use style="stroke:#000000;stroke-width:0.5;" x="236.736248" xlink:href="#m68ab6d46b3" y="7.2"/>
      </g>
     </g>
    </g>
    <g id="xtick_17">
     <g id="line2d_33">
      <g>
       <use style="stroke:#000000;stroke-width:0.5;" x="250.03268" xlink:href="#m07d800a1f8" y="224.64"/>
      </g>
     </g>
     <g id="line2d_34">
      <g>
       <use style="stroke:#000000;stroke-width:0.5;" x="250.03268" xlink:href="#m68ab6d46b3" y="7.2"/>
      </g>
     </g>
    </g>
    <g id="xtick_18">
     <g id="line2d_35">
      <g>
       <use style="stroke:#000000;stroke-width:0.5;" x="276.625543" xlink:href="#m07d800a1f8" y="224.64"/>
      </g>
     </g>
     <g id="line2d_36">
      <g>
       <use style="stroke:#000000;stroke-width:0.5;" x="276.625543" xlink:href="#m68ab6d46b3" y="7.2"/>
      </g>
     </g>
    </g>
    <g id="xtick_19">
     <g id="line2d_37">
      <g>
       <use style="stroke:#000000;stroke-width:0.5;" x="289.921975" xlink:href="#m07d800a1f8" y="224.64"/>
      </g>
     </g>
     <g id="line2d_38">
      <g>
       <use style="stroke:#000000;stroke-width:0.5;" x="289.921975" xlink:href="#m68ab6d46b3" y="7.2"/>
      </g>
     </g>
    </g>
    <g id="xtick_20">
     <g id="line2d_39">
      <g>
       <use style="stroke:#000000;stroke-width:0.5;" x="303.218407" xlink:href="#m07d800a1f8" y="224.64"/>
      </g>
     </g>
     <g id="line2d_40">
      <g>
       <use style="stroke:#000000;stroke-width:0.5;" x="303.218407" xlink:href="#m68ab6d46b3" y="7.2"/>
      </g>
     </g>
    </g>
    <g id="xtick_21">
     <g id="line2d_41">
      <g>
       <use style="stroke:#000000;stroke-width:0.5;" x="316.514839" xlink:href="#m07d800a1f8" y="224.64"/>
      </g>
     </g>
     <g id="line2d_42">
      <g>
       <use style="stroke:#000000;stroke-width:0.5;" x="316.514839" xlink:href="#m68ab6d46b3" y="7.2"/>
      </g>
     </g>
    </g>
    <g id="xtick_22">
     <g id="line2d_43">
      <g>
       <use style="stroke:#000000;stroke-width:0.5;" x="343.107703" xlink:href="#m07d800a1f8" y="224.64"/>
      </g>
     </g>
     <g id="line2d_44">
      <g>
       <use style="stroke:#000000;stroke-width:0.5;" x="343.107703" xlink:href="#m68ab6d46b3" y="7.2"/>
      </g>
     </g>
    </g>
    <g id="xtick_23">
     <g id="line2d_45">
      <g>
       <use style="stroke:#000000;stroke-width:0.5;" x="356.404135" xlink:href="#m07d800a1f8" y="224.64"/>
      </g>
     </g>
     <g id="line2d_46">
      <g>
       <use style="stroke:#000000;stroke-width:0.5;" x="356.404135" xlink:href="#m68ab6d46b3" y="7.2"/>
      </g>
     </g>
    </g>
    <g id="xtick_24">
     <g id="line2d_47">
      <g>
       <use style="stroke:#000000;stroke-width:0.5;" x="369.700567" xlink:href="#m07d800a1f8" y="224.64"/>
      </g>
     </g>
     <g id="line2d_48">
      <g>
       <use style="stroke:#000000;stroke-width:0.5;" x="369.700567" xlink:href="#m68ab6d46b3" y="7.2"/>
      </g>
     </g>
    </g>
    <g id="xtick_25">
     <g id="line2d_49">
      <g>
       <use style="stroke:#000000;stroke-width:0.5;" x="382.996999" xlink:href="#m07d800a1f8" y="224.64"/>
      </g>
     </g>
     <g id="line2d_50">
      <g>
       <use style="stroke:#000000;stroke-width:0.5;" x="382.996999" xlink:href="#m68ab6d46b3" y="7.2"/>
      </g>
     </g>
    </g>
    <g id="text_6">
     <!-- (# parameters)/$M$ -->
     <g transform="translate(169.695938 252.87375)scale(0.12 -0.12)">
      <defs>
       <path d="M 1984 4856 
Q 1566 4138 1362 3434 
Q 1159 2731 1159 2009 
Q 1159 1288 1364 580 
Q 1569 -128 1984 -844 
L 1484 -844 
Q 1016 -109 783 600 
Q 550 1309 550 2009 
Q 550 2706 781 3412 
Q 1013 4119 1484 4856 
L 1984 4856 
z
" id="DejaVuSans-28" transform="scale(0.015625)"/>
       <path d="M 3272 2816 
L 2363 2816 
L 2100 1772 
L 3016 1772 
L 3272 2816 
z
M 2803 4594 
L 2478 3297 
L 3391 3297 
L 3719 4594 
L 4219 4594 
L 3897 3297 
L 4872 3297 
L 4872 2816 
L 3775 2816 
L 3519 1772 
L 4513 1772 
L 4513 1294 
L 3397 1294 
L 3072 0 
L 2572 0 
L 2894 1294 
L 1978 1294 
L 1656 0 
L 1153 0 
L 1478 1294 
L 494 1294 
L 494 1772 
L 1594 1772 
L 1856 2816 
L 850 2816 
L 850 3297 
L 1978 3297 
L 2297 4594 
L 2803 4594 
z
" id="DejaVuSans-23" transform="scale(0.015625)"/>
       <path id="DejaVuSans-20" transform="scale(0.015625)"/>
       <path d="M 1159 525 
L 1159 -1331 
L 581 -1331 
L 581 3500 
L 1159 3500 
L 1159 2969 
Q 1341 3281 1617 3432 
Q 1894 3584 2278 3584 
Q 2916 3584 3314 3078 
Q 3713 2572 3713 1747 
Q 3713 922 3314 415 
Q 2916 -91 2278 -91 
Q 1894 -91 1617 61 
Q 1341 213 1159 525 
z
M 3116 1747 
Q 3116 2381 2855 2742 
Q 2594 3103 2138 3103 
Q 1681 3103 1420 2742 
Q 1159 2381 1159 1747 
Q 1159 1113 1420 752 
Q 1681 391 2138 391 
Q 2594 391 2855 752 
Q 3116 1113 3116 1747 
z
" id="DejaVuSans-70" transform="scale(0.015625)"/>
       <path d="M 2194 1759 
Q 1497 1759 1228 1600 
Q 959 1441 959 1056 
Q 959 750 1161 570 
Q 1363 391 1709 391 
Q 2188 391 2477 730 
Q 2766 1069 2766 1631 
L 2766 1759 
L 2194 1759 
z
M 3341 1997 
L 3341 0 
L 2766 0 
L 2766 531 
Q 2569 213 2275 61 
Q 1981 -91 1556 -91 
Q 1019 -91 701 211 
Q 384 513 384 1019 
Q 384 1609 779 1909 
Q 1175 2209 1959 2209 
L 2766 2209 
L 2766 2266 
Q 2766 2663 2505 2880 
Q 2244 3097 1772 3097 
Q 1472 3097 1187 3025 
Q 903 2953 641 2809 
L 641 3341 
Q 956 3463 1253 3523 
Q 1550 3584 1831 3584 
Q 2591 3584 2966 3190 
Q 3341 2797 3341 1997 
z
" id="DejaVuSans-61" transform="scale(0.015625)"/>
       <path d="M 2631 2963 
Q 2534 3019 2420 3045 
Q 2306 3072 2169 3072 
Q 1681 3072 1420 2755 
Q 1159 2438 1159 1844 
L 1159 0 
L 581 0 
L 581 3500 
L 1159 3500 
L 1159 2956 
Q 1341 3275 1631 3429 
Q 1922 3584 2338 3584 
Q 2397 3584 2469 3576 
Q 2541 3569 2628 3553 
L 2631 2963 
z
" id="DejaVuSans-72" transform="scale(0.015625)"/>
       <path d="M 3328 2828 
Q 3544 3216 3844 3400 
Q 4144 3584 4550 3584 
Q 5097 3584 5394 3201 
Q 5691 2819 5691 2113 
L 5691 0 
L 5113 0 
L 5113 2094 
Q 5113 2597 4934 2840 
Q 4756 3084 4391 3084 
Q 3944 3084 3684 2787 
Q 3425 2491 3425 1978 
L 3425 0 
L 2847 0 
L 2847 2094 
Q 2847 2600 2669 2842 
Q 2491 3084 2119 3084 
Q 1678 3084 1418 2786 
Q 1159 2488 1159 1978 
L 1159 0 
L 581 0 
L 581 3500 
L 1159 3500 
L 1159 2956 
Q 1356 3278 1631 3431 
Q 1906 3584 2284 3584 
Q 2666 3584 2933 3390 
Q 3200 3197 3328 2828 
z
" id="DejaVuSans-6d" transform="scale(0.015625)"/>
       <path d="M 3597 1894 
L 3597 1613 
L 953 1613 
Q 991 1019 1311 708 
Q 1631 397 2203 397 
Q 2534 397 2845 478 
Q 3156 559 3463 722 
L 3463 178 
Q 3153 47 2828 -22 
Q 2503 -91 2169 -91 
Q 1331 -91 842 396 
Q 353 884 353 1716 
Q 353 2575 817 3079 
Q 1281 3584 2069 3584 
Q 2775 3584 3186 3129 
Q 3597 2675 3597 1894 
z
M 3022 2063 
Q 3016 2534 2758 2815 
Q 2500 3097 2075 3097 
Q 1594 3097 1305 2825 
Q 1016 2553 972 2059 
L 3022 2063 
z
" id="DejaVuSans-65" transform="scale(0.015625)"/>
       <path d="M 1172 4494 
L 1172 3500 
L 2356 3500 
L 2356 3053 
L 1172 3053 
L 1172 1153 
Q 1172 725 1289 603 
Q 1406 481 1766 481 
L 2356 481 
L 2356 0 
L 1766 0 
Q 1100 0 847 248 
Q 594 497 594 1153 
L 594 3053 
L 172 3053 
L 172 3500 
L 594 3500 
L 594 4494 
L 1172 4494 
z
" id="DejaVuSans-74" transform="scale(0.015625)"/>
       <path d="M 2834 3397 
L 2834 2853 
Q 2591 2978 2328 3040 
Q 2066 3103 1784 3103 
Q 1356 3103 1142 2972 
Q 928 2841 928 2578 
Q 928 2378 1081 2264 
Q 1234 2150 1697 2047 
L 1894 2003 
Q 2506 1872 2764 1633 
Q 3022 1394 3022 966 
Q 3022 478 2636 193 
Q 2250 -91 1575 -91 
Q 1294 -91 989 -36 
Q 684 19 347 128 
L 347 722 
Q 666 556 975 473 
Q 1284 391 1588 391 
Q 1994 391 2212 530 
Q 2431 669 2431 922 
Q 2431 1156 2273 1281 
Q 2116 1406 1581 1522 
L 1381 1569 
Q 847 1681 609 1914 
Q 372 2147 372 2553 
Q 372 3047 722 3315 
Q 1072 3584 1716 3584 
Q 2034 3584 2315 3537 
Q 2597 3491 2834 3397 
z
" id="DejaVuSans-73" transform="scale(0.015625)"/>
       <path d="M 513 4856 
L 1013 4856 
Q 1481 4119 1714 3412 
Q 1947 2706 1947 2009 
Q 1947 1309 1714 600 
Q 1481 -109 1013 -844 
L 513 -844 
Q 928 -128 1133 580 
Q 1338 1288 1338 2009 
Q 1338 2731 1133 3434 
Q 928 4138 513 4856 
z
" id="DejaVuSans-29" transform="scale(0.015625)"/>
       <path d="M 1625 4666 
L 2156 4666 
L 531 -594 
L 0 -594 
L 1625 4666 
z
" id="DejaVuSans-2f" transform="scale(0.015625)"/>
       <path d="M 1081 4666 
L 2028 4666 
L 2572 1522 
L 4378 4666 
L 5350 4666 
L 4441 0 
L 3828 0 
L 4622 4091 
L 2791 897 
L 2175 897 
L 1581 4103 
L 788 0 
L 172 0 
L 1081 4666 
z
" id="DejaVuSans-Oblique-4d" transform="scale(0.015625)"/>
      </defs>
      <use transform="translate(0 0.125)" xlink:href="#DejaVuSans-28"/>
      <use transform="translate(39.013672 0.125)" xlink:href="#DejaVuSans-23"/>
      <use transform="translate(122.802734 0.125)" xlink:href="#DejaVuSans-20"/>
      <use transform="translate(154.589844 0.125)" xlink:href="#DejaVuSans-70"/>
      <use transform="translate(218.066406 0.125)" xlink:href="#DejaVuSans-61"/>
      <use transform="translate(279.345703 0.125)" xlink:href="#DejaVuSans-72"/>
      <use transform="translate(320.458984 0.125)" xlink:href="#DejaVuSans-61"/>
      <use transform="translate(381.738281 0.125)" xlink:href="#DejaVuSans-6d"/>
      <use transform="translate(479.150391 0.125)" xlink:href="#DejaVuSans-65"/>
      <use transform="translate(540.673828 0.125)" xlink:href="#DejaVuSans-74"/>
      <use transform="translate(579.882812 0.125)" xlink:href="#DejaVuSans-65"/>
      <use transform="translate(641.40625 0.125)" xlink:href="#DejaVuSans-72"/>
      <use transform="translate(682.519531 0.125)" xlink:href="#DejaVuSans-73"/>
      <use transform="translate(734.619141 0.125)" xlink:href="#DejaVuSans-29"/>
      <use transform="translate(773.632812 0.125)" xlink:href="#DejaVuSans-2f"/>
      <use transform="translate(807.324219 0.125)" xlink:href="#DejaVuSans-Oblique-4d"/>
     </g>
    </g>
   </g>
   <g id="matplotlib.axis_2">
    <g id="ytick_1">
     <g id="line2d_51">
      <defs>
       <path d="M 0 0 
L 3 0 
" id="m411cdac0a1" style="stroke:#000000;stroke-width:0.5;"/>
      </defs>
      <g>
       <use style="stroke:#000000;stroke-width:0.5;" x="55.935938" xlink:href="#m411cdac0a1" y="216.582758"/>
      </g>
     </g>
     <g id="line2d_52">
      <defs>
       <path d="M 0 0 
L -3 0 
" id="me075f5e0b9" style="stroke:#000000;stroke-width:0.5;"/>
      </defs>
      <g>
       <use style="stroke:#000000;stroke-width:0.5;" x="390.735938" xlink:href="#me075f5e0b9" y="216.582758"/>
      </g>
     </g>
     <g id="text_7">
      <!-- 0.00 -->
      <g transform="translate(25.717188 221.14182)scale(0.12 -0.12)">
       <use xlink:href="#DejaVuSans-30"/>
       <use x="63.623047" xlink:href="#DejaVuSans-2e"/>
       <use x="95.410156" xlink:href="#DejaVuSans-30"/>
       <use x="159.033203" xlink:href="#DejaVuSans-30"/>
      </g>
     </g>
    </g>
    <g id="ytick_2">
     <g id="line2d_53">
      <g>
       <use style="stroke:#000000;stroke-width:0.5;" x="55.935938" xlink:href="#m411cdac0a1" y="185.955725"/>
      </g>
     </g>
     <g id="line2d_54">
      <g>
       <use style="stroke:#000000;stroke-width:0.5;" x="390.735938" xlink:href="#me075f5e0b9" y="185.955725"/>
      </g>
     </g>
     <g id="text_8">
      <!-- 0.01 -->
      <g transform="translate(25.717188 190.514787)scale(0.12 -0.12)">
       <use xlink:href="#DejaVuSans-30"/>
       <use x="63.623047" xlink:href="#DejaVuSans-2e"/>
       <use x="95.410156" xlink:href="#DejaVuSans-30"/>
       <use x="159.033203" xlink:href="#DejaVuSans-31"/>
      </g>
     </g>
    </g>
    <g id="ytick_3">
     <g id="line2d_55">
      <g>
       <use style="stroke:#000000;stroke-width:0.5;" x="55.935938" xlink:href="#m411cdac0a1" y="155.328692"/>
      </g>
     </g>
     <g id="line2d_56">
      <g>
       <use style="stroke:#000000;stroke-width:0.5;" x="390.735938" xlink:href="#me075f5e0b9" y="155.328692"/>
      </g>
     </g>
     <g id="text_9">
      <!-- 0.02 -->
      <g transform="translate(25.717188 159.887754)scale(0.12 -0.12)">
       <use xlink:href="#DejaVuSans-30"/>
       <use x="63.623047" xlink:href="#DejaVuSans-2e"/>
       <use x="95.410156" xlink:href="#DejaVuSans-30"/>
       <use x="159.033203" xlink:href="#DejaVuSans-32"/>
      </g>
     </g>
    </g>
    <g id="ytick_4">
     <g id="line2d_57">
      <g>
       <use style="stroke:#000000;stroke-width:0.5;" x="55.935938" xlink:href="#m411cdac0a1" y="124.701659"/>
      </g>
     </g>
     <g id="line2d_58">
      <g>
       <use style="stroke:#000000;stroke-width:0.5;" x="390.735938" xlink:href="#me075f5e0b9" y="124.701659"/>
      </g>
     </g>
     <g id="text_10">
      <!-- 0.03 -->
      <g transform="translate(25.717188 129.260721)scale(0.12 -0.12)">
       <defs>
        <path d="M 2597 2516 
Q 3050 2419 3304 2112 
Q 3559 1806 3559 1356 
Q 3559 666 3084 287 
Q 2609 -91 1734 -91 
Q 1441 -91 1130 -33 
Q 819 25 488 141 
L 488 750 
Q 750 597 1062 519 
Q 1375 441 1716 441 
Q 2309 441 2620 675 
Q 2931 909 2931 1356 
Q 2931 1769 2642 2001 
Q 2353 2234 1838 2234 
L 1294 2234 
L 1294 2753 
L 1863 2753 
Q 2328 2753 2575 2939 
Q 2822 3125 2822 3475 
Q 2822 3834 2567 4026 
Q 2313 4219 1838 4219 
Q 1578 4219 1281 4162 
Q 984 4106 628 3988 
L 628 4550 
Q 988 4650 1302 4700 
Q 1616 4750 1894 4750 
Q 2613 4750 3031 4423 
Q 3450 4097 3450 3541 
Q 3450 3153 3228 2886 
Q 3006 2619 2597 2516 
z
" id="DejaVuSans-33" transform="scale(0.015625)"/>
       </defs>
       <use xlink:href="#DejaVuSans-30"/>
       <use x="63.623047" xlink:href="#DejaVuSans-2e"/>
       <use x="95.410156" xlink:href="#DejaVuSans-30"/>
       <use x="159.033203" xlink:href="#DejaVuSans-33"/>
      </g>
     </g>
    </g>
    <g id="ytick_5">
     <g id="line2d_59">
      <g>
       <use style="stroke:#000000;stroke-width:0.5;" x="55.935938" xlink:href="#m411cdac0a1" y="94.074626"/>
      </g>
     </g>
     <g id="line2d_60">
      <g>
       <use style="stroke:#000000;stroke-width:0.5;" x="390.735938" xlink:href="#me075f5e0b9" y="94.074626"/>
      </g>
     </g>
     <g id="text_11">
      <!-- 0.04 -->
      <g transform="translate(25.717188 98.633688)scale(0.12 -0.12)">
       <defs>
        <path d="M 2419 4116 
L 825 1625 
L 2419 1625 
L 2419 4116 
z
M 2253 4666 
L 3047 4666 
L 3047 1625 
L 3713 1625 
L 3713 1100 
L 3047 1100 
L 3047 0 
L 2419 0 
L 2419 1100 
L 313 1100 
L 313 1709 
L 2253 4666 
z
" id="DejaVuSans-34" transform="scale(0.015625)"/>
       </defs>
       <use xlink:href="#DejaVuSans-30"/>
       <use x="63.623047" xlink:href="#DejaVuSans-2e"/>
       <use x="95.410156" xlink:href="#DejaVuSans-30"/>
       <use x="159.033203" xlink:href="#DejaVuSans-34"/>
      </g>
     </g>
    </g>
    <g id="ytick_6">
     <g id="line2d_61">
      <g>
       <use style="stroke:#000000;stroke-width:0.5;" x="55.935938" xlink:href="#m411cdac0a1" y="63.447593"/>
      </g>
     </g>
     <g id="line2d_62">
      <g>
       <use style="stroke:#000000;stroke-width:0.5;" x="390.735938" xlink:href="#me075f5e0b9" y="63.447593"/>
      </g>
     </g>
     <g id="text_12">
      <!-- 0.05 -->
      <g transform="translate(25.717188 68.006655)scale(0.12 -0.12)">
       <use xlink:href="#DejaVuSans-30"/>
       <use x="63.623047" xlink:href="#DejaVuSans-2e"/>
       <use x="95.410156" xlink:href="#DejaVuSans-30"/>
       <use x="159.033203" xlink:href="#DejaVuSans-35"/>
      </g>
     </g>
    </g>
    <g id="ytick_7">
     <g id="line2d_63">
      <g>
       <use style="stroke:#000000;stroke-width:0.5;" x="55.935938" xlink:href="#m411cdac0a1" y="32.82056"/>
      </g>
     </g>
     <g id="line2d_64">
      <g>
       <use style="stroke:#000000;stroke-width:0.5;" x="390.735938" xlink:href="#me075f5e0b9" y="32.82056"/>
      </g>
     </g>
     <g id="text_13">
      <!-- 0.06 -->
      <g transform="translate(25.717188 37.379622)scale(0.12 -0.12)">
       <defs>
        <path d="M 2113 2584 
Q 1688 2584 1439 2293 
Q 1191 2003 1191 1497 
Q 1191 994 1439 701 
Q 1688 409 2113 409 
Q 2538 409 2786 701 
Q 3034 994 3034 1497 
Q 3034 2003 2786 2293 
Q 2538 2584 2113 2584 
z
M 3366 4563 
L 3366 3988 
Q 3128 4100 2886 4159 
Q 2644 4219 2406 4219 
Q 1781 4219 1451 3797 
Q 1122 3375 1075 2522 
Q 1259 2794 1537 2939 
Q 1816 3084 2150 3084 
Q 2853 3084 3261 2657 
Q 3669 2231 3669 1497 
Q 3669 778 3244 343 
Q 2819 -91 2113 -91 
Q 1303 -91 875 529 
Q 447 1150 447 2328 
Q 447 3434 972 4092 
Q 1497 4750 2381 4750 
Q 2619 4750 2861 4703 
Q 3103 4656 3366 4563 
z
" id="DejaVuSans-36" transform="scale(0.015625)"/>
       </defs>
       <use xlink:href="#DejaVuSans-30"/>
       <use x="63.623047" xlink:href="#DejaVuSans-2e"/>
       <use x="95.410156" xlink:href="#DejaVuSans-30"/>
       <use x="159.033203" xlink:href="#DejaVuSans-36"/>
      </g>
     </g>
    </g>
    <g id="ytick_8">
     <g id="line2d_65">
      <defs>
       <path d="M 0 0 
L 1.5 0 
" id="mb94dd7c434" style="stroke:#000000;stroke-width:0.5;"/>
      </defs>
      <g>
       <use style="stroke:#000000;stroke-width:0.5;" x="55.935938" xlink:href="#mb94dd7c434" y="222.708165"/>
      </g>
     </g>
     <g id="line2d_66">
      <defs>
       <path d="M 0 0 
L -1.5 0 
" id="m2f368fb68e" style="stroke:#000000;stroke-width:0.5;"/>
      </defs>
      <g>
       <use style="stroke:#000000;stroke-width:0.5;" x="390.735938" xlink:href="#m2f368fb68e" y="222.708165"/>
      </g>
     </g>
    </g>
    <g id="ytick_9">
     <g id="line2d_67">
      <g>
       <use style="stroke:#000000;stroke-width:0.5;" x="55.935938" xlink:href="#mb94dd7c434" y="210.457351"/>
      </g>
     </g>
     <g id="line2d_68">
      <g>
       <use style="stroke:#000000;stroke-width:0.5;" x="390.735938" xlink:href="#m2f368fb68e" y="210.457351"/>
      </g>
     </g>
    </g>
    <g id="ytick_10">
     <g id="line2d_69">
      <g>
       <use style="stroke:#000000;stroke-width:0.5;" x="55.935938" xlink:href="#mb94dd7c434" y="204.331945"/>
      </g>
     </g>
     <g id="line2d_70">
      <g>
       <use style="stroke:#000000;stroke-width:0.5;" x="390.735938" xlink:href="#m2f368fb68e" y="204.331945"/>
      </g>
     </g>
    </g>
    <g id="ytick_11">
     <g id="line2d_71">
      <g>
       <use style="stroke:#000000;stroke-width:0.5;" x="55.935938" xlink:href="#mb94dd7c434" y="198.206538"/>
      </g>
     </g>
     <g id="line2d_72">
      <g>
       <use style="stroke:#000000;stroke-width:0.5;" x="390.735938" xlink:href="#m2f368fb68e" y="198.206538"/>
      </g>
     </g>
    </g>
    <g id="ytick_12">
     <g id="line2d_73">
      <g>
       <use style="stroke:#000000;stroke-width:0.5;" x="55.935938" xlink:href="#mb94dd7c434" y="192.081132"/>
      </g>
     </g>
     <g id="line2d_74">
      <g>
       <use style="stroke:#000000;stroke-width:0.5;" x="390.735938" xlink:href="#m2f368fb68e" y="192.081132"/>
      </g>
     </g>
    </g>
    <g id="ytick_13">
     <g id="line2d_75">
      <g>
       <use style="stroke:#000000;stroke-width:0.5;" x="55.935938" xlink:href="#mb94dd7c434" y="179.830318"/>
      </g>
     </g>
     <g id="line2d_76">
      <g>
       <use style="stroke:#000000;stroke-width:0.5;" x="390.735938" xlink:href="#m2f368fb68e" y="179.830318"/>
      </g>
     </g>
    </g>
    <g id="ytick_14">
     <g id="line2d_77">
      <g>
       <use style="stroke:#000000;stroke-width:0.5;" x="55.935938" xlink:href="#mb94dd7c434" y="173.704912"/>
      </g>
     </g>
     <g id="line2d_78">
      <g>
       <use style="stroke:#000000;stroke-width:0.5;" x="390.735938" xlink:href="#m2f368fb68e" y="173.704912"/>
      </g>
     </g>
    </g>
    <g id="ytick_15">
     <g id="line2d_79">
      <g>
       <use style="stroke:#000000;stroke-width:0.5;" x="55.935938" xlink:href="#mb94dd7c434" y="167.579505"/>
      </g>
     </g>
     <g id="line2d_80">
      <g>
       <use style="stroke:#000000;stroke-width:0.5;" x="390.735938" xlink:href="#m2f368fb68e" y="167.579505"/>
      </g>
     </g>
    </g>
    <g id="ytick_16">
     <g id="line2d_81">
      <g>
       <use style="stroke:#000000;stroke-width:0.5;" x="55.935938" xlink:href="#mb94dd7c434" y="161.454098"/>
      </g>
     </g>
     <g id="line2d_82">
      <g>
       <use style="stroke:#000000;stroke-width:0.5;" x="390.735938" xlink:href="#m2f368fb68e" y="161.454098"/>
      </g>
     </g>
    </g>
    <g id="ytick_17">
     <g id="line2d_83">
      <g>
       <use style="stroke:#000000;stroke-width:0.5;" x="55.935938" xlink:href="#mb94dd7c434" y="149.203285"/>
      </g>
     </g>
     <g id="line2d_84">
      <g>
       <use style="stroke:#000000;stroke-width:0.5;" x="390.735938" xlink:href="#m2f368fb68e" y="149.203285"/>
      </g>
     </g>
    </g>
    <g id="ytick_18">
     <g id="line2d_85">
      <g>
       <use style="stroke:#000000;stroke-width:0.5;" x="55.935938" xlink:href="#mb94dd7c434" y="143.077879"/>
      </g>
     </g>
     <g id="line2d_86">
      <g>
       <use style="stroke:#000000;stroke-width:0.5;" x="390.735938" xlink:href="#m2f368fb68e" y="143.077879"/>
      </g>
     </g>
    </g>
    <g id="ytick_19">
     <g id="line2d_87">
      <g>
       <use style="stroke:#000000;stroke-width:0.5;" x="55.935938" xlink:href="#mb94dd7c434" y="136.952472"/>
      </g>
     </g>
     <g id="line2d_88">
      <g>
       <use style="stroke:#000000;stroke-width:0.5;" x="390.735938" xlink:href="#m2f368fb68e" y="136.952472"/>
      </g>
     </g>
    </g>
    <g id="ytick_20">
     <g id="line2d_89">
      <g>
       <use style="stroke:#000000;stroke-width:0.5;" x="55.935938" xlink:href="#mb94dd7c434" y="130.827065"/>
      </g>
     </g>
     <g id="line2d_90">
      <g>
       <use style="stroke:#000000;stroke-width:0.5;" x="390.735938" xlink:href="#m2f368fb68e" y="130.827065"/>
      </g>
     </g>
    </g>
    <g id="ytick_21">
     <g id="line2d_91">
      <g>
       <use style="stroke:#000000;stroke-width:0.5;" x="55.935938" xlink:href="#mb94dd7c434" y="118.576252"/>
      </g>
     </g>
     <g id="line2d_92">
      <g>
       <use style="stroke:#000000;stroke-width:0.5;" x="390.735938" xlink:href="#m2f368fb68e" y="118.576252"/>
      </g>
     </g>
    </g>
    <g id="ytick_22">
     <g id="line2d_93">
      <g>
       <use style="stroke:#000000;stroke-width:0.5;" x="55.935938" xlink:href="#mb94dd7c434" y="112.450846"/>
      </g>
     </g>
     <g id="line2d_94">
      <g>
       <use style="stroke:#000000;stroke-width:0.5;" x="390.735938" xlink:href="#m2f368fb68e" y="112.450846"/>
      </g>
     </g>
    </g>
    <g id="ytick_23">
     <g id="line2d_95">
      <g>
       <use style="stroke:#000000;stroke-width:0.5;" x="55.935938" xlink:href="#mb94dd7c434" y="106.325439"/>
      </g>
     </g>
     <g id="line2d_96">
      <g>
       <use style="stroke:#000000;stroke-width:0.5;" x="390.735938" xlink:href="#m2f368fb68e" y="106.325439"/>
      </g>
     </g>
    </g>
    <g id="ytick_24">
     <g id="line2d_97">
      <g>
       <use style="stroke:#000000;stroke-width:0.5;" x="55.935938" xlink:href="#mb94dd7c434" y="100.200032"/>
      </g>
     </g>
     <g id="line2d_98">
      <g>
       <use style="stroke:#000000;stroke-width:0.5;" x="390.735938" xlink:href="#m2f368fb68e" y="100.200032"/>
      </g>
     </g>
    </g>
    <g id="ytick_25">
     <g id="line2d_99">
      <g>
       <use style="stroke:#000000;stroke-width:0.5;" x="55.935938" xlink:href="#mb94dd7c434" y="87.949219"/>
      </g>
     </g>
     <g id="line2d_100">
      <g>
       <use style="stroke:#000000;stroke-width:0.5;" x="390.735938" xlink:href="#m2f368fb68e" y="87.949219"/>
      </g>
     </g>
    </g>
    <g id="ytick_26">
     <g id="line2d_101">
      <g>
       <use style="stroke:#000000;stroke-width:0.5;" x="55.935938" xlink:href="#mb94dd7c434" y="81.823812"/>
      </g>
     </g>
     <g id="line2d_102">
      <g>
       <use style="stroke:#000000;stroke-width:0.5;" x="390.735938" xlink:href="#m2f368fb68e" y="81.823812"/>
      </g>
     </g>
    </g>
    <g id="ytick_27">
     <g id="line2d_103">
      <g>
       <use style="stroke:#000000;stroke-width:0.5;" x="55.935938" xlink:href="#mb94dd7c434" y="75.698406"/>
      </g>
     </g>
     <g id="line2d_104">
      <g>
       <use style="stroke:#000000;stroke-width:0.5;" x="390.735938" xlink:href="#m2f368fb68e" y="75.698406"/>
      </g>
     </g>
    </g>
    <g id="ytick_28">
     <g id="line2d_105">
      <g>
       <use style="stroke:#000000;stroke-width:0.5;" x="55.935938" xlink:href="#mb94dd7c434" y="69.572999"/>
      </g>
     </g>
     <g id="line2d_106">
      <g>
       <use style="stroke:#000000;stroke-width:0.5;" x="390.735938" xlink:href="#m2f368fb68e" y="69.572999"/>
      </g>
     </g>
    </g>
    <g id="ytick_29">
     <g id="line2d_107">
      <g>
       <use style="stroke:#000000;stroke-width:0.5;" x="55.935938" xlink:href="#mb94dd7c434" y="57.322186"/>
      </g>
     </g>
     <g id="line2d_108">
      <g>
       <use style="stroke:#000000;stroke-width:0.5;" x="390.735938" xlink:href="#m2f368fb68e" y="57.322186"/>
      </g>
     </g>
    </g>
    <g id="ytick_30">
     <g id="line2d_109">
      <g>
       <use style="stroke:#000000;stroke-width:0.5;" x="55.935938" xlink:href="#mb94dd7c434" y="51.196779"/>
      </g>
     </g>
     <g id="line2d_110">
      <g>
       <use style="stroke:#000000;stroke-width:0.5;" x="390.735938" xlink:href="#m2f368fb68e" y="51.196779"/>
      </g>
     </g>
    </g>
    <g id="ytick_31">
     <g id="line2d_111">
      <g>
       <use style="stroke:#000000;stroke-width:0.5;" x="55.935938" xlink:href="#mb94dd7c434" y="45.071373"/>
      </g>
     </g>
     <g id="line2d_112">
      <g>
       <use style="stroke:#000000;stroke-width:0.5;" x="390.735938" xlink:href="#m2f368fb68e" y="45.071373"/>
      </g>
     </g>
    </g>
    <g id="ytick_32">
     <g id="line2d_113">
      <g>
       <use style="stroke:#000000;stroke-width:0.5;" x="55.935938" xlink:href="#mb94dd7c434" y="38.945966"/>
      </g>
     </g>
     <g id="line2d_114">
      <g>
       <use style="stroke:#000000;stroke-width:0.5;" x="390.735938" xlink:href="#m2f368fb68e" y="38.945966"/>
      </g>
     </g>
    </g>
    <g id="ytick_33">
     <g id="line2d_115">
      <g>
       <use style="stroke:#000000;stroke-width:0.5;" x="55.935938" xlink:href="#mb94dd7c434" y="26.695153"/>
      </g>
     </g>
     <g id="line2d_116">
      <g>
       <use style="stroke:#000000;stroke-width:0.5;" x="390.735938" xlink:href="#m2f368fb68e" y="26.695153"/>
      </g>
     </g>
    </g>
    <g id="ytick_34">
     <g id="line2d_117">
      <g>
       <use style="stroke:#000000;stroke-width:0.5;" x="55.935938" xlink:href="#mb94dd7c434" y="20.569746"/>
      </g>
     </g>
     <g id="line2d_118">
      <g>
       <use style="stroke:#000000;stroke-width:0.5;" x="390.735938" xlink:href="#m2f368fb68e" y="20.569746"/>
      </g>
     </g>
    </g>
    <g id="ytick_35">
     <g id="line2d_119">
      <g>
       <use style="stroke:#000000;stroke-width:0.5;" x="55.935938" xlink:href="#mb94dd7c434" y="14.44434"/>
      </g>
     </g>
     <g id="line2d_120">
      <g>
       <use style="stroke:#000000;stroke-width:0.5;" x="390.735938" xlink:href="#m2f368fb68e" y="14.44434"/>
      </g>
     </g>
    </g>
    <g id="ytick_36">
     <g id="line2d_121">
      <g>
       <use style="stroke:#000000;stroke-width:0.5;" x="55.935938" xlink:href="#mb94dd7c434" y="8.318933"/>
      </g>
     </g>
     <g id="line2d_122">
      <g>
       <use style="stroke:#000000;stroke-width:0.5;" x="390.735938" xlink:href="#m2f368fb68e" y="8.318933"/>
      </g>
     </g>
    </g>
    <g id="text_14">
     <!-- $\Delta$ -->
     <g transform="translate(18.597656 121.095)rotate(-90)scale(0.15 -0.15)">
      <defs>
       <path d="M 2188 4044 
L 906 525 
L 3472 525 
L 2188 4044 
z
M 50 0 
L 1831 4666 
L 2547 4666 
L 4325 0 
L 50 0 
z
" id="DejaVuSans-394" transform="scale(0.015625)"/>
      </defs>
      <use transform="translate(0 0.09375)" xlink:href="#DejaVuSans-394"/>
     </g>
    </g>
   </g>
   <g id="line2d_123">
    <path clip-path="url(#p0ac56c0a67)" d="M 84.658308 158.946015 
L 126.209658 203.540615 
L 167.761007 208.954045 
L 209.312357 211.860152 
L 250.863707 212.178411 
L 292.415056 211.722602 
L 333.966406 212.390919 
L 375.517756 214.756364 
" style="fill:none;stroke:#d81b60;stroke-linecap:square;stroke-width:1.5;"/>
    <defs>
     <path d="M -5 5 
L 5 5 
L 5 -5 
L -5 -5 
z
" id="ma5dc74bc8f" style="stroke:#d81b60;stroke-linejoin:miter;"/>
    </defs>
    <g clip-path="url(#p0ac56c0a67)">
     <use style="fill:#d81b60;stroke:#d81b60;stroke-linejoin:miter;" x="84.658308" xlink:href="#ma5dc74bc8f" y="158.946015"/>
     <use style="fill:#d81b60;stroke:#d81b60;stroke-linejoin:miter;" x="126.209658" xlink:href="#ma5dc74bc8f" y="203.540615"/>
     <use style="fill:#d81b60;stroke:#d81b60;stroke-linejoin:miter;" x="167.761007" xlink:href="#ma5dc74bc8f" y="208.954045"/>
     <use style="fill:#d81b60;stroke:#d81b60;stroke-linejoin:miter;" x="209.312357" xlink:href="#ma5dc74bc8f" y="211.860152"/>
     <use style="fill:#d81b60;stroke:#d81b60;stroke-linejoin:miter;" x="250.863707" xlink:href="#ma5dc74bc8f" y="212.178411"/>
     <use style="fill:#d81b60;stroke:#d81b60;stroke-linejoin:miter;" x="292.415056" xlink:href="#ma5dc74bc8f" y="211.722602"/>
     <use style="fill:#d81b60;stroke:#d81b60;stroke-linejoin:miter;" x="333.966406" xlink:href="#ma5dc74bc8f" y="212.390919"/>
     <use style="fill:#d81b60;stroke:#d81b60;stroke-linejoin:miter;" x="375.517756" xlink:href="#ma5dc74bc8f" y="214.756364"/>
    </g>
   </g>
   <g id="line2d_124">
    <path clip-path="url(#p0ac56c0a67)" d="M 76.348038 17.083636 
L 101.278848 148.584354 
L 126.209658 202.76932 
L 151.140467 200.241704 
L 176.071277 207.450832 
L 201.002087 207.506264 
L 225.932897 211.01764 
L 250.863707 195.121276 
" style="fill:none;stroke:#1e88e5;stroke-linecap:square;stroke-width:1.5;"/>
    <defs>
     <path d="M 0 -5 
L -5 5 
L 5 5 
z
" id="md516130b6f" style="stroke:#1e88e5;stroke-linejoin:miter;"/>
    </defs>
    <g clip-path="url(#p0ac56c0a67)">
     <use style="fill:#1e88e5;stroke:#1e88e5;stroke-linejoin:miter;" x="76.348038" xlink:href="#md516130b6f" y="17.083636"/>
     <use style="fill:#1e88e5;stroke:#1e88e5;stroke-linejoin:miter;" x="101.278848" xlink:href="#md516130b6f" y="148.584354"/>
     <use style="fill:#1e88e5;stroke:#1e88e5;stroke-linejoin:miter;" x="126.209658" xlink:href="#md516130b6f" y="202.76932"/>
     <use style="fill:#1e88e5;stroke:#1e88e5;stroke-linejoin:miter;" x="151.140467" xlink:href="#md516130b6f" y="200.241704"/>
     <use style="fill:#1e88e5;stroke:#1e88e5;stroke-linejoin:miter;" x="176.071277" xlink:href="#md516130b6f" y="207.450832"/>
     <use style="fill:#1e88e5;stroke:#1e88e5;stroke-linejoin:miter;" x="201.002087" xlink:href="#md516130b6f" y="207.506264"/>
     <use style="fill:#1e88e5;stroke:#1e88e5;stroke-linejoin:miter;" x="225.932897" xlink:href="#md516130b6f" y="211.01764"/>
     <use style="fill:#1e88e5;stroke:#1e88e5;stroke-linejoin:miter;" x="250.863707" xlink:href="#md516130b6f" y="195.121276"/>
    </g>
   </g>
   <g id="line2d_125">
    <path clip-path="url(#p0ac56c0a67)" d="M 71.154119 66.23893 
L 85.697092 139.296514 
L 100.240064 157.767671 
L 114.783036 173.265785 
L 129.326009 178.054483 
L 143.868981 191.623239 
L 158.411954 200.021729 
L 172.954926 198.008881 
" style="fill:none;stroke:#ffc107;stroke-linecap:square;stroke-width:1.5;"/>
    <defs>
     <path d="M -0 7.071068 
L 4.242641 0 
L -0 -7.071068 
L -4.242641 -0 
z
" id="mb5662b3a4a" style="stroke:#ffc107;stroke-linejoin:miter;"/>
    </defs>
    <g clip-path="url(#p0ac56c0a67)">
     <use style="fill:#ffc107;stroke:#ffc107;stroke-linejoin:miter;" x="71.154119" xlink:href="#mb5662b3a4a" y="66.23893"/>
     <use style="fill:#ffc107;stroke:#ffc107;stroke-linejoin:miter;" x="85.697092" xlink:href="#mb5662b3a4a" y="139.296514"/>
     <use style="fill:#ffc107;stroke:#ffc107;stroke-linejoin:miter;" x="100.240064" xlink:href="#mb5662b3a4a" y="157.767671"/>
     <use style="fill:#ffc107;stroke:#ffc107;stroke-linejoin:miter;" x="114.783036" xlink:href="#mb5662b3a4a" y="173.265785"/>
     <use style="fill:#ffc107;stroke:#ffc107;stroke-linejoin:miter;" x="129.326009" xlink:href="#mb5662b3a4a" y="178.054483"/>
     <use style="fill:#ffc107;stroke:#ffc107;stroke-linejoin:miter;" x="143.868981" xlink:href="#mb5662b3a4a" y="191.623239"/>
     <use style="fill:#ffc107;stroke:#ffc107;stroke-linejoin:miter;" x="158.411954" xlink:href="#mb5662b3a4a" y="200.021729"/>
     <use style="fill:#ffc107;stroke:#ffc107;stroke-linejoin:miter;" x="172.954926" xlink:href="#mb5662b3a4a" y="198.008881"/>
    </g>
   </g>
   <g id="line2d_126">
    <path clip-path="url(#p0ac56c0a67)" d="M 55.935938 216.582758 
L 390.735938 216.582758 
" style="fill:none;stroke:#000000;stroke-dasharray:5.55,2.4;stroke-dashoffset:0;stroke-width:1.5;"/>
   </g>
   <g id="line2d_127">
    <path clip-path="url(#p0ac56c0a67)" d="M 196.846952 224.64 
L 196.846952 7.2 
" style="fill:none;stroke:#000000;stroke-dasharray:1.5,2.475;stroke-dashoffset:0;stroke-width:1.5;"/>
   </g>
   <g id="patch_3">
    <path d="M 55.935938 224.64 
L 55.935938 7.2 
" style="fill:none;stroke:#000000;stroke-linecap:square;stroke-linejoin:miter;stroke-width:0.5;"/>
   </g>
   <g id="patch_4">
    <path d="M 390.735938 224.64 
L 390.735938 7.2 
" style="fill:none;stroke:#000000;stroke-linecap:square;stroke-linejoin:miter;stroke-width:0.5;"/>
   </g>
   <g id="patch_5">
    <path d="M 55.935938 224.64 
L 390.735938 224.64 
" style="fill:none;stroke:#000000;stroke-linecap:square;stroke-linejoin:miter;stroke-width:0.5;"/>
   </g>
   <g id="patch_6">
    <path d="M 55.935938 7.2 
L 390.735938 7.2 
" style="fill:none;stroke:#000000;stroke-linecap:square;stroke-linejoin:miter;stroke-width:0.5;"/>
   </g>
   <g id="legend_1">
    <g id="patch_7">
     <path d="M 295.935938 69.64125 
L 382.335938 69.64125 
Q 384.735938 69.64125 384.735938 67.24125 
L 384.735938 15.6 
Q 384.735938 13.2 382.335938 13.2 
L 295.935938 13.2 
Q 293.535938 13.2 293.535938 15.6 
L 293.535938 67.24125 
Q 293.535938 69.64125 295.935938 69.64125 
z
" style="fill:#ffffff;opacity:0.8;stroke:#cccccc;stroke-linejoin:miter;"/>
    </g>
    <g id="line2d_128">
     <path d="M 298.335938 22.918125 
L 322.335938 22.918125 
" style="fill:none;stroke:#d81b60;stroke-linecap:square;stroke-width:1.5;"/>
    </g>
    <g id="line2d_129">
     <g>
      <use style="fill:#d81b60;stroke:#d81b60;stroke-linejoin:miter;" x="310.335938" xlink:href="#ma5dc74bc8f" y="22.918125"/>
     </g>
    </g>
    <g id="text_15">
     <!-- $M=32$ -->
     <g transform="translate(331.935938 27.118125)scale(0.12 -0.12)">
      <defs>
       <path d="M 678 2906 
L 4684 2906 
L 4684 2381 
L 678 2381 
L 678 2906 
z
M 678 1631 
L 4684 1631 
L 4684 1100 
L 678 1100 
L 678 1631 
z
" id="DejaVuSans-3d" transform="scale(0.015625)"/>
      </defs>
      <use transform="translate(0 0.78125)" xlink:href="#DejaVuSans-Oblique-4d"/>
      <use transform="translate(105.761719 0.78125)" xlink:href="#DejaVuSans-3d"/>
      <use transform="translate(209.033203 0.78125)" xlink:href="#DejaVuSans-33"/>
      <use transform="translate(272.65625 0.78125)" xlink:href="#DejaVuSans-32"/>
     </g>
    </g>
    <g id="line2d_130">
     <path d="M 298.335938 40.531875 
L 322.335938 40.531875 
" style="fill:none;stroke:#1e88e5;stroke-linecap:square;stroke-width:1.5;"/>
    </g>
    <g id="line2d_131">
     <g>
      <use style="fill:#1e88e5;stroke:#1e88e5;stroke-linejoin:miter;" x="310.335938" xlink:href="#md516130b6f" y="40.531875"/>
     </g>
    </g>
    <g id="text_16">
     <!-- $M=64$ -->
     <g transform="translate(331.935938 44.731875)scale(0.12 -0.12)">
      <use transform="translate(0 0.78125)" xlink:href="#DejaVuSans-Oblique-4d"/>
      <use transform="translate(105.761719 0.78125)" xlink:href="#DejaVuSans-3d"/>
      <use transform="translate(209.033203 0.78125)" xlink:href="#DejaVuSans-36"/>
      <use transform="translate(272.65625 0.78125)" xlink:href="#DejaVuSans-34"/>
     </g>
    </g>
    <g id="line2d_132">
     <path d="M 298.335938 58.145625 
L 322.335938 58.145625 
" style="fill:none;stroke:#ffc107;stroke-linecap:square;stroke-width:1.5;"/>
    </g>
    <g id="line2d_133">
     <g>
      <use style="fill:#ffc107;stroke:#ffc107;stroke-linejoin:miter;" x="310.335938" xlink:href="#mb5662b3a4a" y="58.145625"/>
     </g>
    </g>
    <g id="text_17">
     <!-- $M=128$ -->
     <g transform="translate(331.935938 62.345625)scale(0.12 -0.12)">
      <defs>
       <path d="M 2034 2216 
Q 1584 2216 1326 1975 
Q 1069 1734 1069 1313 
Q 1069 891 1326 650 
Q 1584 409 2034 409 
Q 2484 409 2743 651 
Q 3003 894 3003 1313 
Q 3003 1734 2745 1975 
Q 2488 2216 2034 2216 
z
M 1403 2484 
Q 997 2584 770 2862 
Q 544 3141 544 3541 
Q 544 4100 942 4425 
Q 1341 4750 2034 4750 
Q 2731 4750 3128 4425 
Q 3525 4100 3525 3541 
Q 3525 3141 3298 2862 
Q 3072 2584 2669 2484 
Q 3125 2378 3379 2068 
Q 3634 1759 3634 1313 
Q 3634 634 3220 271 
Q 2806 -91 2034 -91 
Q 1263 -91 848 271 
Q 434 634 434 1313 
Q 434 1759 690 2068 
Q 947 2378 1403 2484 
z
M 1172 3481 
Q 1172 3119 1398 2916 
Q 1625 2713 2034 2713 
Q 2441 2713 2670 2916 
Q 2900 3119 2900 3481 
Q 2900 3844 2670 4047 
Q 2441 4250 2034 4250 
Q 1625 4250 1398 4047 
Q 1172 3844 1172 3481 
z
" id="DejaVuSans-38" transform="scale(0.015625)"/>
      </defs>
      <use transform="translate(0 0.78125)" xlink:href="#DejaVuSans-Oblique-4d"/>
      <use transform="translate(105.761719 0.78125)" xlink:href="#DejaVuSans-3d"/>
      <use transform="translate(209.033203 0.78125)" xlink:href="#DejaVuSans-31"/>
      <use transform="translate(272.65625 0.78125)" xlink:href="#DejaVuSans-32"/>
      <use transform="translate(336.279297 0.78125)" xlink:href="#DejaVuSans-38"/>
     </g>
    </g>
   </g>
  </g>
 </g>
 <defs>
  <clipPath id="p0ac56c0a67">
   <rect height="217.44" width="334.8" x="55.935938" y="7.2"/>
  </clipPath>
 </defs>
</svg>
