<svg viewBox="0 0 330 200" xmlns="http://www.w3.org/2000/svg"><g><g><g><g><g><line x1="47.8125" y1="175" x2="42.8125" y2="175" style="visibility: inherit;" fill="rgb(0, 0, 0)" stroke="rgb(204, 204, 204)" stroke-width="1px"></line><line x1="47.8125" y1="160.41666666666666" x2="42.8125" y2="160.41666666666666" style="visibility: inherit;" fill="rgb(0, 0, 0)" stroke="rgb(204, 204, 204)" stroke-width="1px"></line><line x1="47.8125" y1="145.83333333333334" x2="42.8125" y2="145.83333333333334" style="visibility: inherit;" fill="rgb(0, 0, 0)" stroke="rgb(204, 204, 204)" stroke-width="1px"></line><line x1="47.8125" y1="131.25" x2="42.8125" y2="131.25" style="visibility: inherit;" fill="rgb(0, 0, 0)" stroke="rgb(204, 204, 204)" stroke-width="1px"></line><line x1="47.8125" y1="116.66666666666669" x2="42.8125" y2="116.66666666666669" style="visibility: inherit;" fill="rgb(0, 0, 0)" stroke="rgb(204, 204, 204)" stroke-width="1px"></line><line x1="47.8125" y1="102.08333333333331" x2="42.8125" y2="102.08333333333331" style="visibility: inherit;" fill="rgb(0, 0, 0)" stroke="rgb(204, 204, 204)" stroke-width="1px"></line><line x1="47.8125" y1="87.5" x2="42.8125" y2="87.5" style="visibility: inherit;" fill="rgb(0, 0, 0)" stroke="rgb(204, 204, 204)" stroke-width="1px"></line><line x1="47.8125" y1="72.91666666666666" x2="42.8125" y2="72.91666666666666" style="visibility: inherit;" fill="rgb(0, 0, 0)" stroke="rgb(204, 204, 204)" stroke-width="1px"></line><line x1="47.8125" y1="58.33333333333334" x2="42.8125" y2="58.33333333333334" style="visibility: inherit;" fill="rgb(0, 0, 0)" stroke="rgb(204, 204, 204)" stroke-width="1px"></line><line x1="47.8125" y1="43.75" x2="42.8125" y2="43.75" style="visibility: inherit;" fill="rgb(0, 0, 0)" stroke="rgb(204, 204, 204)" stroke-width="1px"></line><line x1="47.8125" y1="29.16666666666666" x2="42.8125" y2="29.16666666666666" style="visibility: inherit;" fill="rgb(0, 0, 0)" stroke="rgb(204, 204, 204)" stroke-width="1px"></line><line x1="47.8125" y1="14.58333333333334" x2="42.8125" y2="14.58333333333334" style="visibility: inherit;" fill="rgb(0, 0, 0)" stroke="rgb(204, 204, 204)" stroke-width="1px"></line><line x1="47.8125" y1="0" x2="42.8125" y2="0" style="visibility: inherit;" fill="rgb(0, 0, 0)" stroke="rgb(204, 204, 204)" stroke-width="1px"></line></g><g transform="translate(37.8125, 0)"><text x="0" y="175" dx="0em" dy="0.3em" style="text-anchor: end; visibility: hidden; font-family: Roboto, sans-serif; font-size: 12px; font-weight: 200;" fill="rgb(50, 49, 63)" stroke="none" stroke-width="1px">-1</text><text x="0" y="160.41666666666666" dx="0em" dy="0.3em" style="text-anchor: end; visibility: inherit; font-family: Roboto, sans-serif; font-size: 12px; font-weight: 200;" fill="rgb(50, 49, 63)" stroke="none" stroke-width="1px">-0.5</text><text x="0" y="145.83333333333334" dx="0em" dy="0.3em" style="text-anchor: end; visibility: hidden; font-family: Roboto, sans-serif; font-size: 12px; font-weight: 200;" fill="rgb(50, 49, 63)" stroke="none" stroke-width="1px">0</text><text x="0" y="131.25" dx="0em" dy="0.3em" style="text-anchor: end; visibility: inherit; font-family: Roboto, sans-serif; font-size: 12px; font-weight: 200;" fill="rgb(50, 49, 63)" stroke="none" stroke-width="1px">0.5</text><text x="0" y="116.66666666666669" dx="0em" dy="0.3em" style="text-anchor: end; visibility: hidden; font-family: Roboto, sans-serif; font-size: 12px; font-weight: 200;" fill="rgb(50, 49, 63)" stroke="none" stroke-width="1px">1</text><text x="0" y="102.08333333333331" dx="0em" dy="0.3em" style="text-anchor: end; visibility: inherit; font-family: Roboto, sans-serif; font-size: 12px; font-weight: 200;" fill="rgb(50, 49, 63)" stroke="none" stroke-width="1px">1.5</text><text x="0" y="87.5" dx="0em" dy="0.3em" style="text-anchor: end; visibility: hidden; font-family: Roboto, sans-serif; font-size: 12px; font-weight: 200;" fill="rgb(50, 49, 63)" stroke="none" stroke-width="1px">2</text><text x="0" y="72.91666666666666" dx="0em" dy="0.3em" style="text-anchor: end; visibility: inherit; font-family: Roboto, sans-serif; font-size: 12px; font-weight: 200;" fill="rgb(50, 49, 63)" stroke="none" stroke-width="1px">2.5</text><text x="0" y="58.33333333333334" dx="0em" dy="0.3em" style="text-anchor: end; visibility: hidden; font-family: Roboto, sans-serif; font-size: 12px; font-weight: 200;" fill="rgb(50, 49, 63)" stroke="none" stroke-width="1px">3</text><text x="0" y="43.75" dx="0em" dy="0.3em" style="text-anchor: end; visibility: inherit; font-family: Roboto, sans-serif; font-size: 12px; font-weight: 200;" fill="rgb(50, 49, 63)" stroke="none" stroke-width="1px">3.5</text><text x="0" y="29.16666666666666" dx="0em" dy="0.3em" style="text-anchor: end; visibility: hidden; font-family: Roboto, sans-serif; font-size: 12px; font-weight: 200;" fill="rgb(50, 49, 63)" stroke="none" stroke-width="1px">4</text><text x="0" y="14.58333333333334" dx="0em" dy="0.3em" style="text-anchor: end; visibility: inherit; font-family: Roboto, sans-serif; font-size: 12px; font-weight: 200;" fill="rgb(50, 49, 63)" stroke="none" stroke-width="1px">4.5</text><text x="0" y="0" dx="0em" dy="0.3em" style="text-anchor: end; visibility: hidden; font-family: Roboto, sans-serif; font-size: 12px; font-weight: 200;" fill="rgb(50, 49, 63)" stroke="none" stroke-width="1px">5</text></g><line x1="47.8125" y1="0" x2="47.8125" y2="175" fill="rgb(0, 0, 0)" stroke="rgb(204, 204, 204)" stroke-width="1px"></line></g></g><g transform="translate(47, 0)" clip-path="url(#clip_0)"><clipPath id="clip_0"><rect width="282" height="175"></rect></clipPath><g><g><g><line x1="0" y1="0" x2="0" y2="175" fill="rgb(0, 0, 0)" stroke="rgb(60, 60, 60)" stroke-width="1px" opacity="0.25"></line><line x1="28.21875" y1="0" x2="28.21875" y2="175" fill="rgb(0, 0, 0)" stroke="rgb(60, 60, 60)" stroke-width="1px" opacity="0.25"></line><line x1="56.4375" y1="0" x2="56.4375" y2="175" fill="rgb(0, 0, 0)" stroke="rgb(60, 60, 60)" stroke-width="1px" opacity="0.25"></line><line x1="84.65625" y1="0" x2="84.65625" y2="175" fill="rgb(0, 0, 0)" stroke="rgb(60, 60, 60)" stroke-width="1px" opacity="0.25"></line><line x1="112.875" y1="0" x2="112.875" y2="175" fill="rgb(0, 0, 0)" stroke="rgb(60, 60, 60)" stroke-width="1px" opacity="0.25"></line><line x1="141.09375" y1="0" x2="141.09375" y2="175" fill="rgb(0, 0, 0)" stroke="rgb(60, 60, 60)" stroke-width="1px" opacity="0.25"></line><line x1="169.3125" y1="0" x2="169.3125" y2="175" fill="rgb(0, 0, 0)" stroke="rgb(60, 60, 60)" stroke-width="1px" opacity="0.25"></line><line x1="197.53125" y1="0" x2="197.53125" y2="175" fill="rgb(0, 0, 0)" stroke="rgb(60, 60, 60)" stroke-width="1px" opacity="0.25"></line><line x1="225.75" y1="0" x2="225.75" y2="175" fill="rgb(0, 0, 0)" stroke="rgb(60, 60, 60)" stroke-width="1px" opacity="0.25"></line><line x1="253.96875" y1="0" x2="253.96875" y2="175" fill="rgb(0, 0, 0)" stroke="rgb(60, 60, 60)" stroke-width="1px" opacity="0.25"></line><line x1="282.1875" y1="0" x2="282.1875" y2="175" fill="rgb(0, 0, 0)" stroke="rgb(60, 60, 60)" stroke-width="1px" opacity="0.25"></line></g><g><line x1="0" y1="175" x2="282.1875" y2="175" fill="rgb(0, 0, 0)" stroke="rgb(60, 60, 60)" stroke-width="1px" opacity="0.25"></line><line x1="0" y1="160.41666666666666" x2="282.1875" y2="160.41666666666666" fill="rgb(0, 0, 0)" stroke="rgb(60, 60, 60)" stroke-width="1px" opacity="0.25"></line><line x1="0" y1="145.83333333333334" x2="282.1875" y2="145.83333333333334" fill="rgb(0, 0, 0)" stroke="rgb(60, 60, 60)" stroke-width="1px" opacity="0.25"></line><line x1="0" y1="131.25" x2="282.1875" y2="131.25" fill="rgb(0, 0, 0)" stroke="rgb(60, 60, 60)" stroke-width="1px" opacity="0.25"></line><line x1="0" y1="116.66666666666669" x2="282.1875" y2="116.66666666666669" fill="rgb(0, 0, 0)" stroke="rgb(60, 60, 60)" stroke-width="1px" opacity="0.25"></line><line x1="0" y1="102.08333333333331" x2="282.1875" y2="102.08333333333331" fill="rgb(0, 0, 0)" stroke="rgb(60, 60, 60)" stroke-width="1px" opacity="0.25"></line><line x1="0" y1="87.5" x2="282.1875" y2="87.5" fill="rgb(0, 0, 0)" stroke="rgb(60, 60, 60)" stroke-width="1px" opacity="0.25"></line><line x1="0" y1="72.91666666666666" x2="282.1875" y2="72.91666666666666" fill="rgb(0, 0, 0)" stroke="rgb(60, 60, 60)" stroke-width="1px" opacity="0.25"></line><line x1="0" y1="58.33333333333334" x2="282.1875" y2="58.33333333333334" fill="rgb(0, 0, 0)" stroke="rgb(60, 60, 60)" stroke-width="1px" opacity="0.25"></line><line x1="0" y1="43.75" x2="282.1875" y2="43.75" fill="rgb(0, 0, 0)" stroke="rgb(60, 60, 60)" stroke-width="1px" opacity="0.25"></line><line x1="0" y1="29.16666666666666" x2="282.1875" y2="29.16666666666666" fill="rgb(0, 0, 0)" stroke="rgb(60, 60, 60)" stroke-width="1px" opacity="0.25"></line><line x1="0" y1="14.58333333333334" x2="282.1875" y2="14.58333333333334" fill="rgb(0, 0, 0)" stroke="rgb(60, 60, 60)" stroke-width="1px" opacity="0.25"></line><line x1="0" y1="0" x2="282.1875" y2="0" fill="rgb(0, 0, 0)" stroke="rgb(60, 60, 60)" stroke-width="1px" opacity="0.25"></line></g></g></g><g><g><line x1="0" y1="145.83333333333334" x2="282.1875" y2="145.83333333333334" fill="rgb(0, 0, 0)" stroke="rgb(153, 153, 153)" stroke-width="1.5px"></line></g></g><g><g><line x1="28.21875" y1="0" x2="28.21875" y2="175" fill="rgb(0, 0, 0)" stroke="rgb(153, 153, 153)" stroke-width="1.5px"></line></g></g><g><g><g><g><g><path stroke="rgb(51, 187, 238)" stroke-width="2px" d="M32.73375,-0.42311811970868196L33.298125,0.2963307499393525L33.8625,4.2749530542465966L34.426875,4.683338055852207L34.99125,7.242028577637671L35.555625,9.044801490106606L36.12,12.509251549840364L36.684375,15.567624044831641L37.24875,20.268856608202448L37.813125,23.05735722427992L38.377500000000005,25.991224264448757L38.941875,28.957095310499266L39.50625,32.87295382323404L40.070625,36.285505792633366L40.635,40.67669408444946L41.199374999999996,48.02171192158457L41.763749999999995,47.509278598436886L42.328125,50.973577295207285L42.8925,54.73684199044219L43.456875,59.0315924278992L44.02125,63.35802274564998L44.585625,66.47458620794768L45.15,70.99308837542753L45.714375000000004,73.253834044593L46.27875,80.37332377793301L46.843125,83.20761936258873L47.407500000000006,86.82407832810429L47.971875000000004,92.31978638676397L48.536249999999995,94.48352368248005L49.100624999999994,97.18442110173949L49.665,98.36478619810491L50.229375,103.1268210615984L50.793749999999996,106.58437002417227L51.358125,110.97540699882092L51.9225,113.16813335944614L52.486875,114.64070353610636L53.05125,117.1725817943462L53.615625,118.79608433007483L54.18,120.17438680272066L54.744375000000005,121.67556387392531L55.30875,124.22988426017933L55.873125,126.08610914944026L56.4375,126.25206426858037L57.001875000000005,132.48079582700433L57.56625,130.11058975050017L58.130624999999995,131.6003015664583L58.695,132.3542159911418L59.259375,134.15224728682253L59.82375,136.42784450569965L60.388125,135.14434085758046L60.9525,134.67099598927206L61.516875,137.79299663136163L62.08125,138.49784879861133L62.645625,139.3433688271713L63.21,138.1390072319113L63.774375,138.0951086628359L64.33875,140.75824061098228L64.903125,142.55994060076793L65.4675,142.9953153586637L66.031875,143.37810151465243L66.59625,144.0346715430419L67.160625,144.41240522866448L67.725,143.64310000005366L68.28937499999999,143.65421235509515L68.85375,141.66885172296244L69.418125,143.12556885040013L69.9825,145.3047544525437L70.546875,142.85095721084113L71.11125,144.58954869467956L71.675625,142.9280513600048L72.24,144.90269048217158L72.80437500000001,143.4508868696484L73.36875,142.97090733402132L73.933125,144.0702766538848L74.4975,145.05108329136806L75.061875,142.49712238200289L75.62625,141.28594689759285L76.19062500000001,143.60896272252603L76.75500000000001,145.982274697963L77.31937500000001,145.1024414569598L77.88375,141.7722523592191L78.448125,142.88901813123286L79.0125,143.92072050336697L79.57687499999999,143.6453183927955L80.14125,141.20371259880991L80.705625,143.76965242703517L81.27,144.16204222140567L81.834375,146.46867436030223L82.39874999999999,143.9326709073308L82.96312499999999,144.96101889380947L83.52749999999999,144.01735851686678L84.091875,143.29076881173143L84.65625,145.7247650869462L85.220625,145.5357314644917L85.785,145.75189167408382L86.349375,144.57581067819336L86.91375,145.0316727052715L87.478125,144.1314570788892L88.0425,141.9596617282044L88.606875,139.05636344515946L89.17125,138.95792401828567L89.735625,141.39623603794894L90.3,143.75654505013776L90.864375,142.0126308281383L91.42875000000001,141.54475970243382L91.993125,141.15082776452084L92.5575,143.14901344738144L93.121875,142.20012856182498L93.68625,142.38605932239915L94.250625,142.39069542791978L94.81500000000001,143.19336101814034L95.37937500000001,143.0245100085174L95.94375000000001,141.4014392519535L96.508125,142.57202136563507L97.07249999999999,142.2797187450364L97.63687499999999,142.90560109612355L98.20124999999999,143.51236850190367L98.765625,143.2265117699993L99.33,146.3994361173168L99.894375,144.88712820675306L100.45875,145.81818839122653L101.023125,146.3705269855845L101.58749999999999,144.92861694520244L102.15187499999999,142.82923064982214L102.71625,142.1124912144064L103.280625,141.30466646003637L103.845,140.89462545642007L104.409375,141.39098979311436L104.97375,142.61194154611576L105.538125,140.72630004082927L106.1025,142.38321013844893L106.666875,143.54047674681377L107.23125,144.00396103533484L107.795625,145.2118331422252L108.36,143.2037807541992L108.924375,144.78936977413727L109.48875000000001,142.9042599085615L110.05312500000001,142.42427280944463L110.6175,142.4841559811545L111.181875,143.58986192126747L111.74625,143.697990776676L112.310625,141.8826919108101L112.875,143.21526602575491L113.43937500000001,143.36800215792243L114.00375000000001,144.57188625587474L114.56812500000001,142.9673502114621L115.1325,142.1521425307119L115.69687499999999,140.42804897191073L116.26124999999999,139.7660865507242L116.82562499999999,140.75452767044604L117.39,138.68789483446062L117.954375,138.9157968322725L118.51875,140.417030035076L119.083125,141.82581712521164L119.6475,142.37319944630292L120.21187499999999,143.65986902016536L120.77625,142.79701313474658L121.340625,140.35447980621782L121.905,141.93913123156227L122.469375,140.61928059843538L123.03375,140.6886276574176L123.598125,142.09902504411787L124.1625,145.26524540381104L124.726875,142.4111722206859L125.29125,144.71773414338358L125.855625,144.6844148523096L126.42,143.8567767398447L126.984375,143.77060871960063L127.54875,143.56559121345285L128.113125,145.02605572085463L128.6775,143.838243979658L129.241875,140.46405646112282L129.80625,141.0635418270432L130.37062500000002,141.1613760088525L130.935,142.2608140847867L131.49937500000001,140.63753473213026L132.06375,142.12992325395768L132.62812499999998,144.48751476637776L133.1925,146.2993491723076L133.75687499999998,144.92510195030383L134.32125,147.0034828163402L134.885625,144.2771480457316L135.45,142.121333438734L136.014375,143.63030380917812L136.57874999999999,146.27612073866462L137.143125,145.37051815578104L137.7075,145.70816936335967L138.271875,142.6741645171762L138.83625,143.1559085856589L139.400625,143.28055672411395L139.965,145.6042711862779L140.529375,145.609971920134L141.09375,143.15235433348897L141.658125,142.22193286241423L142.2225,142.68574048084812L142.786875,144.3060529750007L143.35125,142.31549014775462L143.915625,144.40454163727267L144.48,146.485384937587L145.044375,143.50761501180887L145.60875000000001,147.38792674653385L146.173125,145.05333409356666L146.7375,145.76926349613623L147.301875,147.90173204151924L147.86625,144.58694653058927L148.43062500000002,144.35446799106327L148.995,143.12467546943978L149.55937500000002,143.2656615650703L150.12375,145.33065595285393L150.688125,144.1414398484804L151.2525,144.91318807980932L151.816875,143.07415381162278L152.38125000000002,143.3907928894296L152.945625,142.8280729749005L153.51000000000002,144.5432121275783L154.074375,144.07268625560923L154.63875000000002,141.0597496950439L155.203125,142.70168043516944L155.7675,142.8994954839917L156.33187500000003,141.56323971642487L156.89625,142.6407198806709L157.46062500000002,143.20212327391542L158.025,144.21068007263113L158.58937500000002,140.5746601989621L159.15374999999997,145.65306263987745L159.718125,143.2736517458629L160.2825,145.7687425495866L160.84687499999998,147.86432524313625L161.41125,145.12505242103396L161.97562499999998,145.46678715474962L162.54,142.2473273884906L163.10437499999998,142.71721579899312L163.66875,141.34992624781484L164.233125,142.8738695528574L164.79749999999999,141.4910068400582L165.361875,143.62161117769563L165.92624999999998,140.35300175136695L166.490625,140.7883396831336L167.05499999999998,142.63028728581313L167.619375,142.44434390535062L168.18375,141.23789404771787L168.748125,142.06050079033014L169.3125,144.7005835630411L169.87687499999998,143.34049701439824L170.44125,145.30758517830066L171.005625,145.03809277921016L171.57,142.0464743557121L172.134375,144.54412804340595L172.69875,143.51189578848246L173.263125,141.15231247908173L173.8275,144.19543909330943L174.391875,141.96421790003646L174.95625,142.97792302050112L175.520625,141.99926802900188L176.085,142.40981774660003L176.649375,144.1569244963848L177.21375,141.1445630750809L177.778125,143.58040466502828L178.3425,141.33419657505863L178.906875,141.23640036935L179.47125,143.4361622128649L180.035625,143.10537939133823L180.6,144.09614753144533L181.164375,143.2270313387168L181.72875,143.63498568420925L182.293125,142.2600150399525L182.85750000000002,144.20206570261433L183.421875,143.7140748071693L183.98625,141.39713775126276L184.550625,141.74304688826086L185.115,142.91683741820782L185.67937500000002,140.85899512020507L186.24375,145.45379774797613L186.80812500000002,147.15566067116652L187.3725,143.8845563126635L187.93687500000001,143.37986012705355L188.50125,142.49784363056136L189.065625,138.91088945316224L189.63000000000002,138.29701150047947L190.194375,143.02457385016382L190.75875000000002,144.83521760902545L191.323125,143.3329366280739L191.88750000000002,141.6310864270193L192.451875,142.4688073047278L193.01625,142.27149108836716L193.58062500000003,142.80369949215452L194.14499999999998,144.4318233430314L194.709375,141.51767393946218L195.27374999999998,139.46353088418385L195.838125,139.53844243645514L196.40249999999997,142.38781268699375L196.966875,141.7651393133605L197.53125,142.7497974903308L198.09562499999998,141.64314276204047L198.66,139.11105219260176L199.22437499999998,141.3201485188424L199.78875,142.57956075464404L200.35312499999998,144.10781190533766L200.9175,144.3550185530742L201.481875,144.62527398470698L202.04625,145.4238229563802L202.610625,145.46955867224253L203.17499999999998,146.6679911183118L203.739375,145.95054737926318L204.30374999999998,146.82330167611914L204.868125,145.8096916555592L205.4325,144.01589947914454L205.996875,145.41010039086365L206.56125,145.29441424306367L207.12562499999999,143.28136865653278L207.69,141.37576738610474L208.254375,142.98929695710555L208.81875,144.23455284565696L209.383125,143.11440656004353L209.9475,140.08606927246655L210.511875,139.64651797205687L211.07625,142.78168954595216L211.640625,139.92325774715914L212.205,141.55286661914928L212.769375,143.23431583173678L213.33375,142.3573014801399L213.898125,143.55483362817702L214.4625,144.97885463358327L215.026875,142.54173136882798L215.59125,144.3583975064724L216.15562500000001,143.38799090651486L216.72,145.48565545807966L217.284375,144.40882144598578L217.84875,142.79703473485557L218.413125,143.57715745406577L218.97750000000002,145.53499441377656L219.541875,145.32046915150585L220.10625000000002,145.99853414430362L220.670625,147.67895070096338L221.235,144.97505671211374L221.799375,141.3716784403421L222.36375,143.26513843668437L222.92812500000002,144.70623086179057L223.4925,142.23008354674633L224.05687500000002,142.92357797525838L224.62125,143.2561725856017L225.18562500000002,142.80957326677347L225.75,143.90754987995717L226.314375,144.79267190423394L226.87875000000003,145.46912065027726L227.443125,144.9924428006226L228.00750000000002,145.1720108256741L228.571875,147.46121970808528L229.13625000000002,145.1691813001793L229.70062499999997,146.5263095038987L230.265,146.12364438681195L230.829375,143.6041563799484L231.39374999999998,144.26292158343415L231.958125,143.7684246779165L232.52249999999998,143.46042822583604L233.086875,143.86174589862875L233.65124999999998,143.4671217206346L234.215625,143.12992882251106L234.78,142.22315058024344L235.34437499999999,143.7699042118785L235.90875,141.26082071804188L236.47312499999998,142.9206873416122L237.0375,142.88699257011507L237.60187499999998,144.11471694881646L238.16625,145.32390963142075L238.730625,141.24929416838262L239.295,141.69330799527748L239.859375,142.85059124100874L240.42374999999998,146.1005092901111L240.988125,146.29886954665406L241.5525,144.03656048858298L242.116875,142.73512193531275L242.68125,142.04285065216112L243.245625,142.7259177533723L243.81,143.6216949668539L244.374375,142.58526161791954L244.93875,142.62560871530815L245.503125,144.2338872365509L246.0675,144.88672562880194L246.631875,143.33722252712377L247.19625,141.50908711492454L247.760625,142.76171738295417L248.325,143.01602310074566L248.889375,141.6827102967095L249.45375,141.98210916477393L250.018125,140.2974704298851L250.5825,137.83901658019286L251.146875,140.05368941343346L251.71125,141.05802955468405L252.275625,141.44829627716487L252.84,140.69085682537525L253.40437500000002,141.04835700555464L253.96875,142.14944891073597L254.533125,144.20103143193302L255.0975,141.40458912971403L255.661875,142.01393110596808L256.22625,143.8688919924319L256.79062500000003,145.49960609173496L257.355,144.8478055947764L257.919375,145.40464200455654L258.48375,143.64112747934684L259.048125,142.89938496983385L259.6125,143.4020883772453L260.176875,143.09784791471643L260.74125000000004,143.18270526042826L261.305625,143.68683592132479L261.87,146.4998451609517L262.434375,144.94821826800336L262.99875000000003,145.49802503037728L263.563125,145.4772572350151L264.1275,143.70528356522203L264.691875,142.66500925296472" style="fill: none;" fill="none"></path></g></g></g></g><g opacity="0.2"><g><g><g><path stroke="rgb(51, 187, 238)" stroke-width="2px" d="M32.169375,-2.9151062170664597L32.73375,6.560369332631436L33.298125,1.3646284739176369L33.8625,10.206800699234009L34.426875,5.293693145116177L34.99125,11.071709791819249L35.555625,11.745429039001465L36.12,17.701854308446254L36.684375,20.153025786081944L37.24875,27.318716049194336L37.813125,27.239400148391724L38.377500000000005,30.391577879587803L38.941875,33.40563078721365L39.50625,38.74652683734894L40.070625,41.404221455256135L40.635,47.26338982582092L41.199374999999996,59.039151668548584L41.763749999999995,46.7406322558721L42.328125,56.170010566711426L42.8925,60.38172940413156L43.456875,65.4737114906311L44.02125,69.8476642370224L44.585625,71.14942967891693L45.15,77.77084012826285L45.714375000000004,76.64495209852853L46.27875,91.05255752801895L46.843125,87.45906253655752L47.407500000000006,92.24876662095386L47.971875000000004,100.56334833304089L48.536249999999995,97.72912959257764L49.100624999999994,101.23576720555621L49.665,100.13533383607864L50.229375,110.26987334092456L50.793749999999996,111.77069346110028L51.358125,117.5619624555111L51.9225,116.45722289880115L52.486875,116.84955880045891L53.05125,120.9703991810481L53.615625,121.23133813341457L54.18,122.24184051156044L54.744375000000005,123.92732948064804L55.30875,128.06136483947438L55.873125,128.8704464832942L56.4375,126.50099694728851L57.001875000000005,141.82389316459498L57.56625,126.55528063575429L58.130624999999995,133.8348692903916L58.695,133.48508762816587L59.259375,136.8492942303419L59.82375,139.8412403340141L60.388125,133.21908538540205L60.9525,133.96097868680954L61.516875,142.47599759449562L62.08125,139.55512704948583L62.645625,140.61164887001118L63.21,136.33246483902136L63.774375,138.02926080922285L64.33875,144.7529385332018L64.903125,145.26249058544636L65.4675,143.6483774955074L66.031875,143.95228074863553L66.59625,145.0195265856261L67.160625,144.9790057570984L67.725,142.4891421571374L68.28937499999999,143.6708808876574L68.85375,138.69081077476343L69.418125,145.31064454155663L69.9825,148.57353285575905L70.546875,139.17026134828726L71.11125,147.1974359204372L71.675625,140.43580535799265L72.24,147.86464916542172L72.80437500000001,141.2731814508637L73.36875,142.25093803058067L73.933125,145.71933063368002L74.4975,146.52229324759296L75.061875,138.66618101795515L75.62625,139.46918367097774L76.19062500000001,147.09348645992577L76.75500000000001,149.5422426611185L77.31937500000001,143.78269159545502L77.88375,136.776968712608L78.448125,144.56416678925356L79.0125,145.46827406156808L79.57687499999999,143.23221522693834L80.14125,137.54130390783152L80.705625,147.61856216937304L81.27,144.7506269129614L81.834375,149.92862256864706L82.39874999999999,140.12866572787365L82.96312499999999,146.50354087352753L83.52749999999999,142.60186795145273L84.091875,142.2008842540284L84.65625,149.3757594997684L85.220625,145.25218103080988L85.785,146.07613198847199L86.349375,142.81168918435773L86.91375,145.71546574588865L87.478125,142.78113363931575L88.0425,138.7019687021772L88.606875,134.70141602059206L89.17125,138.810264877975L89.735625,145.05370406744382L90.3,147.297008568421L90.864375,139.39675949513912L91.42875000000001,140.84295301387706L91.993125,140.55992985765138L92.5575,146.14629197167233L93.121875,140.77680123349032L93.68625,142.6649554632604L94.250625,142.3976495862007L94.81500000000001,144.39735940347114L95.37937500000001,142.77123349408308L95.94375000000001,138.96683311710754L96.508125,144.32789453615746L97.07249999999999,141.8412648141384L97.63687499999999,143.84442462275425L98.20124999999999,144.42251961057386L98.765625,142.79772667214274L99.33,151.15882263829312L99.894375,142.61866634090742L100.45875,147.2147786679367L101.023125,147.19903487712145L101.58749999999999,142.76575188462934L102.15187499999999,139.68015120675167L102.71625,141.03738206128278L103.280625,140.09292932848135L103.845,140.2795639509956L104.409375,142.13553629815578L104.97375,144.4433691756179L105.538125,137.89783778289953L106.1025,144.8685752848784L106.666875,145.27637665936103L107.23125,144.6991874681165L107.795625,147.02364130256078L108.36,140.19170217216015L108.924375,147.1677533040444L109.48875000000001,140.07659511019787L110.05312500000001,141.7042921607693L110.6175,142.5739807387193L111.181875,145.2484208314369L111.74625,143.8601840597888L112.310625,139.15974361201128L112.875,145.21412719817212L113.43937500000001,143.59710635617375L114.00375000000001,146.3777124028032L114.56812500000001,140.5605461448431L115.1325,140.92933100958666L115.69687499999999,137.84190863370895L116.26124999999999,138.77314291894436L116.82562499999999,142.23718935002884L117.39,135.58794558048248L117.954375,139.2576498289903L118.51875,142.66887983928123L119.083125,143.93899776041508L119.6475,143.1942729279399L120.21187499999999,145.58987338095903L120.77625,141.50272930661836L121.340625,136.69067981342474L121.905,144.31610836957893L122.469375,138.63950464874506L123.03375,140.79264824589094L123.598125,144.21462112416825L124.1625,150.0145759433508L124.726875,138.1300624459982L125.29125,148.17757702743015L125.855625,144.63443591569862L126.42,142.61531957114735L126.984375,143.64135668923458L127.54875,143.25806495423117L128.113125,147.2167524819573L128.6775,142.05652636786303L129.241875,135.40277518332005L129.80625,141.96276987592378L130.37062500000002,141.30812728156647L130.935,143.90997119868794L131.49937500000001,138.20261570314565L132.06375,144.36850603669882L132.62812499999998,148.02390203500786L133.1925,149.01710078120232L133.75687499999998,142.86373111729822L134.32125,150.12105411539474L134.885625,140.18764588981867L135.45,138.88761152823767L136.014375,145.8937593648443L136.57874999999999,150.24484613289437L137.143125,144.01211428145567L137.7075,146.21464617472762L138.271875,138.12315724790096L138.83625,143.87852468838295L139.400625,143.46752893179655L139.965,149.08984287952384L140.529375,145.61852302091816L141.09375,139.4659279535214L141.658125,140.8263006558021L142.2225,143.381451908499L142.786875,146.73652171622962L143.35125,139.32964590688547L143.915625,147.53811887154976L144.48,149.6066498880585L145.044375,139.04096012314162L145.60875000000001,153.20839434862137L146.173125,141.55144511411586L146.7375,146.84315759999058L147.301875,151.10043485959372L147.86625,139.61476826419434L148.43062500000002,144.0057501817743L148.995,141.27998668700457L149.55937500000002,143.47714070851603L150.12375,148.42814753452936L150.688125,142.35761569192013L151.2525,146.0708104268027L151.816875,140.31560240934292L152.38125000000002,143.86575150613984L152.945625,141.98399310310683L153.51000000000002,147.11592085659504L154.074375,143.3668974476556L154.63875000000002,136.54034485419592L155.203125,145.1645765453577L155.7675,143.19621805722514L156.33187500000003,139.5588560650746L156.89625,144.25694012703994L157.46062500000002,144.04422836378217L158.025,145.72351527070472L158.58937500000002,135.12063038845858L159.15374999999997,153.27066630125046L159.718125,139.7045354048411L160.2825,149.5113787551721L160.84687499999998,151.00769928346077L161.41125,141.01614318788052L161.97562499999998,145.97938925532313L162.54,137.41813773910204L163.10437499999998,143.4220484147469L163.66875,139.29899192104736L164.233125,145.15978451042125L164.79749999999999,139.4167127708594L165.361875,146.81751768415174L165.92624999999998,135.45008761187395L166.490625,141.44134658078352L167.05499999999998,145.39320868983245L167.619375,142.16542883465686L168.18375,139.42821926126877L168.748125,143.29441090424856L169.3125,148.66070772210756L169.87687499999998,141.3003671914339L170.44125,148.25821742415428L171.005625,144.63385418057442L171.57,137.55904672046503L172.134375,148.29060857494673L172.69875,141.96354740609726L173.263125,137.61293751498064L173.8275,148.76012901465097L174.391875,138.61738611012697L174.95625,144.4984807011982L175.520625,140.53128554175296L176.085,143.02564232299724L176.649375,146.7775846210619L177.21375,136.6260209431251L177.778125,147.23416704994938L178.3425,137.96488444010416L178.906875,141.08970606078705L179.47125,146.73580497813722L180.035625,142.60920515904823L180.6,145.5822997416059L181.164375,141.92335704962412L181.72875,144.24691720244786L182.293125,140.1975590735674L182.85750000000002,147.11514169660708L183.421875,142.9820884640018L183.98625,137.9217321674029L184.550625,142.26191059375802L185.115,144.67752321312824L185.67937500000002,137.77223167320093L186.24375,152.34600168963274L186.80812500000002,149.70845505595207L187.3725,138.97789977490902L187.93687500000001,142.62281584863862L188.50125,141.1748188858231L189.065625,133.53045818706354L189.63000000000002,137.37619457145533L190.194375,150.11591737469038L190.75875000000002,147.55118324731788L191.323125,141.07951515664658L191.88750000000002,139.0783111254374L192.451875,143.72538862129053L193.01625,141.97551676382622L193.58062500000003,143.60201209783554L194.14499999999998,146.87400911934674L194.709375,137.14644983410835L195.27374999999998,136.38231630126634L195.838125,139.65080976486206L196.40249999999997,146.66186806280166L196.966875,140.8311292529106L197.53125,144.22678475578627L198.09562499999998,139.98316066960493L198.66,135.31291633844376L199.22437499999998,144.6337930082033L199.78875,144.4686791083465L200.35312499999998,146.40018863137811L200.9175,144.72582852467895L201.481875,145.0306571321562L202.04625,146.62164641389003L202.610625,145.53816224603602L203.17499999999998,148.46563978741565L203.739375,144.8743817706903L204.30374999999998,148.13243312140307L204.868125,144.2892766247193L205.4325,141.3252112145225L205.996875,147.5014017584423L206.56125,145.1208850213637L207.12562499999999,140.2618002767364L207.69,138.5173654804627L208.254375,145.40959131360674L208.81875,146.10243667848408L209.383125,141.43418713162342L209.9475,135.54356334110102L210.511875,138.9871910214424L211.07625,147.4844469067951L211.640625,135.6356100489696L212.205,143.9972799271345L212.769375,145.75648965061797L213.33375,141.04177995274463L213.898125,145.3511318502327L214.4625,147.1148861416926L215.026875,138.8860464716951L215.59125,147.08339671293894L216.15562500000001,141.9323810065786L216.72,148.63215228542686L217.284375,142.7935704278449L217.84875,140.3793546681603L218.413125,144.74734153288105L218.97750000000002,148.47174985334277L219.541875,144.99868125809977L220.10625000000002,147.01563163350025L220.670625,150.19957553595304L221.235,140.91921572883925L221.799375,135.96661103268465L222.36375,146.10532843119776L222.92812500000002,146.86786949944994L223.4925,138.51586257417998L224.05687500000002,143.9638196180264L224.62125,143.75506450111666L225.18562500000002,142.13967428853115L225.75,145.55451479973271L226.314375,146.12035494064912L226.87875000000003,146.4837937693422L227.443125,144.27742602614066L228.00750000000002,145.44136286325133L228.571875,150.89503303170204L229.13625000000002,141.7311236883203L229.70062499999997,148.5620018094778L230.265,145.51964671118185L230.829375,139.82492436965308L231.39374999999998,145.25106938866278L231.958125,143.02667931964L232.52249999999998,142.99843354771534L233.086875,144.46372240781784L233.65124999999998,142.8751854536434L234.215625,142.62413947532573L234.78,140.86298321684203L235.34437499999999,146.09003465933105L235.90875,137.49719547728697L236.47312499999998,145.41048727696761L237.0375,142.83645041286945L237.60187499999998,145.9563035168685L238.16625,147.13769865532717L238.730625,135.13737097382545L239.295,142.35932873561978L239.859375,144.58651610960564L240.42374999999998,150.9753863637646L240.988125,146.59640993146846L241.5525,140.64309690147638L242.116875,140.7829641054074L242.68125,141.00444372743368L243.245625,143.75051840518913L243.81,144.96536078707626L244.374375,141.03061159451804L244.93875,142.68612936139107L245.503125,146.64630501841506L246.0675,145.86598321717852L246.631875,141.01296787460646L247.19625,138.76688399662575L247.760625,144.64066278499863L248.325,143.39748167743286L248.889375,139.68274109065533L249.45375,142.43120746687055L250.018125,137.77051232755184L250.5825,134.15133580565453L251.146875,143.37569866329432L251.71125,142.56453976656L252.275625,142.0336963608861L252.84,139.55469764769077L253.40437500000002,141.58460727582374L253.96875,143.80108676850796L254.533125,147.27840521372855L255.0975,137.20992567638555L255.661875,142.92794407034913L256.22625,146.65133332212767L256.79062500000003,147.9456772406896L257.355,143.87010484933853L257.919375,146.23989661922678L258.48375,140.99585569153228L259.048125,141.78677120556435L259.6125,144.15614348836243L260.176875,142.6414872209231L260.74125000000004,143.30999127899608L261.305625,144.44303191266954L261.87,150.7193590203921L262.434375,142.62077792858085L262.99875000000003,146.32273517393818L263.563125,145.44610554197183L264.1275,141.04732306053242L264.691875,141.1045977845788" style="fill: none;" fill="none"></path></g></g></g></g></g></g><g transform="translate(47, 175)" clip-path="url(#clip_1)"><clipPath id="clip_1"><rect width="282" height="25"></rect></clipPath><g><g><line x1="0" y1="0" x2="0" y2="5" style="visibility: inherit;" fill="rgb(0, 0, 0)" stroke="rgb(204, 204, 204)" stroke-width="1px"></line><line x1="28.21875" y1="0" x2="28.21875" y2="5" style="visibility: inherit;" fill="rgb(0, 0, 0)" stroke="rgb(204, 204, 204)" stroke-width="1px"></line><line x1="56.4375" y1="0" x2="56.4375" y2="5" style="visibility: inherit;" fill="rgb(0, 0, 0)" stroke="rgb(204, 204, 204)" stroke-width="1px"></line><line x1="84.65625" y1="0" x2="84.65625" y2="5" style="visibility: inherit;" fill="rgb(0, 0, 0)" stroke="rgb(204, 204, 204)" stroke-width="1px"></line><line x1="112.875" y1="0" x2="112.875" y2="5" style="visibility: inherit;" fill="rgb(0, 0, 0)" stroke="rgb(204, 204, 204)" stroke-width="1px"></line><line x1="141.09375" y1="0" x2="141.09375" y2="5" style="visibility: inherit;" fill="rgb(0, 0, 0)" stroke="rgb(204, 204, 204)" stroke-width="1px"></line><line x1="169.3125" y1="0" x2="169.3125" y2="5" style="visibility: inherit;" fill="rgb(0, 0, 0)" stroke="rgb(204, 204, 204)" stroke-width="1px"></line><line x1="197.53125" y1="0" x2="197.53125" y2="5" style="visibility: inherit;" fill="rgb(0, 0, 0)" stroke="rgb(204, 204, 204)" stroke-width="1px"></line><line x1="225.75" y1="0" x2="225.75" y2="5" style="visibility: inherit;" fill="rgb(0, 0, 0)" stroke="rgb(204, 204, 204)" stroke-width="1px"></line><line x1="253.96875" y1="0" x2="253.96875" y2="5" style="visibility: inherit;" fill="rgb(0, 0, 0)" stroke="rgb(204, 204, 204)" stroke-width="1px"></line><line x1="282.1875" y1="0" x2="282.1875" y2="5" style="visibility: inherit;" fill="rgb(0, 0, 0)" stroke="rgb(204, 204, 204)" stroke-width="1px"></line></g><g transform="translate(0, 8)"><text x="0" y="0" dx="0em" dy="0.95em" style="text-anchor: middle; visibility: hidden; font-family: Roboto, sans-serif; font-size: 12px; font-weight: 200;" fill="rgb(50, 49, 63)" stroke="none" stroke-width="1px">-50</text><text x="28.21875" y="0" dx="0em" dy="0.95em" style="text-anchor: middle; visibility: inherit; font-family: Roboto, sans-serif; font-size: 12px; font-weight: 200;" fill="rgb(50, 49, 63)" stroke="none" stroke-width="1px">0</text><text x="56.4375" y="0" dx="0em" dy="0.95em" style="text-anchor: middle; visibility: inherit; font-family: Roboto, sans-serif; font-size: 12px; font-weight: 200;" fill="rgb(50, 49, 63)" stroke="none" stroke-width="1px">50</text><text x="84.65625" y="0" dx="0em" dy="0.95em" style="text-anchor: middle; visibility: inherit; font-family: Roboto, sans-serif; font-size: 12px; font-weight: 200;" fill="rgb(50, 49, 63)" stroke="none" stroke-width="1px">100</text><text x="112.875" y="0" dx="0em" dy="0.95em" style="text-anchor: middle; visibility: inherit; font-family: Roboto, sans-serif; font-size: 12px; font-weight: 200;" fill="rgb(50, 49, 63)" stroke="none" stroke-width="1px">150</text><text x="141.09375" y="0" dx="0em" dy="0.95em" style="text-anchor: middle; visibility: inherit; font-family: Roboto, sans-serif; font-size: 12px; font-weight: 200;" fill="rgb(50, 49, 63)" stroke="none" stroke-width="1px">200</text><text x="169.3125" y="0" dx="0em" dy="0.95em" style="text-anchor: middle; visibility: inherit; font-family: Roboto, sans-serif; font-size: 12px; font-weight: 200;" fill="rgb(50, 49, 63)" stroke="none" stroke-width="1px">250</text><text x="197.53125" y="0" dx="0em" dy="0.95em" style="text-anchor: middle; visibility: inherit; font-family: Roboto, sans-serif; font-size: 12px; font-weight: 200;" fill="rgb(50, 49, 63)" stroke="none" stroke-width="1px">300</text><text x="225.75" y="0" dx="0em" dy="0.95em" style="text-anchor: middle; visibility: inherit; font-family: Roboto, sans-serif; font-size: 12px; font-weight: 200;" fill="rgb(50, 49, 63)" stroke="none" stroke-width="1px">350</text><text x="253.96875" y="0" dx="0em" dy="0.95em" style="text-anchor: middle; visibility: inherit; font-family: Roboto, sans-serif; font-size: 12px; font-weight: 200;" fill="rgb(50, 49, 63)" stroke="none" stroke-width="1px">400</text><text x="282.1875" y="0" dx="0em" dy="0.95em" style="text-anchor: middle; visibility: hidden; font-family: Roboto, sans-serif; font-size: 12px; font-weight: 200;" fill="rgb(50, 49, 63)" stroke="none" stroke-width="1px">450</text></g><line x1="0" y1="0" x2="282.1875" y2="0" fill="rgb(0, 0, 0)" stroke="rgb(204, 204, 204)" stroke-width="1px"></line></g></g></g></g></svg>