<svg viewBox="0 0 330 200" xmlns="http://www.w3.org/2000/svg"><g><g><g><g><g><line x1="28.90625" y1="175" x2="23.90625" y2="175" style="visibility: inherit;" fill="rgb(0, 0, 0)" stroke="rgb(204, 204, 204)" stroke-width="1px"></line><line x1="28.90625" y1="159.0909090909091" x2="23.90625" y2="159.0909090909091" style="visibility: inherit;" fill="rgb(0, 0, 0)" stroke="rgb(204, 204, 204)" stroke-width="1px"></line><line x1="28.90625" y1="143.18181818181816" x2="23.90625" y2="143.18181818181816" style="visibility: inherit;" fill="rgb(0, 0, 0)" stroke="rgb(204, 204, 204)" stroke-width="1px"></line><line x1="28.90625" y1="127.27272727272728" x2="23.90625" y2="127.27272727272728" style="visibility: inherit;" fill="rgb(0, 0, 0)" stroke="rgb(204, 204, 204)" stroke-width="1px"></line><line x1="28.90625" y1="111.36363636363636" x2="23.90625" y2="111.36363636363636" style="visibility: inherit;" fill="rgb(0, 0, 0)" stroke="rgb(204, 204, 204)" stroke-width="1px"></line><line x1="28.90625" y1="95.45454545454545" x2="23.90625" y2="95.45454545454545" style="visibility: inherit;" fill="rgb(0, 0, 0)" stroke="rgb(204, 204, 204)" stroke-width="1px"></line><line x1="28.90625" y1="79.54545454545455" x2="23.90625" y2="79.54545454545455" style="visibility: inherit;" fill="rgb(0, 0, 0)" stroke="rgb(204, 204, 204)" stroke-width="1px"></line><line x1="28.90625" y1="63.63636363636364" x2="23.90625" y2="63.63636363636364" style="visibility: inherit;" fill="rgb(0, 0, 0)" stroke="rgb(204, 204, 204)" stroke-width="1px"></line><line x1="28.90625" y1="47.72727272727273" x2="23.90625" y2="47.72727272727273" style="visibility: inherit;" fill="rgb(0, 0, 0)" stroke="rgb(204, 204, 204)" stroke-width="1px"></line><line x1="28.90625" y1="31.81818181818181" x2="23.90625" y2="31.81818181818181" style="visibility: inherit;" fill="rgb(0, 0, 0)" stroke="rgb(204, 204, 204)" stroke-width="1px"></line><line x1="28.90625" y1="15.909090909090914" x2="23.90625" y2="15.909090909090914" style="visibility: inherit;" fill="rgb(0, 0, 0)" stroke="rgb(204, 204, 204)" stroke-width="1px"></line><line x1="28.90625" y1="0" x2="23.90625" y2="0" style="visibility: inherit;" fill="rgb(0, 0, 0)" stroke="rgb(204, 204, 204)" stroke-width="1px"></line></g><g transform="translate(18.90625, 0)"><text x="0" y="175" dx="0em" dy="0.3em" style="text-anchor: end; visibility: hidden; font-family: Roboto, sans-serif; font-size: 12px; font-weight: 200;" fill="rgb(50, 49, 63)" stroke="none" stroke-width="1px">-1</text><text x="0" y="159.0909090909091" dx="0em" dy="0.3em" style="text-anchor: end; visibility: inherit; font-family: Roboto, sans-serif; font-size: 12px; font-weight: 200;" fill="rgb(50, 49, 63)" stroke="none" stroke-width="1px">0</text><text x="0" y="143.18181818181816" dx="0em" dy="0.3em" style="text-anchor: end; visibility: hidden; font-family: Roboto, sans-serif; font-size: 12px; font-weight: 200;" fill="rgb(50, 49, 63)" stroke="none" stroke-width="1px">1</text><text x="0" y="127.27272727272728" dx="0em" dy="0.3em" style="text-anchor: end; visibility: inherit; font-family: Roboto, sans-serif; font-size: 12px; font-weight: 200;" fill="rgb(50, 49, 63)" stroke="none" stroke-width="1px">2</text><text x="0" y="111.36363636363636" dx="0em" dy="0.3em" style="text-anchor: end; visibility: hidden; font-family: Roboto, sans-serif; font-size: 12px; font-weight: 200;" fill="rgb(50, 49, 63)" stroke="none" stroke-width="1px">3</text><text x="0" y="95.45454545454545" dx="0em" dy="0.3em" style="text-anchor: end; visibility: inherit; font-family: Roboto, sans-serif; font-size: 12px; font-weight: 200;" fill="rgb(50, 49, 63)" stroke="none" stroke-width="1px">4</text><text x="0" y="79.54545454545455" dx="0em" dy="0.3em" style="text-anchor: end; visibility: hidden; font-family: Roboto, sans-serif; font-size: 12px; font-weight: 200;" fill="rgb(50, 49, 63)" stroke="none" stroke-width="1px">5</text><text x="0" y="63.63636363636364" dx="0em" dy="0.3em" style="text-anchor: end; visibility: inherit; font-family: Roboto, sans-serif; font-size: 12px; font-weight: 200;" fill="rgb(50, 49, 63)" stroke="none" stroke-width="1px">6</text><text x="0" y="47.72727272727273" dx="0em" dy="0.3em" style="text-anchor: end; visibility: hidden; font-family: Roboto, sans-serif; font-size: 12px; font-weight: 200;" fill="rgb(50, 49, 63)" stroke="none" stroke-width="1px">7</text><text x="0" y="31.81818181818181" dx="0em" dy="0.3em" style="text-anchor: end; visibility: inherit; font-family: Roboto, sans-serif; font-size: 12px; font-weight: 200;" fill="rgb(50, 49, 63)" stroke="none" stroke-width="1px">8</text><text x="0" y="15.909090909090914" dx="0em" dy="0.3em" style="text-anchor: end; visibility: hidden; font-family: Roboto, sans-serif; font-size: 12px; font-weight: 200;" fill="rgb(50, 49, 63)" stroke="none" stroke-width="1px">9</text><text x="0" y="0" dx="0em" dy="0.3em" style="text-anchor: end; visibility: hidden; font-family: Roboto, sans-serif; font-size: 12px; font-weight: 200;" fill="rgb(50, 49, 63)" stroke="none" stroke-width="1px">10</text></g><line x1="28.90625" y1="0" x2="28.90625" y2="175" fill="rgb(0, 0, 0)" stroke="rgb(204, 204, 204)" stroke-width="1px"></line></g></g><g transform="translate(28, 0)" clip-path="url(#clip_0)"><clipPath id="clip_0"><rect width="301" height="175"></rect></clipPath><g><g><g><line x1="0" y1="0" x2="0" y2="175" fill="rgb(0, 0, 0)" stroke="rgb(60, 60, 60)" stroke-width="1px" opacity="0.25"></line><line x1="37.63671875" y1="0" x2="37.63671875" y2="175" fill="rgb(0, 0, 0)" stroke="rgb(60, 60, 60)" stroke-width="1px" opacity="0.25"></line><line x1="75.2734375" y1="0" x2="75.2734375" y2="175" fill="rgb(0, 0, 0)" stroke="rgb(60, 60, 60)" stroke-width="1px" opacity="0.25"></line><line x1="112.91015625" y1="0" x2="112.91015625" y2="175" fill="rgb(0, 0, 0)" stroke="rgb(60, 60, 60)" stroke-width="1px" opacity="0.25"></line><line x1="150.546875" y1="0" x2="150.546875" y2="175" fill="rgb(0, 0, 0)" stroke="rgb(60, 60, 60)" stroke-width="1px" opacity="0.25"></line><line x1="188.18359375" y1="0" x2="188.18359375" y2="175" fill="rgb(0, 0, 0)" stroke="rgb(60, 60, 60)" stroke-width="1px" opacity="0.25"></line><line x1="225.8203125" y1="0" x2="225.8203125" y2="175" fill="rgb(0, 0, 0)" stroke="rgb(60, 60, 60)" stroke-width="1px" opacity="0.25"></line><line x1="263.45703125" y1="0" x2="263.45703125" y2="175" fill="rgb(0, 0, 0)" stroke="rgb(60, 60, 60)" stroke-width="1px" opacity="0.25"></line><line x1="301.09375" y1="0" x2="301.09375" y2="175" fill="rgb(0, 0, 0)" stroke="rgb(60, 60, 60)" stroke-width="1px" opacity="0.25"></line></g><g><line x1="0" y1="175" x2="301.09375" y2="175" fill="rgb(0, 0, 0)" stroke="rgb(60, 60, 60)" stroke-width="1px" opacity="0.25"></line><line x1="0" y1="159.0909090909091" x2="301.09375" y2="159.0909090909091" fill="rgb(0, 0, 0)" stroke="rgb(60, 60, 60)" stroke-width="1px" opacity="0.25"></line><line x1="0" y1="143.18181818181816" x2="301.09375" y2="143.18181818181816" fill="rgb(0, 0, 0)" stroke="rgb(60, 60, 60)" stroke-width="1px" opacity="0.25"></line><line x1="0" y1="127.27272727272728" x2="301.09375" y2="127.27272727272728" fill="rgb(0, 0, 0)" stroke="rgb(60, 60, 60)" stroke-width="1px" opacity="0.25"></line><line x1="0" y1="111.36363636363636" x2="301.09375" y2="111.36363636363636" fill="rgb(0, 0, 0)" stroke="rgb(60, 60, 60)" stroke-width="1px" opacity="0.25"></line><line x1="0" y1="95.45454545454545" x2="301.09375" y2="95.45454545454545" fill="rgb(0, 0, 0)" stroke="rgb(60, 60, 60)" stroke-width="1px" opacity="0.25"></line><line x1="0" y1="79.54545454545455" x2="301.09375" y2="79.54545454545455" fill="rgb(0, 0, 0)" stroke="rgb(60, 60, 60)" stroke-width="1px" opacity="0.25"></line><line x1="0" y1="63.63636363636364" x2="301.09375" y2="63.63636363636364" fill="rgb(0, 0, 0)" stroke="rgb(60, 60, 60)" stroke-width="1px" opacity="0.25"></line><line x1="0" y1="47.72727272727273" x2="301.09375" y2="47.72727272727273" fill="rgb(0, 0, 0)" stroke="rgb(60, 60, 60)" stroke-width="1px" opacity="0.25"></line><line x1="0" y1="31.81818181818181" x2="301.09375" y2="31.81818181818181" fill="rgb(0, 0, 0)" stroke="rgb(60, 60, 60)" stroke-width="1px" opacity="0.25"></line><line x1="0" y1="15.909090909090914" x2="301.09375" y2="15.909090909090914" fill="rgb(0, 0, 0)" stroke="rgb(60, 60, 60)" stroke-width="1px" opacity="0.25"></line><line x1="0" y1="0" x2="301.09375" y2="0" fill="rgb(0, 0, 0)" stroke="rgb(60, 60, 60)" stroke-width="1px" opacity="0.25"></line></g></g></g><g><g><line x1="0" y1="159.0909090909091" x2="301.09375" y2="159.0909090909091" fill="rgb(0, 0, 0)" stroke="rgb(153, 153, 153)" stroke-width="1.5px"></line></g></g><g><g><line x1="37.63671875" y1="0" x2="37.63671875" y2="175" fill="rgb(0, 0, 0)" stroke="rgb(153, 153, 153)" stroke-width="1.5px"></line></g></g><g><g><g><g><g><path stroke="rgb(187, 187, 187)" stroke-width="2px" d="M41.400390625,-0.788316788611465L43.2822265625,3.9542331813491147L45.1640625,10.761659914413462L47.0458984375,19.744763996449542L48.927734375,29.87913548502692L50.8095703125,41.64539822346861L52.69140625,53.02831077603967L54.5732421875,65.76763720123934L56.455078125,78.17993016043165L58.3369140625,91.38116341272966L60.21875,102.2143401811781L62.1005859375,114.06161047255256L63.982421875,123.67741687207885L65.8642578125,132.16982819432607L67.74609375,138.93727575324476L69.6279296875,144.77919575915885L71.509765625,146.2532614468192L73.3916015625,146.90148265039028L75.2734375,147.8233054329946L77.1552734375,146.76059860619802L79.037109375,145.13953173098196L80.9189453125,143.890356020332L82.80078125,143.31019740313246L84.6826171875,142.1837342245572L86.564453125,142.70570373365598L88.4462890625,143.39486340780257L90.328125,144.2356055719108L92.2099609375,145.69552509746927L94.091796875,147.9448801046128L95.9736328125,147.1691408592293L97.85546875,149.33863724543298L99.7373046875,150.3482559330866L101.619140625,150.1228384991587L103.5009765625,150.5406794321346L105.3828125,150.82245453602457L107.2646484375,149.83096308148765L109.146484375,149.7378885489284L111.0283203125,148.72035209106502L112.91015625,148.34287202405895L114.7919921875,147.99986687368857L116.673828125,148.33782926359711L118.5556640625,149.09058742468412L120.4375,148.8633101962641L122.3193359375,148.69898093617556L124.201171875,149.1969720134285L126.0830078125,150.71225356896844L127.96484375,150.8415034197919L129.8466796875,149.79267726493484L131.728515625,149.67141601805122L133.6103515625,149.86277541626995L135.4921875,151.13037907655055L137.3740234375,151.46214155680798L139.255859375,151.64410711504965L141.1376953125,151.03862158437047L143.01953125,153.68625005769474L144.9013671875,153.19297340109406L146.783203125,152.85350636598142L148.6650390625,151.15834849288422L150.546875,151.28627330027598L152.4287109375,150.36404913641556L154.310546875,151.3099596423198L156.1923828125,151.56522846083848L158.07421875,152.4019831226474L159.9560546875,151.28516409542488L161.837890625,150.99104886228906L163.7197265625,151.21075109716207L165.6015625,151.99509336560178L167.4833984375,150.97888307902016L169.365234375,150.143881694003L171.2470703125,151.3829374915234L173.12890625,152.52875891958902L175.0107421875,151.72011325792158L176.892578125,150.74242839509387L178.7744140625,150.10454832544949L180.65625,150.51882826162537L182.5380859375,150.7860387409843L184.419921875,150.94015148821902L186.3017578125,150.90677517272002L188.18359375,150.76091091946398L190.0654296875,150.94216463905678L191.947265625,150.94371675218406L193.8291015625,151.4464687360514L195.7109375,151.20901189926036L197.5927734375,150.34410387251077L199.474609375,151.23740159907464L201.3564453125,152.8950960976556L203.23828125,152.5784542721479L205.1201171875,151.72507251491143L207.001953125,151.2922865353335L208.8837890625,151.57948236154098L210.765625,151.38359178486323L212.6474609375,150.29038461945893L214.529296875,149.82244632565263L216.4111328125,149.8788189785893L218.29296875,150.4750537919422L220.1748046875,149.50289449107441L222.056640625,149.11846254691739L223.9384765625,149.95824904803678L225.8203125,150.64855560779935L227.7021484375,151.04875732352733L229.583984375,151.16924717090043L231.4658203125,151.39845824495046L233.34765625,151.06990184502493L235.2294921875,150.18140273055357L237.111328125,149.22571803459803L238.9931640625,150.07387206154633L240.875,151.11876374329938L242.7568359375,150.86945642357736L244.638671875,150.96845081859414L246.5205078125,151.81087871332028L248.40234375,152.299240296174L250.2841796875,151.66163757259076L252.166015625,151.5400840818658L254.0478515625,153.0145595630598L255.9296875,152.32076483296544L257.8115234375,152.41096938772586L259.693359375,151.64477943093095L261.5751953125,151.86710558469494L263.45703125,151.29204957240788L265.3388671875,150.27274394799016L267.220703125,151.18215666708957L269.1025390625,150.669787228906L270.984375,149.9817304128323L272.8662109375,149.88738696929028L274.748046875,150.0436275182628L276.6298828125,150.65472783697246" style="fill: none;" fill="none"></path></g></g></g></g><g opacity="0.2"><g><g><g><path stroke="rgb(187, 187, 187)" stroke-width="2px" d="M39.5185546875,-2.796550230546424L41.400390625,3.4257368607954475L43.2822265625,9.531471946022723L45.1640625,19.649436257102277L47.0458984375,32.171630859375L48.927734375,44.37144886363636L50.8095703125,58.800722252238884L52.69140625,69.81589577414772L54.5732421875,84.68405225060204L56.455078125,96.685791015625L58.3369140625,111.11117276278411L60.21875,118.42873313210228L62.1005859375,131.80930587378415L63.982421875,138.08982345190915L65.8642578125,144.9024556712671L67.74609375,149.08558333461937L69.6279296875,153.54059250517327L71.509765625,148.4641354192387L73.3916015625,147.8737552057613L75.2734375,149.2059890519489L77.1552734375,145.16657333482397L79.037109375,142.70796342329544L80.9189453125,142.01660725203428L82.80078125,142.43996360085228L84.6826171875,140.4940442605452L86.564453125,143.48865666172722L88.4462890625,144.42860186100006L90.328125,145.49671804363075L92.2099609375,147.88540357893166L94.091796875,151.31891186941755L95.9736328125,146.00553214550018L97.85546875,152.59288156574425L99.7373046875,151.86268389225006L101.619140625,149.78471235795456L103.5009765625,151.16744082082403L105.3828125,151.2451171875L107.2646484375,148.3437259088863L109.146484375,149.5982767506079L111.0283203125,147.19404740767044L112.91015625,147.77665192430672L114.7919921875,147.48535914854568L116.673828125,148.84477284821597L118.5556640625,150.21972466598856L120.4375,148.52239435369316L122.3193359375,148.45248704606834L124.201171875,149.94395862926137L126.0830078125,152.98517590219322L127.96484375,151.03537819602272L129.8466796875,148.21943803267044L131.728515625,149.48952414772728L133.6103515625,150.14981451359662L135.4921875,153.03178456696597L137.3740234375,151.95978527719322L139.255859375,151.9170554524118L141.1376953125,150.13039328835228L143.01953125,157.6576927676797L144.9013671875,152.45305841619316L146.783203125,152.34430581331253L148.6650390625,148.61561168323863L150.546875,151.47816051136363L152.4287109375,148.980712890625L154.310546875,152.7288254011761L156.1923828125,151.94813168861648L158.07421875,153.6571151153608L159.9560546875,149.6099355545911L161.837890625,150.54987601258537L163.7197265625,151.54030444947156L165.6015625,153.1716067682613L167.4833984375,149.45456764914772L169.365234375,148.89137961647728L171.2470703125,153.24152118780395L173.12890625,154.24749106168747L175.0107421875,150.50714476542038L176.892578125,149.27590110085228L178.7744140625,149.14772822098297L180.65625,151.1402481658892L182.5380859375,151.18685446002266L184.419921875,151.17132060907105L186.3017578125,150.85671069947156L188.18359375,150.54211453957993L190.0654296875,151.21404521844605L191.947265625,150.946044921875L193.8291015625,152.20059671185234L195.7109375,150.85282664407384L197.5927734375,149.04674183238637L199.474609375,152.57734818892044L201.3564453125,155.38163784552705L203.23828125,152.1034915338863L205.1201171875,150.44499987905678L207.001953125,150.64310756596652L208.8837890625,152.01027610085228L210.765625,151.08975591984662L212.6474609375,148.65057387135246L214.529296875,149.12053888494316L216.4111328125,149.9633779579943L218.29296875,151.36940601197156L220.1748046875,148.04465553977272L222.056640625,148.54181463068184L223.9384765625,151.2179287997159L225.8203125,151.68401544744316L227.7021484375,151.64905989711937L229.583984375,151.34998194196007L231.4658203125,151.74227485602555L233.34765625,150.57706724513662L235.2294921875,148.84865405884656L237.111328125,147.79219099066475L238.9931640625,151.34610310196877L240.875,152.68610126592895L242.7568359375,150.49549544399437L244.638671875,151.1169424111193L246.5205078125,153.07452055540952L248.40234375,153.03178267045456L250.2841796875,150.7052334872159L252.166015625,151.35775384577838L254.0478515625,155.2262727848508L255.9296875,151.28007273782384L257.8115234375,152.54627621986648L259.693359375,150.49549449573863L261.5751953125,152.2005948153409L263.45703125,150.42946555397728L265.3388671875,148.74378551136363L267.220703125,152.54627574573863L269.1025390625,149.90123307163063L270.984375,148.94964518872175L272.8662109375,149.74587180397728L274.748046875,150.27798834172162L276.6298828125,151.57137831503692" style="fill: none;" fill="none"></path></g></g></g></g></g></g><g transform="translate(28, 175)" clip-path="url(#clip_1)"><clipPath id="clip_1"><rect width="301" height="25"></rect></clipPath><g><g><line x1="0" y1="0" x2="0" y2="5" style="visibility: inherit;" fill="rgb(0, 0, 0)" stroke="rgb(204, 204, 204)" stroke-width="1px"></line><line x1="37.63671875" y1="0" x2="37.63671875" y2="5" style="visibility: inherit;" fill="rgb(0, 0, 0)" stroke="rgb(204, 204, 204)" stroke-width="1px"></line><line x1="75.2734375" y1="0" x2="75.2734375" y2="5" style="visibility: inherit;" fill="rgb(0, 0, 0)" stroke="rgb(204, 204, 204)" stroke-width="1px"></line><line x1="112.91015625" y1="0" x2="112.91015625" y2="5" style="visibility: inherit;" fill="rgb(0, 0, 0)" stroke="rgb(204, 204, 204)" stroke-width="1px"></line><line x1="150.546875" y1="0" x2="150.546875" y2="5" style="visibility: inherit;" fill="rgb(0, 0, 0)" stroke="rgb(204, 204, 204)" stroke-width="1px"></line><line x1="188.18359375" y1="0" x2="188.18359375" y2="5" style="visibility: inherit;" fill="rgb(0, 0, 0)" stroke="rgb(204, 204, 204)" stroke-width="1px"></line><line x1="225.8203125" y1="0" x2="225.8203125" y2="5" style="visibility: inherit;" fill="rgb(0, 0, 0)" stroke="rgb(204, 204, 204)" stroke-width="1px"></line><line x1="263.45703125" y1="0" x2="263.45703125" y2="5" style="visibility: inherit;" fill="rgb(0, 0, 0)" stroke="rgb(204, 204, 204)" stroke-width="1px"></line><line x1="301.09375" y1="0" x2="301.09375" y2="5" style="visibility: inherit;" fill="rgb(0, 0, 0)" stroke="rgb(204, 204, 204)" stroke-width="1px"></line></g><g transform="translate(0, 8)"><text x="0" y="0" dx="0em" dy="0.95em" style="text-anchor: middle; visibility: hidden; font-family: Roboto, sans-serif; font-size: 12px; font-weight: 200;" fill="rgb(50, 49, 63)" stroke="none" stroke-width="1px">-20</text><text x="37.63671875" y="0" dx="0em" dy="0.95em" style="text-anchor: middle; visibility: inherit; font-family: Roboto, sans-serif; font-size: 12px; font-weight: 200;" fill="rgb(50, 49, 63)" stroke="none" stroke-width="1px">0</text><text x="75.2734375" y="0" dx="0em" dy="0.95em" style="text-anchor: middle; visibility: inherit; font-family: Roboto, sans-serif; font-size: 12px; font-weight: 200;" fill="rgb(50, 49, 63)" stroke="none" stroke-width="1px">20</text><text x="112.91015625" y="0" dx="0em" dy="0.95em" style="text-anchor: middle; visibility: inherit; font-family: Roboto, sans-serif; font-size: 12px; font-weight: 200;" fill="rgb(50, 49, 63)" stroke="none" stroke-width="1px">40</text><text x="150.546875" y="0" dx="0em" dy="0.95em" style="text-anchor: middle; visibility: inherit; font-family: Roboto, sans-serif; font-size: 12px; font-weight: 200;" fill="rgb(50, 49, 63)" stroke="none" stroke-width="1px">60</text><text x="188.18359375" y="0" dx="0em" dy="0.95em" style="text-anchor: middle; visibility: inherit; font-family: Roboto, sans-serif; font-size: 12px; font-weight: 200;" fill="rgb(50, 49, 63)" stroke="none" stroke-width="1px">80</text><text x="225.8203125" y="0" dx="0em" dy="0.95em" style="text-anchor: middle; visibility: inherit; font-family: Roboto, sans-serif; font-size: 12px; font-weight: 200;" fill="rgb(50, 49, 63)" stroke="none" stroke-width="1px">100</text><text x="263.45703125" y="0" dx="0em" dy="0.95em" style="text-anchor: middle; visibility: inherit; font-family: Roboto, sans-serif; font-size: 12px; font-weight: 200;" fill="rgb(50, 49, 63)" stroke="none" stroke-width="1px">120</text><text x="301.09375" y="0" dx="0em" dy="0.95em" style="text-anchor: middle; visibility: hidden; font-family: Roboto, sans-serif; font-size: 12px; font-weight: 200;" fill="rgb(50, 49, 63)" stroke="none" stroke-width="1px">140</text></g><line x1="0" y1="0" x2="301.09375" y2="0" fill="rgb(0, 0, 0)" stroke="rgb(204, 204, 204)" stroke-width="1px"></line></g></g></g></g></svg>