<svg viewBox="0 0 330 200" xmlns="http://www.w3.org/2000/svg"><g><g><g><g><g><line x1="47.8125" y1="175" x2="42.8125" y2="175" style="visibility: inherit;" fill="rgb(0, 0, 0)" stroke="rgb(204, 204, 204)" stroke-width="1px"></line><line x1="47.8125" y1="161.53846153846155" x2="42.8125" y2="161.53846153846155" style="visibility: inherit;" fill="rgb(0, 0, 0)" stroke="rgb(204, 204, 204)" stroke-width="1px"></line><line x1="47.8125" y1="148.07692307692307" x2="42.8125" y2="148.07692307692307" style="visibility: inherit;" fill="rgb(0, 0, 0)" stroke="rgb(204, 204, 204)" stroke-width="1px"></line><line x1="47.8125" y1="134.6153846153846" x2="42.8125" y2="134.6153846153846" style="visibility: inherit;" fill="rgb(0, 0, 0)" stroke="rgb(204, 204, 204)" stroke-width="1px"></line><line x1="47.8125" y1="121.15384615384615" x2="42.8125" y2="121.15384615384615" style="visibility: inherit;" fill="rgb(0, 0, 0)" stroke="rgb(204, 204, 204)" stroke-width="1px"></line><line x1="47.8125" y1="107.6923076923077" x2="42.8125" y2="107.6923076923077" style="visibility: inherit;" fill="rgb(0, 0, 0)" stroke="rgb(204, 204, 204)" stroke-width="1px"></line><line x1="47.8125" y1="94.23076923076923" x2="42.8125" y2="94.23076923076923" style="visibility: inherit;" fill="rgb(0, 0, 0)" stroke="rgb(204, 204, 204)" stroke-width="1px"></line><line x1="47.8125" y1="80.76923076923077" x2="42.8125" y2="80.76923076923077" style="visibility: inherit;" fill="rgb(0, 0, 0)" stroke="rgb(204, 204, 204)" stroke-width="1px"></line><line x1="47.8125" y1="67.3076923076923" x2="42.8125" y2="67.3076923076923" style="visibility: inherit;" fill="rgb(0, 0, 0)" stroke="rgb(204, 204, 204)" stroke-width="1px"></line><line x1="47.8125" y1="53.84615384615385" x2="42.8125" y2="53.84615384615385" style="visibility: inherit;" fill="rgb(0, 0, 0)" stroke="rgb(204, 204, 204)" stroke-width="1px"></line><line x1="47.8125" y1="40.38461538461538" x2="42.8125" y2="40.38461538461538" style="visibility: inherit;" fill="rgb(0, 0, 0)" stroke="rgb(204, 204, 204)" stroke-width="1px"></line><line x1="47.8125" y1="26.923076923076923" x2="42.8125" y2="26.923076923076923" style="visibility: inherit;" fill="rgb(0, 0, 0)" stroke="rgb(204, 204, 204)" stroke-width="1px"></line><line x1="47.8125" y1="13.461538461538453" x2="42.8125" y2="13.461538461538453" style="visibility: inherit;" fill="rgb(0, 0, 0)" stroke="rgb(204, 204, 204)" stroke-width="1px"></line><line x1="47.8125" y1="0" x2="42.8125" y2="0" style="visibility: inherit;" fill="rgb(0, 0, 0)" stroke="rgb(204, 204, 204)" stroke-width="1px"></line></g><g transform="translate(37.8125, 0)"><text x="0" y="175" dx="0em" dy="0.3em" style="text-anchor: end; visibility: hidden; font-family: Roboto, sans-serif; font-size: 12px; font-weight: 200;" fill="rgb(50, 49, 63)" stroke="none" stroke-width="1px">-2.5</text><text x="0" y="161.53846153846155" dx="0em" dy="0.3em" style="text-anchor: end; visibility: inherit; font-family: Roboto, sans-serif; font-size: 12px; font-weight: 200;" fill="rgb(50, 49, 63)" stroke="none" stroke-width="1px">-2</text><text x="0" y="148.07692307692307" dx="0em" dy="0.3em" style="text-anchor: end; visibility: hidden; font-family: Roboto, sans-serif; font-size: 12px; font-weight: 200;" fill="rgb(50, 49, 63)" stroke="none" stroke-width="1px">-1.5</text><text x="0" y="134.6153846153846" dx="0em" dy="0.3em" style="text-anchor: end; visibility: inherit; font-family: Roboto, sans-serif; font-size: 12px; font-weight: 200;" fill="rgb(50, 49, 63)" stroke="none" stroke-width="1px">-1</text><text x="0" y="121.15384615384615" dx="0em" dy="0.3em" style="text-anchor: end; visibility: hidden; font-family: Roboto, sans-serif; font-size: 12px; font-weight: 200;" fill="rgb(50, 49, 63)" stroke="none" stroke-width="1px">-0.5</text><text x="0" y="107.6923076923077" dx="0em" dy="0.3em" style="text-anchor: end; visibility: inherit; font-family: Roboto, sans-serif; font-size: 12px; font-weight: 200;" fill="rgb(50, 49, 63)" stroke="none" stroke-width="1px">0</text><text x="0" y="94.23076923076923" dx="0em" dy="0.3em" style="text-anchor: end; visibility: hidden; font-family: Roboto, sans-serif; font-size: 12px; font-weight: 200;" fill="rgb(50, 49, 63)" stroke="none" stroke-width="1px">0.5</text><text x="0" y="80.76923076923077" dx="0em" dy="0.3em" style="text-anchor: end; visibility: inherit; font-family: Roboto, sans-serif; font-size: 12px; font-weight: 200;" fill="rgb(50, 49, 63)" stroke="none" stroke-width="1px">1</text><text x="0" y="67.3076923076923" dx="0em" dy="0.3em" style="text-anchor: end; visibility: hidden; font-family: Roboto, sans-serif; font-size: 12px; font-weight: 200;" fill="rgb(50, 49, 63)" stroke="none" stroke-width="1px">1.5</text><text x="0" y="53.84615384615385" dx="0em" dy="0.3em" style="text-anchor: end; visibility: inherit; font-family: Roboto, sans-serif; font-size: 12px; font-weight: 200;" fill="rgb(50, 49, 63)" stroke="none" stroke-width="1px">2</text><text x="0" y="40.38461538461538" dx="0em" dy="0.3em" style="text-anchor: end; visibility: hidden; font-family: Roboto, sans-serif; font-size: 12px; font-weight: 200;" fill="rgb(50, 49, 63)" stroke="none" stroke-width="1px">2.5</text><text x="0" y="26.923076923076923" dx="0em" dy="0.3em" style="text-anchor: end; visibility: inherit; font-family: Roboto, sans-serif; font-size: 12px; font-weight: 200;" fill="rgb(50, 49, 63)" stroke="none" stroke-width="1px">3</text><text x="0" y="13.461538461538453" dx="0em" dy="0.3em" style="text-anchor: end; visibility: hidden; font-family: Roboto, sans-serif; font-size: 12px; font-weight: 200;" fill="rgb(50, 49, 63)" stroke="none" stroke-width="1px">3.5</text><text x="0" y="0" dx="0em" dy="0.3em" style="text-anchor: end; visibility: hidden; font-family: Roboto, sans-serif; font-size: 12px; font-weight: 200;" fill="rgb(50, 49, 63)" stroke="none" stroke-width="1px">4</text></g><line x1="47.8125" y1="0" x2="47.8125" y2="175" fill="rgb(0, 0, 0)" stroke="rgb(204, 204, 204)" stroke-width="1px"></line></g></g><g transform="translate(47, 0)" clip-path="url(#clip_0)"><clipPath id="clip_0"><rect width="282" height="175"></rect></clipPath><g><g><g><line x1="0" y1="0" x2="0" y2="175" fill="rgb(0, 0, 0)" stroke="rgb(60, 60, 60)" stroke-width="1px" opacity="0.25"></line><line x1="35.2734375" y1="0" x2="35.2734375" y2="175" fill="rgb(0, 0, 0)" stroke="rgb(60, 60, 60)" stroke-width="1px" opacity="0.25"></line><line x1="70.546875" y1="0" x2="70.546875" y2="175" fill="rgb(0, 0, 0)" stroke="rgb(60, 60, 60)" stroke-width="1px" opacity="0.25"></line><line x1="105.8203125" y1="0" x2="105.8203125" y2="175" fill="rgb(0, 0, 0)" stroke="rgb(60, 60, 60)" stroke-width="1px" opacity="0.25"></line><line x1="141.09375" y1="0" x2="141.09375" y2="175" fill="rgb(0, 0, 0)" stroke="rgb(60, 60, 60)" stroke-width="1px" opacity="0.25"></line><line x1="176.3671875" y1="0" x2="176.3671875" y2="175" fill="rgb(0, 0, 0)" stroke="rgb(60, 60, 60)" stroke-width="1px" opacity="0.25"></line><line x1="211.640625" y1="0" x2="211.640625" y2="175" fill="rgb(0, 0, 0)" stroke="rgb(60, 60, 60)" stroke-width="1px" opacity="0.25"></line><line x1="246.9140625" y1="0" x2="246.9140625" y2="175" fill="rgb(0, 0, 0)" stroke="rgb(60, 60, 60)" stroke-width="1px" opacity="0.25"></line><line x1="282.1875" y1="0" x2="282.1875" y2="175" fill="rgb(0, 0, 0)" stroke="rgb(60, 60, 60)" stroke-width="1px" opacity="0.25"></line></g><g><line x1="0" y1="175" x2="282.1875" y2="175" fill="rgb(0, 0, 0)" stroke="rgb(60, 60, 60)" stroke-width="1px" opacity="0.25"></line><line x1="0" y1="161.53846153846155" x2="282.1875" y2="161.53846153846155" fill="rgb(0, 0, 0)" stroke="rgb(60, 60, 60)" stroke-width="1px" opacity="0.25"></line><line x1="0" y1="148.07692307692307" x2="282.1875" y2="148.07692307692307" fill="rgb(0, 0, 0)" stroke="rgb(60, 60, 60)" stroke-width="1px" opacity="0.25"></line><line x1="0" y1="134.6153846153846" x2="282.1875" y2="134.6153846153846" fill="rgb(0, 0, 0)" stroke="rgb(60, 60, 60)" stroke-width="1px" opacity="0.25"></line><line x1="0" y1="121.15384615384615" x2="282.1875" y2="121.15384615384615" fill="rgb(0, 0, 0)" stroke="rgb(60, 60, 60)" stroke-width="1px" opacity="0.25"></line><line x1="0" y1="107.6923076923077" x2="282.1875" y2="107.6923076923077" fill="rgb(0, 0, 0)" stroke="rgb(60, 60, 60)" stroke-width="1px" opacity="0.25"></line><line x1="0" y1="94.23076923076923" x2="282.1875" y2="94.23076923076923" fill="rgb(0, 0, 0)" stroke="rgb(60, 60, 60)" stroke-width="1px" opacity="0.25"></line><line x1="0" y1="80.76923076923077" x2="282.1875" y2="80.76923076923077" fill="rgb(0, 0, 0)" stroke="rgb(60, 60, 60)" stroke-width="1px" opacity="0.25"></line><line x1="0" y1="67.3076923076923" x2="282.1875" y2="67.3076923076923" fill="rgb(0, 0, 0)" stroke="rgb(60, 60, 60)" stroke-width="1px" opacity="0.25"></line><line x1="0" y1="53.84615384615385" x2="282.1875" y2="53.84615384615385" fill="rgb(0, 0, 0)" stroke="rgb(60, 60, 60)" stroke-width="1px" opacity="0.25"></line><line x1="0" y1="40.38461538461538" x2="282.1875" y2="40.38461538461538" fill="rgb(0, 0, 0)" stroke="rgb(60, 60, 60)" stroke-width="1px" opacity="0.25"></line><line x1="0" y1="26.923076923076923" x2="282.1875" y2="26.923076923076923" fill="rgb(0, 0, 0)" stroke="rgb(60, 60, 60)" stroke-width="1px" opacity="0.25"></line><line x1="0" y1="13.461538461538453" x2="282.1875" y2="13.461538461538453" fill="rgb(0, 0, 0)" stroke="rgb(60, 60, 60)" stroke-width="1px" opacity="0.25"></line><line x1="0" y1="0" x2="282.1875" y2="0" fill="rgb(0, 0, 0)" stroke="rgb(60, 60, 60)" stroke-width="1px" opacity="0.25"></line></g></g></g><g><g><line x1="0" y1="107.6923076923077" x2="282.1875" y2="107.6923076923077" fill="rgb(0, 0, 0)" stroke="rgb(153, 153, 153)" stroke-width="1.5px"></line></g></g><g><g><line x1="35.2734375" y1="0" x2="35.2734375" y2="175" fill="rgb(0, 0, 0)" stroke="rgb(153, 153, 153)" stroke-width="1.5px"></line></g></g><g><g><g><g><g><path stroke="rgb(51, 187, 238)" stroke-width="2px" d="M35.2734375,72.1867322921753L37.037109375,71.52768946610963L38.80078125,70.74207977934196L40.564453125,69.83983851969242L42.328125,68.84049756670892L44.091796875,67.75762545512617L45.85546875,66.60376291799953L47.619140625,65.3911363575066L49.3828125,64.13119952760266L51.146484375,62.834200618519816L52.91015625,61.50824004934307L54.673828125,60.16198797486583L56.4375,58.804791502148525L58.201171875,57.44404940245374L59.96484375,56.09220560952672L61.728515625,54.762463786094486L63.4921875,53.472471919459906L65.255859375,52.2488532863269L67.01953125,51.117226524961275L68.783203125,50.10470180144631L70.546875,49.23409934930729L72.310546875,48.520750096646374L74.07421875,47.97014341663661L75.837890625,47.57843459968264L77.6015625,47.33489379473912L79.365234375,47.22371464225527L81.12890625,47.22899471799867L82.892578125,47.33107131846225L84.65625,47.50859035451351L86.419921875,47.741763283022514L88.18359375,48.01089099454426L89.947265625,48.30191252727417L91.7109375,48.603990612923845L93.474609375,48.901821209220216L95.23828125,49.17865008279721L97.001953125,49.4267201138121L98.765625,49.639358908169896L100.529296875,49.81433466247437L102.29296875,49.95254209312288L104.056640625,50.055830065582114L105.8203125,50.12127422348378L107.583984375,50.14891726225771L109.34765625,50.1374034385703L111.111328125,50.09534234225335L112.875,50.02931446636623L114.638671875,49.94687299565743L116.40234375,49.848914141042194L118.166015625,49.74464636259491L119.9296875,49.63666512221954L121.693359375,49.53186313806098L123.45703125,49.4398604019214L125.220703125,49.36168657994466L126.984375,49.298550016297895L128.748046875,49.24713690675133L130.51171875,49.21340821099226L132.275390625,49.198896707413425L134.0390625,49.20337435269044L135.802734375,49.22289916030624L137.56640625,49.25819731032699L139.330078125,49.30611502738459L141.09375,49.3627907087948L142.857421875,49.42709618466221L144.62109375,49.50006456445851L146.384765625,49.57987394081886L148.1484375,49.658894098683206L149.912109375,49.72332671236495L151.67578125,49.77331189667698L153.439453125,49.811457656265084L155.203125,49.8332667264448L156.966796875,49.841874300839244L158.73046875,49.839025413633436L160.494140625,49.82194395172292L162.2578125,49.802413255893256L164.021484375,49.783002354640224L165.78515625,49.760931420014444L167.548828125,49.740489351745744L169.3125,49.724231516579124L171.076171875,49.712569100048526L172.83984375,49.70501448425067L174.603515625,49.70514188099888L176.3671875,49.71017632509967L178.130859375,49.71304807164765L179.89453125,49.71718721677726L181.658203125,49.71916745725424L183.421875,49.7202580333219L185.185546875,49.72739553032496L186.94921875,49.73832037014058L188.712890625,49.75948739854636L190.4765625,49.768492861209396L192.240234375,49.780851725754154L194.00390625,49.79354599862012L195.767578125,49.80643124614005L197.53125,49.81685835858491L199.294921875,49.829056017043015L201.05859375,49.83664677609589L202.822265625,49.847183703874L204.5859375,49.85801197168586L206.349609375,49.8705761350144L208.11328125,49.88161681853963L209.876953125,49.890703542380166L211.640625,49.8943120508713L213.404296875,49.89457200812006L215.16796875,49.89742137881752L216.931640625,49.894337320604826L218.6953125,49.891336607732484L220.458984375,49.89439405025773L222.22265625,49.9022751777367L223.986328125,49.90909130058358L225.75,49.91869614622302L227.513671875,49.92559649362795L229.27734375,49.9319165814795L231.041015625,49.939159468024556L232.8046875,49.94227019171186L234.568359375,49.94323026852584L236.33203125,49.94287428136884L238.095703125,49.935343072685306L239.859375,49.926017828920486L241.623046875,49.91901051107768L243.38671875,49.91188934415508L245.150390625,49.90674880037356L246.9140625,49.89912755194326L248.677734375,49.896375220435985L250.44140625,49.89482909250423L252.205078125,49.89498493648773L253.96875,49.899679554656686L255.732421875,49.90808338986095L257.49609375,49.9118444662192L259.259765625,49.90635214141554" style="fill: none;" fill="none"></path></g><g><path stroke="rgb(204, 51, 17)" stroke-width="2px" d="M35.2734375,143.7028949077313L37.037109375,143.55673916064777L38.80078125,143.36522935510993L40.564453125,143.1314693755424L42.328125,143.01462035371827L44.091796875,142.8260927495238L45.85546875,142.77884933151853L47.619140625,142.76155009747336L49.3828125,142.73178098437654L51.146484375,142.79007181097364L52.91015625,142.93322635815272L54.673828125,142.91658931689352L56.4375,142.7029460929852L58.201171875,142.3801928757714L59.96484375,142.03833971226084L61.728515625,141.65077786017048L63.4921875,141.23366243812586L65.255859375,140.75582711962429L67.01953125,140.2373130713304L68.783203125,139.7368149190886L70.546875,139.22678613083804L72.310546875,138.84070611969787L74.07421875,138.45814653147298L75.837890625,138.00221870999624L77.6015625,137.48439810263008L79.365234375,136.9626868044539L81.12890625,136.33946908647528L82.892578125,135.5612005125409L84.65625,134.7274658418694L86.419921875,133.94393713474972L88.18359375,133.28611864277983L89.947265625,132.76689331671483L91.7109375,132.39782306496605L93.474609375,132.10983041170905L95.23828125,131.86256523907042L97.001953125,131.6148264876535L98.765625,131.43277125855667L100.529296875,131.35167820831825L102.29296875,131.3139923840146L104.056640625,131.42695899016528L105.8203125,131.72068897495046L107.583984375,132.05104623724344L109.34765625,132.40568684091224L111.111328125,132.69406731553246L112.875,132.91129464516504L114.638671875,133.11945325133954L116.40234375,133.35483543597277L118.166015625,133.62890836954458L119.9296875,133.93241508451487L121.693359375,134.23985832811385L123.45703125,134.49431406555522L125.220703125,134.74341571893825L126.984375,135.02297366003165L128.748046875,135.2740021560835L130.51171875,135.60898467295564L132.275390625,135.970294171623L134.0390625,136.33453497623813L135.802734375,136.63902935677328L137.56640625,136.9318625307158L139.330078125,137.13692790127251L141.09375,137.32471775831345L142.857421875,137.53603057388173L144.62109375,137.70785113124123L146.384765625,137.797407159129L148.1484375,137.96505423857383L149.912109375,138.13419956526252L151.67578125,138.29548067372312L153.439453125,138.44939350383856L155.203125,138.58039618953643L156.966796875,138.58950868868806L158.73046875,138.5068168837803L160.494140625,138.38031162567646L162.2578125,138.21090088748943L164.021484375,137.93420550641287L165.78515625,137.70145161629608L167.548828125,137.50925237758872L169.3125,137.44892151204942L171.076171875,137.40744788996375L172.83984375,137.41933152958796L174.603515625,137.3902266743117L176.3671875,137.36776082236184L178.130859375,137.33619396078677L179.89453125,137.23102279555118L181.658203125,137.0551954254128L183.421875,136.77659115919712L185.185546875,136.4482009697328L186.94921875,136.16239518270498L188.712890625,135.89836825521763L190.4765625,135.66432517523754L192.240234375,135.6188563121362L194.00390625,135.7765450797129L195.767578125,136.13054088162198L197.53125,136.47665175487836L199.294921875,136.94360581956144L201.05859375,137.48420580670646L202.822265625,138.12505270783274L204.5859375,138.77725209395436L206.349609375,139.45925697583624L208.11328125,140.16268457068054L209.876953125,140.85983600350968L211.640625,141.53383775845205L213.404296875,142.11097435576892L215.16796875,142.4728081746749L216.931640625,142.66079077175064L218.6953125,142.79171389692584L220.458984375,142.8308527793317L222.22265625,142.80999263724811L223.986328125,142.7822456395693L225.75,142.62431095778427L227.513671875,142.4955001242405L229.27734375,142.39193439473004L231.041015625,142.3375734548664L232.8046875,142.34880610242095L234.568359375,142.46597494123068L236.33203125,142.62014639867724L238.095703125,142.80391663882088L239.859375,142.90449385342615L241.623046875,143.10305326648356L243.38671875,143.22963747752695L245.150390625,143.3186120775337L246.9140625,143.39307414032373L248.677734375,143.5992601582571L250.44140625,143.82554292632585L252.205078125,144.13895735346117L253.96875,144.38793607841862L255.732421875,144.5607191451614L257.49609375,144.64347600784177L259.259765625,144.65880536941452" style="fill: none;" fill="none"></path></g><g><path stroke="rgb(0, 119, 187)" stroke-width="2px" d="M35.2734375,54.10997317387508L37.037109375,53.282432602002075L38.80078125,52.35488034866668L40.564453125,51.336935563729355L42.328125,50.23920342333323L44.091796875,49.07367708039739L45.85546875,47.851574729145774L47.619140625,46.58325001935108L49.3828125,45.27790270676794L51.146484375,43.94418507932532L52.91015625,42.59008682760479L54.673828125,41.225006674214065L56.4375,39.85715664482142L58.201171875,38.495343967820006L59.96484375,37.15016401157509L61.728515625,35.83858527811771L63.4921875,34.57687604475606L65.255859375,33.38528434118923L67.01953125,32.28342507192969L68.783203125,31.291656024167043L70.546875,30.422850781547513L72.310546875,29.690750111740876L74.07421875,29.100882736728785L75.837890625,28.648903633646462L77.6015625,28.328686805667406L79.365234375,28.130223049272754L81.12890625,28.038887793160146L82.892578125,28.039754537343327L84.65625,28.11933054549319L86.419921875,28.261026644073254L88.18359375,28.448994172880486L89.947265625,28.668095797429764L91.7109375,28.899489729802788L93.474609375,29.126697214823174L95.23828125,29.33562786300784L97.001953125,29.515231612094503L98.765625,29.659153155886823L100.529296875,29.760788345771523L102.29296875,29.815055225460547L104.056640625,29.823169379254093L105.8203125,29.785005151949992L107.583984375,29.70246932577757L109.34765625,29.579299230600384L111.111328125,29.42003268504706L112.875,29.230933079589562L114.638671875,29.01675467137225L116.40234375,28.79143427782337L118.166015625,28.55937734137987L119.9296875,28.331856779674645L121.693359375,28.114801878260693L123.45703125,27.916553618762645L125.220703125,27.740671039970476L126.984375,27.588904427453496L128.748046875,27.4685585888779L130.51171875,27.381027740254822L132.275390625,27.321268642232628L134.0390625,27.286904950128843L135.802734375,27.27603842154967L137.56640625,27.284561983147825L139.330078125,27.313942363087698L141.09375,27.359814022729793L142.857421875,27.416291671154582L144.62109375,27.47962075394163L146.384765625,27.54446743680103L148.1484375,27.60900250938758L149.912109375,27.66749652269889L151.67578125,27.718165331879188L153.439453125,27.754739091001383L155.203125,27.775653745010807L156.966796875,27.780207078666848L158.73046875,27.773064148111875L160.494140625,27.755278029436734L162.2578125,27.726843807290763L164.021484375,27.690780579653147L165.78515625,27.648522370360805L167.548828125,27.603474070151623L169.3125,27.560990797728735L171.076171875,27.52210060973606L172.83984375,27.486971012837763L174.603515625,27.45821104128234L176.3671875,27.43290568032077L178.130859375,27.415401367176848L179.89453125,27.40482175174955L181.658203125,27.40068210533346L183.421875,27.401682529919025L185.185546875,27.40814714812062L186.94921875,27.421543955517127L188.712890625,27.44017332683434L190.4765625,27.460989662581035L192.240234375,27.48519792059079L194.00390625,27.512768773247277L195.767578125,27.53736836562356L197.53125,27.55738910209555L199.294921875,27.572426158753L201.05859375,27.580757712463722L202.822265625,27.584169877346767L204.5859375,27.58141836047602L206.349609375,27.576955945109212L208.11328125,27.571112663956498L209.876953125,27.568412916860062L211.640625,27.5631316928228L213.404296875,27.556188608894352L215.16796875,27.551907217225892L216.931640625,27.550591363557427L218.6953125,27.55385606759453L220.458984375,27.56093978907404L222.22265625,27.57097479028639L223.986328125,27.581851093677727L225.75,27.591391220148026L227.513671875,27.602363439152928L229.27734375,27.607996764217617L231.041015625,27.60715051484347L232.8046875,27.60192867971344L234.568359375,27.59609447953312L236.33203125,27.58513255829247L238.095703125,27.571581845508277L239.859375,27.55697596922935L241.623046875,27.547041624839707L243.38671875,27.54520712681564L245.150390625,27.5430922320455L246.9140625,27.544388312296697L248.677734375,27.547168676511877L250.44140625,27.553230032459304L252.205078125,27.56024835507505L253.96875,27.56565327552907L255.732421875,27.569273662752078L257.49609375,27.56937642181929L259.259765625,27.563540335208273" style="fill: none;" fill="none"></path></g><g><path stroke="rgb(255, 112, 67)" stroke-width="2px" d="M35.2734375,89.07416852620933L37.037109375,88.23279810066407L38.80078125,87.28807850198432L40.564453125,86.26177079250773L42.328125,85.16974698451683L44.091796875,84.03871313422624L45.85546875,82.89401298919351L47.619140625,81.83076889259823L49.3828125,80.91157570445553L51.146484375,80.21413456857942L52.91015625,79.7645938070693L54.673828125,79.57779934017579L56.4375,79.62850536320599L58.201171875,79.89399966853117L59.96484375,80.35278378243052L61.728515625,80.95682025808698L63.4921875,81.65658108394238L65.255859375,82.39426745729605L67.01953125,83.09838593867084L68.783203125,83.70056706690754L70.546875,84.12861325847213L72.310546875,84.33615209435048L74.07421875,84.3104334519845L75.837890625,84.05653041879336L77.6015625,83.598900112733L79.365234375,82.96612482849537L81.12890625,82.18812228343863L82.892578125,81.28875101976269L84.65625,80.286642250892L86.419921875,79.21812292406686L88.18359375,78.11010255884827L89.947265625,77.00071567552052L91.7109375,75.91004689461725L93.474609375,74.87617588705362L95.23828125,73.92402121698186L97.001953125,73.06915923327121L98.765625,72.33843640499197L100.529296875,71.74608242666272L102.29296875,71.3048023058258L104.056640625,71.00920781202724L105.8203125,70.84542850389502L107.583984375,70.80316250897513L109.34765625,70.86566180905066L111.111328125,71.00862107919674L112.875,71.22211472312287L114.638671875,71.48774743519927L116.40234375,71.79034950447993L118.166015625,72.12088329401571L119.9296875,72.45394270993208L121.693359375,72.7830087487083L123.45703125,73.09481116200726L125.220703125,73.35827953854424L126.984375,73.56798442240434L128.748046875,73.71718264381094L130.51171875,73.79302020159142L132.275390625,73.80424676433348L134.0390625,73.7561532145449L135.802734375,73.66056170699325L137.56640625,73.5200453016782L139.330078125,73.34341024791786L141.09375,73.13951308941044L142.857421875,72.91052888008153L144.62109375,72.67831488400172L146.384765625,72.44587944624199L148.1484375,72.22744698102927L149.912109375,72.0285044138631L151.67578125,71.86775325960843L153.439453125,71.75229345374386L155.203125,71.67873355515648L156.966796875,71.64664600719948L158.73046875,71.65762422065974L160.494140625,71.70648129561935L162.2578125,71.77052725880517L164.021484375,71.83565900136841L165.78515625,71.9096790232693L167.548828125,71.99781443623237L169.3125,72.0968775461811L171.076171875,72.19034361215314L172.83984375,72.26661858917863L174.603515625,72.32602386910214L176.3671875,72.38084689475042L178.130859375,72.41766012818091L179.89453125,72.44416816529684L181.658203125,72.46308604820952L183.421875,72.46754024545825L185.185546875,72.44727396211543L186.94921875,72.41442202702841L188.712890625,72.38989022570566L190.4765625,72.3691219153635L192.240234375,72.3508825797953L194.00390625,72.331035878514L195.767578125,72.29898258820461L197.53125,72.25515957157369L199.294921875,72.22156483450635L201.05859375,72.20078278539195L202.822265625,72.2089492341413L204.5859375,72.23923096192314L206.349609375,72.27671978965247L208.11328125,72.3096759939345L209.876953125,72.33919370043269L211.640625,72.37776209862594L213.404296875,72.41740757198073L215.16796875,72.45065127043641L216.931640625,72.48337892613654L218.6953125,72.5123037572017L220.458984375,72.51942811461156L222.22265625,72.52180785155032L223.986328125,72.51267393405828L225.75,72.48729095077638L227.513671875,72.47184163231559L229.27734375,72.45143129123439L231.041015625,72.42714439814434L232.8046875,72.41563410704269L234.568359375,72.41888658123939L236.33203125,72.42360977343893L238.095703125,72.42818836256096L239.859375,72.42808292943467L241.623046875,72.42135421968284L243.38671875,72.40877720712615L245.150390625,72.39323682463485L246.9140625,72.38359421463753L248.677734375,72.36895690039272L250.44140625,72.35403926820993L252.205078125,72.33491463453436L253.96875,72.29673697346962L255.732421875,72.25414342115876L257.49609375,72.20584362451721L259.259765625,72.16560873900852" style="fill: none;" fill="none"></path></g></g></g></g><g opacity="0.2"><g><g><g><path stroke="rgb(51, 187, 238)" stroke-width="2px" d="M35.2734375,72.1867322921753L37.037109375,71.13226377047026L38.80078125,69.98789448004503L40.564453125,68.77880279834454L42.328125,67.53575801849365L44.091796875,66.25962349084706L45.85546875,64.95372102810786L47.619140625,63.62311519109286L49.3828125,62.27303743362427L51.146484375,60.90830839597262L52.91015625,59.53132556034969L54.673828125,58.14993610748877L56.4375,56.77342827503497L58.201171875,55.40560208834135L59.96484375,54.06602896176852L61.728515625,52.768788887904236L63.4921875,51.53803000083337L65.255859375,50.41373601326575L67.01953125,49.419958774860085L68.783203125,48.586007264944215L70.546875,47.928243417006264L72.310546875,47.45074969071609L74.07421875,47.14424426739032L75.837890625,46.99087601441604L77.6015625,46.96958431830774L79.365234375,47.05694638765775L81.12890625,47.23691481810349L82.892578125,47.48418606244601L84.65625,47.77486874507023L86.419921875,48.091522546914916L88.18359375,48.41458247258114L89.947265625,48.73844476846548L91.7109375,49.05710770533634L93.474609375,49.348567082331726L95.23828125,49.5938933812655L97.001953125,49.798825153937706L98.765625,49.95831709641677L100.529296875,50.07679829230676L102.29296875,50.159853238325844L104.056640625,50.21076202392578L105.8203125,50.21944046020508L107.583984375,50.19038182038528L109.34765625,50.120132703047524L111.111328125,50.032250697796165L112.875,49.930272652552674L114.638671875,49.82321078960712L116.40234375,49.70197585912852L118.166015625,49.58824469492985L119.9296875,49.47469326166006L121.693359375,49.37466016182532L123.45703125,49.30185629771305L125.220703125,49.244425846980164L126.984375,49.203845170828004L128.748046875,49.17001724243164L130.51171875,49.1628151673537L132.275390625,49.17712945204514L134.0390625,49.210090820605934L135.802734375,49.25218637172992L137.56640625,49.31114453535813L139.330078125,49.37799160297101L141.09375,49.44780423091007L142.857421875,49.52355439846332L144.62109375,49.60951713415293L146.384765625,49.69958800535935L148.1484375,49.777424335479736L149.912109375,49.81997563288761L151.67578125,49.848289673145L153.439453125,49.868676295647255L155.203125,49.86598033171433L156.966796875,49.85478566243099L158.73046875,49.83475208282471L160.494140625,49.79632175885714L162.2578125,49.773117212148804L164.021484375,49.75388600276066L165.78515625,49.727825018075805L167.548828125,49.70982624934269L169.3125,49.69984476382916L171.076171875,49.69507547525259L172.83984375,49.69368256055392L174.603515625,49.70533297612118L176.3671875,49.717727991250854L178.130859375,49.71735569146963L179.89453125,49.72339593447172L181.658203125,49.72213781796969L183.421875,49.72189389742338L185.185546875,49.73810177582961L186.94921875,49.754707629864036L188.712890625,49.79123794115507L190.4765625,49.782001055203956L192.240234375,49.79939002257127L194.00390625,49.81258740791907L195.767578125,49.8257591174199L197.53125,49.8324990272522L199.294921875,49.847352504730225L201.05859375,49.848032914675194L202.822265625,49.86298909554114L204.5859375,49.87425437340369L206.349609375,49.889422380007225L208.11328125,49.898177843827476L209.876953125,49.90433362814097L211.640625,49.89972481360803L213.404296875,49.8949619439932L215.16796875,49.90169543486375L216.931640625,49.889711233285766L218.6953125,49.88683553842397L220.458984375,49.898980214045594L222.22265625,49.91409686895518L223.986328125,49.91931548485388L225.75,49.93310341468225L227.513671875,49.93594701473529L229.27734375,49.941396713256836L231.041015625,49.950023797842164L232.8046875,49.9469362772428L234.568359375,49.944670383746804L236.33203125,49.94234030063336L238.095703125,49.924046259659995L239.859375,49.91202996327328L241.623046875,49.9084995343135L243.38671875,49.90120759377112L245.150390625,49.899037984701295L246.9140625,49.88769567929781L248.677734375,49.89224672317505L250.44140625,49.89250990060659L252.205078125,49.89521870246301L253.96875,49.90672148191012L255.732421875,49.920689142667335L257.49609375,49.917486080756554L259.259765625,49.89811365421002" style="fill: none;" fill="none"></path></g><g><path stroke="rgb(204, 51, 17)" stroke-width="2px" d="M35.2734375,143.7028949077313L37.037109375,143.46904571239764L38.80078125,143.18137994179358L40.564453125,142.85656763957095L42.328125,142.86206227082474L44.091796875,142.56529120298532L45.85546875,142.7112904878763L47.619140625,142.73632764816284L49.3828125,142.68787732491126L51.146484375,142.87662689502423L52.91015625,143.14665977771466L54.673828125,142.89172429304855L56.4375,142.38317883931674L58.201171875,141.89669535710263L59.96484375,141.52596180255597L61.728515625,141.06970842068012L63.4921875,140.60816581432636L65.255859375,140.03919546420758L67.01953125,139.45962098928598L68.783203125,138.98611343823947L70.546875,138.46177091965308L72.310546875,138.26159880711484L74.07421875,137.88431470210736L75.837890625,137.31833237868088L77.6015625,136.70767087202805L79.365234375,136.18012208205002L81.12890625,135.40464410415063L82.892578125,134.39379884646488L84.65625,133.47686460384955L86.419921875,132.76864450711471L88.18359375,132.29939112296472L89.947265625,131.9880554309258L91.7109375,131.84421773140247L93.474609375,131.67784145245184L95.23828125,131.4916674907391L97.001953125,131.24321836691635L98.765625,131.15968841772812L100.529296875,131.23003863371335L102.29296875,131.25746364776904L104.056640625,131.59640889901382L105.8203125,132.16128395153927L107.583984375,132.5465821302854L109.34765625,132.93764774615948L111.111328125,133.1266380273379L112.875,133.23713563955747L114.638671875,133.43169116056882L116.40234375,133.7079087129006L118.166015625,134.0400177698869L119.9296875,134.3876751569601L121.693359375,134.7010231935061L123.45703125,134.8759976717142L125.220703125,135.117068199011L126.984375,135.44231057167053L128.748046875,135.65054490016055L130.51171875,136.1114584482633L132.275390625,136.51225841962375L134.0390625,136.88089618316064L135.802734375,137.09577092757593L137.56640625,137.3711122916295L139.330078125,137.44452595710754L141.09375,137.60640254387488L142.857421875,137.85299979723416L144.62109375,137.96558196728046L146.384765625,137.9317412009606L148.1484375,138.21652485774112L149.912109375,138.3879175552955L151.67578125,138.53740233641403L153.439453125,138.6802627490117L155.203125,138.7769002180833L156.966796875,138.6031774374155L158.73046875,138.3827791764186L160.494140625,138.1905537385207L162.2578125,137.9567847802089L164.021484375,137.519162434798L165.78515625,137.35232078112088L167.548828125,137.22095351952774L169.3125,137.35842521374042L171.076171875,137.34523745683524L172.83984375,137.43715698902423L174.603515625,137.34656939139734L176.3671875,137.3340620444371L178.130859375,137.28884366842416L179.89453125,137.07326604769779L181.658203125,136.79145437020523L183.421875,136.35868475987363L185.185546875,135.95561568553632L186.94921875,135.73368650216324L188.712890625,135.50232786398666L190.4765625,135.31326055526733L192.240234375,135.55065301748422L194.00390625,136.0130782310779L195.767578125,136.66153458448557L197.53125,136.995818064763L199.294921875,137.64403691658606L201.05859375,138.29510578742395L202.822265625,139.0863230595222L204.5859375,139.75555117313678L206.349609375,140.4822642986591L208.11328125,141.21782596294696L209.876953125,141.9055631527534L211.640625,142.54484039086563L213.404296875,142.9766792517442L215.16796875,143.0155589030339L216.931640625,142.94276466736426L218.6953125,142.98809858468863L220.458984375,142.8895611029405L222.22265625,142.77870242412274L223.986328125,142.74062514305115L225.75,142.38740893510672L227.513671875,142.30228387392484L229.27734375,142.23658580046433L231.041015625,142.25603204507095L232.8046875,142.36565507375278L234.568359375,142.64172819944528L236.33203125,142.85140358484708L238.095703125,143.07957199903635L239.859375,143.05535967533405L241.623046875,143.40089238606967L243.38671875,143.41951379409204L245.150390625,143.45207397754376L246.9140625,143.50476723450882L248.677734375,143.9085391851572L250.44140625,144.164967078429L252.205078125,144.6090789941641L253.96875,144.76140416585483L255.732421875,144.81989374527564L257.49609375,144.76761130186227L259.259765625,144.68179941177368" style="fill: none;" fill="none"></path></g><g><path stroke="rgb(0, 119, 187)" stroke-width="2px" d="M35.2734375,54.10997317387508L37.037109375,52.78590825887827L38.80078125,51.46443018546472L40.564453125,50.139832496643066L42.328125,48.806004340832054L44.091796875,47.461334558633666L45.85546875,46.103948813218345L47.619140625,44.7340204165532L49.3828125,43.35276897136981L51.146484375,41.96376983936017L52.91015625,40.571221021505494L54.673828125,39.184815150040855L56.4375,37.80984786840586L58.201171875,36.455292885120095L59.96484375,35.13397528575016L61.728515625,33.872142204871544L63.4921875,32.684846107776345L65.255859375,31.598199330843403L67.01953125,30.63080402520986L68.783203125,29.804093104142414L70.546875,29.119690564962525L72.310546875,28.592623197115376L74.07421875,28.216093320112957L75.837890625,27.97094033314632L77.6015625,27.848363839662984L79.365234375,27.832528261037965L81.12890625,27.901885142693157L82.892578125,28.041054652287414L84.65625,28.238694484417255L86.419921875,28.473570713630085L88.18359375,28.730945403759296L89.947265625,28.996748190659748L91.7109375,29.246580600738525L93.474609375,29.467508426079387L95.23828125,29.649023826305683L97.001953125,29.784637231093182L98.765625,29.875035469348614L100.529296875,29.91324112965511L102.29296875,29.896455544691815L104.056640625,29.835340609917278L105.8203125,29.727758811070373L107.583984375,29.578665586618285L109.34765625,29.39454408792348L111.111328125,29.181132866786072L112.875,28.947283671452453L114.638671875,28.695487059079692L116.40234375,28.45345368752112L118.166015625,28.211291936727662L119.9296875,27.99057593712439L121.693359375,27.789219526144166L123.45703125,27.619181229518006L125.220703125,27.476847171783447L126.984375,27.36125450867873L128.748046875,27.28803983101477L130.51171875,27.249731467320373L132.275390625,27.23162999519934L134.0390625,27.235359411973224L135.802734375,27.25973862868089L137.56640625,27.297347325545086L139.330078125,27.35801293299748L141.09375,27.42862151219295L142.857421875,27.50100814379179L144.62109375,27.57461437812219L146.384765625,27.641737461090088L148.1484375,27.705805118267353L149.912109375,27.755237542665913L151.67578125,27.794168545649597L153.439453125,27.80959972968469L155.203125,27.80702572602492L156.966796875,27.78703707915086L158.73046875,27.76234975227942L160.494140625,27.728598851423992L162.2578125,27.684192474071796L164.021484375,27.636685738196736L165.78515625,27.585135056422303L167.548828125,27.53590161983783L169.3125,27.49726588909442L171.076171875,27.46376532774705L172.83984375,27.434276617490337L174.603515625,27.415071083949158L176.3671875,27.39494763887846L178.130859375,27.389144897460938L179.89453125,27.388952328608582L181.658203125,27.39447263570933L183.421875,27.403183166797344L185.185546875,27.417844075423016L186.94921875,27.441639166611896L188.712890625,27.46811738381018L190.4765625,27.49221416620107L192.240234375,27.52151030760545L194.00390625,27.554125052232013L195.767578125,27.574267754187947L197.53125,27.587420206803547L199.294921875,27.594981743739197L201.05859375,27.593255043029785L202.822265625,27.589288124671345L204.5859375,27.57729108516986L206.349609375,27.57026232205904L208.11328125,27.562347742227416L209.876953125,27.56436329621535L211.640625,27.555209856766925L213.404296875,27.54577398300171L215.16796875,27.545485129723186L216.931640625,27.548617583054767L218.6953125,27.558753123650188L220.458984375,27.571565371293293L222.22265625,27.58602729210486L223.986328125,27.59816554876475L225.75,27.605701409853413L227.513671875,27.61882176766028L229.27734375,27.616446751814617L231.041015625,27.605881140782287L232.8046875,27.59409592701839L234.568359375,27.587343179262593L236.33203125,27.568689676431518L238.095703125,27.55125577633197L239.859375,27.535067154810974L241.623046875,27.53214010825525L243.38671875,27.542455379779522L245.150390625,27.53991988989024L246.9140625,27.546332432673523L248.677734375,27.551339222834656L250.44140625,27.562322066380432L252.205078125,27.570775838998657L253.96875,27.573760656210084L255.732421875,27.57470424358661L257.49609375,27.569530560420105L259.259765625,27.554786205291748" style="fill: none;" fill="none"></path></g><g><path stroke="rgb(255, 112, 67)" stroke-width="2px" d="M35.2734375,89.07416852620933L37.037109375,87.72797584533691L38.80078125,86.38114768725175L40.564453125,85.05483292616331L42.328125,83.7440007008039L44.091796875,82.47408614708827L45.85546875,81.2570734665944L47.619140625,80.28054879261897L49.3828125,79.5559442960299L51.146484375,79.17851576438318L52.91015625,79.0943599664248L54.673828125,79.29862416707552L56.4375,79.70439883378835L58.201171875,80.29172099553621L59.96484375,81.04042066977574L61.728515625,81.86244895825018L63.4921875,82.70592620739569L65.255859375,83.50060971883626L67.01953125,84.15445639536931L68.783203125,84.60378371752226L70.546875,84.77065907074855L72.310546875,84.64745351901422L74.07421875,84.27185599620526L75.837890625,83.6756788767301L77.6015625,82.91245790628285L79.365234375,82.01696460063641L81.12890625,81.02112045654883L82.892578125,79.93969550499548L84.65625,78.7834800206698L86.419921875,77.61534452438354L88.18359375,76.44807237845201L89.947265625,75.33663557125972L91.7109375,74.27404385346632L93.474609375,73.3253694497622L95.23828125,72.4957892527947L97.001953125,71.78686627974878L98.765625,71.2423521738786L100.529296875,70.85755146466768L102.29296875,70.64288212702824L104.056640625,70.56581607231726L105.8203125,70.59975954202504L107.583984375,70.73976351664616L109.34765625,70.9594107591189L111.111328125,71.22305998435388L112.875,71.54235518895662L114.638671875,71.88619650327242L116.40234375,72.24425260837262L118.166015625,72.61668397830083L119.9296875,72.95353183379541L121.693359375,73.27660780686598L123.45703125,73.5625147819519L125.220703125,73.75348210334778L126.984375,73.8825417481936L128.748046875,73.94097997592046L130.51171875,73.90677653826201L132.275390625,73.82108660844655L134.0390625,73.68401288986206L135.802734375,73.51717444566579L137.56640625,73.30927069370563L139.330078125,73.0784576672774L141.09375,72.83366735164935L142.857421875,72.56705256608815L144.62109375,72.32999388988202L146.384765625,72.09722628960242L148.1484375,71.89979828321016L149.912109375,71.73009056311388L151.67578125,71.62662652822642L153.439453125,71.579103744947L155.203125,71.56839370727539L156.966796875,71.59851468526399L158.73046875,71.67409154085011L160.494140625,71.77976690805876L162.2578125,71.86659620358394L164.021484375,71.93335661521326L165.78515625,72.02070905612065L167.548828125,72.13001755567699L169.3125,72.24547221110417L171.076171875,72.3305427111112L172.83984375,72.38103105471684L174.603515625,72.41513178898738L176.3671875,72.46308143322284L178.130859375,72.47287997832666L179.89453125,72.48393022097075L181.658203125,72.49146287257855L183.421875,72.47422154133136L185.185546875,72.41687453710115L186.94921875,72.36514412439787L188.712890625,72.35309252372156L190.4765625,72.33796944985022L192.240234375,72.32352357644301L194.00390625,72.30126582659209L195.767578125,72.25090265274048L197.53125,72.18942504662733L199.294921875,72.17117272890532L201.05859375,72.1696097117204L202.822265625,72.2211989072653L204.5859375,72.2846535535959L206.349609375,72.33295303124648L208.11328125,72.35911030035753L209.876953125,72.38347026017995L211.640625,72.43561469591582L213.404296875,72.47687578201294L215.16796875,72.50051681811993L216.931640625,72.53247040968675L218.6953125,72.55569100379944L220.458984375,72.53011465072632L222.22265625,72.52537745695848L223.986328125,72.49897305782025L225.75,72.44921647585356L227.513671875,72.44866765462434L229.27734375,72.42081577961261L231.041015625,72.39071405850923L232.8046875,72.3983686703902L234.568359375,72.42376529253447L236.33203125,72.43069456173824L238.095703125,72.435056246244L239.859375,72.42792477974524L241.623046875,72.41126115505512L243.38671875,72.38991168829112L245.150390625,72.36992625089793L246.9140625,72.36913029964154L248.677734375,72.34700092902551L250.44140625,72.33166281993573L252.205078125,72.306227684021L253.96875,72.23947048187256L255.732421875,72.19025309269244L257.49609375,72.13339392955487L259.259765625,72.10525641074548" style="fill: none;" fill="none"></path></g></g></g></g></g></g><g transform="translate(47, 175)" clip-path="url(#clip_1)"><clipPath id="clip_1"><rect width="282" height="25"></rect></clipPath><g><g><line x1="0" y1="0" x2="0" y2="5" style="visibility: inherit;" fill="rgb(0, 0, 0)" stroke="rgb(204, 204, 204)" stroke-width="1px"></line><line x1="35.2734375" y1="0" x2="35.2734375" y2="5" style="visibility: inherit;" fill="rgb(0, 0, 0)" stroke="rgb(204, 204, 204)" stroke-width="1px"></line><line x1="70.546875" y1="0" x2="70.546875" y2="5" style="visibility: inherit;" fill="rgb(0, 0, 0)" stroke="rgb(204, 204, 204)" stroke-width="1px"></line><line x1="105.8203125" y1="0" x2="105.8203125" y2="5" style="visibility: inherit;" fill="rgb(0, 0, 0)" stroke="rgb(204, 204, 204)" stroke-width="1px"></line><line x1="141.09375" y1="0" x2="141.09375" y2="5" style="visibility: inherit;" fill="rgb(0, 0, 0)" stroke="rgb(204, 204, 204)" stroke-width="1px"></line><line x1="176.3671875" y1="0" x2="176.3671875" y2="5" style="visibility: inherit;" fill="rgb(0, 0, 0)" stroke="rgb(204, 204, 204)" stroke-width="1px"></line><line x1="211.640625" y1="0" x2="211.640625" y2="5" style="visibility: inherit;" fill="rgb(0, 0, 0)" stroke="rgb(204, 204, 204)" stroke-width="1px"></line><line x1="246.9140625" y1="0" x2="246.9140625" y2="5" style="visibility: inherit;" fill="rgb(0, 0, 0)" stroke="rgb(204, 204, 204)" stroke-width="1px"></line><line x1="282.1875" y1="0" x2="282.1875" y2="5" style="visibility: inherit;" fill="rgb(0, 0, 0)" stroke="rgb(204, 204, 204)" stroke-width="1px"></line></g><g transform="translate(0, 8)"><text x="0" y="0" dx="0em" dy="0.95em" style="text-anchor: middle; visibility: hidden; font-family: Roboto, sans-serif; font-size: 12px; font-weight: 200;" fill="rgb(50, 49, 63)" stroke="none" stroke-width="1px">-20</text><text x="35.2734375" y="0" dx="0em" dy="0.95em" style="text-anchor: middle; visibility: inherit; font-family: Roboto, sans-serif; font-size: 12px; font-weight: 200;" fill="rgb(50, 49, 63)" stroke="none" stroke-width="1px">0</text><text x="70.546875" y="0" dx="0em" dy="0.95em" style="text-anchor: middle; visibility: inherit; font-family: Roboto, sans-serif; font-size: 12px; font-weight: 200;" fill="rgb(50, 49, 63)" stroke="none" stroke-width="1px">20</text><text x="105.8203125" y="0" dx="0em" dy="0.95em" style="text-anchor: middle; visibility: inherit; font-family: Roboto, sans-serif; font-size: 12px; font-weight: 200;" fill="rgb(50, 49, 63)" stroke="none" stroke-width="1px">40</text><text x="141.09375" y="0" dx="0em" dy="0.95em" style="text-anchor: middle; visibility: inherit; font-family: Roboto, sans-serif; font-size: 12px; font-weight: 200;" fill="rgb(50, 49, 63)" stroke="none" stroke-width="1px">60</text><text x="176.3671875" y="0" dx="0em" dy="0.95em" style="text-anchor: middle; visibility: inherit; font-family: Roboto, sans-serif; font-size: 12px; font-weight: 200;" fill="rgb(50, 49, 63)" stroke="none" stroke-width="1px">80</text><text x="211.640625" y="0" dx="0em" dy="0.95em" style="text-anchor: middle; visibility: inherit; font-family: Roboto, sans-serif; font-size: 12px; font-weight: 200;" fill="rgb(50, 49, 63)" stroke="none" stroke-width="1px">100</text><text x="246.9140625" y="0" dx="0em" dy="0.95em" style="text-anchor: middle; visibility: inherit; font-family: Roboto, sans-serif; font-size: 12px; font-weight: 200;" fill="rgb(50, 49, 63)" stroke="none" stroke-width="1px">120</text><text x="282.1875" y="0" dx="0em" dy="0.95em" style="text-anchor: middle; visibility: hidden; font-family: Roboto, sans-serif; font-size: 12px; font-weight: 200;" fill="rgb(50, 49, 63)" stroke="none" stroke-width="1px">140</text></g><line x1="0" y1="0" x2="282.1875" y2="0" fill="rgb(0, 0, 0)" stroke="rgb(204, 204, 204)" stroke-width="1px"></line></g></g></g></g></svg>