<?xml version="1.0" encoding="utf-8" standalone="no"?>
<!DOCTYPE svg PUBLIC "-//W3C//DTD SVG 1.1//EN"
  "http://www.w3.org/Graphics/SVG/1.1/DTD/svg11.dtd">
<svg height="216pt" version="1.1" viewBox="0 0 288 216" width="288pt" xmlns="http://www.w3.org/2000/svg" xmlns:xlink="http://www.w3.org/1999/xlink">
 <metadata>
  <rdf:RDF xmlns:cc="http://creativecommons.org/ns#" xmlns:dc="http://purl.org/dc/elements/1.1/" xmlns:rdf="http://www.w3.org/1999/02/22-rdf-syntax-ns#">
   <cc:Work>
    <dc:type rdf:resource="http://purl.org/dc/dcmitype/StillImage"/>
    <dc:date>2022-06-21T20:52:47.290787</dc:date>
    <dc:format>image/svg+xml</dc:format>
    <dc:creator>
     <cc:Agent>
      <dc:title>Matplotlib v3.4.0, https://matplotlib.org/</dc:title>
     </cc:Agent>
    </dc:creator>
   </cc:Work>
  </rdf:RDF>
 </metadata>
 <defs>
  <style type="text/css">*{stroke-linecap:butt;stroke-linejoin:round;}</style>
 </defs>
 <g id="figure_1">
  <g id="patch_1">
   <path d="M 0 216 
L 288 216 
L 288 0 
L 0 0 
z
" style="fill:none;"/>
  </g>
  <g id="patch_2">
   <path d="M 66.06 189 
L 229.14 189 
L 229.14 25.92 
L 66.06 25.92 
z
" style="fill:#ffffff;"/>
  </g>
  <g id="pane3d_1">
   <g id="patch_3">
    <path d="M 78.373665 148.789698 
L 132.228007 103.647921 
L 131.47938 38.545408 
L 75.04783 79.726583 
" style="fill:#f2f2f2;opacity:0.5;stroke:#f2f2f2;stroke-linejoin:miter;"/>
   </g>
  </g>
  <g id="pane3d_2">
   <g id="patch_4">
    <path d="M 132.228007 103.647921 
L 218.64501 128.765932 
L 221.728928 61.421038 
L 131.47938 38.545408 
" style="fill:#e6e6e6;opacity:0.5;stroke:#e6e6e6;stroke-linejoin:miter;"/>
   </g>
  </g>
  <g id="pane3d_3">
   <g id="patch_5">
    <path d="M 78.373665 148.789698 
L 169.979909 178.708298 
L 218.64501 128.765932 
L 132.228007 103.647921 
" style="fill:#ececec;opacity:0.5;stroke:#ececec;stroke-linejoin:miter;"/>
   </g>
  </g>
  <g id="axis3d_1">
   <g id="line2d_1">
    <path d="M 78.373665 148.789698 
L 169.979909 178.708298 
" style="fill:none;stroke:#000000;stroke-linecap:square;stroke-width:0.8;"/>
   </g>
   <g id="text_1">
    <!-- $\log(M)$ -->
    <g transform="translate(90.671339 196.505997)rotate(-341.912962)scale(0.1 -0.1)">
     <defs>
      <path d="M 603 4863 
L 1178 4863 
L 1178 0 
L 603 0 
L 603 4863 
z
" id="DejaVuSans-6c" transform="scale(0.015625)"/>
      <path d="M 1959 3097 
Q 1497 3097 1228 2736 
Q 959 2375 959 1747 
Q 959 1119 1226 758 
Q 1494 397 1959 397 
Q 2419 397 2687 759 
Q 2956 1122 2956 1747 
Q 2956 2369 2687 2733 
Q 2419 3097 1959 3097 
z
M 1959 3584 
Q 2709 3584 3137 3096 
Q 3566 2609 3566 1747 
Q 3566 888 3137 398 
Q 2709 -91 1959 -91 
Q 1206 -91 779 398 
Q 353 888 353 1747 
Q 353 2609 779 3096 
Q 1206 3584 1959 3584 
z
" id="DejaVuSans-6f" transform="scale(0.015625)"/>
      <path d="M 2906 1791 
Q 2906 2416 2648 2759 
Q 2391 3103 1925 3103 
Q 1463 3103 1205 2759 
Q 947 2416 947 1791 
Q 947 1169 1205 825 
Q 1463 481 1925 481 
Q 2391 481 2648 825 
Q 2906 1169 2906 1791 
z
M 3481 434 
Q 3481 -459 3084 -895 
Q 2688 -1331 1869 -1331 
Q 1566 -1331 1297 -1286 
Q 1028 -1241 775 -1147 
L 775 -588 
Q 1028 -725 1275 -790 
Q 1522 -856 1778 -856 
Q 2344 -856 2625 -561 
Q 2906 -266 2906 331 
L 2906 616 
Q 2728 306 2450 153 
Q 2172 0 1784 0 
Q 1141 0 747 490 
Q 353 981 353 1791 
Q 353 2603 747 3093 
Q 1141 3584 1784 3584 
Q 2172 3584 2450 3431 
Q 2728 3278 2906 2969 
L 2906 3500 
L 3481 3500 
L 3481 434 
z
" id="DejaVuSans-67" transform="scale(0.015625)"/>
      <path d="M 1984 4856 
Q 1566 4138 1362 3434 
Q 1159 2731 1159 2009 
Q 1159 1288 1364 580 
Q 1569 -128 1984 -844 
L 1484 -844 
Q 1016 -109 783 600 
Q 550 1309 550 2009 
Q 550 2706 781 3412 
Q 1013 4119 1484 4856 
L 1984 4856 
z
" id="DejaVuSans-28" transform="scale(0.015625)"/>
      <path d="M 1081 4666 
L 2028 4666 
L 2572 1522 
L 4378 4666 
L 5350 4666 
L 4441 0 
L 3828 0 
L 4622 4091 
L 2791 897 
L 2175 897 
L 1581 4103 
L 788 0 
L 172 0 
L 1081 4666 
z
" id="DejaVuSans-Oblique-4d" transform="scale(0.015625)"/>
      <path d="M 513 4856 
L 1013 4856 
Q 1481 4119 1714 3412 
Q 1947 2706 1947 2009 
Q 1947 1309 1714 600 
Q 1481 -109 1013 -844 
L 513 -844 
Q 928 -128 1133 580 
Q 1338 1288 1338 2009 
Q 1338 2731 1133 3434 
Q 928 4138 513 4856 
z
" id="DejaVuSans-29" transform="scale(0.015625)"/>
     </defs>
     <use transform="translate(0 0.015625)" xlink:href="#DejaVuSans-6c"/>
     <use transform="translate(27.783203 0.015625)" xlink:href="#DejaVuSans-6f"/>
     <use transform="translate(88.964844 0.015625)" xlink:href="#DejaVuSans-67"/>
     <use transform="translate(152.441406 0.015625)" xlink:href="#DejaVuSans-28"/>
     <use transform="translate(191.455078 0.015625)" xlink:href="#DejaVuSans-Oblique-4d"/>
     <use transform="translate(277.734375 0.015625)" xlink:href="#DejaVuSans-29"/>
    </g>
   </g>
   <g id="Line3DCollection_1">
    <path d="M 83.92182 150.601726 
L 137.483624 105.175522 
L 136.957209 39.933878 
" style="fill:none;stroke:#b0b0b0;stroke-width:0.8;"/>
    <path d="M 109.755335 159.038952 
L 161.917979 112.277624 
L 162.443132 46.393817 
" style="fill:none;stroke:#b0b0b0;stroke-width:0.8;"/>
    <path d="M 136.387469 167.737007 
L 187.044042 119.580778 
L 188.682269 53.044673 
" style="fill:none;stroke:#b0b0b0;stroke-width:0.8;"/>
    <path d="M 163.855837 176.708176 
L 212.891605 127.093645 
L 215.708513 59.895038 
" style="fill:none;stroke:#b0b0b0;stroke-width:0.8;"/>
   </g>
   <g id="xtick_1">
    <g id="line2d_2">
     <path d="M 84.388233 150.206157 
L 82.986992 151.394561 
" style="fill:none;stroke:#000000;stroke-linecap:square;stroke-width:0.8;"/>
    </g>
    <g id="text_2">
     <!-- 2 -->
     <g transform="translate(73.193796 173.947858)scale(0.1 -0.1)">
      <defs>
       <path d="M 1228 531 
L 3431 531 
L 3431 0 
L 469 0 
L 469 531 
Q 828 903 1448 1529 
Q 2069 2156 2228 2338 
Q 2531 2678 2651 2914 
Q 2772 3150 2772 3378 
Q 2772 3750 2511 3984 
Q 2250 4219 1831 4219 
Q 1534 4219 1204 4116 
Q 875 4013 500 3803 
L 500 4441 
Q 881 4594 1212 4672 
Q 1544 4750 1819 4750 
Q 2544 4750 2975 4387 
Q 3406 4025 3406 3419 
Q 3406 3131 3298 2873 
Q 3191 2616 2906 2266 
Q 2828 2175 2409 1742 
Q 1991 1309 1228 531 
z
" id="DejaVuSans-32" transform="scale(0.015625)"/>
      </defs>
      <use xlink:href="#DejaVuSans-32"/>
     </g>
    </g>
   </g>
   <g id="xtick_2">
    <g id="line2d_3">
     <path d="M 110.210126 158.631253 
L 108.843772 159.856125 
" style="fill:none;stroke:#000000;stroke-linecap:square;stroke-width:0.8;"/>
    </g>
    <g id="text_3">
     <!-- 4 -->
     <g transform="translate(99.071202 182.678356)scale(0.1 -0.1)">
      <defs>
       <path d="M 2419 4116 
L 825 1625 
L 2419 1625 
L 2419 4116 
z
M 2253 4666 
L 3047 4666 
L 3047 1625 
L 3713 1625 
L 3713 1100 
L 3047 1100 
L 3047 0 
L 2419 0 
L 2419 1100 
L 313 1100 
L 313 1709 
L 2253 4666 
z
" id="DejaVuSans-34" transform="scale(0.015625)"/>
      </defs>
      <use xlink:href="#DejaVuSans-34"/>
     </g>
    </g>
   </g>
   <g id="xtick_3">
    <g id="line2d_4">
     <path d="M 136.829692 167.316612 
L 135.501068 168.579656 
" style="fill:none;stroke:#000000;stroke-linecap:square;stroke-width:0.8;"/>
    </g>
    <g id="text_4">
     <!-- 6 -->
     <g transform="translate(125.7536 191.680441)scale(0.1 -0.1)">
      <defs>
       <path d="M 2113 2584 
Q 1688 2584 1439 2293 
Q 1191 2003 1191 1497 
Q 1191 994 1439 701 
Q 1688 409 2113 409 
Q 2538 409 2786 701 
Q 3034 994 3034 1497 
Q 3034 2003 2786 2293 
Q 2538 2584 2113 2584 
z
M 3366 4563 
L 3366 3988 
Q 3128 4100 2886 4159 
Q 2644 4219 2406 4219 
Q 1781 4219 1451 3797 
Q 1122 3375 1075 2522 
Q 1259 2794 1537 2939 
Q 1816 3084 2150 3084 
Q 2853 3084 3261 2657 
Q 3669 2231 3669 1497 
Q 3669 778 3244 343 
Q 2819 -91 2113 -91 
Q 1303 -91 875 529 
Q 447 1150 447 2328 
Q 447 3434 972 4092 
Q 1497 4750 2381 4750 
Q 2619 4750 2861 4703 
Q 3103 4656 3366 4563 
z
" id="DejaVuSans-36" transform="scale(0.015625)"/>
      </defs>
      <use xlink:href="#DejaVuSans-36"/>
     </g>
    </g>
   </g>
   <g id="xtick_4">
    <g id="line2d_5">
     <path d="M 164.284471 176.274482 
L 162.996642 177.577512 
" style="fill:none;stroke:#000000;stroke-linecap:square;stroke-width:0.8;"/>
    </g>
    <g id="text_5">
     <!-- 8 -->
     <g transform="translate(153.279144 200.966987)scale(0.1 -0.1)">
      <defs>
       <path d="M 2034 2216 
Q 1584 2216 1326 1975 
Q 1069 1734 1069 1313 
Q 1069 891 1326 650 
Q 1584 409 2034 409 
Q 2484 409 2743 651 
Q 3003 894 3003 1313 
Q 3003 1734 2745 1975 
Q 2488 2216 2034 2216 
z
M 1403 2484 
Q 997 2584 770 2862 
Q 544 3141 544 3541 
Q 544 4100 942 4425 
Q 1341 4750 2034 4750 
Q 2731 4750 3128 4425 
Q 3525 4100 3525 3541 
Q 3525 3141 3298 2862 
Q 3072 2584 2669 2484 
Q 3125 2378 3379 2068 
Q 3634 1759 3634 1313 
Q 3634 634 3220 271 
Q 2806 -91 2034 -91 
Q 1263 -91 848 271 
Q 434 634 434 1313 
Q 434 1759 690 2068 
Q 947 2378 1403 2484 
z
M 1172 3481 
Q 1172 3119 1398 2916 
Q 1625 2713 2034 2713 
Q 2441 2713 2670 2916 
Q 2900 3119 2900 3481 
Q 2900 3844 2670 4047 
Q 2441 4250 2034 4250 
Q 1625 4250 1398 4047 
Q 1172 3844 1172 3481 
z
" id="DejaVuSans-38" transform="scale(0.015625)"/>
      </defs>
      <use xlink:href="#DejaVuSans-38"/>
     </g>
    </g>
   </g>
  </g>
  <g id="axis3d_2">
   <g id="line2d_6">
    <path d="M 218.64501 128.765932 
L 169.979909 178.708298 
" style="fill:none;stroke:#000000;stroke-linecap:square;stroke-width:0.8;"/>
   </g>
   <g id="text_6">
    <!-- $\log(N)$ -->
    <g transform="translate(213.684939 193.530054)rotate(-45.742112)scale(0.1 -0.1)">
     <defs>
      <path d="M 1081 4666 
L 1931 4666 
L 3219 666 
L 4000 4666 
L 4616 4666 
L 3706 0 
L 2853 0 
L 1569 4025 
L 788 0 
L 172 0 
L 1081 4666 
z
" id="DejaVuSans-Oblique-4e" transform="scale(0.015625)"/>
     </defs>
     <use transform="translate(0 0.015625)" xlink:href="#DejaVuSans-6c"/>
     <use transform="translate(27.783203 0.015625)" xlink:href="#DejaVuSans-6f"/>
     <use transform="translate(88.964844 0.015625)" xlink:href="#DejaVuSans-67"/>
     <use transform="translate(152.441406 0.015625)" xlink:href="#DejaVuSans-28"/>
     <use transform="translate(191.455078 0.015625)" xlink:href="#DejaVuSans-Oblique-4e"/>
     <use transform="translate(266.259766 0.015625)" xlink:href="#DejaVuSans-29"/>
    </g>
   </g>
   <g id="Line3DCollection_2">
    <path d="M 78.950211 76.878803 
L 82.084684 145.679048 
L 173.347157 175.252672 
" style="fill:none;stroke:#b0b0b0;stroke-width:0.8;"/>
    <path d="M 99.565248 61.834888 
L 101.721149 129.219374 
L 191.130482 157.002607 
" style="fill:none;stroke:#b0b0b0;stroke-width:0.8;"/>
    <path d="M 118.92877 47.704272 
L 120.215176 113.717314 
L 207.82689 139.867985 
" style="fill:none;stroke:#b0b0b0;stroke-width:0.8;"/>
   </g>
   <g id="xtick_5">
    <g id="line2d_7">
     <path d="M 172.578086 175.003455 
L 174.88729 175.751753 
" style="fill:none;stroke:#000000;stroke-linecap:square;stroke-width:0.8;"/>
    </g>
    <g id="text_7">
     <!-- 2 -->
     <g transform="translate(183.051416 196.279482)scale(0.1 -0.1)">
      <use xlink:href="#DejaVuSans-32"/>
     </g>
    </g>
   </g>
   <g id="xtick_6">
    <g id="line2d_8">
     <path d="M 190.37823 156.768851 
L 192.63687 157.470705 
" style="fill:none;stroke:#000000;stroke-linecap:square;stroke-width:0.8;"/>
    </g>
    <g id="text_8">
     <!-- 4 -->
     <g transform="translate(200.444995 177.588434)scale(0.1 -0.1)">
      <use xlink:href="#DejaVuSans-34"/>
     </g>
    </g>
   </g>
   <g id="xtick_7">
    <g id="line2d_9">
     <path d="M 207.090869 139.648294 
L 209.300719 140.307899 
" style="fill:none;stroke:#000000;stroke-linecap:square;stroke-width:0.8;"/>
    </g>
    <g id="text_9">
     <!-- 6 -->
     <g transform="translate(216.774504 160.04083)scale(0.1 -0.1)">
      <use xlink:href="#DejaVuSans-36"/>
     </g>
    </g>
   </g>
  </g>
  <g id="axis3d_3">
   <g id="line2d_10">
    <path d="M 218.64501 128.765932 
L 221.728928 61.421038 
" style="fill:none;stroke:#000000;stroke-linecap:square;stroke-width:0.8;"/>
   </g>
   <g id="text_10">
    <!-- $\log(d)$ -->
    <g transform="translate(262.435081 105.254847)rotate(-87.378092)scale(0.1 -0.1)">
     <defs>
      <path d="M 2675 525 
Q 2444 222 2128 65 
Q 1813 -91 1428 -91 
Q 903 -91 598 267 
Q 294 625 294 1247 
Q 294 1766 478 2236 
Q 663 2706 1013 3078 
Q 1244 3325 1534 3454 
Q 1825 3584 2144 3584 
Q 2481 3584 2739 3421 
Q 2997 3259 3138 2956 
L 3513 4863 
L 4091 4863 
L 3144 0 
L 2566 0 
L 2675 525 
z
M 891 1350 
Q 891 897 1095 644 
Q 1300 391 1663 391 
Q 1931 391 2161 520 
Q 2391 650 2566 903 
Q 2750 1166 2856 1509 
Q 2963 1853 2963 2188 
Q 2963 2622 2758 2865 
Q 2553 3109 2194 3109 
Q 1922 3109 1687 2981 
Q 1453 2853 1288 2613 
Q 1106 2353 998 2009 
Q 891 1666 891 1350 
z
" id="DejaVuSans-Oblique-64" transform="scale(0.015625)"/>
     </defs>
     <use transform="translate(0 0.015625)" xlink:href="#DejaVuSans-6c"/>
     <use transform="translate(27.783203 0.015625)" xlink:href="#DejaVuSans-6f"/>
     <use transform="translate(88.964844 0.015625)" xlink:href="#DejaVuSans-67"/>
     <use transform="translate(152.441406 0.015625)" xlink:href="#DejaVuSans-28"/>
     <use transform="translate(191.455078 0.015625)" xlink:href="#DejaVuSans-Oblique-64"/>
     <use transform="translate(254.931641 0.015625)" xlink:href="#DejaVuSans-29"/>
    </g>
   </g>
   <g id="Line3DCollection_3">
    <path d="M 218.951293 122.077488 
L 132.153514 97.169877 
L 78.043856 141.941016 
" style="fill:none;stroke:#b0b0b0;stroke-width:0.8;"/>
    <path d="M 219.547063 109.067404 
L 132.008704 84.57684 
L 77.402011 128.612676 
" style="fill:none;stroke:#b0b0b0;stroke-width:0.8;"/>
    <path d="M 220.153188 95.831183 
L 131.861499 71.775456 
L 76.74858 115.043758 
" style="fill:none;stroke:#b0b0b0;stroke-width:0.8;"/>
    <path d="M 220.769941 82.362879 
L 131.711837 58.760513 
L 76.083247 101.227688 
" style="fill:none;stroke:#b0b0b0;stroke-width:0.8;"/>
    <path d="M 221.397603 68.656333 
L 131.559658 45.526622 
L 75.405684 87.157652 
" style="fill:none;stroke:#b0b0b0;stroke-width:0.8;"/>
   </g>
   <g id="xtick_8">
    <g id="line2d_11">
     <path d="M 218.222669 121.868401 
L 220.410282 122.496161 
" style="fill:none;stroke:#000000;stroke-linecap:square;stroke-width:0.8;"/>
    </g>
    <g id="text_11">
     <!-- 7.5 -->
     <g transform="translate(229.293005 127.097148)scale(0.1 -0.1)">
      <defs>
       <path d="M 525 4666 
L 3525 4666 
L 3525 4397 
L 1831 0 
L 1172 0 
L 2766 4134 
L 525 4134 
L 525 4666 
z
" id="DejaVuSans-37" transform="scale(0.015625)"/>
       <path d="M 684 794 
L 1344 794 
L 1344 0 
L 684 0 
L 684 794 
z
" id="DejaVuSans-2e" transform="scale(0.015625)"/>
       <path d="M 691 4666 
L 3169 4666 
L 3169 4134 
L 1269 4134 
L 1269 2991 
Q 1406 3038 1543 3061 
Q 1681 3084 1819 3084 
Q 2600 3084 3056 2656 
Q 3513 2228 3513 1497 
Q 3513 744 3044 326 
Q 2575 -91 1722 -91 
Q 1428 -91 1123 -41 
Q 819 9 494 109 
L 494 744 
Q 775 591 1075 516 
Q 1375 441 1709 441 
Q 2250 441 2565 725 
Q 2881 1009 2881 1497 
Q 2881 1984 2565 2268 
Q 2250 2553 1709 2553 
Q 1456 2553 1204 2497 
Q 953 2441 691 2322 
L 691 4666 
z
" id="DejaVuSans-35" transform="scale(0.015625)"/>
      </defs>
      <use xlink:href="#DejaVuSans-37"/>
      <use x="63.623047" xlink:href="#DejaVuSans-2e"/>
      <use x="95.410156" xlink:href="#DejaVuSans-35"/>
     </g>
    </g>
   </g>
   <g id="xtick_9">
    <g id="line2d_12">
     <path d="M 218.811925 108.861734 
L 221.019111 109.479238 
" style="fill:none;stroke:#000000;stroke-linecap:square;stroke-width:0.8;"/>
    </g>
    <g id="text_12">
     <!-- 10.0 -->
     <g transform="translate(226.861412 114.129314)scale(0.1 -0.1)">
      <defs>
       <path d="M 794 531 
L 1825 531 
L 1825 4091 
L 703 3866 
L 703 4441 
L 1819 4666 
L 2450 4666 
L 2450 531 
L 3481 531 
L 3481 0 
L 794 0 
L 794 531 
z
" id="DejaVuSans-31" transform="scale(0.015625)"/>
       <path d="M 2034 4250 
Q 1547 4250 1301 3770 
Q 1056 3291 1056 2328 
Q 1056 1369 1301 889 
Q 1547 409 2034 409 
Q 2525 409 2770 889 
Q 3016 1369 3016 2328 
Q 3016 3291 2770 3770 
Q 2525 4250 2034 4250 
z
M 2034 4750 
Q 2819 4750 3233 4129 
Q 3647 3509 3647 2328 
Q 3647 1150 3233 529 
Q 2819 -91 2034 -91 
Q 1250 -91 836 529 
Q 422 1150 422 2328 
Q 422 3509 836 4129 
Q 1250 4750 2034 4750 
z
" id="DejaVuSans-30" transform="scale(0.015625)"/>
      </defs>
      <use xlink:href="#DejaVuSans-31"/>
      <use x="63.623047" xlink:href="#DejaVuSans-30"/>
      <use x="127.246094" xlink:href="#DejaVuSans-2e"/>
      <use x="159.033203" xlink:href="#DejaVuSans-30"/>
     </g>
    </g>
   </g>
   <g id="xtick_10">
    <g id="line2d_13">
     <path d="M 219.411418 95.629082 
L 221.63853 96.235876 
" style="fill:none;stroke:#000000;stroke-linecap:square;stroke-width:0.8;"/>
    </g>
    <g id="text_13">
     <!-- 12.5 -->
     <g transform="translate(227.624033 100.937203)scale(0.1 -0.1)">
      <use xlink:href="#DejaVuSans-31"/>
      <use x="63.623047" xlink:href="#DejaVuSans-32"/>
      <use x="127.246094" xlink:href="#DejaVuSans-2e"/>
      <use x="159.033203" xlink:href="#DejaVuSans-35"/>
     </g>
    </g>
   </g>
   <g id="xtick_11">
    <g id="line2d_14">
     <path d="M 220.021419 82.164504 
L 222.26882 82.760115 
" style="fill:none;stroke:#000000;stroke-linecap:square;stroke-width:0.8;"/>
    </g>
    <g id="text_14">
     <!-- 15.0 -->
     <g transform="translate(228.399959 87.514946)scale(0.1 -0.1)">
      <use xlink:href="#DejaVuSans-31"/>
      <use x="63.623047" xlink:href="#DejaVuSans-35"/>
      <use x="127.246094" xlink:href="#DejaVuSans-2e"/>
      <use x="159.033203" xlink:href="#DejaVuSans-30"/>
     </g>
    </g>
   </g>
   <g id="xtick_12">
    <g id="line2d_15">
     <path d="M 220.642205 68.461848 
L 222.910268 69.045785 
" style="fill:none;stroke:#000000;stroke-linecap:square;stroke-width:0.8;"/>
    </g>
    <g id="text_15">
     <!-- 17.5 -->
     <g transform="translate(229.18954 73.856468)scale(0.1 -0.1)">
      <use xlink:href="#DejaVuSans-31"/>
      <use x="63.623047" xlink:href="#DejaVuSans-37"/>
      <use x="127.246094" xlink:href="#DejaVuSans-2e"/>
      <use x="159.033203" xlink:href="#DejaVuSans-35"/>
     </g>
    </g>
   </g>
  </g>
  <g id="axes_1">
   <g id="Poly3DCollection_1">
    <path clip-path="url(#p8a9e982925)" d="M 129.123493 85.226237 
L 142.275823 77.189778 
L 134.039153 78.382163 
z
" style="fill:#26828e;fill-opacity:0.7;"/>
    <path clip-path="url(#p8a9e982925)" d="M 137.378203 84.074261 
L 142.275823 77.189778 
L 129.123493 85.226237 
z
" style="fill:#25838e;fill-opacity:0.7;"/>
    <path clip-path="url(#p8a9e982925)" d="M 129.123493 85.226237 
L 124.145182 92.157542 
L 132.417721 91.047107 
z
" style="fill:#2d718e;fill-opacity:0.7;"/>
    <path clip-path="url(#p8a9e982925)" d="M 129.123493 85.226237 
L 132.417721 91.047107 
L 137.378203 84.074261 
z
" style="fill:#297b8e;fill-opacity:0.7;"/>
    <path clip-path="url(#p8a9e982925)" d="M 145.749545 82.906007 
L 142.275823 77.189778 
L 137.378203 84.074261 
z
" style="fill:#218f8d;fill-opacity:0.7;"/>
    <path clip-path="url(#p8a9e982925)" d="M 150.628129 75.980654 
L 142.275823 77.189778 
L 145.749545 82.906007 
z
" style="fill:#1f988b;fill-opacity:0.7;"/>
    <path clip-path="url(#p8a9e982925)" d="M 137.378203 84.074261 
L 132.417721 91.047107 
L 145.749545 82.906007 
z
" style="fill:#25858e;fill-opacity:0.7;"/>
    <path clip-path="url(#p8a9e982925)" d="M 145.749545 82.906007 
L 159.098521 74.754434 
L 150.628129 75.980654 
z
" style="fill:#1fa287;fill-opacity:0.7;"/>
    <path clip-path="url(#p8a9e982925)" d="M 124.145182 92.157542 
L 119.103014 99.177754 
L 127.393158 98.11003 
z
" style="fill:#33638d;fill-opacity:0.7;"/>
    <path clip-path="url(#p8a9e982925)" d="M 127.393158 98.11003 
L 132.417721 91.047107 
L 124.145182 92.157542 
z
" style="fill:#2e6e8e;fill-opacity:0.7;"/>
    <path clip-path="url(#p8a9e982925)" d="M 145.749545 82.906007 
L 132.417721 91.047107 
L 140.807899 89.920882 
z
" style="fill:#24868e;fill-opacity:0.7;"/>
    <path clip-path="url(#p8a9e982925)" d="M 154.240009 81.72113 
L 159.098521 74.754434 
L 145.749545 82.906007 
z
" style="fill:#20a386;fill-opacity:0.7;"/>
    <path clip-path="url(#p8a9e982925)" d="M 127.393158 98.11003 
L 119.103014 99.177754 
L 113.995752 106.288595 
z
" style="fill:#375a8c;fill-opacity:0.7;"/>
    <path clip-path="url(#p8a9e982925)" d="M 127.393158 98.11003 
L 135.801958 97.027024 
L 132.417721 91.047107 
z
" style="fill:#2c738e;fill-opacity:0.7;"/>
    <path clip-path="url(#p8a9e982925)" d="M 132.417721 91.047107 
L 135.801958 97.027024 
L 140.807899 89.920882 
z
" style="fill:#277e8e;fill-opacity:0.7;"/>
    <path clip-path="url(#p8a9e982925)" d="M 149.318243 88.778526 
L 145.749545 82.906007 
L 140.807899 89.920882 
z
" style="fill:#21918c;fill-opacity:0.7;"/>
    <path clip-path="url(#p8a9e982925)" d="M 154.240009 81.72113 
L 145.749545 82.906007 
L 149.318243 88.778526 
z
" style="fill:#1e9b8a;fill-opacity:0.7;"/>
    <path clip-path="url(#p8a9e982925)" d="M 162.852155 80.519272 
L 159.098521 74.754434 
L 154.240009 81.72113 
z
" style="fill:#28ae80;fill-opacity:0.7;"/>
    <path clip-path="url(#p8a9e982925)" d="M 167.689522 73.510755 
L 159.098521 74.754434 
L 162.852155 80.519272 
z
" style="fill:#35b779;fill-opacity:0.7;"/>
    <path clip-path="url(#p8a9e982925)" d="M 113.995752 106.288595 
L 122.303265 105.264786 
L 127.393158 98.11003 
z
" style="fill:#375b8d;fill-opacity:0.7;"/>
    <path clip-path="url(#p8a9e982925)" d="M 154.240009 81.72113 
L 149.318243 88.778526 
L 162.852155 80.519272 
z
" style="fill:#21a585;fill-opacity:0.7;"/>
    <path clip-path="url(#p8a9e982925)" d="M 113.995752 106.288595 
L 108.822129 113.491833 
L 117.14676 112.513177 
z
" style="fill:#404588;fill-opacity:0.7;"/>
    <path clip-path="url(#p8a9e982925)" d="M 117.14676 112.513177 
L 122.303265 105.264786 
L 113.995752 106.288595 
z
" style="fill:#3c508b;fill-opacity:0.7;"/>
    <path clip-path="url(#p8a9e982925)" d="M 162.852155 80.519272 
L 176.403726 72.24924 
L 167.689522 73.510755 
z
" style="fill:#4ac16d;fill-opacity:0.7;"/>
    <path clip-path="url(#p8a9e982925)" d="M 127.393158 98.11003 
L 122.303265 105.264786 
L 130.730461 104.226226 
z
" style="fill:#31668e;fill-opacity:0.7;"/>
    <path clip-path="url(#p8a9e982925)" d="M 130.730461 104.226226 
L 135.801958 97.027024 
L 127.393158 98.11003 
z
" style="fill:#2d708e;fill-opacity:0.7;"/>
    <path clip-path="url(#p8a9e982925)" d="M 140.807899 89.920882 
L 135.801958 97.027024 
L 144.331981 95.928405 
z
" style="fill:#25838e;fill-opacity:0.7;"/>
    <path clip-path="url(#p8a9e982925)" d="M 144.331981 95.928405 
L 149.318243 88.778526 
L 140.807899 89.920882 
z
" style="fill:#218e8d;fill-opacity:0.7;"/>
    <path clip-path="url(#p8a9e982925)" d="M 117.14676 112.513177 
L 108.822129 113.491833 
L 103.580842 120.789279 
z
" style="fill:#443983;fill-opacity:0.7;"/>
    <path clip-path="url(#p8a9e982925)" d="M 162.852155 80.519272 
L 149.318243 88.778526 
L 157.951355 87.619691 
z
" style="fill:#21a685;fill-opacity:0.7;"/>
    <path clip-path="url(#p8a9e982925)" d="M 130.730461 104.226226 
L 122.303265 105.264786 
L 117.14676 112.513177 
z
" style="fill:#365c8d;fill-opacity:0.7;"/>
    <path clip-path="url(#p8a9e982925)" d="M 171.588617 79.300065 
L 176.403726 72.24924 
L 162.852155 80.519272 
z
" style="fill:#4ac16d;fill-opacity:0.7;"/>
    <path clip-path="url(#p8a9e982925)" d="M 135.801958 97.027024 
L 130.730461 104.226226 
L 144.331981 95.928405 
z
" style="fill:#297b8e;fill-opacity:0.7;"/>
    <path clip-path="url(#p8a9e982925)" d="M 157.951355 87.619691 
L 149.318243 88.778526 
L 144.331981 95.928405 
z
" style="fill:#1f988b;fill-opacity:0.7;"/>
    <path clip-path="url(#p8a9e982925)" d="M 103.580842 120.789279 
L 111.922326 119.857055 
L 117.14676 112.513177 
z
" style="fill:#443a83;fill-opacity:0.7;"/>
    <path clip-path="url(#p8a9e982925)" d="M 157.951355 87.619691 
L 166.709909 86.444018 
L 162.852155 80.519272 
z
" style="fill:#2cb17e;fill-opacity:0.7;"/>
    <path clip-path="url(#p8a9e982925)" d="M 162.852155 80.519272 
L 166.709909 86.444018 
L 171.588617 79.300065 
z
" style="fill:#3aba76;fill-opacity:0.7;"/>
    <path clip-path="url(#p8a9e982925)" d="M 117.14676 112.513177 
L 125.592111 111.520329 
L 130.730461 104.226226 
z
" style="fill:#365d8d;fill-opacity:0.7;"/>
    <path clip-path="url(#p8a9e982925)" d="M 176.403726 72.24924 
L 171.588617 79.300065 
L 180.452108 78.06313 
z
" style="fill:#63cb5f;fill-opacity:0.7;"/>
    <path clip-path="url(#p8a9e982925)" d="M 180.452108 78.06313 
L 185.243803 70.969503 
L 176.403726 72.24924 
z
" style="fill:#7ad151;fill-opacity:0.7;"/>
    <path clip-path="url(#p8a9e982925)" d="M 144.331981 95.928405 
L 130.730461 104.226226 
L 139.279946 103.172596 
z
" style="fill:#287c8e;fill-opacity:0.7;"/>
    <path clip-path="url(#p8a9e982925)" d="M 144.331981 95.928405 
L 152.985867 94.813833 
L 157.951355 87.619691 
z
" style="fill:#1f998a;fill-opacity:0.7;"/>
    <path clip-path="url(#p8a9e982925)" d="M 103.580842 120.789279 
L 98.270554 128.182794 
L 106.628612 127.298318 
z
" style="fill:#482173;fill-opacity:0.7;"/>
    <path clip-path="url(#p8a9e982925)" d="M 106.628612 127.298318 
L 111.922326 119.857055 
L 103.580842 120.789279 
z
" style="fill:#472f7d;fill-opacity:0.7;"/>
    <path clip-path="url(#p8a9e982925)" d="M 152.985867 94.813833 
L 166.709909 86.444018 
L 157.951355 87.619691 
z
" style="fill:#22a884;fill-opacity:0.7;"/>
    <path clip-path="url(#p8a9e982925)" d="M 117.14676 112.513177 
L 111.922326 119.857055 
L 120.385577 118.911222 
z
" style="fill:#3f4788;fill-opacity:0.7;"/>
    <path clip-path="url(#p8a9e982925)" d="M 120.385577 118.911222 
L 125.592111 111.520329 
L 117.14676 112.513177 
z
" style="fill:#3a538b;fill-opacity:0.7;"/>
    <path clip-path="url(#p8a9e982925)" d="M 134.160829 110.512978 
L 130.730461 104.226226 
L 125.592111 111.520329 
z
" style="fill:#30698e;fill-opacity:0.7;"/>
    <path clip-path="url(#p8a9e982925)" d="M 139.279946 103.172596 
L 130.730461 104.226226 
L 134.160829 110.512978 
z
" style="fill:#2c728e;fill-opacity:0.7;"/>
    <path clip-path="url(#p8a9e982925)" d="M 139.279946 103.172596 
L 147.954402 102.103564 
L 144.331981 95.928405 
z
" style="fill:#24868e;fill-opacity:0.7;"/>
    <path clip-path="url(#p8a9e982925)" d="M 147.954402 102.103564 
L 152.985867 94.813833 
L 144.331981 95.928405 
z
" style="fill:#21908d;fill-opacity:0.7;"/>
    <path clip-path="url(#p8a9e982925)" d="M 171.588617 79.300065 
L 166.709909 86.444018 
L 175.59666 85.251137 
z
" style="fill:#46c06f;fill-opacity:0.7;"/>
    <path clip-path="url(#p8a9e982925)" d="M 180.452108 78.06313 
L 171.588617 79.300065 
L 175.59666 85.251137 
z
" style="fill:#5ac864;fill-opacity:0.7;"/>
    <path clip-path="url(#p8a9e982925)" d="M 189.445418 76.808079 
L 185.243803 70.969503 
L 180.452108 78.06313 
z
" style="fill:#8bd646;fill-opacity:0.7;"/>
    <path clip-path="url(#p8a9e982925)" d="M 189.445418 76.808079 
L 194.212501 69.671147 
L 185.243803 70.969503 
z
" style="fill:#a5db36;fill-opacity:0.7;"/>
    <path clip-path="url(#p8a9e982925)" d="M 120.385577 118.911222 
L 111.922326 119.857055 
L 106.628612 127.298318 
z
" style="fill:#433d84;fill-opacity:0.7;"/>
    <path clip-path="url(#p8a9e982925)" d="M 152.985867 94.813833 
L 161.766333 93.682958 
L 166.709909 86.444018 
z
" style="fill:#23a983;fill-opacity:0.7;"/>
    <path clip-path="url(#p8a9e982925)" d="M 125.592111 111.520329 
L 120.385577 118.911222 
L 134.160829 110.512978 
z
" style="fill:#355f8d;fill-opacity:0.7;"/>
    <path clip-path="url(#p8a9e982925)" d="M 134.160829 110.512978 
L 147.954402 102.103564 
L 139.279946 103.172596 
z
" style="fill:#277e8e;fill-opacity:0.7;"/>
    <path clip-path="url(#p8a9e982925)" d="M 98.270554 128.182794 
L 92.889895 135.674288 
L 101.26423 134.838916 
z
" style="fill:#470e61;fill-opacity:0.7;"/>
    <path clip-path="url(#p8a9e982925)" d="M 106.628612 127.298318 
L 98.270554 128.182794 
L 101.26423 134.838916 
z
" style="fill:#481c6e;fill-opacity:0.7;"/>
    <path clip-path="url(#p8a9e982925)" d="M 161.766333 93.682958 
L 175.59666 85.251137 
L 166.709909 86.444018 
z
" style="fill:#35b779;fill-opacity:0.7;"/>
    <path clip-path="url(#p8a9e982925)" d="M 203.312645 68.353761 
L 194.212501 69.671147 
L 189.445418 76.808079 
z
" style="fill:#c5e021;fill-opacity:0.7;"/>
    <path clip-path="url(#p8a9e982925)" d="M 152.985867 94.813833 
L 147.954402 102.103564 
L 156.756587 101.018792 
z
" style="fill:#1f968b;fill-opacity:0.7;"/>
    <path clip-path="url(#p8a9e982925)" d="M 156.756587 101.018792 
L 161.766333 93.682958 
L 152.985867 94.813833 
z
" style="fill:#1fa188;fill-opacity:0.7;"/>
    <path clip-path="url(#p8a9e982925)" d="M 106.628612 127.298318 
L 115.109494 126.400844 
L 120.385577 118.911222 
z
" style="fill:#433e85;fill-opacity:0.7;"/>
    <path clip-path="url(#p8a9e982925)" d="M 134.160829 110.512978 
L 120.385577 118.911222 
L 128.973283 117.95148 
z
" style="fill:#34608d;fill-opacity:0.7;"/>
    <path clip-path="url(#p8a9e982925)" d="M 180.452108 78.06313 
L 175.59666 85.251137 
L 184.614442 84.040667 
z
" style="fill:#69cd5b;fill-opacity:0.7;"/>
    <path clip-path="url(#p8a9e982925)" d="M 184.614442 84.040667 
L 189.445418 76.808079 
L 180.452108 78.06313 
z
" style="fill:#81d34d;fill-opacity:0.7;"/>
    <path clip-path="url(#p8a9e982925)" d="M 101.26423 134.838916 
L 92.889895 135.674288 
L 87.437456 143.265721 
z
" style="fill:#440154;fill-opacity:0.7;"/>
    <path clip-path="url(#p8a9e982925)" d="M 134.160829 110.512978 
L 142.855635 109.490804 
L 147.954402 102.103564 
z
" style="fill:#277f8e;fill-opacity:0.7;"/>
    <path clip-path="url(#p8a9e982925)" d="M 101.26423 134.838916 
L 115.109494 126.400844 
L 106.628612 127.298318 
z
" style="fill:#472c7a;fill-opacity:0.7;"/>
    <path clip-path="url(#p8a9e982925)" d="M 170.676177 92.53542 
L 175.59666 85.251137 
L 161.766333 93.682958 
z
" style="fill:#37b878;fill-opacity:0.7;"/>
    <path clip-path="url(#p8a9e982925)" d="M 156.756587 101.018792 
L 147.954402 102.103564 
L 142.855635 109.490804 
z
" style="fill:#218e8d;fill-opacity:0.7;"/>
    <path clip-path="url(#p8a9e982925)" d="M 198.57142 75.53451 
L 203.312645 68.353761 
L 189.445418 76.808079 
z
" style="fill:#c8e020;fill-opacity:0.7;"/>
    <path clip-path="url(#p8a9e982925)" d="M 123.715928 125.490083 
L 120.385577 118.911222 
L 115.109494 126.400844 
z
" style="fill:#3e4a89;fill-opacity:0.7;"/>
    <path clip-path="url(#p8a9e982925)" d="M 128.973283 117.95148 
L 120.385577 118.911222 
L 123.715928 125.490083 
z
" style="fill:#39568c;fill-opacity:0.7;"/>
    <path clip-path="url(#p8a9e982925)" d="M 184.614442 84.040667 
L 175.59666 85.251137 
L 170.676177 92.53542 
z
" style="fill:#54c568;fill-opacity:0.7;"/>
    <path clip-path="url(#p8a9e982925)" d="M 128.973283 117.95148 
L 137.688208 116.977521 
L 134.160829 110.512978 
z
" style="fill:#2f6c8e;fill-opacity:0.7;"/>
    <path clip-path="url(#p8a9e982925)" d="M 137.688208 116.977521 
L 142.855635 109.490804 
L 134.160829 110.512978 
z
" style="fill:#2b758e;fill-opacity:0.7;"/>
    <path clip-path="url(#p8a9e982925)" d="M 87.437456 143.265721 
L 95.827757 142.480852 
L 101.26423 134.838916 
z
" style="fill:#440154;fill-opacity:0.7;"/>
    <path clip-path="url(#p8a9e982925)" d="M 198.57142 75.53451 
L 189.445418 76.808079 
L 184.614442 84.040667 
z
" style="fill:#a0da39;fill-opacity:0.7;"/>
    <path clip-path="url(#p8a9e982925)" d="M 109.762457 133.991186 
L 115.109494 126.400844 
L 101.26423 134.838916 
z
" style="fill:#472d7b;fill-opacity:0.7;"/>
    <path clip-path="url(#p8a9e982925)" d="M 156.756587 101.018792 
L 165.689345 99.917927 
L 161.766333 93.682958 
z
" style="fill:#21a685;fill-opacity:0.7;"/>
    <path clip-path="url(#p8a9e982925)" d="M 161.766333 93.682958 
L 165.689345 99.917927 
L 170.676177 92.53542 
z
" style="fill:#2ab07f;fill-opacity:0.7;"/>
    <path clip-path="url(#p8a9e982925)" d="M 142.855635 109.490804 
L 151.679334 108.453477 
L 156.756587 101.018792 
z
" style="fill:#218f8d;fill-opacity:0.7;"/>
    <path clip-path="url(#p8a9e982925)" d="M 198.57142 75.53451 
L 207.833073 74.24201 
L 203.312645 68.353761 
z
" style="fill:#e5e419;fill-opacity:0.7;"/>
    <path clip-path="url(#p8a9e982925)" d="M 203.312645 68.353761 
L 207.833073 74.24201 
L 212.547148 67.016925 
z
" style="fill:#fde725;fill-opacity:0.7;"/>
    <path clip-path="url(#p8a9e982925)" d="M 123.715928 125.490083 
L 115.109494 126.400844 
L 109.762457 133.991186 
z
" style="fill:#424086;fill-opacity:0.7;"/>
    <path clip-path="url(#p8a9e982925)" d="M 123.715928 125.490083 
L 137.688208 116.977521 
L 128.973283 117.95148 
z
" style="fill:#33628d;fill-opacity:0.7;"/>
    <path clip-path="url(#p8a9e982925)" d="M 170.676177 92.53542 
L 179.71828 91.370848 
L 184.614442 84.040667 
z
" style="fill:#56c667;fill-opacity:0.7;"/>
    <path clip-path="url(#p8a9e982925)" d="M 184.614442 84.040667 
L 193.766176 82.812217 
L 198.57142 75.53451 
z
" style="fill:#a0da39;fill-opacity:0.7;"/>
    <path clip-path="url(#p8a9e982925)" d="M 101.26423 134.838916 
L 95.827757 142.480852 
L 104.343027 141.684294 
z
" style="fill:#471365;fill-opacity:0.7;"/>
    <path clip-path="url(#p8a9e982925)" d="M 101.26423 134.838916 
L 104.343027 141.684294 
L 109.762457 133.991186 
z
" style="fill:#482071;fill-opacity:0.7;"/>
    <path clip-path="url(#p8a9e982925)" d="M 170.676177 92.53542 
L 165.689345 99.917927 
L 179.71828 91.370848 
z
" style="fill:#3aba76;fill-opacity:0.7;"/>
    <path clip-path="url(#p8a9e982925)" d="M 142.855635 109.490804 
L 137.688208 116.977521 
L 146.5332 115.989026 
z
" style="fill:#287c8e;fill-opacity:0.7;"/>
    <path clip-path="url(#p8a9e982925)" d="M 146.5332 115.989026 
L 151.679334 108.453477 
L 142.855635 109.490804 
z
" style="fill:#25858e;fill-opacity:0.7;"/>
    <path clip-path="url(#p8a9e982925)" d="M 193.766176 82.812217 
L 207.833073 74.24201 
L 198.57142 75.53451 
z
" style="fill:#cde11d;fill-opacity:0.7;"/>
    <path clip-path="url(#p8a9e982925)" d="M 156.756587 101.018792 
L 151.679334 108.453477 
L 160.634813 107.400658 
z
" style="fill:#1f998a;fill-opacity:0.7;"/>
    <path clip-path="url(#p8a9e982925)" d="M 160.634813 107.400658 
L 165.689345 99.917927 
L 156.756587 101.018792 
z
" style="fill:#1fa287;fill-opacity:0.7;"/>
    <path clip-path="url(#p8a9e982925)" d="M 109.762457 133.991186 
L 118.387345 133.130821 
L 123.715928 125.490083 
z
" style="fill:#424186;fill-opacity:0.7;"/>
    <path clip-path="url(#p8a9e982925)" d="M 132.450723 124.565739 
L 137.688208 116.977521 
L 123.715928 125.490083 
z
" style="fill:#33638d;fill-opacity:0.7;"/>
    <path clip-path="url(#p8a9e982925)" d="M 184.614442 84.040667 
L 179.71828 91.370848 
L 188.895609 90.18886 
z
" style="fill:#70cf57;fill-opacity:0.7;"/>
    <path clip-path="url(#p8a9e982925)" d="M 188.895609 90.18886 
L 193.766176 82.812217 
L 184.614442 84.040667 
z
" style="fill:#89d548;fill-opacity:0.7;"/>
    <path clip-path="url(#p8a9e982925)" d="M 109.762457 133.991186 
L 104.343027 141.684294 
L 118.387345 133.130821 
z
" style="fill:#472f7d;fill-opacity:0.7;"/>
    <path clip-path="url(#p8a9e982925)" d="M 165.689345 99.917927 
L 174.755603 98.80061 
L 179.71828 91.370848 
z
" style="fill:#3bbb75;fill-opacity:0.7;"/>
    <path clip-path="url(#p8a9e982925)" d="M 160.634813 107.400658 
L 151.679334 108.453477 
L 146.5332 115.989026 
z
" style="fill:#21908d;fill-opacity:0.7;"/>
    <path clip-path="url(#p8a9e982925)" d="M 203.054869 81.565383 
L 207.833073 74.24201 
L 193.766176 82.812217 
z
" style="fill:#d0e11c;fill-opacity:0.7;"/>
    <path clip-path="url(#p8a9e982925)" d="M 160.634813 107.400658 
L 174.755603 98.80061 
L 165.689345 99.917927 
z
" style="fill:#27ad81;fill-opacity:0.7;"/>
    <path clip-path="url(#p8a9e982925)" d="M 123.715928 125.490083 
L 118.387345 133.130821 
L 127.141747 132.257536 
z
" style="fill:#3d4e8a;fill-opacity:0.7;"/>
    <path clip-path="url(#p8a9e982925)" d="M 123.715928 125.490083 
L 127.141747 132.257536 
L 132.450723 124.565739 
z
" style="fill:#375a8c;fill-opacity:0.7;"/>
    <path clip-path="url(#p8a9e982925)" d="M 141.316773 123.627505 
L 137.688208 116.977521 
L 132.450723 124.565739 
z
" style="fill:#2e6e8e;fill-opacity:0.7;"/>
    <path clip-path="url(#p8a9e982925)" d="M 146.5332 115.989026 
L 137.688208 116.977521 
L 141.316773 123.627505 
z
" style="fill:#2a788e;fill-opacity:0.7;"/>
    <path clip-path="url(#p8a9e982925)" d="M 104.343027 141.684294 
L 112.986077 140.875782 
L 118.387345 133.130821 
z
" style="fill:#46307e;fill-opacity:0.7;"/>
    <path clip-path="url(#p8a9e982925)" d="M 179.71828 91.370848 
L 174.755603 98.80061 
L 183.958376 97.66647 
z
" style="fill:#50c46a;fill-opacity:0.7;"/>
    <path clip-path="url(#p8a9e982925)" d="M 179.71828 91.370848 
L 183.958376 97.66647 
L 188.895609 90.18886 
z
" style="fill:#67cc5c;fill-opacity:0.7;"/>
    <path clip-path="url(#p8a9e982925)" d="M 188.895609 90.18886 
L 198.211219 88.989062 
L 193.766176 82.812217 
z
" style="fill:#9bd93c;fill-opacity:0.7;"/>
    <path clip-path="url(#p8a9e982925)" d="M 198.211219 88.989062 
L 203.054869 81.565383 
L 193.766176 82.812217 
z
" style="fill:#b5de2b;fill-opacity:0.7;"/>
    <path clip-path="url(#p8a9e982925)" d="M 146.5332 115.989026 
L 155.511192 114.985667 
L 160.634813 107.400658 
z
" style="fill:#21918c;fill-opacity:0.7;"/>
    <path clip-path="url(#p8a9e982925)" d="M 169.725047 106.331997 
L 174.755603 98.80061 
L 160.634813 107.400658 
z
" style="fill:#28ae80;fill-opacity:0.7;"/>
    <path clip-path="url(#p8a9e982925)" d="M 127.141747 132.257536 
L 141.316773 123.627505 
L 132.450723 124.565739 
z
" style="fill:#32658e;fill-opacity:0.7;"/>
    <path clip-path="url(#p8a9e982925)" d="M 146.5332 115.989026 
L 141.316773 123.627505 
L 155.511192 114.985667 
z
" style="fill:#26828e;fill-opacity:0.7;"/>
    <path clip-path="url(#p8a9e982925)" d="M 118.387345 133.130821 
L 112.986077 140.875782 
L 121.759806 140.055047 
z
" style="fill:#433e85;fill-opacity:0.7;"/>
    <path clip-path="url(#p8a9e982925)" d="M 121.759806 140.055047 
L 127.141747 132.257536 
L 118.387345 133.130821 
z
" style="fill:#3e4989;fill-opacity:0.7;"/>
    <path clip-path="url(#p8a9e982925)" d="M 183.958376 97.66647 
L 198.211219 88.989062 
L 188.895609 90.18886 
z
" style="fill:#81d34d;fill-opacity:0.7;"/>
    <path clip-path="url(#p8a9e982925)" d="M 160.634813 107.400658 
L 155.511192 114.985667 
L 164.625209 113.967106 
z
" style="fill:#1e9c89;fill-opacity:0.7;"/>
    <path clip-path="url(#p8a9e982925)" d="M 160.634813 107.400658 
L 164.625209 113.967106 
L 169.725047 106.331997 
z
" style="fill:#21a585;fill-opacity:0.7;"/>
    <path clip-path="url(#p8a9e982925)" d="M 178.9531 105.247133 
L 174.755603 98.80061 
L 169.725047 106.331997 
z
" style="fill:#37b878;fill-opacity:0.7;"/>
    <path clip-path="url(#p8a9e982925)" d="M 183.958376 97.66647 
L 174.755603 98.80061 
L 178.9531 105.247133 
z
" style="fill:#4ac16d;fill-opacity:0.7;"/>
    <path clip-path="url(#p8a9e982925)" d="M 136.028603 131.371038 
L 141.316773 123.627505 
L 127.141747 132.257536 
z
" style="fill:#31668e;fill-opacity:0.7;"/>
    <path clip-path="url(#p8a9e982925)" d="M 155.511192 114.985667 
L 141.316773 123.627505 
L 150.317057 122.675066 
z
" style="fill:#25838e;fill-opacity:0.7;"/>
    <path clip-path="url(#p8a9e982925)" d="M 183.958376 97.66647 
L 193.30077 96.515122 
L 198.211219 88.989062 
z
" style="fill:#84d44b;fill-opacity:0.7;"/>
    <path clip-path="url(#p8a9e982925)" d="M 169.725047 106.331997 
L 164.625209 113.967106 
L 178.9531 105.247133 
z
" style="fill:#2ab07f;fill-opacity:0.7;"/>
    <path clip-path="url(#p8a9e982925)" d="M 121.759806 140.055047 
L 130.6672 139.221807 
L 127.141747 132.257536 
z
" style="fill:#3b518b;fill-opacity:0.7;"/>
    <path clip-path="url(#p8a9e982925)" d="M 127.141747 132.257536 
L 130.6672 139.221807 
L 136.028603 131.371038 
z
" style="fill:#365c8d;fill-opacity:0.7;"/>
    <path clip-path="url(#p8a9e982925)" d="M 193.30077 96.515122 
L 183.958376 97.66647 
L 178.9531 105.247133 
z
" style="fill:#60ca60;fill-opacity:0.7;"/>
    <path clip-path="url(#p8a9e982925)" d="M 136.028603 131.371038 
L 145.050941 130.471026 
L 141.316773 123.627505 
z
" style="fill:#2d718e;fill-opacity:0.7;"/>
    <path clip-path="url(#p8a9e982925)" d="M 141.316773 123.627505 
L 145.050941 130.471026 
L 150.317057 122.675066 
z
" style="fill:#297b8e;fill-opacity:0.7;"/>
    <path clip-path="url(#p8a9e982925)" d="M 150.317057 122.675066 
L 159.454648 121.708097 
L 155.511192 114.985667 
z
" style="fill:#218f8d;fill-opacity:0.7;"/>
    <path clip-path="url(#p8a9e982925)" d="M 155.511192 114.985667 
L 159.454648 121.708097 
L 164.625209 113.967106 
z
" style="fill:#1f988b;fill-opacity:0.7;"/>
    <path clip-path="url(#p8a9e982925)" d="M 164.625209 113.967106 
L 173.878364 112.932996 
L 178.9531 105.247133 
z
" style="fill:#2cb17e;fill-opacity:0.7;"/>
    <path clip-path="url(#p8a9e982925)" d="M 136.028603 131.371038 
L 130.6672 139.221807 
L 145.050941 130.471026 
z
" style="fill:#31688e;fill-opacity:0.7;"/>
    <path clip-path="url(#p8a9e982925)" d="M 188.32213 104.145696 
L 193.30077 96.515122 
L 178.9531 105.247133 
z
" style="fill:#63cb5f;fill-opacity:0.7;"/>
    <path clip-path="url(#p8a9e982925)" d="M 150.317057 122.675066 
L 145.050941 130.471026 
L 159.454648 121.708097 
z
" style="fill:#25858e;fill-opacity:0.7;"/>
    <path clip-path="url(#p8a9e982925)" d="M 164.625209 113.967106 
L 159.454648 121.708097 
L 173.878364 112.932996 
z
" style="fill:#1fa287;fill-opacity:0.7;"/>
    <path clip-path="url(#p8a9e982925)" d="M 178.9531 105.247133 
L 173.878364 112.932996 
L 183.273868 111.882977 
z
" style="fill:#3bbb75;fill-opacity:0.7;"/>
    <path clip-path="url(#p8a9e982925)" d="M 178.9531 105.247133 
L 183.273868 111.882977 
L 188.32213 104.145696 
z
" style="fill:#4ec36b;fill-opacity:0.7;"/>
    <path clip-path="url(#p8a9e982925)" d="M 145.050941 130.471026 
L 130.6672 139.221807 
L 139.711337 138.375776 
z
" style="fill:#30698e;fill-opacity:0.7;"/>
    <path clip-path="url(#p8a9e982925)" d="M 145.050941 130.471026 
L 154.211883 129.557187 
L 159.454648 121.708097 
z
" style="fill:#24868e;fill-opacity:0.7;"/>
    <path clip-path="url(#p8a9e982925)" d="M 173.878364 112.932996 
L 159.454648 121.708097 
L 168.732712 120.726263 
z
" style="fill:#20a386;fill-opacity:0.7;"/>
    <path clip-path="url(#p8a9e982925)" d="M 148.89539 137.516657 
L 145.050941 130.471026 
L 139.711337 138.375776 
z
" style="fill:#2c738e;fill-opacity:0.7;"/>
    <path clip-path="url(#p8a9e982925)" d="M 148.89539 137.516657 
L 154.211883 129.557187 
L 145.050941 130.471026 
z
" style="fill:#277e8e;fill-opacity:0.7;"/>
    <path clip-path="url(#p8a9e982925)" d="M 154.211883 129.557187 
L 163.514648 128.629201 
L 159.454648 121.708097 
z
" style="fill:#21918c;fill-opacity:0.7;"/>
    <path clip-path="url(#p8a9e982925)" d="M 159.454648 121.708097 
L 163.514648 128.629201 
L 168.732712 120.726263 
z
" style="fill:#1e9b8a;fill-opacity:0.7;"/>
    <path clip-path="url(#p8a9e982925)" d="M 168.732712 120.726263 
L 178.154514 119.729218 
L 173.878364 112.932996 
z
" style="fill:#28ae80;fill-opacity:0.7;"/>
    <path clip-path="url(#p8a9e982925)" d="M 178.154514 119.729218 
L 183.273868 111.882977 
L 173.878364 112.932996 
z
" style="fill:#35b779;fill-opacity:0.7;"/>
    <path clip-path="url(#p8a9e982925)" d="M 154.211883 129.557187 
L 148.89539 137.516657 
L 163.514648 128.629201 
z
" style="fill:#23888e;fill-opacity:0.7;"/>
    <path clip-path="url(#p8a9e982925)" d="M 163.514648 128.629201 
L 178.154514 119.729218 
L 168.732712 120.726263 
z
" style="fill:#21a585;fill-opacity:0.7;"/>
    <path clip-path="url(#p8a9e982925)" d="M 163.514648 128.629201 
L 148.89539 137.516657 
L 158.222631 136.644143 
z
" style="fill:#23898e;fill-opacity:0.7;"/>
    <path clip-path="url(#p8a9e982925)" d="M 163.514648 128.629201 
L 172.962555 127.686737 
L 178.154514 119.729218 
z
" style="fill:#21a685;fill-opacity:0.7;"/>
    <path clip-path="url(#p8a9e982925)" d="M 163.514648 128.629201 
L 158.222631 136.644143 
L 167.696436 135.757918 
z
" style="fill:#20938c;fill-opacity:0.7;"/>
    <path clip-path="url(#p8a9e982925)" d="M 167.696436 135.757918 
L 172.962555 127.686737 
L 163.514648 128.629201 
z
" style="fill:#1f9e89;fill-opacity:0.7;"/>
   </g>
   <g id="Path3DCollection_1">
    <defs>
     <path d="M 0 2.236068 
C 0.593012 2.236068 1.161816 2.000462 1.581139 1.581139 
C 2.000462 1.161816 2.236068 0.593012 2.236068 -0 
C 2.236068 -0.593012 2.000462 -1.161816 1.581139 -1.581139 
C 1.161816 -2.000462 0.593012 -2.236068 0 -2.236068 
C -0.593012 -2.236068 -1.161816 -2.000462 -1.581139 -1.581139 
C -2.000462 -1.161816 -2.236068 -0.593012 -2.236068 0 
C -2.236068 0.593012 -2.000462 1.161816 -1.581139 1.581139 
C -1.161816 2.000462 -0.593012 2.236068 0 2.236068 
z
" id="C0_0_e43bda459e"/>
    </defs>
    <g clip-path="url(#p8a9e982925)">
     <use style="fill-opacity:0.3;stroke:#000000;stroke-opacity:0.3;stroke-width:0.5;" x="134.039153" xlink:href="#C0_0_e43bda459e" y="78.382163"/>
    </g>
    <g clip-path="url(#p8a9e982925)">
     <use style="fill-opacity:0.35441;stroke:#000000;stroke-opacity:0.35441;stroke-width:0.5;" x="146.43737" xlink:href="#C0_0_e43bda459e" y="76.58733"/>
    </g>
    <g clip-path="url(#p8a9e982925)">
     <use style="fill-opacity:0.359408;stroke:#000000;stroke-opacity:0.359408;stroke-width:0.5;" x="125.145913" xlink:href="#C0_0_e43bda459e" y="90.764223"/>
    </g>
    <g clip-path="url(#p8a9e982925)">
     <use style="fill-opacity:0.409975;stroke:#000000;stroke-opacity:0.409975;stroke-width:0.5;" x="159.098521" xlink:href="#C0_0_e43bda459e" y="74.754434"/>
    </g>
    <g clip-path="url(#p8a9e982925)">
     <use style="fill-opacity:0.415079;stroke:#000000;stroke-opacity:0.415079;stroke-width:0.5;" x="137.593282" xlink:href="#C0_0_e43bda459e" y="89.080032"/>
    </g>
    <g clip-path="url(#p8a9e982925)">
     <use style="fill-opacity:0.420193;stroke:#000000;stroke-opacity:0.420193;stroke-width:0.5;" x="116.046549" xlink:href="#C0_0_e43bda459e" y="103.433271"/>
    </g>
    <g clip-path="url(#p8a9e982925)">
     <use style="fill-opacity:0.46673;stroke:#000000;stroke-opacity:0.46673;stroke-width:0.5;" x="172.031059" xlink:href="#C0_0_e43bda459e" y="72.882251"/>
    </g>
    <g clip-path="url(#p8a9e982925)">
     <use style="fill-opacity:0.471944;stroke:#000000;stroke-opacity:0.471944;stroke-width:0.5;" x="150.307716" xlink:href="#C0_0_e43bda459e" y="87.359706"/>
    </g>
    <g clip-path="url(#p8a9e982925)">
     <use style="fill-opacity:0.477168;stroke:#000000;stroke-opacity:0.477168;stroke-width:0.5;" x="128.542007" xlink:href="#C0_0_e43bda459e" y="101.865396"/>
    </g>
    <g clip-path="url(#p8a9e982925)">
     <use style="fill-opacity:0.482403;stroke:#000000;stroke-opacity:0.482403;stroke-width:0.5;" x="106.733808" xlink:href="#C0_0_e43bda459e" y="116.399403"/>
    </g>
    <g clip-path="url(#p8a9e982925)">
     <use style="fill-opacity:0.524715;stroke:#000000;stroke-opacity:0.524715;stroke-width:0.5;" x="185.243803" xlink:href="#C0_0_e43bda459e" y="70.969503"/>
    </g>
    <g clip-path="url(#p8a9e982925)">
     <use style="fill-opacity:0.530043;stroke:#000000;stroke-opacity:0.530043;stroke-width:0.5;" x="163.297902" xlink:href="#C0_0_e43bda459e" y="85.602069"/>
    </g>
    <g clip-path="url(#p8a9e982925)">
     <use style="fill-opacity:0.535381;stroke:#000000;stroke-opacity:0.535381;stroke-width:0.5;" x="141.308736" xlink:href="#C0_0_e43bda459e" y="100.263483"/>
    </g>
    <g clip-path="url(#p8a9e982925)">
     <use style="fill-opacity:0.54073;stroke:#000000;stroke-opacity:0.54073;stroke-width:0.5;" x="119.276177" xlink:href="#C0_0_e43bda459e" y="114.953828"/>
    </g>
    <g clip-path="url(#p8a9e982925)">
     <use style="fill-opacity:0.546089;stroke:#000000;stroke-opacity:0.546089;stroke-width:0.5;" x="97.200097" xlink:href="#C0_0_e43bda459e" y="129.673193"/>
    </g>
    <g clip-path="url(#p8a9e982925)">
     <use style="fill-opacity:0.58397;stroke:#000000;stroke-opacity:0.58397;stroke-width:0.5;" x="198.745962" xlink:href="#C0_0_e43bda459e" y="69.014859"/>
    </g>
    <g clip-path="url(#p8a9e982925)">
     <use style="fill-opacity:0.589415;stroke:#000000;stroke-opacity:0.589415;stroke-width:0.5;" x="176.572911" xlink:href="#C0_0_e43bda459e" y="83.805895"/>
    </g>
    <g clip-path="url(#p8a9e982925)">
     <use style="fill-opacity:0.594871;stroke:#000000;stroke-opacity:0.594871;stroke-width:0.5;" x="154.355667" xlink:href="#C0_0_e43bda459e" y="98.626411"/>
    </g>
    <g clip-path="url(#p8a9e982925)">
     <use style="fill-opacity:0.600338;stroke:#000000;stroke-opacity:0.600338;stroke-width:0.5;" x="132.094098" xlink:href="#C0_0_e43bda459e" y="113.476495"/>
    </g>
    <g clip-path="url(#p8a9e982925)">
     <use style="fill-opacity:0.605816;stroke:#000000;stroke-opacity:0.605816;stroke-width:0.5;" x="109.788072" xlink:href="#C0_0_e43bda459e" y="128.356235"/>
    </g>
    <g clip-path="url(#p8a9e982925)">
     <use style="fill-opacity:0.611305;stroke:#000000;stroke-opacity:0.611305;stroke-width:0.5;" x="87.437456" xlink:href="#C0_0_e43bda459e" y="143.265721"/>
    </g>
    <g clip-path="url(#p8a9e982925)">
     <use style="fill-opacity:0.644537;stroke:#000000;stroke-opacity:0.644537;stroke-width:0.5;" x="212.547148" xlink:href="#C0_0_e43bda459e" y="67.016925"/>
    </g>
    <g clip-path="url(#p8a9e982925)">
     <use style="fill-opacity:0.650104;stroke:#000000;stroke-opacity:0.650104;stroke-width:0.5;" x="190.142212" xlink:href="#C0_0_e43bda459e" y="81.969901"/>
    </g>
    <g clip-path="url(#p8a9e982925)">
     <use style="fill-opacity:0.655681;stroke:#000000;stroke-opacity:0.655681;stroke-width:0.5;" x="167.692126" xlink:href="#C0_0_e43bda459e" y="96.953011"/>
    </g>
    <g clip-path="url(#p8a9e982925)">
     <use style="fill-opacity:0.66127;stroke:#000000;stroke-opacity:0.66127;stroke-width:0.5;" x="145.196753" xlink:href="#C0_0_e43bda459e" y="111.966344"/>
    </g>
    <g clip-path="url(#p8a9e982925)">
     <use style="fill-opacity:0.666871;stroke:#000000;stroke-opacity:0.666871;stroke-width:0.5;" x="122.655956" xlink:href="#C0_0_e43bda459e" y="127.009994"/>
    </g>
    <g clip-path="url(#p8a9e982925)">
     <use style="fill-opacity:0.672482;stroke:#000000;stroke-opacity:0.672482;stroke-width:0.5;" x="100.069597" xlink:href="#C0_0_e43bda459e" y="142.084051"/>
    </g>
    <g clip-path="url(#p8a9e982925)">
     <use style="fill-opacity:0.712153;stroke:#000000;stroke-opacity:0.712153;stroke-width:0.5;" x="204.015703" xlink:href="#C0_0_e43bda459e" y="80.092749"/>
    </g>
    <g clip-path="url(#p8a9e982925)">
     <use style="fill-opacity:0.717856;stroke:#000000;stroke-opacity:0.717856;stroke-width:0.5;" x="181.327859" xlink:href="#C0_0_e43bda459e" y="95.242059"/>
    </g>
    <g clip-path="url(#p8a9e982925)">
     <use style="fill-opacity:0.723572;stroke:#000000;stroke-opacity:0.723572;stroke-width:0.5;" x="158.593735" xlink:href="#C0_0_e43bda459e" y="110.422271"/>
    </g>
    <g clip-path="url(#p8a9e982925)">
     <use style="fill-opacity:0.729298;stroke:#000000;stroke-opacity:0.729298;stroke-width:0.5;" x="135.813188" xlink:href="#C0_0_e43bda459e" y="125.633481"/>
    </g>
    <g clip-path="url(#p8a9e982925)">
     <use style="fill-opacity:0.735037;stroke:#000000;stroke-opacity:0.735037;stroke-width:0.5;" x="112.986077" xlink:href="#C0_0_e43bda459e" y="140.875782"/>
    </g>
    <g clip-path="url(#p8a9e982925)">
     <use style="fill-opacity:0.781442;stroke:#000000;stroke-opacity:0.781442;stroke-width:0.5;" x="195.273054" xlink:href="#C0_0_e43bda459e" y="93.492277"/>
    </g>
    <g clip-path="url(#p8a9e982925)">
     <use style="fill-opacity:0.787288;stroke:#000000;stroke-opacity:0.787288;stroke-width:0.5;" x="172.295074" xlink:href="#C0_0_e43bda459e" y="108.843119"/>
    </g>
    <g clip-path="url(#p8a9e982925)">
     <use style="fill-opacity:0.793146;stroke:#000000;stroke-opacity:0.793146;stroke-width:0.5;" x="149.26964" xlink:href="#C0_0_e43bda459e" y="124.225663"/>
    </g>
    <g clip-path="url(#p8a9e982925)">
     <use style="fill-opacity:0.799016;stroke:#000000;stroke-opacity:0.799016;stroke-width:0.5;" x="126.196605" xlink:href="#C0_0_e43bda459e" y="139.640008"/>
    </g>
    <g clip-path="url(#p8a9e982925)">
     <use style="fill-opacity:0.852469;stroke:#000000;stroke-opacity:0.852469;stroke-width:0.5;" x="186.311261" xlink:href="#C0_0_e43bda459e" y="107.227679"/>
    </g>
    <g clip-path="url(#p8a9e982925)">
     <use style="fill-opacity:0.858462;stroke:#000000;stroke-opacity:0.858462;stroke-width:0.5;" x="163.035635" xlink:href="#C0_0_e43bda459e" y="122.785461"/>
    </g>
    <g clip-path="url(#p8a9e982925)">
     <use style="fill-opacity:0.864468;stroke:#000000;stroke-opacity:0.864468;stroke-width:0.5;" x="139.711337" xlink:href="#C0_0_e43bda459e" y="138.375776"/>
    </g>
    <g clip-path="url(#p8a9e982925)">
     <use style="fill-opacity:0.925298;stroke:#000000;stroke-opacity:0.925298;stroke-width:0.5;" x="177.121979" xlink:href="#C0_0_e43bda459e" y="121.311744"/>
    </g>
    <g clip-path="url(#p8a9e982925)">
     <use style="fill-opacity:0.931445;stroke:#000000;stroke-opacity:0.931445;stroke-width:0.5;" x="153.540904" xlink:href="#C0_0_e43bda459e" y="137.082093"/>
    </g>
    <g clip-path="url(#p8a9e982925)">
     <use style="stroke:#000000;stroke-width:0.5;" x="167.696436" xlink:href="#C0_0_e43bda459e" y="135.757918"/>
    </g>
   </g>
  </g>
 </g>
 <defs>
  <clipPath id="p8a9e982925">
   <rect height="163.08" width="163.08" x="66.06" y="25.92"/>
  </clipPath>
 </defs>
</svg>
