<?xml version="1.0" encoding="utf-8" standalone="no"?>
<!DOCTYPE svg PUBLIC "-//W3C//DTD SVG 1.1//EN"
  "http://www.w3.org/Graphics/SVG/1.1/DTD/svg11.dtd">
<svg height="216pt" version="1.1" viewBox="0 0 288 216" width="288pt" xmlns="http://www.w3.org/2000/svg" xmlns:xlink="http://www.w3.org/1999/xlink">
 <metadata>
  <rdf:RDF xmlns:cc="http://creativecommons.org/ns#" xmlns:dc="http://purl.org/dc/elements/1.1/" xmlns:rdf="http://www.w3.org/1999/02/22-rdf-syntax-ns#">
   <cc:Work>
    <dc:type rdf:resource="http://purl.org/dc/dcmitype/StillImage"/>
    <dc:date>2022-06-20T17:56:00.325145</dc:date>
    <dc:format>image/svg+xml</dc:format>
    <dc:creator>
     <cc:Agent>
      <dc:title>Matplotlib v3.4.0, https://matplotlib.org/</dc:title>
     </cc:Agent>
    </dc:creator>
   </cc:Work>
  </rdf:RDF>
 </metadata>
 <defs>
  <style type="text/css">*{stroke-linecap:butt;stroke-linejoin:round;}</style>
 </defs>
 <g id="figure_1">
  <g id="patch_1">
   <path d="M 0 216 
L 288 216 
L 288 0 
L 0 0 
z
" style="fill:none;"/>
  </g>
  <g id="patch_2">
   <path d="M 66.06 189 
L 229.14 189 
L 229.14 25.92 
L 66.06 25.92 
z
" style="fill:#ffffff;"/>
  </g>
  <g id="pane3d_1">
   <g id="patch_3">
    <path d="M 78.373665 148.789698 
L 132.228007 103.647921 
L 131.47938 38.545408 
L 75.04783 79.726583 
" style="fill:#f2f2f2;opacity:0.5;stroke:#f2f2f2;stroke-linejoin:miter;"/>
   </g>
  </g>
  <g id="pane3d_2">
   <g id="patch_4">
    <path d="M 132.228007 103.647921 
L 218.64501 128.765932 
L 221.728928 61.421038 
L 131.47938 38.545408 
" style="fill:#e6e6e6;opacity:0.5;stroke:#e6e6e6;stroke-linejoin:miter;"/>
   </g>
  </g>
  <g id="pane3d_3">
   <g id="patch_5">
    <path d="M 78.373665 148.789698 
L 169.979909 178.708298 
L 218.64501 128.765932 
L 132.228007 103.647921 
" style="fill:#ececec;opacity:0.5;stroke:#ececec;stroke-linejoin:miter;"/>
   </g>
  </g>
  <g id="axis3d_1">
   <g id="line2d_1">
    <path d="M 78.373665 148.789698 
L 169.979909 178.708298 
" style="fill:none;stroke:#000000;stroke-linecap:square;stroke-width:0.8;"/>
   </g>
   <g id="text_1">
    <!-- $\log(M)$ -->
    <g transform="translate(90.671339 196.505997)rotate(-341.912962)scale(0.1 -0.1)">
     <defs>
      <path d="M 603 4863 
L 1178 4863 
L 1178 0 
L 603 0 
L 603 4863 
z
" id="DejaVuSans-6c" transform="scale(0.015625)"/>
      <path d="M 1959 3097 
Q 1497 3097 1228 2736 
Q 959 2375 959 1747 
Q 959 1119 1226 758 
Q 1494 397 1959 397 
Q 2419 397 2687 759 
Q 2956 1122 2956 1747 
Q 2956 2369 2687 2733 
Q 2419 3097 1959 3097 
z
M 1959 3584 
Q 2709 3584 3137 3096 
Q 3566 2609 3566 1747 
Q 3566 888 3137 398 
Q 2709 -91 1959 -91 
Q 1206 -91 779 398 
Q 353 888 353 1747 
Q 353 2609 779 3096 
Q 1206 3584 1959 3584 
z
" id="DejaVuSans-6f" transform="scale(0.015625)"/>
      <path d="M 2906 1791 
Q 2906 2416 2648 2759 
Q 2391 3103 1925 3103 
Q 1463 3103 1205 2759 
Q 947 2416 947 1791 
Q 947 1169 1205 825 
Q 1463 481 1925 481 
Q 2391 481 2648 825 
Q 2906 1169 2906 1791 
z
M 3481 434 
Q 3481 -459 3084 -895 
Q 2688 -1331 1869 -1331 
Q 1566 -1331 1297 -1286 
Q 1028 -1241 775 -1147 
L 775 -588 
Q 1028 -725 1275 -790 
Q 1522 -856 1778 -856 
Q 2344 -856 2625 -561 
Q 2906 -266 2906 331 
L 2906 616 
Q 2728 306 2450 153 
Q 2172 0 1784 0 
Q 1141 0 747 490 
Q 353 981 353 1791 
Q 353 2603 747 3093 
Q 1141 3584 1784 3584 
Q 2172 3584 2450 3431 
Q 2728 3278 2906 2969 
L 2906 3500 
L 3481 3500 
L 3481 434 
z
" id="DejaVuSans-67" transform="scale(0.015625)"/>
      <path d="M 1984 4856 
Q 1566 4138 1362 3434 
Q 1159 2731 1159 2009 
Q 1159 1288 1364 580 
Q 1569 -128 1984 -844 
L 1484 -844 
Q 1016 -109 783 600 
Q 550 1309 550 2009 
Q 550 2706 781 3412 
Q 1013 4119 1484 4856 
L 1984 4856 
z
" id="DejaVuSans-28" transform="scale(0.015625)"/>
      <path d="M 1081 4666 
L 2028 4666 
L 2572 1522 
L 4378 4666 
L 5350 4666 
L 4441 0 
L 3828 0 
L 4622 4091 
L 2791 897 
L 2175 897 
L 1581 4103 
L 788 0 
L 172 0 
L 1081 4666 
z
" id="DejaVuSans-Oblique-4d" transform="scale(0.015625)"/>
      <path d="M 513 4856 
L 1013 4856 
Q 1481 4119 1714 3412 
Q 1947 2706 1947 2009 
Q 1947 1309 1714 600 
Q 1481 -109 1013 -844 
L 513 -844 
Q 928 -128 1133 580 
Q 1338 1288 1338 2009 
Q 1338 2731 1133 3434 
Q 928 4138 513 4856 
z
" id="DejaVuSans-29" transform="scale(0.015625)"/>
     </defs>
     <use transform="translate(0 0.015625)" xlink:href="#DejaVuSans-6c"/>
     <use transform="translate(27.783203 0.015625)" xlink:href="#DejaVuSans-6f"/>
     <use transform="translate(88.964844 0.015625)" xlink:href="#DejaVuSans-67"/>
     <use transform="translate(152.441406 0.015625)" xlink:href="#DejaVuSans-28"/>
     <use transform="translate(191.455078 0.015625)" xlink:href="#DejaVuSans-Oblique-4d"/>
     <use transform="translate(277.734375 0.015625)" xlink:href="#DejaVuSans-29"/>
    </g>
   </g>
   <g id="Line3DCollection_1">
    <path d="M 83.92182 150.601726 
L 137.483624 105.175522 
L 136.957209 39.933878 
" style="fill:none;stroke:#b0b0b0;stroke-width:0.8;"/>
    <path d="M 109.755335 159.038952 
L 161.917979 112.277624 
L 162.443132 46.393817 
" style="fill:none;stroke:#b0b0b0;stroke-width:0.8;"/>
    <path d="M 136.387469 167.737007 
L 187.044042 119.580778 
L 188.682269 53.044673 
" style="fill:none;stroke:#b0b0b0;stroke-width:0.8;"/>
    <path d="M 163.855837 176.708176 
L 212.891605 127.093645 
L 215.708513 59.895038 
" style="fill:none;stroke:#b0b0b0;stroke-width:0.8;"/>
   </g>
   <g id="xtick_1">
    <g id="line2d_2">
     <path d="M 84.388233 150.206157 
L 82.986992 151.394561 
" style="fill:none;stroke:#000000;stroke-linecap:square;stroke-width:0.8;"/>
    </g>
    <g id="text_2">
     <!-- 2 -->
     <g transform="translate(73.193796 173.947858)scale(0.1 -0.1)">
      <defs>
       <path d="M 1228 531 
L 3431 531 
L 3431 0 
L 469 0 
L 469 531 
Q 828 903 1448 1529 
Q 2069 2156 2228 2338 
Q 2531 2678 2651 2914 
Q 2772 3150 2772 3378 
Q 2772 3750 2511 3984 
Q 2250 4219 1831 4219 
Q 1534 4219 1204 4116 
Q 875 4013 500 3803 
L 500 4441 
Q 881 4594 1212 4672 
Q 1544 4750 1819 4750 
Q 2544 4750 2975 4387 
Q 3406 4025 3406 3419 
Q 3406 3131 3298 2873 
Q 3191 2616 2906 2266 
Q 2828 2175 2409 1742 
Q 1991 1309 1228 531 
z
" id="DejaVuSans-32" transform="scale(0.015625)"/>
      </defs>
      <use xlink:href="#DejaVuSans-32"/>
     </g>
    </g>
   </g>
   <g id="xtick_2">
    <g id="line2d_3">
     <path d="M 110.210126 158.631253 
L 108.843772 159.856125 
" style="fill:none;stroke:#000000;stroke-linecap:square;stroke-width:0.8;"/>
    </g>
    <g id="text_3">
     <!-- 4 -->
     <g transform="translate(99.071202 182.678356)scale(0.1 -0.1)">
      <defs>
       <path d="M 2419 4116 
L 825 1625 
L 2419 1625 
L 2419 4116 
z
M 2253 4666 
L 3047 4666 
L 3047 1625 
L 3713 1625 
L 3713 1100 
L 3047 1100 
L 3047 0 
L 2419 0 
L 2419 1100 
L 313 1100 
L 313 1709 
L 2253 4666 
z
" id="DejaVuSans-34" transform="scale(0.015625)"/>
      </defs>
      <use xlink:href="#DejaVuSans-34"/>
     </g>
    </g>
   </g>
   <g id="xtick_3">
    <g id="line2d_4">
     <path d="M 136.829692 167.316612 
L 135.501068 168.579656 
" style="fill:none;stroke:#000000;stroke-linecap:square;stroke-width:0.8;"/>
    </g>
    <g id="text_4">
     <!-- 6 -->
     <g transform="translate(125.7536 191.680441)scale(0.1 -0.1)">
      <defs>
       <path d="M 2113 2584 
Q 1688 2584 1439 2293 
Q 1191 2003 1191 1497 
Q 1191 994 1439 701 
Q 1688 409 2113 409 
Q 2538 409 2786 701 
Q 3034 994 3034 1497 
Q 3034 2003 2786 2293 
Q 2538 2584 2113 2584 
z
M 3366 4563 
L 3366 3988 
Q 3128 4100 2886 4159 
Q 2644 4219 2406 4219 
Q 1781 4219 1451 3797 
Q 1122 3375 1075 2522 
Q 1259 2794 1537 2939 
Q 1816 3084 2150 3084 
Q 2853 3084 3261 2657 
Q 3669 2231 3669 1497 
Q 3669 778 3244 343 
Q 2819 -91 2113 -91 
Q 1303 -91 875 529 
Q 447 1150 447 2328 
Q 447 3434 972 4092 
Q 1497 4750 2381 4750 
Q 2619 4750 2861 4703 
Q 3103 4656 3366 4563 
z
" id="DejaVuSans-36" transform="scale(0.015625)"/>
      </defs>
      <use xlink:href="#DejaVuSans-36"/>
     </g>
    </g>
   </g>
   <g id="xtick_4">
    <g id="line2d_5">
     <path d="M 164.284471 176.274482 
L 162.996642 177.577512 
" style="fill:none;stroke:#000000;stroke-linecap:square;stroke-width:0.8;"/>
    </g>
    <g id="text_5">
     <!-- 8 -->
     <g transform="translate(153.279144 200.966987)scale(0.1 -0.1)">
      <defs>
       <path d="M 2034 2216 
Q 1584 2216 1326 1975 
Q 1069 1734 1069 1313 
Q 1069 891 1326 650 
Q 1584 409 2034 409 
Q 2484 409 2743 651 
Q 3003 894 3003 1313 
Q 3003 1734 2745 1975 
Q 2488 2216 2034 2216 
z
M 1403 2484 
Q 997 2584 770 2862 
Q 544 3141 544 3541 
Q 544 4100 942 4425 
Q 1341 4750 2034 4750 
Q 2731 4750 3128 4425 
Q 3525 4100 3525 3541 
Q 3525 3141 3298 2862 
Q 3072 2584 2669 2484 
Q 3125 2378 3379 2068 
Q 3634 1759 3634 1313 
Q 3634 634 3220 271 
Q 2806 -91 2034 -91 
Q 1263 -91 848 271 
Q 434 634 434 1313 
Q 434 1759 690 2068 
Q 947 2378 1403 2484 
z
M 1172 3481 
Q 1172 3119 1398 2916 
Q 1625 2713 2034 2713 
Q 2441 2713 2670 2916 
Q 2900 3119 2900 3481 
Q 2900 3844 2670 4047 
Q 2441 4250 2034 4250 
Q 1625 4250 1398 4047 
Q 1172 3844 1172 3481 
z
" id="DejaVuSans-38" transform="scale(0.015625)"/>
      </defs>
      <use xlink:href="#DejaVuSans-38"/>
     </g>
    </g>
   </g>
  </g>
  <g id="axis3d_2">
   <g id="line2d_6">
    <path d="M 218.64501 128.765932 
L 169.979909 178.708298 
" style="fill:none;stroke:#000000;stroke-linecap:square;stroke-width:0.8;"/>
   </g>
   <g id="text_6">
    <!-- $\log(N)$ -->
    <g transform="translate(213.684939 193.530054)rotate(-45.742112)scale(0.1 -0.1)">
     <defs>
      <path d="M 1081 4666 
L 1931 4666 
L 3219 666 
L 4000 4666 
L 4616 4666 
L 3706 0 
L 2853 0 
L 1569 4025 
L 788 0 
L 172 0 
L 1081 4666 
z
" id="DejaVuSans-Oblique-4e" transform="scale(0.015625)"/>
     </defs>
     <use transform="translate(0 0.015625)" xlink:href="#DejaVuSans-6c"/>
     <use transform="translate(27.783203 0.015625)" xlink:href="#DejaVuSans-6f"/>
     <use transform="translate(88.964844 0.015625)" xlink:href="#DejaVuSans-67"/>
     <use transform="translate(152.441406 0.015625)" xlink:href="#DejaVuSans-28"/>
     <use transform="translate(191.455078 0.015625)" xlink:href="#DejaVuSans-Oblique-4e"/>
     <use transform="translate(266.259766 0.015625)" xlink:href="#DejaVuSans-29"/>
    </g>
   </g>
   <g id="Line3DCollection_2">
    <path d="M 78.950211 76.878803 
L 82.084684 145.679048 
L 173.347157 175.252672 
" style="fill:none;stroke:#b0b0b0;stroke-width:0.8;"/>
    <path d="M 99.565248 61.834888 
L 101.721149 129.219374 
L 191.130482 157.002607 
" style="fill:none;stroke:#b0b0b0;stroke-width:0.8;"/>
    <path d="M 118.92877 47.704272 
L 120.215176 113.717314 
L 207.82689 139.867985 
" style="fill:none;stroke:#b0b0b0;stroke-width:0.8;"/>
   </g>
   <g id="xtick_5">
    <g id="line2d_7">
     <path d="M 172.578086 175.003455 
L 174.88729 175.751753 
" style="fill:none;stroke:#000000;stroke-linecap:square;stroke-width:0.8;"/>
    </g>
    <g id="text_7">
     <!-- 2 -->
     <g transform="translate(183.051416 196.279482)scale(0.1 -0.1)">
      <use xlink:href="#DejaVuSans-32"/>
     </g>
    </g>
   </g>
   <g id="xtick_6">
    <g id="line2d_8">
     <path d="M 190.37823 156.768851 
L 192.63687 157.470705 
" style="fill:none;stroke:#000000;stroke-linecap:square;stroke-width:0.8;"/>
    </g>
    <g id="text_8">
     <!-- 4 -->
     <g transform="translate(200.444995 177.588434)scale(0.1 -0.1)">
      <use xlink:href="#DejaVuSans-34"/>
     </g>
    </g>
   </g>
   <g id="xtick_7">
    <g id="line2d_9">
     <path d="M 207.090869 139.648294 
L 209.300719 140.307899 
" style="fill:none;stroke:#000000;stroke-linecap:square;stroke-width:0.8;"/>
    </g>
    <g id="text_9">
     <!-- 6 -->
     <g transform="translate(216.774504 160.04083)scale(0.1 -0.1)">
      <use xlink:href="#DejaVuSans-36"/>
     </g>
    </g>
   </g>
  </g>
  <g id="axis3d_3">
   <g id="line2d_10">
    <path d="M 218.64501 128.765932 
L 221.728928 61.421038 
" style="fill:none;stroke:#000000;stroke-linecap:square;stroke-width:0.8;"/>
   </g>
   <g id="text_10">
    <!-- $\log(d)$ -->
    <g transform="translate(262.435081 105.254847)rotate(-87.378092)scale(0.1 -0.1)">
     <defs>
      <path d="M 2675 525 
Q 2444 222 2128 65 
Q 1813 -91 1428 -91 
Q 903 -91 598 267 
Q 294 625 294 1247 
Q 294 1766 478 2236 
Q 663 2706 1013 3078 
Q 1244 3325 1534 3454 
Q 1825 3584 2144 3584 
Q 2481 3584 2739 3421 
Q 2997 3259 3138 2956 
L 3513 4863 
L 4091 4863 
L 3144 0 
L 2566 0 
L 2675 525 
z
M 891 1350 
Q 891 897 1095 644 
Q 1300 391 1663 391 
Q 1931 391 2161 520 
Q 2391 650 2566 903 
Q 2750 1166 2856 1509 
Q 2963 1853 2963 2188 
Q 2963 2622 2758 2865 
Q 2553 3109 2194 3109 
Q 1922 3109 1687 2981 
Q 1453 2853 1288 2613 
Q 1106 2353 998 2009 
Q 891 1666 891 1350 
z
" id="DejaVuSans-Oblique-64" transform="scale(0.015625)"/>
     </defs>
     <use transform="translate(0 0.015625)" xlink:href="#DejaVuSans-6c"/>
     <use transform="translate(27.783203 0.015625)" xlink:href="#DejaVuSans-6f"/>
     <use transform="translate(88.964844 0.015625)" xlink:href="#DejaVuSans-67"/>
     <use transform="translate(152.441406 0.015625)" xlink:href="#DejaVuSans-28"/>
     <use transform="translate(191.455078 0.015625)" xlink:href="#DejaVuSans-Oblique-64"/>
     <use transform="translate(254.931641 0.015625)" xlink:href="#DejaVuSans-29"/>
    </g>
   </g>
   <g id="Line3DCollection_3">
    <path d="M 219.312923 114.180411 
L 132.065601 89.52472 
L 77.654308 133.851794 
" style="fill:none;stroke:#b0b0b0;stroke-width:0.8;"/>
    <path d="M 220.147184 95.962292 
L 131.862956 71.902206 
L 76.755054 115.178206 
" style="fill:none;stroke:#b0b0b0;stroke-width:0.8;"/>
    <path d="M 221.001714 77.301546 
L 131.655628 53.872391 
L 75.833101 96.033256 
" style="fill:none;stroke:#b0b0b0;stroke-width:0.8;"/>
   </g>
   <g id="xtick_8">
    <g id="line2d_11">
     <path d="M 218.580346 113.973388 
L 220.779838 114.594954 
" style="fill:none;stroke:#000000;stroke-linecap:square;stroke-width:0.8;"/>
    </g>
    <g id="text_11">
     <!-- 10 -->
     <g transform="translate(231.337114 119.225586)scale(0.1 -0.1)">
      <defs>
       <path d="M 794 531 
L 1825 531 
L 1825 4091 
L 703 3866 
L 703 4441 
L 1819 4666 
L 2450 4666 
L 2450 531 
L 3481 531 
L 3481 0 
L 794 0 
L 794 531 
z
" id="DejaVuSans-31" transform="scale(0.015625)"/>
       <path d="M 2034 4250 
Q 1547 4250 1301 3770 
Q 1056 3291 1056 2328 
Q 1056 1369 1301 889 
Q 1547 409 2034 409 
Q 2525 409 2770 889 
Q 3016 1369 3016 2328 
Q 3016 3291 2770 3770 
Q 2525 4250 2034 4250 
z
M 2034 4750 
Q 2819 4750 3233 4129 
Q 3647 3509 3647 2328 
Q 3647 1150 3233 529 
Q 2819 -91 2034 -91 
Q 1250 -91 836 529 
Q 422 1150 422 2328 
Q 422 3509 836 4129 
Q 1250 4750 2034 4750 
z
" id="DejaVuSans-30" transform="scale(0.015625)"/>
      </defs>
      <use xlink:href="#DejaVuSans-31"/>
      <use x="63.623047" xlink:href="#DejaVuSans-30"/>
     </g>
    </g>
   </g>
   <g id="xtick_9">
    <g id="line2d_12">
     <path d="M 219.40548 95.760155 
L 221.632395 96.367056 
" style="fill:none;stroke:#000000;stroke-linecap:square;stroke-width:0.8;"/>
    </g>
    <g id="text_12">
     <!-- 15 -->
     <g transform="translate(232.386792 101.067869)scale(0.1 -0.1)">
      <defs>
       <path d="M 691 4666 
L 3169 4666 
L 3169 4134 
L 1269 4134 
L 1269 2991 
Q 1406 3038 1543 3061 
Q 1681 3084 1819 3084 
Q 2600 3084 3056 2656 
Q 3513 2228 3513 1497 
Q 3513 744 3044 326 
Q 2575 -91 1722 -91 
Q 1428 -91 1123 -41 
Q 819 9 494 109 
L 494 744 
Q 775 591 1075 516 
Q 1375 441 1709 441 
Q 2250 441 2565 725 
Q 2881 1009 2881 1497 
Q 2881 1984 2565 2268 
Q 2250 2553 1709 2553 
Q 1456 2553 1204 2497 
Q 953 2441 691 2322 
L 691 4666 
z
" id="DejaVuSans-35" transform="scale(0.015625)"/>
      </defs>
      <use xlink:href="#DejaVuSans-31"/>
      <use x="63.623047" xlink:href="#DejaVuSans-35"/>
     </g>
    </g>
   </g>
   <g id="xtick_10">
    <g id="line2d_13">
     <path d="M 220.250653 77.104596 
L 222.505682 77.69593 
" style="fill:none;stroke:#000000;stroke-linecap:square;stroke-width:0.8;"/>
    </g>
    <g id="text_13">
     <!-- 20 -->
     <g transform="translate(233.461843 82.471221)scale(0.1 -0.1)">
      <use xlink:href="#DejaVuSans-32"/>
      <use x="63.623047" xlink:href="#DejaVuSans-30"/>
     </g>
    </g>
   </g>
  </g>
  <g id="axes_1">
   <g id="Path3DCollection_1">
    <defs>
     <path d="M 0 2.236068 
C 0.593012 2.236068 1.161816 2.000462 1.581139 1.581139 
C 2.000462 1.161816 2.236068 0.593012 2.236068 -0 
C 2.236068 -0.593012 2.000462 -1.161816 1.581139 -1.581139 
C 1.161816 -2.000462 0.593012 -2.236068 0 -2.236068 
C -0.593012 -2.236068 -1.161816 -2.000462 -1.581139 -1.581139 
C -2.000462 -1.161816 -2.236068 -0.593012 -2.236068 0 
C -2.236068 0.593012 -2.000462 1.161816 -1.581139 1.581139 
C -1.161816 2.000462 -0.593012 2.236068 0 2.236068 
z
" id="C0_0_22cc00e91d"/>
    </defs>
    <g clip-path="url(#pb6add6033d)">
     <use style="fill-opacity:0.3;stroke:#000000;stroke-opacity:0.3;stroke-width:0.5;" x="133.941044" xlink:href="#C0_0_22cc00e91d" y="68.713"/>
    </g>
    <g clip-path="url(#pb6add6033d)">
     <use style="fill-opacity:0.355465;stroke:#000000;stroke-opacity:0.355465;stroke-width:0.5;" x="146.419746" xlink:href="#C0_0_22cc00e91d" y="68.443748"/>
    </g>
    <g clip-path="url(#pb6add6033d)">
     <use style="fill-opacity:0.359683;stroke:#000000;stroke-opacity:0.359683;stroke-width:0.5;" x="125.022716" xlink:href="#C0_0_22cc00e91d" y="83.06335"/>
    </g>
    <g clip-path="url(#pb6add6033d)">
     <use style="fill-opacity:0.411995;stroke:#000000;stroke-opacity:0.411995;stroke-width:0.5;" x="159.137823" xlink:href="#C0_0_22cc00e91d" y="68.169332"/>
    </g>
    <g clip-path="url(#pb6add6033d)">
     <use style="fill-opacity:0.416294;stroke:#000000;stroke-opacity:0.416294;stroke-width:0.5;" x="137.544607" xlink:href="#C0_0_22cc00e91d" y="82.929059"/>
    </g>
    <g clip-path="url(#pb6add6033d)">
     <use style="fill-opacity:0.420599;stroke:#000000;stroke-opacity:0.420599;stroke-width:0.5;" x="115.920164" xlink:href="#C0_0_22cc00e91d" y="97.71013"/>
    </g>
    <g clip-path="url(#pb6add6033d)">
     <use style="fill-opacity:0.469619;stroke:#000000;stroke-opacity:0.469619;stroke-width:0.5;" x="172.102232" xlink:href="#C0_0_22cc00e91d" y="67.8896"/>
    </g>
    <g clip-path="url(#pb6add6033d)">
     <use style="fill-opacity:0.474002;stroke:#000000;stroke-opacity:0.474002;stroke-width:0.5;" x="150.309206" xlink:href="#C0_0_22cc00e91d" y="82.792165"/>
    </g>
    <g clip-path="url(#pb6add6033d)">
     <use style="fill-opacity:0.478391;stroke:#000000;stroke-opacity:0.478391;stroke-width:0.5;" x="128.48436" xlink:href="#C0_0_22cc00e91d" y="97.716489"/>
    </g>
    <g clip-path="url(#pb6add6033d)">
     <use style="fill-opacity:0.482787;stroke:#000000;stroke-opacity:0.482787;stroke-width:0.5;" x="106.627623" xlink:href="#C0_0_22cc00e91d" y="112.662621"/>
    </g>
    <g clip-path="url(#pb6add6033d)">
     <use style="fill-opacity:0.52837;stroke:#000000;stroke-opacity:0.52837;stroke-width:0.5;" x="185.320197" xlink:href="#C0_0_22cc00e91d" y="67.604398"/>
    </g>
    <g clip-path="url(#pb6add6033d)">
     <use style="fill-opacity:0.532839;stroke:#000000;stroke-opacity:0.532839;stroke-width:0.5;" x="163.323639" xlink:href="#C0_0_22cc00e91d" y="82.652591"/>
    </g>
    <g clip-path="url(#pb6add6033d)">
     <use style="fill-opacity:0.537315;stroke:#000000;stroke-opacity:0.537315;stroke-width:0.5;" x="141.294647" xlink:href="#C0_0_22cc00e91d" y="97.722972"/>
    </g>
    <g clip-path="url(#pb6add6033d)">
     <use style="fill-opacity:0.541797;stroke:#000000;stroke-opacity:0.541797;stroke-width:0.5;" x="119.233152" xlink:href="#C0_0_22cc00e91d" y="112.81559"/>
    </g>
    <g clip-path="url(#pb6add6033d)">
     <use style="fill-opacity:0.546286;stroke:#000000;stroke-opacity:0.546286;stroke-width:0.5;" x="97.13908" xlink:href="#C0_0_22cc00e91d" y="127.930494"/>
    </g>
    <g clip-path="url(#pb6add6033d)">
     <use style="fill-opacity:0.588282;stroke:#000000;stroke-opacity:0.588282;stroke-width:0.5;" x="198.799232" xlink:href="#C0_0_22cc00e91d" y="67.313562"/>
    </g>
    <g clip-path="url(#pb6add6033d)">
     <use style="fill-opacity:0.59284;stroke:#000000;stroke-opacity:0.59284;stroke-width:0.5;" x="176.595312" xlink:href="#C0_0_22cc00e91d" y="82.510259"/>
    </g>
    <g clip-path="url(#pb6add6033d)">
     <use style="fill-opacity:0.597404;stroke:#000000;stroke-opacity:0.597404;stroke-width:0.5;" x="154.358329" xlink:href="#C0_0_22cc00e91d" y="97.729584"/>
    </g>
    <g clip-path="url(#pb6add6033d)">
     <use style="fill-opacity:0.601976;stroke:#000000;stroke-opacity:0.601976;stroke-width:0.5;" x="132.08821" xlink:href="#C0_0_22cc00e91d" y="112.971588"/>
    </g>
    <g clip-path="url(#pb6add6033d)">
     <use style="fill-opacity:0.606554;stroke:#000000;stroke-opacity:0.606554;stroke-width:0.5;" x="109.784881" xlink:href="#C0_0_22cc00e91d" y="128.236321"/>
    </g>
    <g clip-path="url(#pb6add6033d)">
     <use style="fill-opacity:0.626169;stroke:#000000;stroke-opacity:0.626169;stroke-width:0.5;" x="87.295864" xlink:href="#C0_0_22cc00e91d" y="139.885616"/>
    </g>
    <g clip-path="url(#pb6add6033d)">
     <use style="fill-opacity:0.649388;stroke:#000000;stroke-opacity:0.649388;stroke-width:0.5;" x="212.547148" xlink:href="#C0_0_22cc00e91d" y="67.016925"/>
    </g>
    <g clip-path="url(#pb6add6033d)">
     <use style="fill-opacity:0.654038;stroke:#000000;stroke-opacity:0.654038;stroke-width:0.5;" x="190.131928" xlink:href="#C0_0_22cc00e91d" y="82.365085"/>
    </g>
    <g clip-path="url(#pb6add6033d)">
     <use style="fill-opacity:0.658694;stroke:#000000;stroke-opacity:0.658694;stroke-width:0.5;" x="167.682998" xlink:href="#C0_0_22cc00e91d" y="97.736328"/>
    </g>
    <g clip-path="url(#pb6add6033d)">
     <use style="fill-opacity:0.663357;stroke:#000000;stroke-opacity:0.663357;stroke-width:0.5;" x="145.200282" xlink:href="#C0_0_22cc00e91d" y="113.130705"/>
    </g>
    <g clip-path="url(#pb6add6033d)">
     <use style="fill-opacity:0.668028;stroke:#000000;stroke-opacity:0.668028;stroke-width:0.5;" x="122.683703" xlink:href="#C0_0_22cc00e91d" y="128.548268"/>
    </g>
    <g clip-path="url(#pb6add6033d)">
     <use style="fill-opacity:0.672705;stroke:#000000;stroke-opacity:0.672705;stroke-width:0.5;" x="100.133184" xlink:href="#C0_0_22cc00e91d" y="143.989069"/>
    </g>
    <g clip-path="url(#pb6add6033d)">
     <use style="fill-opacity:0.71647;stroke:#000000;stroke-opacity:0.71647;stroke-width:0.5;" x="203.941502" xlink:href="#C0_0_22cc00e91d" y="82.216984"/>
    </g>
    <g clip-path="url(#pb6add6033d)">
     <use style="fill-opacity:0.721221;stroke:#000000;stroke-opacity:0.721221;stroke-width:0.5;" x="181.276555" xlink:href="#C0_0_22cc00e91d" y="97.743208"/>
    </g>
    <g clip-path="url(#pb6add6033d)">
     <use style="fill-opacity:0.725979;stroke:#000000;stroke-opacity:0.725979;stroke-width:0.5;" x="158.577151" xlink:href="#C0_0_22cc00e91d" y="113.293034"/>
    </g>
    <g clip-path="url(#pb6add6033d)">
     <use style="fill-opacity:0.730744;stroke:#000000;stroke-opacity:0.730744;stroke-width:0.5;" x="135.843214" xlink:href="#C0_0_22cc00e91d" y="128.866518"/>
    </g>
    <g clip-path="url(#pb6add6033d)">
     <use style="fill-opacity:0.735516;stroke:#000000;stroke-opacity:0.735516;stroke-width:0.5;" x="113.074663" xlink:href="#C0_0_22cc00e91d" y="144.463713"/>
    </g>
    <g clip-path="url(#pb6add6033d)">
     <use style="fill-opacity:0.785022;stroke:#000000;stroke-opacity:0.785022;stroke-width:0.5;" x="195.147221" xlink:href="#C0_0_22cc00e91d" y="97.750228"/>
    </g>
    <g clip-path="url(#pb6add6033d)">
     <use style="fill-opacity:0.789877;stroke:#000000;stroke-opacity:0.789877;stroke-width:0.5;" x="172.226923" xlink:href="#C0_0_22cc00e91d" y="113.458676"/>
    </g>
    <g clip-path="url(#pb6add6033d)">
     <use style="fill-opacity:0.79474;stroke:#000000;stroke-opacity:0.79474;stroke-width:0.5;" x="149.271399" xlink:href="#C0_0_22cc00e91d" y="129.191267"/>
    </g>
    <g clip-path="url(#pb6add6033d)">
     <use style="fill-opacity:0.799611;stroke:#000000;stroke-opacity:0.799611;stroke-width:0.5;" x="126.280567" xlink:href="#C0_0_22cc00e91d" y="144.948056"/>
    </g>
    <g clip-path="url(#pb6add6033d)">
     <use style="fill-opacity:0.855093;stroke:#000000;stroke-opacity:0.855093;stroke-width:0.5;" x="186.158033" xlink:href="#C0_0_22cc00e91d" y="113.627732"/>
    </g>
    <g clip-path="url(#pb6add6033d)">
     <use style="fill-opacity:0.860057;stroke:#000000;stroke-opacity:0.860057;stroke-width:0.5;" x="162.97657" xlink:href="#C0_0_22cc00e91d" y="129.522714"/>
    </g>
    <g clip-path="url(#pb6add6033d)">
     <use style="fill-opacity:0.865028;stroke:#000000;stroke-opacity:0.865028;stroke-width:0.5;" x="139.759084" xlink:href="#C0_0_22cc00e91d" y="145.442396"/>
    </g>
    <g clip-path="url(#pb6add6033d)">
     <use style="fill-opacity:0.926735;stroke:#000000;stroke-opacity:0.926735;stroke-width:0.5;" x="176.967388" xlink:href="#C0_0_22cc00e91d" y="129.861069"/>
    </g>
    <g clip-path="url(#pb6add6033d)">
     <use style="fill-opacity:0.93181;stroke:#000000;stroke-opacity:0.93181;stroke-width:0.5;" x="153.518744" xlink:href="#C0_0_22cc00e91d" y="145.947048"/>
    </g>
    <g clip-path="url(#pb6add6033d)">
     <use style="stroke:#000000;stroke-width:0.5;" x="167.568435" xlink:href="#C0_0_22cc00e91d" y="146.462337"/>
    </g>
   </g>
   <g id="Poly3DCollection_1">
    <path clip-path="url(#pb6add6033d)" d="M 129.007621 76.559209 
L 142.23369 68.487067 
L 133.940342 68.643806 
z
" style="fill:#26ad81;fill-opacity:0.7;"/>
    <path clip-path="url(#pb6add6033d)" d="M 137.317018 76.451721 
L 142.23369 68.487067 
L 129.007621 76.559209 
z
" style="fill:#25ab82;fill-opacity:0.7;"/>
    <path clip-path="url(#pb6add6033d)" d="M 129.007621 76.559209 
L 124.01867 84.564843 
L 132.343943 84.507746 
z
" style="fill:#1f948c;fill-opacity:0.7;"/>
    <path clip-path="url(#pb6add6033d)" d="M 129.007621 76.559209 
L 132.343943 84.507746 
L 137.317018 76.451721 
z
" style="fill:#1f9f88;fill-opacity:0.7;"/>
    <path clip-path="url(#pb6add6033d)" d="M 145.732369 76.342862 
L 142.23369 68.487067 
L 137.317018 76.451721 
z
" style="fill:#2cb17e;fill-opacity:0.7;"/>
    <path clip-path="url(#pb6add6033d)" d="M 150.632183 68.32834 
L 142.23369 68.487067 
L 145.732369 76.342862 
z
" style="fill:#3bbb75;fill-opacity:0.7;"/>
    <path clip-path="url(#pb6add6033d)" d="M 137.317018 76.451721 
L 132.343943 84.507746 
L 145.732369 76.342862 
z
" style="fill:#21a585;fill-opacity:0.7;"/>
    <path clip-path="url(#pb6add6033d)" d="M 145.732369 76.342862 
L 159.137834 68.167588 
L 150.632183 68.32834 
z
" style="fill:#4ac16d;fill-opacity:0.7;"/>
    <path clip-path="url(#pb6add6033d)" d="M 124.01867 84.564843 
L 118.972523 92.662259 
L 127.313488 92.656723 
z
" style="fill:#26828e;fill-opacity:0.7;"/>
    <path clip-path="url(#pb6add6033d)" d="M 127.313488 92.656723 
L 132.343943 84.507746 
L 124.01867 84.564843 
z
" style="fill:#228c8d;fill-opacity:0.7;"/>
    <path clip-path="url(#pb6add6033d)" d="M 145.732369 76.342862 
L 132.343943 84.507746 
L 140.775985 84.449917 
z
" style="fill:#20a386;fill-opacity:0.7;"/>
    <path clip-path="url(#pb6add6033d)" d="M 154.255714 76.232606 
L 159.137834 68.167588 
L 145.732369 76.342862 
z
" style="fill:#44bf70;fill-opacity:0.7;"/>
    <path clip-path="url(#pb6add6033d)" d="M 127.313488 92.656723 
L 118.972523 92.662259 
L 113.868188 100.853044 
z
" style="fill:#2a768e;fill-opacity:0.7;"/>
    <path clip-path="url(#pb6add6033d)" d="M 127.313488 92.656723 
L 135.762044 92.651115 
L 132.343943 84.507746 
z
" style="fill:#228d8d;fill-opacity:0.7;"/>
    <path clip-path="url(#pb6add6033d)" d="M 132.343943 84.507746 
L 135.762044 92.651115 
L 140.775985 84.449917 
z
" style="fill:#1f978b;fill-opacity:0.7;"/>
    <path clip-path="url(#pb6add6033d)" d="M 149.316863 84.391341 
L 145.732369 76.342862 
L 140.775985 84.449917 
z
" style="fill:#25ab82;fill-opacity:0.7;"/>
    <path clip-path="url(#pb6add6033d)" d="M 154.255714 76.232606 
L 145.732369 76.342862 
L 149.316863 84.391341 
z
" style="fill:#2fb47c;fill-opacity:0.7;"/>
    <path clip-path="url(#pb6add6033d)" d="M 162.889144 76.120927 
L 159.137834 68.167588 
L 154.255714 76.232606 
z
" style="fill:#54c568;fill-opacity:0.7;"/>
    <path clip-path="url(#pb6add6033d)" d="M 113.868188 100.853044 
L 122.224653 100.900269 
L 127.313488 92.656723 
z
" style="fill:#2c738e;fill-opacity:0.7;"/>
    <path clip-path="url(#pb6add6033d)" d="M 167.752707 68.004772 
L 159.137834 68.167588 
L 162.889144 76.120927 
z
" style="fill:#69cd5b;fill-opacity:0.7;"/>
    <path clip-path="url(#pb6add6033d)" d="M 154.255714 76.232606 
L 149.316863 84.391341 
L 162.889144 76.120927 
z
" style="fill:#3bbb75;fill-opacity:0.7;"/>
    <path clip-path="url(#pb6add6033d)" d="M 113.868188 100.853044 
L 108.704656 109.138824 
L 117.076417 109.240042 
z
" style="fill:#365d8d;fill-opacity:0.7;"/>
    <path clip-path="url(#pb6add6033d)" d="M 117.076417 109.240042 
L 122.224653 100.900269 
L 113.868188 100.853044 
z
" style="fill:#31678e;fill-opacity:0.7;"/>
    <path clip-path="url(#pb6add6033d)" d="M 162.889144 76.120927 
L 176.47892 67.839851 
L 167.752707 68.004772 
z
" style="fill:#7cd250;fill-opacity:0.7;"/>
    <path clip-path="url(#pb6add6033d)" d="M 127.313488 92.656723 
L 122.224653 100.900269 
L 130.689538 100.948107 
z
" style="fill:#297b8e;fill-opacity:0.7;"/>
    <path clip-path="url(#pb6add6033d)" d="M 130.689538 100.948107 
L 135.762044 92.651115 
L 127.313488 92.656723 
z
" style="fill:#25848e;fill-opacity:0.7;"/>
    <path clip-path="url(#pb6add6033d)" d="M 140.775985 84.449917 
L 135.762044 92.651115 
L 144.320287 92.645435 
z
" style="fill:#1f988b;fill-opacity:0.7;"/>
    <path clip-path="url(#pb6add6033d)" d="M 144.320287 92.645435 
L 149.316863 84.391341 
L 140.775985 84.449917 
z
" style="fill:#1fa187;fill-opacity:0.7;"/>
    <path clip-path="url(#pb6add6033d)" d="M 117.076417 109.240042 
L 108.704656 109.138824 
L 103.480889 117.52126 
z
" style="fill:#3c4f8a;fill-opacity:0.7;"/>
    <path clip-path="url(#pb6add6033d)" d="M 162.889144 76.120927 
L 149.316863 84.391341 
L 157.968699 84.332005 
z
" style="fill:#37b878;fill-opacity:0.7;"/>
    <path clip-path="url(#pb6add6033d)" d="M 130.689538 100.948107 
L 122.224653 100.900269 
L 117.076417 109.240042 
z
" style="fill:#2e6f8e;fill-opacity:0.7;"/>
    <path clip-path="url(#pb6add6033d)" d="M 171.634806 76.007795 
L 176.47892 67.839851 
L 162.889144 76.120927 
z
" style="fill:#75d054;fill-opacity:0.7;"/>
    <path clip-path="url(#pb6add6033d)" d="M 135.762044 92.651115 
L 130.689538 100.948107 
L 144.320287 92.645435 
z
" style="fill:#228c8d;fill-opacity:0.7;"/>
    <path clip-path="url(#pb6add6033d)" d="M 157.968699 84.332005 
L 149.316863 84.391341 
L 144.320287 92.645435 
z
" style="fill:#23a983;fill-opacity:0.7;"/>
    <path clip-path="url(#pb6add6033d)" d="M 103.480889 117.52126 
L 111.867733 117.677735 
L 117.076417 109.240042 
z
" style="fill:#3e4c8a;fill-opacity:0.7;"/>
    <path clip-path="url(#pb6add6033d)" d="M 157.968699 84.332005 
L 166.733668 84.271892 
L 162.889144 76.120927 
z
" style="fill:#44bf70;fill-opacity:0.7;"/>
    <path clip-path="url(#pb6add6033d)" d="M 117.076417 109.240042 
L 125.557435 109.342581 
L 130.689538 100.948107 
z
" style="fill:#2f6c8e;fill-opacity:0.7;"/>
    <path clip-path="url(#pb6add6033d)" d="M 162.889144 76.120927 
L 166.733668 84.271892 
L 171.634806 76.007795 
z
" style="fill:#58c765;fill-opacity:0.7;"/>
    <path clip-path="url(#pb6add6033d)" d="M 176.47892 67.839851 
L 171.634806 76.007795 
L 180.494904 75.893183 
z
" style="fill:#89d548;fill-opacity:0.7;"/>
    <path clip-path="url(#pb6add6033d)" d="M 144.320287 92.645435 
L 130.689538 100.948107 
L 139.264968 100.99657 
z
" style="fill:#23898e;fill-opacity:0.7;"/>
    <path clip-path="url(#pb6add6033d)" d="M 180.494904 75.893183 
L 185.318645 67.672785 
L 176.47892 67.839851 
z
" style="fill:#a5db36;fill-opacity:0.7;"/>
    <path clip-path="url(#pb6add6033d)" d="M 144.320287 92.645435 
L 152.990367 92.63968 
L 157.968699 84.332005 
z
" style="fill:#22a785;fill-opacity:0.7;"/>
    <path clip-path="url(#pb6add6033d)" d="M 103.480889 117.52126 
L 98.195828 126.002054 
L 106.597532 126.215084 
z
" style="fill:#46307e;fill-opacity:0.7;"/>
    <path clip-path="url(#pb6add6033d)" d="M 106.597532 126.215084 
L 111.867733 117.677735 
L 103.480889 117.52126 
z
" style="fill:#433d84;fill-opacity:0.7;"/>
    <path clip-path="url(#pb6add6033d)" d="M 152.990367 92.63968 
L 166.733668 84.271892 
L 157.968699 84.332005 
z
" style="fill:#2fb47c;fill-opacity:0.7;"/>
    <path clip-path="url(#pb6add6033d)" d="M 117.076417 109.240042 
L 111.867733 117.677735 
L 120.364679 117.836264 
z
" style="fill:#3a548c;fill-opacity:0.7;"/>
    <path clip-path="url(#pb6add6033d)" d="M 120.364679 117.836264 
L 125.557435 109.342581 
L 117.076417 109.240042 
z
" style="fill:#355f8d;fill-opacity:0.7;"/>
    <path clip-path="url(#pb6add6033d)" d="M 134.149864 109.446466 
L 130.689538 100.948107 
L 125.557435 109.342581 
z
" style="fill:#2c738e;fill-opacity:0.7;"/>
    <path clip-path="url(#pb6add6033d)" d="M 139.264968 100.99657 
L 130.689538 100.948107 
L 134.149864 109.446466 
z
" style="fill:#287d8e;fill-opacity:0.7;"/>
    <path clip-path="url(#pb6add6033d)" d="M 139.264968 100.99657 
L 147.953123 101.045669 
L 144.320287 92.645435 
z
" style="fill:#21918c;fill-opacity:0.7;"/>
    <path clip-path="url(#pb6add6033d)" d="M 147.953123 101.045669 
L 152.990367 92.63968 
L 144.320287 92.645435 
z
" style="fill:#1e9b8a;fill-opacity:0.7;"/>
    <path clip-path="url(#pb6add6033d)" d="M 171.634806 76.007795 
L 166.733668 84.271892 
L 175.614004 84.210988 
z
" style="fill:#5cc863;fill-opacity:0.7;"/>
    <path clip-path="url(#pb6add6033d)" d="M 180.494904 75.893183 
L 171.634806 76.007795 
L 175.614004 84.210988 
z
" style="fill:#73d056;fill-opacity:0.7;"/>
    <path clip-path="url(#pb6add6033d)" d="M 189.471697 75.777062 
L 185.318645 67.672785 
L 180.494904 75.893183 
z
" style="fill:#a8db34;fill-opacity:0.7;"/>
    <path clip-path="url(#pb6add6033d)" d="M 189.471697 75.777062 
L 194.274111 67.503532 
L 185.318645 67.672785 
z
" style="fill:#c2df23;fill-opacity:0.7;"/>
    <path clip-path="url(#pb6add6033d)" d="M 120.364679 117.836264 
L 111.867733 117.677735 
L 106.597532 126.215084 
z
" style="fill:#404688;fill-opacity:0.7;"/>
    <path clip-path="url(#pb6add6033d)" d="M 152.990367 92.63968 
L 161.774491 92.63385 
L 166.733668 84.271892 
z
" style="fill:#2cb17e;fill-opacity:0.7;"/>
    <path clip-path="url(#pb6add6033d)" d="M 125.557435 109.342581 
L 120.364679 117.836264 
L 134.149864 109.446466 
z
" style="fill:#31678e;fill-opacity:0.7;"/>
    <path clip-path="url(#pb6add6033d)" d="M 134.149864 109.446466 
L 147.953123 101.045669 
L 139.264968 100.99657 
z
" style="fill:#25848e;fill-opacity:0.7;"/>
    <path clip-path="url(#pb6add6033d)" d="M 98.195828 126.002054 
L 92.848387 134.582946 
L 101.264715 134.853863 
z
" style="fill:#481769;fill-opacity:0.7;"/>
    <path clip-path="url(#pb6add6033d)" d="M 106.597532 126.215084 
L 98.195828 126.002054 
L 101.264715 134.853863 
z
" style="fill:#482576;fill-opacity:0.7;"/>
    <path clip-path="url(#pb6add6033d)" d="M 161.774491 92.63385 
L 175.614004 84.210988 
L 166.733668 84.271892 
z
" style="fill:#42be71;fill-opacity:0.7;"/>
    <path clip-path="url(#pb6add6033d)" d="M 203.347607 67.332048 
L 194.274111 67.503532 
L 189.471697 75.777062 
z
" style="fill:#d8e219;fill-opacity:0.7;"/>
    <path clip-path="url(#pb6add6033d)" d="M 152.990367 92.63968 
L 147.953123 101.045669 
L 156.756239 101.095418 
z
" style="fill:#1e9c89;fill-opacity:0.7;"/>
    <path clip-path="url(#pb6add6033d)" d="M 106.597532 126.215084 
L 115.110187 126.430927 
L 120.364679 117.836264 
z
" style="fill:#414287;fill-opacity:0.7;"/>
    <path clip-path="url(#pb6add6033d)" d="M 156.756239 101.095418 
L 161.774491 92.63385 
L 152.990367 92.63968 
z
" style="fill:#21a585;fill-opacity:0.7;"/>
    <path clip-path="url(#pb6add6033d)" d="M 134.149864 109.446466 
L 120.364679 117.836264 
L 128.973908 117.996888 
z
" style="fill:#32648e;fill-opacity:0.7;"/>
    <path clip-path="url(#pb6add6033d)" d="M 101.264715 134.853863 
L 92.848387 134.582946 
L 87.437456 143.265721 
z
" style="fill:#450457;fill-opacity:0.7;"/>
    <path clip-path="url(#pb6add6033d)" d="M 180.494904 75.893183 
L 175.614004 84.210988 
L 184.612 84.149278 
z
" style="fill:#75d054;fill-opacity:0.7;"/>
    <path clip-path="url(#pb6add6033d)" d="M 134.149864 109.446466 
L 142.855913 109.551726 
L 147.953123 101.045669 
z
" style="fill:#26828e;fill-opacity:0.7;"/>
    <path clip-path="url(#pb6add6033d)" d="M 184.612 84.149278 
L 189.471697 75.777062 
L 180.494904 75.893183 
z
" style="fill:#90d743;fill-opacity:0.7;"/>
    <path clip-path="url(#pb6add6033d)" d="M 101.264715 134.853863 
L 115.110187 126.430927 
L 106.597532 126.215084 
z
" style="fill:#472e7c;fill-opacity:0.7;"/>
    <path clip-path="url(#pb6add6033d)" d="M 170.674923 92.627943 
L 175.614004 84.210988 
L 161.774491 92.63385 
z
" style="fill:#3dbc74;fill-opacity:0.7;"/>
    <path clip-path="url(#pb6add6033d)" d="M 156.756239 101.095418 
L 147.953123 101.045669 
L 142.855913 109.551726 
z
" style="fill:#21908d;fill-opacity:0.7;"/>
    <path clip-path="url(#pb6add6033d)" d="M 198.567507 75.659401 
L 203.347607 67.332048 
L 189.471697 75.777062 
z
" style="fill:#d0e11c;fill-opacity:0.7;"/>
    <path clip-path="url(#pb6add6033d)" d="M 123.736007 126.649639 
L 120.364679 117.836264 
L 115.110187 126.430927 
z
" style="fill:#3e4c8a;fill-opacity:0.7;"/>
    <path clip-path="url(#pb6add6033d)" d="M 128.973908 117.996888 
L 120.364679 117.836264 
L 123.736007 126.649639 
z
" style="fill:#39568c;fill-opacity:0.7;"/>
    <path clip-path="url(#pb6add6033d)" d="M 184.612 84.149278 
L 175.614004 84.210988 
L 170.674923 92.627943 
z
" style="fill:#58c765;fill-opacity:0.7;"/>
    <path clip-path="url(#pb6add6033d)" d="M 128.973908 117.996888 
L 137.697661 118.159649 
L 134.149864 109.446466 
z
" style="fill:#2f6c8e;fill-opacity:0.7;"/>
    <path clip-path="url(#pb6add6033d)" d="M 87.437456 143.265721 
L 95.868161 143.595893 
L 101.264715 134.853863 
z
" style="fill:#440154;fill-opacity:0.7;"/>
    <path clip-path="url(#pb6add6033d)" d="M 137.697661 118.159649 
L 142.855913 109.551726 
L 134.149864 109.446466 
z
" style="fill:#2a768e;fill-opacity:0.7;"/>
    <path clip-path="url(#pb6add6033d)" d="M 198.567507 75.659401 
L 189.471697 75.777062 
L 184.612 84.149278 
z
" style="fill:#a2da37;fill-opacity:0.7;"/>
    <path clip-path="url(#pb6add6033d)" d="M 109.792853 135.12838 
L 115.110187 126.430927 
L 101.264715 134.853863 
z
" style="fill:#472c7a;fill-opacity:0.7;"/>
    <path clip-path="url(#pb6add6033d)" d="M 156.756239 101.095418 
L 165.676614 101.14583 
L 161.774491 92.63385 
z
" style="fill:#22a785;fill-opacity:0.7;"/>
    <path clip-path="url(#pb6add6033d)" d="M 161.774491 92.63385 
L 165.676614 101.14583 
L 170.674923 92.627943 
z
" style="fill:#2ab07f;fill-opacity:0.7;"/>
    <path clip-path="url(#pb6add6033d)" d="M 142.855913 109.551726 
L 151.677851 109.658387 
L 156.756239 101.095418 
z
" style="fill:#228d8d;fill-opacity:0.7;"/>
    <path clip-path="url(#pb6add6033d)" d="M 123.736007 126.649639 
L 115.110187 126.430927 
L 109.792853 135.12838 
z
" style="fill:#433d84;fill-opacity:0.7;"/>
    <path clip-path="url(#pb6add6033d)" d="M 198.567507 75.659401 
L 207.784717 75.540169 
L 203.347607 67.332048 
z
" style="fill:#e5e419;fill-opacity:0.7;"/>
    <path clip-path="url(#pb6add6033d)" d="M 203.347607 67.332048 
L 207.784717 75.540169 
L 212.541481 67.158289 
z
" style="fill:#fde725;fill-opacity:0.7;"/>
    <path clip-path="url(#pb6add6033d)" d="M 123.736007 126.649639 
L 137.697661 118.159649 
L 128.973908 117.996888 
z
" style="fill:#355f8d;fill-opacity:0.7;"/>
    <path clip-path="url(#pb6add6033d)" d="M 170.674923 92.627943 
L 179.693989 92.621957 
L 184.612 84.149278 
z
" style="fill:#54c568;fill-opacity:0.7;"/>
    <path clip-path="url(#pb6add6033d)" d="M 101.264715 134.853863 
L 95.868161 143.595893 
L 104.411541 143.930478 
z
" style="fill:#460b5e;fill-opacity:0.7;"/>
    <path clip-path="url(#pb6add6033d)" d="M 184.612 84.149278 
L 193.73001 84.086744 
L 198.567507 75.659401 
z
" style="fill:#9dd93b;fill-opacity:0.7;"/>
    <path clip-path="url(#pb6add6033d)" d="M 101.264715 134.853863 
L 104.411541 143.930478 
L 109.792853 135.12838 
z
" style="fill:#481b6d;fill-opacity:0.7;"/>
    <path clip-path="url(#pb6add6033d)" d="M 170.674923 92.627943 
L 165.676614 101.14583 
L 179.693989 92.621957 
z
" style="fill:#35b779;fill-opacity:0.7;"/>
    <path clip-path="url(#pb6add6033d)" d="M 142.855913 109.551726 
L 137.697661 118.159649 
L 146.538238 118.324589 
z
" style="fill:#2a778e;fill-opacity:0.7;"/>
    <path clip-path="url(#pb6add6033d)" d="M 146.538238 118.324589 
L 151.677851 109.658387 
L 142.855913 109.551726 
z
" style="fill:#26818e;fill-opacity:0.7;"/>
    <path clip-path="url(#pb6add6033d)" d="M 193.73001 84.086744 
L 207.784717 75.540169 
L 198.567507 75.659401 
z
" style="fill:#c2df23;fill-opacity:0.7;"/>
    <path clip-path="url(#pb6add6033d)" d="M 156.756239 101.095418 
L 151.677851 109.658387 
L 160.618007 109.766477 
z
" style="fill:#1f948c;fill-opacity:0.7;"/>
    <path clip-path="url(#pb6add6033d)" d="M 109.792853 135.12838 
L 118.435043 135.406567 
L 123.736007 126.649639 
z
" style="fill:#443983;fill-opacity:0.7;"/>
    <path clip-path="url(#pb6add6033d)" d="M 160.618007 109.766477 
L 165.676614 101.14583 
L 156.756239 101.095418 
z
" style="fill:#1f9e89;fill-opacity:0.7;"/>
    <path clip-path="url(#pb6add6033d)" d="M 132.477262 126.871278 
L 137.697661 118.159649 
L 123.736007 126.649639 
z
" style="fill:#365d8d;fill-opacity:0.7;"/>
    <path clip-path="url(#pb6add6033d)" d="M 184.612 84.149278 
L 179.693989 92.621957 
L 188.834076 92.615891 
z
" style="fill:#63cb5f;fill-opacity:0.7;"/>
    <path clip-path="url(#pb6add6033d)" d="M 188.834076 92.615891 
L 193.73001 84.086744 
L 184.612 84.149278 
z
" style="fill:#7cd250;fill-opacity:0.7;"/>
    <path clip-path="url(#pb6add6033d)" d="M 109.792853 135.12838 
L 104.411541 143.930478 
L 118.435043 135.406567 
z
" style="fill:#482475;fill-opacity:0.7;"/>
    <path clip-path="url(#pb6add6033d)" d="M 165.676614 101.14583 
L 174.716607 101.196918 
L 179.693989 92.621957 
z
" style="fill:#31b57b;fill-opacity:0.7;"/>
    <path clip-path="url(#pb6add6033d)" d="M 160.618007 109.766477 
L 151.677851 109.658387 
L 146.538238 118.324589 
z
" style="fill:#23888e;fill-opacity:0.7;"/>
    <path clip-path="url(#pb6add6033d)" d="M 202.970452 84.023371 
L 207.784717 75.540169 
L 193.73001 84.086744 
z
" style="fill:#bade28;fill-opacity:0.7;"/>
    <path clip-path="url(#pb6add6033d)" d="M 160.618007 109.766477 
L 174.716607 101.196918 
L 165.676614 101.14583 
z
" style="fill:#21a585;fill-opacity:0.7;"/>
    <path clip-path="url(#pb6add6033d)" d="M 123.736007 126.649639 
L 118.435043 135.406567 
L 127.193589 135.6885 
z
" style="fill:#414287;fill-opacity:0.7;"/>
    <path clip-path="url(#pb6add6033d)" d="M 123.736007 126.649639 
L 127.193589 135.6885 
L 132.477262 126.871278 
z
" style="fill:#3c4f8a;fill-opacity:0.7;"/>
    <path clip-path="url(#pb6add6033d)" d="M 141.336287 127.095904 
L 137.697661 118.159649 
L 132.477262 126.871278 
z
" style="fill:#32648e;fill-opacity:0.7;"/>
    <path clip-path="url(#pb6add6033d)" d="M 146.538238 118.324589 
L 137.697661 118.159649 
L 141.336287 127.095904 
z
" style="fill:#2e6f8e;fill-opacity:0.7;"/>
    <path clip-path="url(#pb6add6033d)" d="M 104.411541 143.930478 
L 113.069869 144.269565 
L 118.435043 135.406567 
z
" style="fill:#482173;fill-opacity:0.7;"/>
    <path clip-path="url(#pb6add6033d)" d="M 179.693989 92.621957 
L 174.716607 101.196918 
L 183.878639 101.248696 
z
" style="fill:#3dbc74;fill-opacity:0.7;"/>
    <path clip-path="url(#pb6add6033d)" d="M 179.693989 92.621957 
L 183.878639 101.248696 
L 188.834076 92.615891 
z
" style="fill:#50c46a;fill-opacity:0.7;"/>
    <path clip-path="url(#pb6add6033d)" d="M 188.834076 92.615891 
L 198.097637 92.609742 
L 193.73001 84.086744 
z
" style="fill:#7fd34e;fill-opacity:0.7;"/>
    <path clip-path="url(#pb6add6033d)" d="M 146.538238 118.324589 
L 155.498002 118.491753 
L 160.618007 109.766477 
z
" style="fill:#25858e;fill-opacity:0.7;"/>
    <path clip-path="url(#pb6add6033d)" d="M 198.097637 92.609742 
L 202.970452 84.023371 
L 193.73001 84.086744 
z
" style="fill:#98d83e;fill-opacity:0.7;"/>
    <path clip-path="url(#pb6add6033d)" d="M 169.678774 109.876025 
L 174.716607 101.196918 
L 160.618007 109.766477 
z
" style="fill:#20a386;fill-opacity:0.7;"/>
    <path clip-path="url(#pb6add6033d)" d="M 127.193589 135.6885 
L 141.336287 127.095904 
L 132.477262 126.871278 
z
" style="fill:#39568c;fill-opacity:0.7;"/>
    <path clip-path="url(#pb6add6033d)" d="M 146.538238 118.324589 
L 141.336287 127.095904 
L 155.498002 118.491753 
z
" style="fill:#2b758e;fill-opacity:0.7;"/>
    <path clip-path="url(#pb6add6033d)" d="M 118.435043 135.406567 
L 113.069869 144.269565 
L 121.845482 144.613245 
z
" style="fill:#472c7a;fill-opacity:0.7;"/>
    <path clip-path="url(#pb6add6033d)" d="M 121.845482 144.613245 
L 127.193589 135.6885 
L 118.435043 135.406567 
z
" style="fill:#453882;fill-opacity:0.7;"/>
    <path clip-path="url(#pb6add6033d)" d="M 183.878639 101.248696 
L 198.097637 92.609742 
L 188.834076 92.615891 
z
" style="fill:#60ca60;fill-opacity:0.7;"/>
    <path clip-path="url(#pb6add6033d)" d="M 160.618007 109.766477 
L 155.498002 118.491753 
L 164.57938 118.661186 
z
" style="fill:#228d8d;fill-opacity:0.7;"/>
    <path clip-path="url(#pb6add6033d)" d="M 160.618007 109.766477 
L 164.57938 118.661186 
L 169.678774 109.876025 
z
" style="fill:#1f978b;fill-opacity:0.7;"/>
    <path clip-path="url(#pb6add6033d)" d="M 178.862608 109.987061 
L 174.716607 101.196918 
L 169.678774 109.876025 
z
" style="fill:#24aa83;fill-opacity:0.7;"/>
    <path clip-path="url(#pb6add6033d)" d="M 136.070856 135.974254 
L 141.336287 127.095904 
L 127.193589 135.6885 
z
" style="fill:#3a548c;fill-opacity:0.7;"/>
    <path clip-path="url(#pb6add6033d)" d="M 183.878639 101.248696 
L 174.716607 101.196918 
L 178.862608 109.987061 
z
" style="fill:#2fb47c;fill-opacity:0.7;"/>
    <path clip-path="url(#pb6add6033d)" d="M 155.498002 118.491753 
L 141.336287 127.095904 
L 150.315476 127.323576 
z
" style="fill:#2c738e;fill-opacity:0.7;"/>
    <path clip-path="url(#pb6add6033d)" d="M 183.878639 101.248696 
L 193.165199 101.301177 
L 198.097637 92.609742 
z
" style="fill:#5ac864;fill-opacity:0.7;"/>
    <path clip-path="url(#pb6add6033d)" d="M 169.678774 109.876025 
L 164.57938 118.661186 
L 178.862608 109.987061 
z
" style="fill:#1f9e89;fill-opacity:0.7;"/>
    <path clip-path="url(#pb6add6033d)" d="M 121.845482 144.613245 
L 130.740777 144.961613 
L 127.193589 135.6885 
z
" style="fill:#443983;fill-opacity:0.7;"/>
    <path clip-path="url(#pb6add6033d)" d="M 127.193589 135.6885 
L 130.740777 144.961613 
L 136.070856 135.974254 
z
" style="fill:#404688;fill-opacity:0.7;"/>
    <path clip-path="url(#pb6add6033d)" d="M 193.165199 101.301177 
L 183.878639 101.248696 
L 178.862608 109.987061 
z
" style="fill:#3bbb75;fill-opacity:0.7;"/>
    <path clip-path="url(#pb6add6033d)" d="M 136.070856 135.974254 
L 145.069276 136.263909 
L 141.336287 127.095904 
z
" style="fill:#365c8d;fill-opacity:0.7;"/>
    <path clip-path="url(#pb6add6033d)" d="M 141.336287 127.095904 
L 145.069276 136.263909 
L 150.315476 127.323576 
z
" style="fill:#31678e;fill-opacity:0.7;"/>
    <path clip-path="url(#pb6add6033d)" d="M 150.315476 127.323576 
L 159.417292 127.554357 
L 155.498002 118.491753 
z
" style="fill:#297b8e;fill-opacity:0.7;"/>
    <path clip-path="url(#pb6add6033d)" d="M 155.498002 118.491753 
L 159.417292 127.554357 
L 164.57938 118.661186 
z
" style="fill:#25848e;fill-opacity:0.7;"/>
    <path clip-path="url(#pb6add6033d)" d="M 164.57938 118.661186 
L 173.784865 118.832934 
L 178.862608 109.987061 
z
" style="fill:#1e9c89;fill-opacity:0.7;"/>
    <path clip-path="url(#pb6add6033d)" d="M 136.070856 135.974254 
L 130.740777 144.961613 
L 145.069276 136.263909 
z
" style="fill:#3d4e8a;fill-opacity:0.7;"/>
    <path clip-path="url(#pb6add6033d)" d="M 188.172035 110.099616 
L 193.165199 101.301177 
L 178.862608 109.987061 
z
" style="fill:#37b878;fill-opacity:0.7;"/>
    <path clip-path="url(#pb6add6033d)" d="M 150.315476 127.323576 
L 145.069276 136.263909 
L 159.417292 127.554357 
z
" style="fill:#2e6f8e;fill-opacity:0.7;"/>
    <path clip-path="url(#pb6add6033d)" d="M 164.57938 118.661186 
L 159.417292 127.554357 
L 173.784865 118.832934 
z
" style="fill:#228c8d;fill-opacity:0.7;"/>
    <path clip-path="url(#pb6add6033d)" d="M 178.862608 109.987061 
L 173.784865 118.832934 
L 183.117018 119.007046 
z
" style="fill:#1fa287;fill-opacity:0.7;"/>
    <path clip-path="url(#pb6add6033d)" d="M 145.069276 136.263909 
L 130.740777 144.961613 
L 139.758221 145.314764 
z
" style="fill:#3e4c8a;fill-opacity:0.7;"/>
    <path clip-path="url(#pb6add6033d)" d="M 178.862608 109.987061 
L 183.117018 119.007046 
L 188.172035 110.099616 
z
" style="fill:#26ad81;fill-opacity:0.7;"/>
    <path clip-path="url(#pb6add6033d)" d="M 145.069276 136.263909 
L 154.191345 136.557543 
L 159.417292 127.554357 
z
" style="fill:#2f6c8e;fill-opacity:0.7;"/>
    <path clip-path="url(#pb6add6033d)" d="M 173.784865 118.832934 
L 159.417292 127.554357 
L 168.644264 127.788312 
z
" style="fill:#23898e;fill-opacity:0.7;"/>
    <path clip-path="url(#pb6add6033d)" d="M 148.900347 145.672798 
L 145.069276 136.263909 
L 139.758221 145.314764 
z
" style="fill:#3a548c;fill-opacity:0.7;"/>
    <path clip-path="url(#pb6add6033d)" d="M 148.900347 145.672798 
L 154.191345 136.557543 
L 145.069276 136.263909 
z
" style="fill:#355f8d;fill-opacity:0.7;"/>
    <path clip-path="url(#pb6add6033d)" d="M 154.191345 136.557543 
L 163.43963 136.85524 
L 159.417292 127.554357 
z
" style="fill:#2c738e;fill-opacity:0.7;"/>
    <path clip-path="url(#pb6add6033d)" d="M 159.417292 127.554357 
L 163.43963 136.85524 
L 168.644264 127.788312 
z
" style="fill:#287d8e;fill-opacity:0.7;"/>
    <path clip-path="url(#pb6add6033d)" d="M 168.644264 127.788312 
L 177.99899 128.025506 
L 173.784865 118.832934 
z
" style="fill:#21918c;fill-opacity:0.7;"/>
    <path clip-path="url(#pb6add6033d)" d="M 177.99899 128.025506 
L 183.117018 119.007046 
L 173.784865 118.832934 
z
" style="fill:#1f9a8a;fill-opacity:0.7;"/>
    <path clip-path="url(#pb6add6033d)" d="M 154.191345 136.557543 
L 148.900347 145.672798 
L 163.43963 136.85524 
z
" style="fill:#31678e;fill-opacity:0.7;"/>
    <path clip-path="url(#pb6add6033d)" d="M 163.43963 136.85524 
L 177.99899 128.025506 
L 168.644264 127.788312 
z
" style="fill:#25848e;fill-opacity:0.7;"/>
    <path clip-path="url(#pb6add6033d)" d="M 163.43963 136.85524 
L 148.900347 145.672798 
L 158.169759 146.035816 
z
" style="fill:#32648e;fill-opacity:0.7;"/>
    <path clip-path="url(#pb6add6033d)" d="M 163.43963 136.85524 
L 172.816768 137.157085 
L 177.99899 128.025506 
z
" style="fill:#26828e;fill-opacity:0.7;"/>
    <path clip-path="url(#pb6add6033d)" d="M 163.43963 136.85524 
L 158.169759 146.035816 
L 167.569134 146.403925 
z
" style="fill:#2f6c8e;fill-opacity:0.7;"/>
    <path clip-path="url(#pb6add6033d)" d="M 167.569134 146.403925 
L 172.816768 137.157085 
L 163.43963 136.85524 
z
" style="fill:#2b758e;fill-opacity:0.7;"/>
   </g>
  </g>
 </g>
 <defs>
  <clipPath id="pb6add6033d">
   <rect height="163.08" width="163.08" x="66.06" y="25.92"/>
  </clipPath>
 </defs>
</svg>
