<svg viewBox="0 0 330 200" xmlns="http://www.w3.org/2000/svg"><g><g><g><g><g><line x1="47.8125" y1="175" x2="42.8125" y2="175" style="visibility: inherit;" fill="rgb(0, 0, 0)" stroke="rgb(204, 204, 204)" stroke-width="1px"></line><line x1="47.8125" y1="155.55555555555554" x2="42.8125" y2="155.55555555555554" style="visibility: inherit;" fill="rgb(0, 0, 0)" stroke="rgb(204, 204, 204)" stroke-width="1px"></line><line x1="47.8125" y1="136.11111111111111" x2="42.8125" y2="136.11111111111111" style="visibility: inherit;" fill="rgb(0, 0, 0)" stroke="rgb(204, 204, 204)" stroke-width="1px"></line><line x1="47.8125" y1="116.66666666666666" x2="42.8125" y2="116.66666666666666" style="visibility: inherit;" fill="rgb(0, 0, 0)" stroke="rgb(204, 204, 204)" stroke-width="1px"></line><line x1="47.8125" y1="97.22222222222223" x2="42.8125" y2="97.22222222222223" style="visibility: inherit;" fill="rgb(0, 0, 0)" stroke="rgb(204, 204, 204)" stroke-width="1px"></line><line x1="47.8125" y1="77.77777777777777" x2="42.8125" y2="77.77777777777777" style="visibility: inherit;" fill="rgb(0, 0, 0)" stroke="rgb(204, 204, 204)" stroke-width="1px"></line><line x1="47.8125" y1="58.33333333333334" x2="42.8125" y2="58.33333333333334" style="visibility: inherit;" fill="rgb(0, 0, 0)" stroke="rgb(204, 204, 204)" stroke-width="1px"></line><line x1="47.8125" y1="38.88888888888891" x2="42.8125" y2="38.88888888888891" style="visibility: inherit;" fill="rgb(0, 0, 0)" stroke="rgb(204, 204, 204)" stroke-width="1px"></line><line x1="47.8125" y1="19.444444444444454" x2="42.8125" y2="19.444444444444454" style="visibility: inherit;" fill="rgb(0, 0, 0)" stroke="rgb(204, 204, 204)" stroke-width="1px"></line><line x1="47.8125" y1="0" x2="42.8125" y2="0" style="visibility: inherit;" fill="rgb(0, 0, 0)" stroke="rgb(204, 204, 204)" stroke-width="1px"></line></g><g transform="translate(37.8125, 0)"><text x="0" y="175" dx="0em" dy="0.3em" style="text-anchor: end; visibility: hidden; font-family: Roboto, sans-serif; font-size: 12px; font-weight: 200;" fill="rgb(50, 49, 63)" stroke="none" stroke-width="1px">-0.2</text><text x="0" y="155.55555555555554" dx="0em" dy="0.3em" style="text-anchor: end; visibility: inherit; font-family: Roboto, sans-serif; font-size: 12px; font-weight: 200;" fill="rgb(50, 49, 63)" stroke="none" stroke-width="1px">0</text><text x="0" y="136.11111111111111" dx="0em" dy="0.3em" style="text-anchor: end; visibility: hidden; font-family: Roboto, sans-serif; font-size: 12px; font-weight: 200;" fill="rgb(50, 49, 63)" stroke="none" stroke-width="1px">0.2</text><text x="0" y="116.66666666666666" dx="0em" dy="0.3em" style="text-anchor: end; visibility: inherit; font-family: Roboto, sans-serif; font-size: 12px; font-weight: 200;" fill="rgb(50, 49, 63)" stroke="none" stroke-width="1px">0.4</text><text x="0" y="97.22222222222223" dx="0em" dy="0.3em" style="text-anchor: end; visibility: hidden; font-family: Roboto, sans-serif; font-size: 12px; font-weight: 200;" fill="rgb(50, 49, 63)" stroke="none" stroke-width="1px">0.6</text><text x="0" y="77.77777777777777" dx="0em" dy="0.3em" style="text-anchor: end; visibility: inherit; font-family: Roboto, sans-serif; font-size: 12px; font-weight: 200;" fill="rgb(50, 49, 63)" stroke="none" stroke-width="1px">0.8</text><text x="0" y="58.33333333333334" dx="0em" dy="0.3em" style="text-anchor: end; visibility: hidden; font-family: Roboto, sans-serif; font-size: 12px; font-weight: 200;" fill="rgb(50, 49, 63)" stroke="none" stroke-width="1px">1</text><text x="0" y="38.88888888888891" dx="0em" dy="0.3em" style="text-anchor: end; visibility: inherit; font-family: Roboto, sans-serif; font-size: 12px; font-weight: 200;" fill="rgb(50, 49, 63)" stroke="none" stroke-width="1px">1.2</text><text x="0" y="19.444444444444454" dx="0em" dy="0.3em" style="text-anchor: end; visibility: hidden; font-family: Roboto, sans-serif; font-size: 12px; font-weight: 200;" fill="rgb(50, 49, 63)" stroke="none" stroke-width="1px">1.4</text><text x="0" y="0" dx="0em" dy="0.3em" style="text-anchor: end; visibility: hidden; font-family: Roboto, sans-serif; font-size: 12px; font-weight: 200;" fill="rgb(50, 49, 63)" stroke="none" stroke-width="1px">1.6</text></g><line x1="47.8125" y1="0" x2="47.8125" y2="175" fill="rgb(0, 0, 0)" stroke="rgb(204, 204, 204)" stroke-width="1px"></line></g></g><g transform="translate(47, 0)" clip-path="url(#clip_0)"><clipPath id="clip_0"><rect width="282" height="175"></rect></clipPath><g><g><g><line x1="0" y1="0" x2="0" y2="175" fill="rgb(0, 0, 0)" stroke="rgb(60, 60, 60)" stroke-width="1px" opacity="0.25"></line><line x1="23.515625" y1="0" x2="23.515625" y2="175" fill="rgb(0, 0, 0)" stroke="rgb(60, 60, 60)" stroke-width="1px" opacity="0.25"></line><line x1="47.03125" y1="0" x2="47.03125" y2="175" fill="rgb(0, 0, 0)" stroke="rgb(60, 60, 60)" stroke-width="1px" opacity="0.25"></line><line x1="70.546875" y1="0" x2="70.546875" y2="175" fill="rgb(0, 0, 0)" stroke="rgb(60, 60, 60)" stroke-width="1px" opacity="0.25"></line><line x1="94.0625" y1="0" x2="94.0625" y2="175" fill="rgb(0, 0, 0)" stroke="rgb(60, 60, 60)" stroke-width="1px" opacity="0.25"></line><line x1="117.578125" y1="0" x2="117.578125" y2="175" fill="rgb(0, 0, 0)" stroke="rgb(60, 60, 60)" stroke-width="1px" opacity="0.25"></line><line x1="141.09375" y1="0" x2="141.09375" y2="175" fill="rgb(0, 0, 0)" stroke="rgb(60, 60, 60)" stroke-width="1px" opacity="0.25"></line><line x1="164.609375" y1="0" x2="164.609375" y2="175" fill="rgb(0, 0, 0)" stroke="rgb(60, 60, 60)" stroke-width="1px" opacity="0.25"></line><line x1="188.125" y1="0" x2="188.125" y2="175" fill="rgb(0, 0, 0)" stroke="rgb(60, 60, 60)" stroke-width="1px" opacity="0.25"></line><line x1="211.640625" y1="0" x2="211.640625" y2="175" fill="rgb(0, 0, 0)" stroke="rgb(60, 60, 60)" stroke-width="1px" opacity="0.25"></line><line x1="235.15625" y1="0" x2="235.15625" y2="175" fill="rgb(0, 0, 0)" stroke="rgb(60, 60, 60)" stroke-width="1px" opacity="0.25"></line><line x1="258.671875" y1="0" x2="258.671875" y2="175" fill="rgb(0, 0, 0)" stroke="rgb(60, 60, 60)" stroke-width="1px" opacity="0.25"></line><line x1="282.1875" y1="0" x2="282.1875" y2="175" fill="rgb(0, 0, 0)" stroke="rgb(60, 60, 60)" stroke-width="1px" opacity="0.25"></line></g><g><line x1="0" y1="175" x2="282.1875" y2="175" fill="rgb(0, 0, 0)" stroke="rgb(60, 60, 60)" stroke-width="1px" opacity="0.25"></line><line x1="0" y1="155.55555555555554" x2="282.1875" y2="155.55555555555554" fill="rgb(0, 0, 0)" stroke="rgb(60, 60, 60)" stroke-width="1px" opacity="0.25"></line><line x1="0" y1="136.11111111111111" x2="282.1875" y2="136.11111111111111" fill="rgb(0, 0, 0)" stroke="rgb(60, 60, 60)" stroke-width="1px" opacity="0.25"></line><line x1="0" y1="116.66666666666666" x2="282.1875" y2="116.66666666666666" fill="rgb(0, 0, 0)" stroke="rgb(60, 60, 60)" stroke-width="1px" opacity="0.25"></line><line x1="0" y1="97.22222222222223" x2="282.1875" y2="97.22222222222223" fill="rgb(0, 0, 0)" stroke="rgb(60, 60, 60)" stroke-width="1px" opacity="0.25"></line><line x1="0" y1="77.77777777777777" x2="282.1875" y2="77.77777777777777" fill="rgb(0, 0, 0)" stroke="rgb(60, 60, 60)" stroke-width="1px" opacity="0.25"></line><line x1="0" y1="58.33333333333334" x2="282.1875" y2="58.33333333333334" fill="rgb(0, 0, 0)" stroke="rgb(60, 60, 60)" stroke-width="1px" opacity="0.25"></line><line x1="0" y1="38.88888888888891" x2="282.1875" y2="38.88888888888891" fill="rgb(0, 0, 0)" stroke="rgb(60, 60, 60)" stroke-width="1px" opacity="0.25"></line><line x1="0" y1="19.444444444444454" x2="282.1875" y2="19.444444444444454" fill="rgb(0, 0, 0)" stroke="rgb(60, 60, 60)" stroke-width="1px" opacity="0.25"></line><line x1="0" y1="0" x2="282.1875" y2="0" fill="rgb(0, 0, 0)" stroke="rgb(60, 60, 60)" stroke-width="1px" opacity="0.25"></line></g></g></g><g><g><line x1="0" y1="155.55555555555554" x2="282.1875" y2="155.55555555555554" fill="rgb(0, 0, 0)" stroke="rgb(153, 153, 153)" stroke-width="1.5px"></line></g></g><g><g><line x1="23.515625" y1="0" x2="23.515625" y2="175" fill="rgb(0, 0, 0)" stroke="rgb(153, 153, 153)" stroke-width="1.5px"></line></g></g><g><g><g><g><g><path stroke="rgb(0, 153, 136)" stroke-width="2px" d="M23.515625,34.78680484824712L23.75078125,53.83544265561155L23.985937500000002,56.71871556514689L24.221093749999998,64.37355162961666L24.45625,70.15556396867461L24.69140625,70.61570146204267L24.9265625,72.960570978857L25.161718750000002,78.0527112474699L25.396874999999998,81.97134742475308L25.63203125,87.41750677416486L25.867187499999996,90.97383241728191L26.10234375,93.95122817457859L26.337500000000002,97.20979654916646L26.572656249999998,99.20396401780089L26.8078125,100.88606977006971L27.042968750000004,103.37074192956575L27.278125,104.71939319129793L27.513281250000002,106.90082825985405L27.748437499999998,107.98618510565808L27.98359375,109.74384560232957L28.21875,110.03986608425534L28.45390625,112.0008174982329L28.689062500000002,113.06151979150114L28.924218749999998,115.3492602794598L29.159375,116.60599285084831L29.39453125,117.37782493759208L29.6296875,118.79037768408881L29.864843750000002,119.62114224888909L30.1,120.14684389313864L30.33515625,120.78504505737173L30.5703125,121.23178203507047L30.80546875,121.41626083848395L31.040625,121.40020157771734L31.27578125,121.90492117211822L31.5109375,122.58631477080647L31.74609375,122.63772880964895L31.98125,123.1230012320923L32.21640625,123.48360648267615L32.4515625,124.03558150218497L32.68671875,124.35563941587532L32.921875,124.6422086888748L33.3921875,125.19453015907443L33.62734375,125.53461269406837L33.8625,126.44704698090474L34.09765625,127.07066059870681L34.3328125,127.74337865005482L34.56796875,127.89073186443038L34.803125,128.02579279087357L35.03828125,127.93062231654747L35.2734375,128.29884055675862L35.508593749999996,128.5465140653888L35.743750000000006,128.3740170109384L35.97890625,128.71993353660915L36.2140625,128.69386468818004L36.44921875000001,128.53919790725172L36.684375,129.10441290267084L36.91953125,129.37655938057085L37.154687499999994,129.63844392999619L37.389843750000004,129.86634887305203L37.625,129.9733378765999L37.860156249999996,130.11874336103094L38.095312500000006,130.17444388751622L38.33046875,129.96307608454077L38.565625,129.7771348073152L38.80078125,129.79711873594883L39.0359375,130.08994703767456L39.27109375,130.13616703240282L39.50625,130.38726424830594L39.741406250000004,130.55734283402975L39.9765625,130.772759516754L40.211718749999996,131.04550265413L40.446875,131.25993403326697L40.68203125,131.20355870480242L40.9171875,131.39439813597875L41.15234375,131.71689574529753L41.3875,131.63324745855394L41.62265625,132.062040035718L41.8578125,132.24211419094232L42.092968750000004,132.5264219290427L42.328125,132.56073571454556L42.56328125,132.61706759060735L42.7984375,132.54258747732283L43.03359375,132.40014537218454L43.26875,132.65306909323255L43.50390625,132.70571250332125L43.7390625,132.87105911026794L43.97421875,133.06140131794217L44.209375,133.31098394018042L44.44453125,133.2617679554939L44.6796875,133.39512175096786L44.91484375,133.2936693646801L45.15,133.24275599431266L45.38515625,133.34969154621058L45.6203125,133.13115273702388L45.85546875,133.07173499170196L46.090624999999996,133.1422816188522L46.32578125,133.0716065852388L46.5609375,133.2178624363465L46.79609375,133.25548222218742L47.03125,133.1467601111661L47.26640625,133.16628788542747L47.5015625,133.01100621127503L47.73671875,133.0909827891533L47.971875000000004,133.0323227941049L48.20703125,132.93872337591392L48.442187499999996,132.98923252937462L48.67734375,133.01763320251706L48.9125,133.26075813760494L49.14765625,133.5287688292924L49.3828125,133.76233913506366L49.61796875,133.90917052815976L49.853125,133.8267752283098L50.088281249999994,133.80457303694914L50.323437500000004,133.8176107916649L50.55859375,133.676789355056L50.793749999999996,133.5802007900429L51.028906250000006,133.61947727686103L51.2640625,133.82992838339558L51.49921875,133.7365466842722L51.73437499999999,133.69195772262438L51.96953125,133.54048419265905L52.2046875,133.60583859238557L52.439843749999994,133.55751932257158L52.675000000000004,133.47472794765406L52.91015625,133.451392966275L53.145312499999996,133.53908326231496L53.380468750000006,133.6883342290909L53.615625,133.69019331158083L53.85078125,133.75997118076873L54.08593750000001,133.86235458175688L54.32109375,133.88431885550528L54.55625,133.75158597490346L54.791406249999994,133.7146677729122L55.026562500000004,133.76340864842734L55.26171875,133.63662488046427L55.496874999999996,133.60730440671537L55.732031250000006,133.7161490732729L55.9671875,133.72021406579162L56.20234375,133.73568766127764L56.4375,133.73195320794534L56.67265625,133.68530514821342L56.9078125,133.77533125893603L57.14296875,133.789190638385L57.378125000000004,133.9489553183968L57.61328125,133.81511195840216L57.848437499999996,133.95305525866965L58.08359375,134.1010990204489L58.31875,133.93894490191246L58.55390625,133.922062130719L58.7890625,134.1868383947005L59.02421875,134.1672197063951L59.259375,134.23795534715816L59.49453125,134.486043677625L59.729687500000004,134.52426202687494L59.96484375,134.58522443737178L60.2,134.64142100369992L60.43515625,134.54746563597254L60.6703125,134.6570565805343L60.90546875,134.74112905178208L61.140625,134.77470361865903L61.37578125,134.8423386082353L61.6109375,134.94826833492831L61.84609375,134.96911373915108L62.08125,135.2435172292793L62.31640625,135.1458572035793L62.5515625,135.14471886084445L62.78671875,135.1326838339136L63.021875,135.03988021873687L63.25703125,135.10358773939836L63.4921875,135.17437443601355L63.727343749999996,135.20312143670745L63.9625,135.377505786017L64.19765625000001,135.36091371259369L64.4328125,135.32462643288653L64.66796875,135.3408385418351L64.903125,135.3587902603884L65.13828125,135.4087872729877L65.3734375,135.5281884858219L65.60859375,135.49015075292775L65.84375,135.51350695076178L66.07890625,135.63468657582936L66.31406249999999,135.58174567044387L66.54921875000001,135.50691220733268L66.784375,135.5206519017658L67.01953125,135.3826629702694L67.2546875,135.33888766838362L67.48984375,135.40687802636253L67.725,135.25368801175946L67.96015625,135.4255668104709L68.1953125,135.50599347416556L68.43046875,135.4222845799655L68.665625,135.4392975724725L68.90078125,135.3578930431099L69.1359375,135.4181434865925L69.37109375,135.40384117788832L69.60625,135.3301890813547L69.84140625,135.23516836801952L70.0765625,135.2672165360061L70.31171875,135.3602467324204L70.546875,135.32521206211118L70.78203125,135.193974249669L71.01718749999999,135.2222294418857L71.25234375,135.18423350077632L71.48750000000001,135.28498035829813L71.72265625,135.30789906036145L71.9578125,135.32313198783555L72.19296875,135.23156159352527L72.428125,135.34459943922155L72.66328125,135.39253859976424L72.89843750000001,135.43192631368242L73.13359375,135.50136761337086L73.36875,135.58005968420338L73.60390625,135.67074630059471L73.8390625,135.6728622464246L74.07421875,135.73194564711974L74.30937499999999,135.7996157676821L74.54453124999999,135.82851894642408L74.77968750000001,135.81595367740547L75.01484375,135.8673622657299L75.25,135.8115913670741L75.48515625,135.8052615354089L75.72031249999999,135.76128170463596L75.95546875,135.6793313995983L76.42578125,135.6719520411358L76.6609375,135.7305205024074L76.89609375,135.69363760578963L77.13125,135.72987677017733L77.36640625,135.73333801694847L77.6015625,135.68865838962188L77.83671875,135.7174881622781L78.071875,135.7181678580663L78.30703125000001,135.65506657987123L78.5421875,135.59331447736082L78.77734375,135.6825549032426L79.0125,135.60962599566983L79.24765624999999,135.55780687454777L79.48281250000001,135.61029412799928L79.71796875,135.68412029765508L79.953125,135.662922552216L80.18828125,135.68574043567403L80.42343749999999,135.73703603449593L80.65859375,135.68505196063722L80.89375,135.68886064020805L81.12890625,135.77464276861673L81.3640625,135.7431668172209L81.59921875,135.71355168299652L81.834375,135.70069360405319L82.06953125,135.7411143105665L82.3046875,135.69590728006906L82.53984374999999,135.78333555988476L82.775,135.9458692225567L83.01015625000001,136.0130779825225L83.2453125,136.09630171796405L83.48046875,136.09781089661126L83.715625,136.08835055691773L83.95078124999999,136.08715348254364L84.18593750000001,136.13967110140328L84.42109375000001,136.18445551945024L84.65625,136.23140735208437L84.89140625,136.2234117724571L85.1265625,136.17501415708412L85.36171875,136.30206393315433L85.596875,136.30224561415295L85.83203124999999,136.26140617885878L86.30234375,136.2860529413443L86.5375,136.2812509260252L86.77265625,136.32154214923065L87.0078125,136.3441221236554L87.24296874999999,136.2263543333928L87.478125,136.30601429482218L87.71328125000001,136.27421237427757L87.9484375,136.314843461363L88.18359375,136.33364417167294L88.41875,136.28152975592866L88.65390624999999,136.37130709107223L88.8890625,136.31984467804008L89.12421875000001,136.31890175465216L89.359375,136.27429331451097L89.59453125,136.3740544276279L89.8296875,136.3903348010868L90.06484375,136.41288544357826L90.3,136.43739940037773L90.53515625000001,136.4946331663536L90.7703125,136.55060831371168L91.00546875,136.55484080586356L91.47578125,136.53134176149004L91.7109375,136.6363401421809L91.94609374999999,136.71170159171166L92.18124999999999,136.738059643767L92.41640625000001,136.69544120606085L92.6515625,136.69328368200777L92.88671875,136.7141860280113L93.121875,136.6941739849114L93.35703124999999,136.69801507912504L93.5921875,136.75077299129103L93.82734375000001,136.84461891876356L94.0625,136.89971454802262L94.29765625,136.90335616639157L94.5328125,136.89391986329977L94.76796875,136.90056877160873L95.003125,136.9352037458621L95.23828125,137.00711941697514L95.4734375,137.00929677124424L95.70859375,137.09310220925897L95.94375000000001,137.1277430352126L96.17890625,137.07014058280507L96.4140625,137.02241417819462L96.64921875,136.9520699728647L97.11953125000001,137.00104466659036L97.3546875,137.06596987747858L97.58984375,137.07074496759333L97.825,137.0544150130134L98.06015624999999,137.09604518436132L98.2953125,137.0292144750786L98.53046875,137.02626108618705L98.765625,136.99773581676322L99.00078125,136.9961590919186L99.2359375,137.06564827348097L99.47109375,137.03169349004472L99.70625,136.97640161626214L99.94140625,136.97039917957966L100.17656249999999,136.96713941449227L100.41171875,136.94437839248513L100.64687500000001,136.94771940786703L100.88203125,136.9480103444413L101.1171875,136.92303373186832L101.35234375,136.87951054805623L101.58749999999999,136.82883930868115L101.82265625000001,136.80077298455583L102.05781250000001,136.77641899765567L102.29296875,136.75839124324966L102.528125,136.82267915804084L102.76328125,136.80648295153486L102.9984375,136.82182544403517L103.23359375,136.80510779615346L103.46874999999999,136.85243011792386L103.70390625,136.8923867216151L103.9390625,136.97083947783977L104.17421875,136.94631275346052L104.409375,136.93877609395656L104.64453125,136.96883289391414L104.87968749999999,136.9772257350308L105.11484375,137.020068083901L105.35000000000001,137.00993652506338L105.58515625,136.95758910591772L105.8203125,136.91601609997977L106.05546875,136.9647236735564L106.29062499999999,137.0063039817934L106.52578125,137.03778847068486L106.76093750000001,136.97939545246362L106.99609375,136.98812320199926L107.23125,136.92093176435296L107.46640625,136.9312868577673L107.7015625,136.82870778050346L107.93671875,136.80400523684511L108.17187500000001,136.6465203176375L108.40703125,136.5941117087815L108.6421875,136.63509795277818L108.87734375,136.71733552837324L109.1125,136.75227086210705L109.34765625,136.87060857974444L109.58281249999999,136.86624364233785L109.81796874999999,136.87505991680075L110.05312500000001,136.91999698250712L110.5234375,136.97145902914914L110.75859375,137.01548602400175L110.99374999999999,136.95962011357054L111.22890625,136.9317254594645L111.46406250000001,136.88461912113877L111.69921875,136.84057558148507L111.934375,136.90687292191734L112.16953125,136.93981169294813L112.4046875,136.86650498193436L112.63984375,136.8298845830425L112.875,136.86352319453738L113.11015625,136.86965784198006L113.3453125,136.8040532765193L113.58046875000001,136.7676759855448L113.815625,136.83095076779077L114.05078125,136.8180862890151L114.2859375,136.7691374221675L114.52109374999999,136.75038548609194L114.75625000000001,136.7666428297632L114.99140625,136.85405543458634L115.2265625,136.91940387198068L115.46171875,136.942209414798L115.69687499999999,136.93903156561484L115.93203125,136.93038571727305L116.40234375,136.87635125775282L116.6375,136.9359962219084L116.87265625,136.95865523998893L117.1078125,136.99867474246807L117.34296875,136.96583887067612L117.578125,136.93877723736196L117.81328124999999,136.8694292562801L118.0484375,136.91073890891462L118.28359375000001,136.81895841807076L118.51875,136.81399058365056L118.75390625,136.84683990961997L118.9890625,136.8286847856934L119.22421874999999,136.7752203139895L119.45937500000001,136.8296792066185L119.69453125000001,136.82690683634868L119.9296875,136.86189109410577L120.16484375,136.80131212130496L120.4,136.7836022843073L120.63515625,136.77944868421716L120.8703125,136.80848995726637L121.10546874999999,136.8130801064826L121.340625,136.75426140547006L121.8109375,136.79260373019187L122.04609375,136.84787527380288L122.28125,136.90470421197497L122.51640624999999,136.92590094798032L122.7515625,136.96438699250703L122.98671875000001,136.96375598130234L123.221875,136.93865980399264L123.45703125,136.9262346106451L123.6921875,136.9427410770074L123.92734374999999,136.90901256003656L124.1625,136.89560215121497L124.39765625000001,136.83587007978363L124.6328125,136.85796181884598L125.103125,136.8424244355631L125.33828125,136.84145037722297L125.5734375,136.8814966357527L125.80859375000001,136.92573263096529L126.04375,136.9213444917042L126.27890625,136.95427713555705L126.5140625,136.937498922613L126.74921875,136.94088772564453L126.984375,136.96398641761533L127.21953124999999,136.96645631474416L127.45468749999999,136.98121973529692L127.68984375000001,136.9717711609465L127.925,136.99262496612926L128.16015625,137.01615814379076L128.39531250000002,137.02367315719954L128.63046875,137.05058047029738L128.865625,137.07435377089567L129.10078125,137.05374728151415L129.3359375,137.0132441053874L129.57109375,137.00098507625214L129.80625,136.9467096018866L130.04140625,136.9745448463888L130.2765625,137.00578169550332L130.51171875,137.000506805071L130.746875,136.92374294998476L130.98203125,136.8550005314307L131.2171875,136.8770287283401L131.45234374999998,136.87160195660945L131.6875,136.85088440485552L131.92265625000002,136.84913097711282L132.1578125,136.87986200133494L132.39296875,136.86120837479552L132.62812499999998,136.85930684474982L132.86328125,136.87837240195455L133.09843750000002,136.8724981048049L133.33359375,136.91598869839632L133.56875,136.97537955387054L133.80390625,136.97051412047162L134.0390625,136.94696733848667L134.27421875,136.93052111993003L134.509375,136.9526435781684L134.74453125,137.00043854483755L134.9796875,137.03022112389488L135.21484375,137.04517500481148L135.45,137.09965657071692L135.68515625,137.12319018244577L135.9203125,137.15918008558833L136.15546874999998,137.1922986612893L136.390625,137.2547909831463L136.62578125000002,137.26436866837614L136.8609375,137.3030437080051L137.09609375,137.3230557937458L137.33125,137.38280667720767L137.56640625,137.3670586598509L137.8015625,137.34785215769418L138.03671875,137.37022952485876L138.271875,137.44265533192376L138.50703125,137.45103616673924L138.7421875,137.44812136268533L138.97734375,137.42514357879054L139.2125,137.45760283132813L139.44765625,137.4375211097959L139.91796875,137.41094976555365L140.153125,137.38092901788644L140.38828125,137.36185694455796L140.6234375,137.33230596223245L140.85859374999998,137.35428160780793L141.09375,137.32944505930578L141.5640625,137.33285028501055L141.79921875,137.29508441212133L142.03437499999998,137.3151628405245L142.26953125,137.338411022653L142.5046875,137.341993798694L142.73984375,137.3177427416726L142.97500000000002,137.32330764809507L143.21015624999998,137.35531861773902L143.4453125,137.3386825794193L143.68046875,137.30018013053228L143.915625,137.28389818318422L144.15078125,137.25400047556698L144.3859375,137.3048391526227L144.62109375,137.29747819996402L144.85625,137.28698591434434L145.09140625,137.29429265516376L145.3265625,137.36354967253612L145.56171875,137.36496313697205L145.79687500000003,137.41694753422402L146.03203125,137.4050602992246L146.2671875,137.34350045409062L146.50234375,137.3564282050501L146.7375,137.37222675777036L146.97265625,137.3896851396228L147.678125,137.41636741764714L147.91328125,137.45014957765883L148.1484375,137.47174011122635L148.38359375000002,137.51862335320104L148.61874999999998,137.5080618209239L148.85390625,137.45407412994422L149.08906249999998,137.38395184431485L149.32421875,137.3868949520494L149.55937500000002,137.33907275494536L149.79453125,137.33684875726223L150.0296875,137.34473556454572L150.26484374999998,137.30795042677855L150.5,137.33390766693L150.73515625000002,137.37585615587312L150.9703125,137.43796730556613L151.20546875000002,137.429839139346L151.44062499999998,137.4302280124123L151.67578125,137.426985154625L151.9109375,137.38717460247616L152.14609375,137.42483054708205L152.38125000000002,137.41707726922982L152.61640625,137.398639042659L152.8515625,137.40406127103455L153.08671875,137.40357787178777L153.321875,137.39452318594078L153.55703125,137.4132038534192L153.7921875,137.41510497764205L154.02734374999997,137.39955725155266L154.2625,137.38644488697977L154.49765625,137.40999956045616L154.7328125,137.3815183964114L154.96796875,137.40028954378204L155.203125,137.38569271359077L155.43828125,137.35872675717613L155.6734375,137.38073882314552L155.90859375,137.34976860822883L156.14375,137.3428420992986L156.37890625,137.31230792404526L156.61406250000002,137.30952100084218L156.84921874999998,137.30070880465215L157.084375,137.30458018126257L157.31953125,137.2985581646718L157.5546875,137.23619326514444L157.78984375000002,137.31805900918278L158.025,137.3174852549818L158.26015625,137.3129938499061L158.49531249999998,137.36934486050777L158.73046875,137.36872775211518L158.96562500000002,137.346318229008L159.20078125,137.35606298870263L159.4359375,137.35393848780822L159.67109374999998,137.40552563580235L159.90625,137.40419486159485L160.14140625,137.39862587008463L160.3765625,137.33976931655738L160.61171875000002,137.3372746285722L160.84687499999998,137.33393515541897L161.08203125,137.32070279690151L161.3171875,137.3312849201423L161.55234375,137.28465058408096L161.7875,137.2660676325419L162.02265625,137.3014885865288L162.2578125,137.32935009875754L162.49296875,137.33436069003412L162.728125,137.41509179941627L162.96328125,137.4788954185621L163.1984375,137.45101110246955L163.43359375000003,137.4171545586938L163.66875,137.3818620572227L163.90390625,137.40611077485238L164.1390625,137.37692574447706L164.37421875,137.38850298982803L164.609375,137.36973208814877L164.84453125,137.36919387393283L165.07968749999998,137.39287619899088L165.31484375,137.35570997759214L165.55,137.35229818751935L165.78515625,137.34506052610794L166.02031250000002,137.35697860982265L166.490625,137.36003171224266L166.72578124999998,137.36782898071922L166.9609375,137.3421221733158L167.19609375000002,137.30242661957047L167.43125,137.31542775510093L167.66640625,137.3209950381605L167.90156249999998,137.36458446626344L168.13671875,137.39489315862818L168.37187500000002,137.35552219717698L168.60703125,137.40800645045135L168.84218750000002,137.42864736144676L169.07734374999998,137.44675304925101L169.3125,137.42456898332063L169.54765625,137.40822786544706L169.7828125,137.44821475474086L170.01796875000002,137.41082855321082L170.253125,137.3727100420414L170.48828125,137.392673461034L170.7234375,137.3773066170423L170.95859375,137.36913095453173L171.19375,137.38628469032287L171.42890625,137.3515475155054L171.66406249999997,137.3276273977538L171.89921875,137.33751727278215L172.134375,137.37814468950995L172.36953125,137.3905164619116L172.6046875,137.42032314596122L172.83984375,137.4351235110586L173.075,137.42453541578064L173.31015625,137.43942509136326L173.5453125,137.42853251884358L173.78046875,137.50750433209777L174.015625,137.51617464040322L174.25078125000002,137.54755765896013L174.48593749999998,137.56244699458748L174.72109375,137.56151637386228L174.95625,137.54599999524967L175.19140625,137.54733193266665L175.42656250000002,137.59895643545048L175.66171875,137.6476147667775L175.896875,137.66293315422516L176.13203124999998,137.69757449935665L176.3671875,137.6982177969706L176.60234375000002,137.7398054659739L176.8375,137.74610061253176L177.07265625,137.75435620474283L177.30781249999998,137.74862993207816L177.54296875,137.78191449189094L177.778125,137.73126045621157L178.01328125,137.70683789830272L178.24843750000002,137.71995142109168L178.48359374999998,137.70622677128614L178.71875,137.74130213580722L178.95390625,137.7480198118824L179.1890625,137.74818958121696L179.42421875,137.76034467291643L179.659375,137.74852720344177L179.89453125,137.739696682838L180.1296875,137.77393275665244L180.36484375,137.75750060583354L180.6,137.77623920203948L180.83515625,137.77882222581508L181.07031250000003,137.76195595805612L181.30546875,137.74489200355018L181.540625,137.7220243762088L181.77578125,137.73377266462L182.0109375,137.7172415227092L182.24609375,137.71508259719263L182.48125,137.7097454449595L182.71640624999998,137.7254065372548L182.9515625,137.70234392474205L183.18671875,137.70266614284202L183.421875,137.6834919459116L183.65703125000002,137.6719685321662L183.89218749999998,137.6475946559429L184.12734375,137.60888159829142L184.36249999999998,137.6268626607007L184.59765625,137.6006351967714L184.83281250000002,137.65135421943893L185.06796875,137.6667252558726L185.303125,137.67558362109276L185.53828124999998,137.6733964484437L185.7734375,137.66556279114025L186.00859375000002,137.6444050454946L186.24375,137.64091679683847L186.47890625000002,137.60485505542783L186.71406249999998,137.5786066067614L186.94921875,137.5891065150472L187.184375,137.62608041569888L187.41953125,137.63470388861526L187.65468750000002,137.63423328256258L187.88984375,137.62786871911305L188.125,137.63546396443098L188.36015625,137.6048452284896L188.5953125,137.56106265303285L188.83046875,137.5988604677418L189.065625,137.6531125101373L189.30078124999997,137.6345076367346L189.5359375,137.65702214119534L189.77109375,137.68235580171108L190.00625,137.67370939063952L190.24140625,137.63538812180835L190.4765625,137.61615503151683L190.71171875,137.6042503083348L190.946875,137.58704613580656L191.18203125,137.62771668955492L191.4171875,137.64371346162372L191.65234375,137.65142692742032L191.88750000000002,137.65299114479518L192.12265624999998,137.65570690218686L192.3578125,137.71042636063848L192.59296875,137.70151832944825L192.828125,137.70401754021265L193.06328125000002,137.74314908858676L193.2984375,137.75896193456487L193.53359375,137.72336601504915L193.76874999999998,137.72872115250945L194.00390625,137.7363878994059L194.23906250000002,137.76631236446633L194.47421875,137.7400013473029L194.709375,137.7398122152526L194.94453124999998,137.72784777180433L195.1796875,137.74877755251995L195.41484375,137.75144489177913L195.65,137.7649221202949L195.88515625000002,137.7781606674402L196.12031249999998,137.7539822775951L196.35546875,137.77770235902628L196.590625,137.78660225654232L196.82578125,137.8207761374725L197.0609375,137.792487300063L197.29609375,137.80294438349412L197.53125,137.84067214711544L197.76640625,137.83669458954486L198.0015625,137.83918637872796L198.23671875,137.85930875976743L198.471875,137.86715256414755L198.70703125000003,137.850265678173L198.9421875,137.84339894209577L199.17734375,137.85354213799124L199.4125,137.85425724957986L199.64765625,137.8339893815329L199.8828125,137.82482806004415L200.11796875,137.86649650947527L200.35312499999998,137.8470957189797L200.58828125,137.82467969757067L200.8234375,137.80564981576393L201.05859375,137.86930474886609L201.29375000000002,137.8975309301664L201.52890624999998,137.90735421096446L201.7640625,137.87713216977815L201.99921874999998,137.901020722188L202.234375,137.92820615631305L202.46953125000002,137.9381162075526L202.7046875,137.9366809794116L202.93984375,137.93959472826967L203.17499999999998,137.91347187849908L203.41015625,137.89760399746058L203.64531250000002,137.87990997163544L203.88046875,137.88680455583653L204.11562500000002,137.91578375555832L204.35078124999998,137.9127575073466L204.5859375,137.89467008796646L204.82109375,137.89621294190613L205.05625,137.87485202357365L205.29140625000002,137.89520019070903L205.5265625,137.90644854995395L205.76171875,137.92956693768093L205.996875,137.9724489570664L206.4671875,137.93985480231413L206.70234375,137.94931185010375L206.93749999999997,137.95482967300532L207.17265625,137.93939268779363L207.4078125,137.9848108413521L207.64296875,137.99355479907044L207.878125,138.01156273630417L208.11328125,138.0029771190201L208.3484375,137.98109707540513L208.58359375,138.01865231686483L208.81875,138.01952444633403L209.05390625,137.98802578447408L209.2890625,138.02205538889763L209.52421875000002,138.03173000491665L209.75937499999998,138.04702641671142L209.99453125,138.08101843448776L210.2296875,138.09863231406732L210.46484375,138.10630053084537L210.70000000000002,138.11466153572044L210.93515625,138.07555031166552L211.1703125,138.0835747294391L211.40546874999998,138.07689117709242L211.640625,138.08288316037257L211.87578125000002,138.06759233960915L212.1109375,138.05341239195903L212.34609375,138.1067866049144L212.58124999999998,138.1271126808082L212.81640625,138.1388969407552L213.0515625,138.120068729965L213.28671875,138.128191212692L213.52187500000002,138.1345357468395L213.75703124999998,138.15655019999946L214.22734375,138.12768956445973L214.4625,138.12256552547493L214.69765625,138.16558992114798L214.9328125,138.16764352463525L215.16796875,138.1768296393266L215.403125,138.14053642148068L215.63828125,138.1657471567085L215.8734375,138.13980830645073L216.10859375,138.17124661706208L216.34375000000003,138.1885236615993L216.57890625,138.1723474273323L216.8140625,138.2109394847441L217.04921875,138.20543040484307L217.284375,138.18138330366546L217.51953125,138.17745712191748L217.7546875,138.2043020336703L217.98984374999998,138.21852234977132L218.225,138.2288159142679L218.46015625,138.2231260836923L218.6953125,138.27568526335514L218.93046875000002,138.2836947207849L219.16562499999998,138.28711357233792L219.40078125,138.26440489290073L219.63593749999998,138.29287277792648L219.87109375,138.30575244589338L220.10625000000002,138.3185221040495L220.34140625,138.33756634328225L220.5765625,138.31285106936468L220.81171874999998,138.3393291370191L221.046875,138.34021152904168L221.28203125000002,138.31926921288118L221.5171875,138.32265074935006L221.75234375000002,138.34565107525728L221.98749999999998,138.34916358321234L222.22265625,138.37453695282784L222.4578125,138.3972574588857L222.69296875,138.39860930459332L222.92812500000002,138.41037712321778L223.16328125,138.44423825125418L223.3984375,138.45213178029056L223.63359375,138.5139565670209L223.86875,138.55777400100393L224.10390625,138.56245712341047L224.3390625,138.5787443234731L224.57421874999997,138.5893248672725L224.809375,138.58679537766275L225.04453125,138.60036321810665L225.51484375,138.61806733229892L225.75,138.58376345401857L225.98515625,138.58068800226505L226.2203125,138.58604921963357L226.45546875,138.5870513885085L226.92578125,138.59853214560903L227.16093750000002,138.5941271237059L227.39609374999998,138.63795721909096L227.63125,138.6655224828715L227.86640625,138.63553955218455L228.1015625,138.65977361707075L228.33671875000002,138.71364142691596L228.571875,138.71342100429402L228.80703125,138.72717191630295L229.04218749999998,138.7316015960142L229.27734375,138.731297121321L229.51250000000002,138.74587693937602L229.74765625,138.77479455752652L229.9828125,138.77838702738063L230.21796874999998,138.7664305600837L230.453125,138.78545453086423L230.68828125,138.77744918088362L230.9234375,138.77528640951513L231.15859375000002,138.76757229161592L231.39374999999998,138.78587657940395L231.62890625,138.8085093557146L231.8640625,138.76986707928847L232.09921875,138.73696615814896L232.334375,138.7377976296502L232.56953125,138.76305557624013L232.8046875,138.75344187277412L233.03984375,138.75491277202806L233.275,138.76488900055458L233.51015625,138.73249238771515L233.7453125,138.7161142685098L233.98046875000003,138.74065971026056L234.215625,138.74701285788447L234.45078125,138.77660026488724L234.6859375,138.77372897605247L234.92109375,138.78962523360747L235.15625,138.79722776982314L235.39140625,138.80052088130552L235.62656249999998,138.82243943407002L235.86171875,138.81919275665174L236.096875,138.79357799339513L236.33203125,138.8181983287759L236.56718750000002,138.79435041884193L236.80234374999998,138.7963941785651L237.0375,138.77928867896966L237.27265624999998,138.7989898283012L237.5078125,138.8039834705156L237.74296875000002,138.82446085160993L237.978125,138.86223561032116L238.21328125,138.8832805812499L238.68359375,138.86149208081864L238.91875000000002,138.87159279445208L239.15390625,138.89197592211062L239.38906250000002,138.9273824479007L239.62421874999998,138.91961059736877L239.859375,138.9229399510377L240.09453125,138.93583842742646L240.3296875,138.96951977977113L240.56484375000002,138.95836389917432L240.8,138.94132073867493L241.03515625,138.96091867986297L241.2703125,138.97805109645492L241.50546875,139.01553931596615L241.740625,139.01422563441372L242.21093749999997,138.98818650181693L242.44609375,138.99973483984678L242.68125,138.98572709799905L242.91640625,138.9869614357434L243.1515625,139.0049728660327L243.38671875,139.00396148777574L243.621875,138.9963229442624L243.85703125,138.98718420467836L244.0921875,138.97987489373816L244.32734375,138.98142823469843L244.5625,139.03701614218193L244.79765625000002,139.00944371600986L245.03281249999998,139.0070769634539L245.26796875,139.0149005058175L245.503125,139.02952092773603L245.73828125,139.0733726616117L246.20859375,139.06741006451304L246.44375,139.06887340242625L246.67890624999998,139.0720601283526L247.14921875000002,139.0930648330612L247.384375,139.09025281829918L247.61953125,139.0794598176717L247.85468749999998,139.15724796206436L248.08984375,139.16101702219885L248.325,139.17087501356272L248.56015625,139.13610074747405L248.79531250000002,139.14355849819884L249.03046874999998,139.14156161880456L249.265625,139.13142118617617L249.50078125,139.14689896278247L249.7359375,139.16786792936307L249.97109375,139.16413090180524L250.20625,139.18717589937577L250.44140625,139.20872450404647L250.6765625,139.20115449315006L250.91171875,139.18290218272796L251.146875,139.1894644918337L251.38203125,139.2180343560541L251.61718750000003,139.22680849236806L251.85234375,139.2539607126421L252.0875,139.2622630064119L252.32265625,139.28142619816313L252.5578125,139.2799412564427L252.79296875,139.25642775793656L253.028125,139.2712123167898L253.26328124999998,139.246878692255L253.4984375,139.2163546445637L253.73359375,139.2363793944789L253.96875,139.2638407914718L254.20390625000002,139.2732146782791L254.43906249999998,139.28626516376553L254.67421875,139.26340788679695L254.90937499999998,139.22429175573805L255.14453125,139.20803775523828L255.37968750000002,139.18555626115693L255.61484375,139.17753567960884L255.85,139.22357342893085L256.08515625,139.2580417713251L256.3203125,139.26085032213302L256.55546875,139.2562750726966L256.79062500000003,139.2570476412364L257.02578125,139.25153684304635L257.2609375,139.22836550485897L257.73125,139.2303987229557L257.96640625,139.24307018313078L258.2015625,139.23886376965038L258.43671875,139.26276231434113L258.671875,139.26738504439828L258.90703125,139.31099072143016L259.1421875,139.3264293854682L259.37734375,139.31183152285843L259.6125,139.33458892678925L259.84765625,139.33353977184655L260.31796875,139.34471361173004L260.553125,139.38325466441978L260.78828125,139.35965690728597L261.0234375,139.3510706196267L261.25859375,139.3408529920946L261.49375,139.34119725273496L261.72890625,139.3411756123274L261.9640625,139.3358501646383L262.19921875,139.32711445075444L262.434375,139.3299424354393L262.66953125,139.3376174799927L262.90468749999997,139.34909184152085L263.13984375,139.3536410490614L263.375,139.39543467425602L263.61015625,139.38688234595674L263.84531250000003,139.36219344927997L264.08046874999997,139.37897838150246" style="fill: none;" fill="none"></path></g></g></g></g><g opacity="0.2"><g><g><g><path stroke="rgb(0, 153, 136)" stroke-width="2px" d="M23.515625,34.78680484824712L23.75078125,72.8650318251716L23.985937500000002,62.4766144487593L24.221093749999998,87.292161418332L24.45625,93.22585099273259L24.69140625,72.90949606233173L24.9265625,86.98062780830597L25.161718750000002,113.55539800392256L25.396874999999998,113.17969461282095L25.63203125,136.1885161449512L25.867187499999996,126.34207655986151L26.10234375,126.5067269404729L26.337500000000002,136.05937833587328L26.572656249999998,124.94739575518503L26.8078125,124.25969226492776L27.042968750000004,140.34405056801108L27.278125,126.11531068881354L27.513281250000002,143.65323825428882L27.748437499999998,127.33805982602968L27.98359375,142.80743478900857L28.21875,115.89850336313248L28.45390625,152.73082298744055L28.689062500000002,136.1304817100366L28.924218749999998,167.34048130197658L29.159375,146.39342944655152L29.39453125,136.42477695312766L29.6296875,155.02505011908295L29.864843750000002,141.74046114914947L30.1,134.6549635546075L30.33515625,139.01783501108488L30.5703125,134.42815277311536L30.80546875,127.04451067580118L31.040625,120.89469755689305L31.27578125,138.28051706982984L31.5109375,145.35269219842223L31.74609375,124.40519341164166L31.98125,140.27335573401717L32.21640625,136.57551089094744L32.4515625,144.6066181692812L32.68671875,136.59138600859376L32.921875,135.87301882604757L33.3921875,147.37044094751278L33.62734375,139.51513994899062L33.8625,164.8305198798577L34.09765625,153.90103921915093L34.3328125,157.32953077596096L34.56796875,134.51205417513847L34.803125,134.22361757192346L35.03828125,123.4726265900665L35.2734375,145.89760003404484L35.508593749999996,140.61950225796966L35.743750000000006,119.80163239770467L35.97890625,146.23892303142281L36.2140625,127.34888179434671L36.44921875000001,120.41286644008426L36.684375,159.33626886043282L36.91953125,144.19027299930653L37.154687499999994,144.1409388764037L37.389843750000004,142.70219657984046L37.625,136.09992812077203L37.860156249999996,138.58213851021395L38.095312500000006,133.46892218622895L38.33046875,117.262804425425L38.565625,118.43006163835526L38.80078125,131.0353831284576L39.0359375,148.50886130912437L39.27109375,133.08667346007294L39.50625,146.65116034448147L39.741406250000004,141.73244825667805L39.9765625,145.12787630988493L40.211718749999996,149.47508271369668L40.446875,145.9490463965469L40.68203125,127.28924362195863L40.9171875,144.82237373789152L41.15234375,154.70817814218915L41.3875,125.59224888682365L41.62265625,163.426423093511L41.8578125,145.5805076700118L42.092968750000004,153.84853528812528L42.328125,135.16585897240373L42.56328125,136.9458163364066L42.7984375,126.75057906243535L43.03359375,121.19179318348569L43.26875,152.78766512249908L43.50390625,136.94491667879953L43.7390625,146.337754983041L43.97421875,148.73851955764823L44.209375,154.09608564029136L44.44453125,129.11802008748055L44.6796875,144.74485903564425L44.91484375,124.56634367505711L45.15,128.81650875012082L45.38515625,142.74386188222303L45.6203125,113.7336374157005L45.85546875,127.74372862444983L46.090624999999996,139.53236817485757L46.32578125,126.60568637980356L46.5609375,146.73125232673354L46.79609375,136.76548931333753L47.03125,122.90428347057767L47.26640625,135.02362614704504L47.5015625,118.10139831569461L47.73671875,140.84227399693594L47.971875000000004,127.29410843716727L48.20703125,123.69832909769482L48.442187499999996,138.02110854950217L48.67734375,135.87253784967794L48.9125,157.91870944408907L49.14765625,160.95121692245206L49.3828125,157.87033727392554L49.61796875,149.19592663645744L49.853125,125.17478747500314L50.088281249999994,131.4533646321959L50.323437500000004,135.2099508874946L50.55859375,118.51241290569305L50.793749999999996,123.0929565926393L51.028906250000006,137.9189517762926L51.2640625,157.05455779874077L51.49921875,123.34829419851303L51.73437499999999,128.69207205043898L51.96953125,116.42099436786441L52.2046875,141.05007462203503L52.439843749999994,128.01091389523611L52.675000000000004,123.89783867531354L52.91015625,130.73150747352176L53.145312499999996,143.83749566558333L53.380468750000006,151.34805033190383L53.615625,133.91180146071645L53.85078125,142.13909059762955L54.08593750000001,146.24682292342186L54.32109375,136.56043981512389L54.55625,117.46302098035812L54.791406249999994,129.15183040830823L55.026562500000004,139.83011572725243L55.26171875,117.74515418542757L55.496874999999996,129.9065692557229L55.732031250000006,147.54916785491838L55.9671875,134.24037641121282L56.20234375,135.7291895068354L56.4375,133.24758468402757L56.67265625,127.59437676933078L56.9078125,145.60839778019323L57.14296875,135.62289662659168L57.378125000000004,155.225558297631L57.61328125,115.874686340491L57.848437499999996,152.56235413253307L58.08359375,154.20092870998712L58.31875,111.7833825449149L58.55390625,131.60076360735627L58.7890625,170.82038662499852L59.02421875,131.43595966200033L59.259375,144.14639477100638L59.49453125,169.45061228341527L59.729687500000004,139.94339580337206L59.96484375,143.28158766859107L60.2,142.70605453186565L60.43515625,120.98377959595786L60.6703125,150.5716030796369L60.90546875,147.0217207653655L61.140625,139.7076275613573L61.37578125,144.83720070372024L61.6109375,150.69236255561313L61.84609375,138.08504508601294L62.08125,176.4939404196209L62.31640625,120.38197674685055L62.5515625,134.9716633144352L62.78671875,133.29287614259454L63.021875,120.77436654104127L63.25703125,144.95038154224554L63.4921875,146.1751183287965L63.727343749999996,139.69485561052957L63.9625,162.772115589016L64.19765625000001,132.74044146140417L64.4328125,129.56306810180348L64.66796875,137.92855826516947L64.903125,138.2392487178246L65.13828125,143.47302568041616L65.3734375,154.8869591503818L65.60859375,129.29118027289707L65.84375,139.33936916291714L66.07890625,155.58572484814147L66.31406249999999,126.82137240966159L66.54921875000001,123.06150189704366L66.784375,137.81711517108812L67.01953125,112.20429771476323L67.2546875,127.94945612549782L67.48984375,146.94034521364503L67.725,109.14042318860692L67.96015625,164.8669900579585L68.1953125,149.3489886737532L68.43046875,120.94513633184964L68.665625,138.39568628205194L68.90078125,121.14485452572507L69.1359375,145.98739919149213L69.37109375,132.88312194248041L69.60625,122.2887322306633L69.84140625,118.33190479212338L70.0765625,140.99458994136916L70.31171875,152.0621162528793L70.546875,129.0066682630115L70.78203125,111.41764347751936L71.01718749999999,140.36432546046046L71.25234375,128.23839833339053L71.48750000000001,153.78420469868513L71.72265625,139.53493821124235L71.9578125,138.14504399067826L72.19296875,118.19355744454595L72.428125,156.4688277275612L72.66328125,144.39022081593671L72.89843750000001,142.85654653277663L73.13359375,148.64739843954644L73.36875,150.54108317320546L73.60390625,152.9855405394402L73.8390625,136.07856958276696L74.07421875,147.10817771653333L74.30937499999999,148.8837534147832L74.54453124999999,141.4402855353223L74.77968750000001,133.36620041065746L75.01484375,145.9314313613706L75.25,124.84873185555142L75.48515625,134.5559302303526L75.72031249999999,127.04564068052503L75.95546875,119.373317145639L76.42578125,134.19774480991893L76.6609375,147.4778116784162L76.89609375,128.26645142502255L77.13125,143.05633861157628L77.36640625,136.43585534559355L77.6015625,126.58462193277148L77.83671875,141.61484373940363L78.071875,135.85774492886333L78.30703125000001,122.64699588219327L78.5421875,122.81441042820614L78.77734375,154.22054262210926L79.0125,120.40233711401623L79.24765624999999,124.7114131020175L79.48281250000001,146.63798492401838L79.71796875,151.25340700356497L79.953125,131.17579925391408L80.18828125,140.5337783611483L80.42343749999999,146.6759827815824L80.65859375,124.55843943688603L80.89375,136.5070557842652L81.12890625,154.26995669646809L81.3640625,128.93204159206815L81.59921875,129.28191423416138L81.834375,132.898200261924L82.06953125,144.58261353688107L82.3046875,125.7721891005834L82.53984374999999,155.0434906100337L82.775,171.87805221312576L83.01015625000001,150.92356007339225L83.2453125,154.62443528489933L83.48046875,136.43497162395053L83.715625,133.9675092448791L83.95078124999999,135.81786300573083L84.18593750000001,147.9945374859704L84.42109375000001,146.32832741157875L84.65625,146.90247846560345L84.89140625,134.40003014273114L85.1265625,125.1006881395976L85.36171875,165.47140205899873L85.596875,136.34409751329156L85.83203124999999,126.82227351599269L86.30234375,142.00153280463485L86.5375,135.16400025950537L86.77265625,145.72669044137L87.0078125,141.63223422235913L87.24296874999999,108.55568341082997L87.478125,155.0837490655896L87.71328125000001,128.75347476866511L87.9484375,145.9545450285077L88.18359375,140.8084231118361L88.41875,123.83805852797298L88.65390624999999,157.87588588686452L88.8890625,123.9538463453452L89.12421875000001,136.09160954753557L89.359375,125.48759306470555L89.59453125,160.57267837847272L89.8296875,140.35170997182527L90.06484375,141.91699686149755L90.3,142.43921840356455L90.53515625000001,150.55049625742765L90.7703125,150.3395435710748L91.00546875,137.60065986878342L91.47578125,130.70722396175069L91.7109375,162.73852112806506L91.94609374999999,155.50281057043725L92.18124999999999,143.3301054355171L92.41640625000001,126.00481940640344L92.6515625,136.15046540896097L92.88671875,141.9886956612269L93.121875,131.6293817013502L93.35703124999999,137.673012043039L93.5921875,150.181792376356L93.82734375000001,160.80561617596283L94.0625,151.0078537174397L94.29765625,137.8385577350855L94.5328125,134.46358566482863L94.76796875,138.61793503165245L95.003125,145.90682840595642L95.23828125,155.68891516142887L95.4734375,137.57652557558484L95.70859375,158.987386421197L95.94375000000001,146.2032619656788L96.17890625,121.93647209140988L96.4140625,124.44830164313316L96.64921875,118.36727683742842L97.11953125000001,149.97604386880994L97.3546875,154.31444257394307L97.58984375,138.34282958673106L97.825,132.69214969542293L98.06015624999999,148.2472941900293L98.2953125,119.0787712732951L98.53046875,136.230836270584L98.765625,129.29432110653983L99.00078125,136.56920604407787L99.2359375,155.9328622314044L99.47109375,127.78782778316074L99.70625,121.88353281882075L99.94140625,135.32757278945712L100.17656249999999,136.07259939114252L100.41171875,130.6818394197358L100.64687500000001,137.869395274255L100.88203125,137.02848052812948L101.1171875,129.99670596586333L101.35234375,124.77857594688734L101.58749999999999,122.70396840241222L101.82265625000001,128.95692487557727L102.05781250000001,129.95255465308827L102.29296875,131.69414690799184L102.528125,154.9282035078957L102.76328125,132.23349671396943L102.9984375,141.16476140916348L103.23359375,132.06094354391098L103.46874999999999,150.31548968205848L103.70390625,148.28847054806022L103.9390625,159.40246830383936L104.17421875,129.9160120387872L104.409375,134.7731113433838L104.64453125,145.6270667620831L104.87968749999999,139.40085445841154L105.11484375,149.4222238452898L105.35000000000001,134.0698282751772L105.58515625,121.7296261754301L105.8203125,124.7929125196404L106.05546875,151.20279365736576L106.29062499999999,149.1903345617983L106.52578125,146.285728406575L106.76093750000001,119.78642948799664L106.99609375,139.5640300379859L107.23125,117.04276642865605L107.46640625,140.0020575357808L107.7015625,106.33714513646231L107.93671875,129.44385550088353L108.17187500000001,89.6133128139708L108.40703125,120.90546447369786L108.6421875,148.9331078198221L108.87734375,161.45037514054113L109.1125,147.28350374433728L109.34765625,172.6259806089931L109.58281249999999,135.5443497084909L109.81796874999999,139.55115088158183L110.05312500000001,150.5914408196178L110.5234375,152.66378672483066L110.75859375,150.47120034901633L110.99374999999999,119.8469108177556L111.22890625,128.3677809768253L111.46406250000001,122.38989373048148L111.69921875,123.25783297419548L111.934375,157.39832904914186L112.16953125,147.14338822911182L112.4046875,114.1074632604917L112.63984375,125.43538105156688L112.875,147.3533764274584L113.11015625,138.78689971235065L113.3453125,116.25583113895522L113.58046875000001,125.34887774123087L113.815625,156.7361964430246L114.05078125,132.76232009132704L114.2859375,121.30362888177237L114.52109374999999,130.81285912129613L114.75625000000001,141.92538642221027L114.99140625,164.65121348285012L115.2265625,157.74467169410653L115.46171875,144.22540455642672L115.69687499999999,135.92199149231115L115.93203125,134.1574949108892L116.40234375,119.50980433159405L116.6375,156.14616157900957L116.87265625,144.27190207772784L117.1078125,149.94211837442384L117.34296875,126.3236024313503L117.578125,128.14973062939114L117.81328124999999,114.29991465475825L118.0484375,150.38291691905923L118.28359375000001,106.8251391251882L118.51875,135.18716535634465L118.75390625,147.62612407406172L118.9890625,130.8590241604381L119.22421874999999,119.1595173544354L119.45937500000001,154.80948931330607L119.69453125000001,135.90974397957325L119.9296875,148.45885135647325L120.16484375,116.679501781861L120.4,130.8893227742778L120.63515625,135.3942590041293L120.8703125,146.51283038159212L121.10546874999999,138.34996165500746L121.340625,117.02141803171901L121.8109375,149.68135276188454L122.04609375,155.46400766939365L122.28125,156.08301758507474L122.51640624999999,144.09327947845063L122.7515625,150.00333638033933L122.98671875000001,136.749554798007L123.221875,128.40303422676192L123.45703125,132.69203379750252L123.6921875,142.57860448625354L123.92734374999999,125.37078244818582L124.1625,132.2992093861103L124.39765625000001,116.32361403769917L124.6328125,144.45884542332755L125.103125,131.48645638591714L125.33828125,136.5050406091743L125.5734375,150.7384171295497L125.80859375000001,152.26128284508982L126.04375,135.39722019599543L126.27890625,148.41417270816035L126.5140625,131.08809640010196L126.74921875,138.12453295621606L126.984375,145.04693320227994L127.21953124999999,137.83235285017224L127.45468749999999,142.16655260986752L127.68984375000001,133.64704280263848L127.925,144.34407750765482L128.16015625,145.32736560536756L128.39531250000002,139.68260230289565L128.63046875,146.5881683760219L128.865625,145.51637990193234L129.10078125,129.72300433450275L129.3359375,122.57821626133389L129.57109375,132.62408139804998L129.80625,117.5336173011197L130.04140625,146.9484247474207L130.2765625,148.2185319479969L130.51171875,135.1036609046989L130.746875,109.27044616805182L130.98203125,112.04742408461041L131.2171875,144.84056101904974L131.45234374999998,134.90628095136748L131.6875,129.33476948075824L131.92265625000002,136.21188985804716L132.1578125,148.06784509370723L132.39296875,130.0582970182101L132.62812499999998,136.16461944248942L132.86328125,143.8556880172756L133.09843750000002,134.7189957069026L133.33359375,152.8870332830896L133.56875,158.82299644872546L133.80390625,135.17763709856405L134.0390625,128.25530204508038L134.27421875,130.84947996669345L134.509375,145.14641273352834L134.74453125,154.73289771988573L134.9796875,148.09858919017844L135.21484375,142.6120019207398L135.45,157.4154565886905L135.68515625,145.91344617721109L135.9203125,150.6246111666163L136.15546874999998,149.6041321506103L136.390625,160.71401951420637L136.62578125000002,140.86574477454027L136.8609375,151.8696246565216L137.09609375,144.8728697374463L137.33125,159.96173697834215L137.56640625,131.406346294615L137.8015625,130.06616648700503L138.03671875,145.86794392930136L138.271875,164.99091173625655L138.50703125,140.64399873216948L138.7421875,136.33582674794727L138.97734375,128.64259233077365L139.2125,149.88417412257857L139.44765625,129.73714098334312L139.91796875,127.20575365755292L140.153125,125.83246760898167L140.38828125,130.01344452301663L140.6234375,125.92826593253346L140.85859374999998,145.84839122576847L141.09375,127.71431662970119L141.5640625,138.6532201535172L141.79921875,122.62835370169745L142.03437499999998,145.12506940712532L142.26953125,146.3954388267464L142.5046875,138.739955259694L142.73984375,127.8404715160529L142.97500000000002,139.50144805841975L143.21015624999998,149.90406908715764L143.4453125,130.80702366100417L143.68046875,122.15996094875867L143.915625,130.87152664860088L144.15078125,125.46119731333522L144.3859375,157.38829935176506L144.62109375,134.3851401574082L144.85625,133.1294151643912L145.09140625,140.1939946330256L145.3265625,164.8901073469056L145.56171875,137.92760210732618L145.79687500000003,158.14092414867548L146.03203125,132.65898695422544L146.2671875,112.72832146949239L146.50234375,142.53343472050295L146.7375,143.70832163840532L146.97265625,144.4019026019507L147.678125,148.14933219717608L147.91328125,151.05920627506242L148.1484375,146.18230255113707L148.38359375000002,156.4612885678394L148.61874999999998,133.2345056037108L148.85390625,115.57672437694339L149.08906249999998,108.9267682698038L149.32421875,138.58301933440896L149.55937500000002,117.87505547205609L149.79453125,136.4303472969267L150.0296875,140.56406248774795L150.26484374999998,122.27084048920209L150.5,147.9600861047705L150.73515625000002,154.57314493186357L150.9703125,162.93776776227685L151.20546875000002,134.0880285948515L151.44062499999998,137.5903377102481L151.67578125,136.08990729682975L151.9109375,120.94934342636003L152.14609375,152.99509143353336L152.38125000000002,134.2066544625494L152.61640625,129.75308274229366L152.8515625,139.65559953616724L153.08671875,137.2025678969092L153.321875,133.62406893736787L153.55703125,145.2028883414136L153.7921875,138.208964591225L154.02734374999997,130.89819476008415L154.2625,131.89582522544595L154.49765625,147.28685826477079L154.7328125,125.42239179213843L154.96796875,145.29308951977225L155.203125,131.23964452081256L155.43828125,125.98902831474942L155.6734375,146.6744297494491L155.90859375,124.25600381361113L156.14375,134.4104218400187L156.37890625,124.36772361397743L156.61406250000002,136.12643687261476L156.84921874999998,133.55475763479868L157.084375,138.9524743788772L157.31953125,134.7317676577303L157.5546875,110.61840852101645L157.78984375000002,172.30578652686543L158.025,137.0719465944502L158.26015625,135.388327928053L158.49531249999998,161.5491400886741L158.73046875,137.10357948309846L158.96562500000002,127.70503030882941L159.20078125,141.5541103316678L159.4359375,136.43749530116716L159.67109374999998,159.68788902585706L159.90625,136.8286305003696L160.14140625,134.98686332669524L160.3765625,111.8174594309595L160.61171875000002,136.25407814979553L160.84687499999998,135.88204582532248L161.08203125,131.56025728417768L161.3171875,141.94396775629787L161.55234375,116.9307684732808L161.7875,129.1449547641807L162.02265625,152.80104336432285L162.2578125,149.53667485258646L162.49296875,139.5325260857741L162.728125,172.87736899322934L162.96328125,165.54124721636376L163.1984375,125.17123230629498L163.43359375000003,122.48839537302655L163.66875,121.8002340859837L163.90390625,148.1254304241803L164.1390625,124.45921922723454L164.37421875,142.51919666098223L164.609375,129.0405886868636L164.84453125,137.1300751964251L165.07968749999998,147.92763468705945L165.31484375,120.80222840110463L165.55,135.83083053429922L165.78515625,134.11346529093055L166.02031250000002,142.68495386673345L166.490625,138.7266052679883L166.72578124999998,140.86219829817614L166.9609375,125.8073786066638L167.19609375000002,119.46903434064654L167.43125,143.16338917447462L167.66640625,139.828238180942L167.90156249999998,157.01913341828106L168.13671875,151.07774740705887L168.37187500000002,119.55995046430165L168.60703125,161.15946085709663L168.84218750000002,146.78085518793927L169.07734374999998,145.66015851580434L169.3125,127.34896292289096L169.54765625,129.97748139831754L169.7828125,155.65309420409096L170.01796875000002,120.36963941322432L170.253125,119.9770178231928L170.48828125,146.51397487355604L170.7234375,130.34785348508092L170.95859375,133.6248048891624L171.19375,145.25170889165668L171.42890625,121.4048946897189L171.66406249999997,126.33380144834518L171.89921875,141.88829619023534L172.134375,156.09454938288158L172.36953125,143.09665515191026L172.6046875,151.183863180793L172.83984375,144.2772942284743L173.075,132.52400354378753L173.31015625,144.33885847942696L173.5453125,132.37540357642703L173.78046875,174.1852538453208L174.015625,141.54765626622572L174.25078125000002,152.1566541865468L174.48593749999998,144.50151903761758L174.72109375,137.12731103102365L174.95625,130.29816804660692L175.19140625,138.17019963430033L175.42656250000002,161.7680890071723L175.66171875,160.45389894603028L175.896875,144.85082377990088L176.13203124999998,153.9707835091071L176.3671875,138.00075542595653L176.60234375000002,157.3201352575173L176.8375,140.71331003473864L177.07265625,141.64997529652385L177.30781249999998,135.0435185763571L177.54296875,153.52318519726396L177.778125,113.74879396624036L178.01328125,126.1309916774432L178.24843750000002,143.94240646312633L178.48359374999998,131.186589350303L178.71875,154.42157444647617L178.95390625,140.94616199533144L179.1890625,137.82910191350513L179.42421875,143.5598303253452L179.659375,132.10396195451418L179.89453125,133.51723133689828L180.1296875,154.16233171450182L180.36484375,129.88307674725849L180.6,146.76567111164331L180.83515625,139.01931270956993L181.07031250000003,129.65322509407997L181.30546875,129.5322769218021L181.540625,126.70435317688518L181.77578125,143.40019904904895L182.0109375,129.73541120688122L182.24609375,136.67156129247613L182.48125,135.1272693110837L182.71640624999998,145.31137241671482L182.9515625,126.51933953166008L183.18671875,137.8590745644437L183.421875,128.3662656115161L183.65703125000002,132.0665385160181L183.89218749999998,125.77871415350171L184.12734375,118.73770107825598L184.36249999999998,146.401162010928L184.59765625,124.78889955414667L184.83281250000002,162.45275379882918L185.06796875,145.19093999018273L185.303125,142.01631993055344L185.53828124999998,136.60053470068507L185.7734375,133.81897881627083L186.00859375000002,127.24450702468556L186.24375,135.92452965676785L186.47890625000002,119.84245164526834L186.71406249999998,124.63649958372116L186.94921875,142.7715223696497L187.184375,155.89389228003307L187.41953125,141.8996846096383L187.65468750000002,137.40124445822505L187.88984375,134.47367747624716L188.125,141.40338798364004L188.36015625,122.39980300267538L188.5953125,115.796956502729L188.83046875,156.40694195042468L189.065625,164.67597145173283L189.30078124999997,128.35812957750426L189.5359375,148.8940060345663L189.77109375,150.33904412347408L190.00625,133.34964729017682L190.24140625,118.45183885759778L190.4765625,127.9785233239333L190.71171875,131.63290934430228L190.946875,128.9489742782381L191.18203125,158.06827281291285L191.4171875,145.69144950558743L191.65234375,141.53578107555708L191.88750000000002,138.4414761016766L192.12265624999998,139.02600001957683L192.3578125,165.34734709809223L192.59296875,133.1979774766498L192.828125,138.9687507930729L193.06328125000002,157.56507863083647L193.2984375,145.77668300933308L193.53359375,119.65735397405095L193.76874999999998,140.44924821290704L194.00390625,141.6350273622407L194.23906250000002,152.9979655208687L194.47421875,124.33471298880048L194.709375,137.64335811138153L194.94453124999998,131.62033586866326L195.1796875,148.44306678407722L195.41484375,139.1156514071756L195.65,144.66440052621894L195.88515625000002,144.5618975079722L196.12031249999998,125.35265311598778L196.35546875,149.95549082135162L196.590625,142.3600934445858L196.82578125,155.39867396873888L197.0609375,123.22794869542122L197.29609375,143.19184790882798L197.53125,157.30136558930906L197.76640625,135.7830733474758L198.0015625,139.12690509524612L198.23671875,148.267952269978L198.471875,141.92827228042813L198.70703125000003,129.0989751617114L198.9421875,134.2815491474337L199.17734375,143.11979851788945L199.4125,138.22587989270687L199.64765625,127.2916542987029L199.8828125,133.05517820020518L200.11796875,159.58023362068667L200.35312499999998,127.72792884045177L200.58828125,126.1221109992928L200.8234375,127.8617822461658L201.05859375,171.161859565311L201.29375000000002,152.67371338171264L201.52890624999998,143.05443498823377L201.7640625,122.02740559975308L201.99921874999998,150.44053231055537L202.234375,152.21119574788543L202.46953125000002,143.14946403933897L202.7046875,137.1812658591403L202.93984375,139.47458871536784L203.17499999999998,124.13934096693993L203.41015625,129.52325716614723L203.64531250000002,128.53346864382428L203.88046875,141.53194775183997L204.11562500000002,153.25061701134675L204.35078124999998,136.3099452935987L204.5859375,128.3064188228713L204.82109375,138.71481265458794L205.05625,126.53127701746092L205.29140625000002,148.7104824019803L205.5265625,143.89033787366418L205.76171875,150.23885725273027L205.996875,160.8248103203045L206.4671875,120.55483270022603L206.70234375,142.99790143138833L206.93749999999997,140.90305376383992L207.17265625,129.6840945051776L207.4078125,162.2943423481451L207.64296875,142.67771024670867L207.878125,147.66679337869087L208.11328125,133.39569353395038L208.3484375,126.22953388426038L208.58359375,158.20656221153007L208.81875,138.48874217106237L209.05390625,121.02678931421704L209.2890625,156.36181220567474L209.52421875000002,143.25017353726759L209.75937499999998,146.3048711212145L209.99453125,156.44738715555934L210.2296875,147.62374019871154L210.46484375,142.25657776825958L210.70000000000002,142.64372463027635L210.93515625,116.87155043085417L211.1703125,142.43764798674317L211.40546874999998,134.44732518659697L211.640625,141.33961805038982L211.87578125000002,129.74983180562657L212.1109375,130.33348214295177L212.34609375,167.18935113814143L212.58124999999998,149.21162428541317L212.81640625,144.57060723669L213.0515625,127.83531985349126L213.28671875,142.56870535512766L213.52187500000002,141.6059253944291L213.75703124999998,150.21162848505708L214.22734375,122.3106253478262L214.4625,135.3120265321599L214.69765625,161.78388372063637L214.9328125,139.29589585297637L215.16796875,143.2278226233191L215.403125,118.1683786213398L215.63828125,152.05052682302065L215.8734375,123.84239311019581L216.10859375,155.51402576828775L216.34375000000003,147.72704363697105L216.57890625,129.2343468301826L216.8140625,159.55178683830633L217.04921875,135.15653208725982L217.284375,124.86224555306966L217.51953125,136.00108747680983L217.7546875,153.09696950846248L217.98984374999998,146.11379963656267L218.225,143.94848530905114L218.46015625,135.05902137193414L218.6953125,167.52703059464693L218.93046875000002,142.74483107858234L219.16562499999998,140.19286897447375L219.40078125,125.59597790241241L219.63593749999998,154.1867296754693L219.87109375,145.50225411852202L220.10625000000002,145.45917775895862L220.34140625,148.99527618868484L220.5765625,124.4706061979135L220.81171874999998,153.18048120372825L221.046875,138.83518568343587L221.28203125000002,126.56258973810407L221.5171875,140.22247075206704L221.75234375000002,151.27778468239637L221.98749999999998,140.32563583718405L222.22265625,152.66308717222677L222.4578125,151.20179910833636L222.69296875,139.16105441749096L222.92812500000002,145.05258177717528L223.16328125,157.57146225207381L223.3984375,142.91439697974258L223.63359375,173.49073845479222L223.86875,163.3660525911384L224.10390625,141.2159448282586L224.3390625,147.81422060396937L224.57421874999997,144.59347534510823L224.809375,137.1502921399143L225.04453125,146.31142152680292L225.51484375,148.68753316501775L225.75,119.05818780263266L225.98515625,136.8288362191783L226.2203125,141.64223041799335L226.45546875,139.15877122845916L226.92578125,145.15302326116296L227.16093750000002,136.07736569311885L227.39609374999998,163.6985506862402L227.63125,154.43820199515255L227.86640625,121.46668856342635L228.1015625,152.54703713580966L228.33671875000002,169.6053852637609L228.571875,138.5869207481543L228.80703125,146.62464797082873L229.04218749999998,141.27755326529345L229.27734375,138.5561715811491L229.51250000000002,147.1379700013333L229.74765625,155.43191979652167L229.9828125,140.8492409106758L230.21796874999998,131.8691571139627L230.453125,149.7677575589882L230.68828125,134.15268369846873L230.9234375,137.52492202652826L231.15859375000002,134.30455778208045L231.39374999999998,149.38354581180545L231.62890625,151.921758438564L231.8640625,116.36462741427952L232.09921875,119.64683913522298L232.334375,139.2205911791987L232.56953125,153.43963746498855L232.8046875,133.16320954925484L233.03984375,139.61083396441407L233.275,144.57425077756247L233.51015625,119.8537835644351L233.7453125,129.16515866915387L233.98046875000003,153.0646242097848L234.215625,142.45715360674592L234.45078125,156.06747128250493L234.6859375,137.09455827871957L234.92109375,148.09256756885185L235.15625,143.2495940476656L235.39140625,140.73046727312936L235.62656249999998,151.6769809441434L235.86171875,136.91377925376096L236.096875,123.75020210941634L236.33203125,153.2876898586336L236.56718750000002,124.76900857355861L236.80234374999998,139.99920210076704L237.0375,128.70521777205997L237.27265624999998,150.40981501547827L237.5078125,141.74902021057076L237.74296875000002,150.90952519741325L237.978125,161.1710763639874L238.21328125,151.3205166078276L238.68359375,125.97595213188066L238.91875000000002,144.84918889486127L239.15390625,150.9629983247982L239.38906250000002,159.9097632803023L239.62421874999998,134.31074962847762L239.859375,140.89866413010492L240.09453125,146.59535766889653L240.3296875,158.9842082829111L240.56484375000002,132.32461710770926L240.8,128.79986291130382L241.03515625,150.63050421368746L241.2703125,149.18645487891303L241.50546875,161.36812492170267L241.740625,138.23040570649835L242.21093749999997,123.44122694598303L242.44609375,145.89944281097917L242.68125,130.61099102099735L242.91640625,139.72542368703418L243.1515625,149.78781622937984L243.38671875,138.39807812538413L243.621875,134.41726850966612L243.85703125,133.50516056848898L244.0921875,134.59234680566522L244.32734375,139.91446478499307L244.5625,172.44883353511491L244.79765625000002,122.42571488022804L245.03281249999998,137.58262760109372L245.26796875,143.7266704522901L245.503125,147.84054826531144L245.73828125,165.51809081186852L246.20859375,135.46931449737815L246.44375,139.9524952388472L246.67890624999998,140.99759169750743L247.14921875000002,151.79313601305088L247.384375,137.38891581694284L247.61953125,132.545180991292L247.85468749999998,186.2822209795316L248.08984375,141.4458399431573L248.325,145.15071037328906L248.56015625,118.02846375438901L248.79531250000002,143.67326324184737L249.03046874999998,137.92791068553925L249.265625,132.96436493595442L249.50078125,148.56599029153585L249.7359375,151.93684219072261L249.97109375,136.8870242188374L250.20625,153.23831010092465L250.44140625,152.35585735903845L250.6765625,134.57963135507373L250.91171875,128.03269980682268L251.146875,143.2008778055509L251.38203125,156.69331982628339L251.61718750000003,144.59706962936454L251.85234375,155.88314136710122L252.0875,144.35015200740762L252.32265625,151.03259212854834L252.5578125,138.36877913110786L252.79296875,124.81945314341122L253.028125,148.3544266058339L253.26328124999998,124.28762945863934L253.4984375,120.43977503975233L253.73359375,151.5621018389033L253.96875,156.1775318411593L254.20390625000002,145.0502565751473L254.43906249999998,147.33415620608463L254.67421875,125.15918761491776L254.90937499999998,115.07250757680998L255.14453125,129.16599892907672L255.37968750000002,125.28748081790076L255.61484375,134.21615229712592L255.85,167.71918717357846L256.08515625,160.60573246536984L256.3203125,141.00136996971236L256.55546875,136.41915880143642L256.79062500000003,139.7364108098878L257.02578125,135.83011196719275L257.2609375,124.83348548412323L257.73125,140.49427600370512L257.96640625,147.12461204164558L258.2015625,136.62092404233084L258.43671875,154.14546738999584L258.671875,142.14790753192372L258.90703125,166.49901604072915L259.1421875,148.95819320032993L259.37734375,130.19914486342006L259.6125,153.5493813869026L259.84765625,138.67782093584538L260.31796875,146.3325106021431L260.553125,163.50011678619518L260.78828125,124.58467582861584L261.0234375,133.9718394809299L261.25859375,132.93579609857665L261.49375,139.5571297655503L261.72890625,139.32759393420486L261.9640625,135.9915823986133L262.19921875,133.83803098566003L262.434375,141.10795404348107L262.66953125,144.16591632697316L262.90468749999997,146.57174998687373L263.13984375,142.21886893113455L263.375,165.73374714288445L263.61015625,133.99405711226993L263.84531250000003,123.78506710131964L264.08046874999997,149.97538288848267" style="fill: none;" fill="none"></path></g></g></g></g></g></g><g transform="translate(47, 175)" clip-path="url(#clip_1)"><clipPath id="clip_1"><rect width="282" height="25"></rect></clipPath><g><g><line x1="0" y1="0" x2="0" y2="5" style="visibility: inherit;" fill="rgb(0, 0, 0)" stroke="rgb(204, 204, 204)" stroke-width="1px"></line><line x1="23.515625" y1="0" x2="23.515625" y2="5" style="visibility: inherit;" fill="rgb(0, 0, 0)" stroke="rgb(204, 204, 204)" stroke-width="1px"></line><line x1="47.03125" y1="0" x2="47.03125" y2="5" style="visibility: inherit;" fill="rgb(0, 0, 0)" stroke="rgb(204, 204, 204)" stroke-width="1px"></line><line x1="70.546875" y1="0" x2="70.546875" y2="5" style="visibility: inherit;" fill="rgb(0, 0, 0)" stroke="rgb(204, 204, 204)" stroke-width="1px"></line><line x1="94.0625" y1="0" x2="94.0625" y2="5" style="visibility: inherit;" fill="rgb(0, 0, 0)" stroke="rgb(204, 204, 204)" stroke-width="1px"></line><line x1="117.578125" y1="0" x2="117.578125" y2="5" style="visibility: inherit;" fill="rgb(0, 0, 0)" stroke="rgb(204, 204, 204)" stroke-width="1px"></line><line x1="141.09375" y1="0" x2="141.09375" y2="5" style="visibility: inherit;" fill="rgb(0, 0, 0)" stroke="rgb(204, 204, 204)" stroke-width="1px"></line><line x1="164.609375" y1="0" x2="164.609375" y2="5" style="visibility: inherit;" fill="rgb(0, 0, 0)" stroke="rgb(204, 204, 204)" stroke-width="1px"></line><line x1="188.125" y1="0" x2="188.125" y2="5" style="visibility: inherit;" fill="rgb(0, 0, 0)" stroke="rgb(204, 204, 204)" stroke-width="1px"></line><line x1="211.640625" y1="0" x2="211.640625" y2="5" style="visibility: inherit;" fill="rgb(0, 0, 0)" stroke="rgb(204, 204, 204)" stroke-width="1px"></line><line x1="235.15625" y1="0" x2="235.15625" y2="5" style="visibility: inherit;" fill="rgb(0, 0, 0)" stroke="rgb(204, 204, 204)" stroke-width="1px"></line><line x1="258.671875" y1="0" x2="258.671875" y2="5" style="visibility: inherit;" fill="rgb(0, 0, 0)" stroke="rgb(204, 204, 204)" stroke-width="1px"></line><line x1="282.1875" y1="0" x2="282.1875" y2="5" style="visibility: inherit;" fill="rgb(0, 0, 0)" stroke="rgb(204, 204, 204)" stroke-width="1px"></line></g><g transform="translate(0, 8)"><text x="0" y="0" dx="0em" dy="0.95em" style="text-anchor: middle; visibility: hidden; font-family: Roboto, sans-serif; font-size: 12px; font-weight: 200;" fill="rgb(50, 49, 63)" stroke="none" stroke-width="1px">-100</text><text x="23.515625" y="0" dx="0em" dy="0.95em" style="text-anchor: middle; visibility: inherit; font-family: Roboto, sans-serif; font-size: 12px; font-weight: 200;" fill="rgb(50, 49, 63)" stroke="none" stroke-width="1px">0</text><text x="47.03125" y="0" dx="0em" dy="0.95em" style="text-anchor: middle; visibility: hidden; font-family: Roboto, sans-serif; font-size: 12px; font-weight: 200;" fill="rgb(50, 49, 63)" stroke="none" stroke-width="1px">100</text><text x="70.546875" y="0" dx="0em" dy="0.95em" style="text-anchor: middle; visibility: inherit; font-family: Roboto, sans-serif; font-size: 12px; font-weight: 200;" fill="rgb(50, 49, 63)" stroke="none" stroke-width="1px">200</text><text x="94.0625" y="0" dx="0em" dy="0.95em" style="text-anchor: middle; visibility: hidden; font-family: Roboto, sans-serif; font-size: 12px; font-weight: 200;" fill="rgb(50, 49, 63)" stroke="none" stroke-width="1px">300</text><text x="117.578125" y="0" dx="0em" dy="0.95em" style="text-anchor: middle; visibility: inherit; font-family: Roboto, sans-serif; font-size: 12px; font-weight: 200;" fill="rgb(50, 49, 63)" stroke="none" stroke-width="1px">400</text><text x="141.09375" y="0" dx="0em" dy="0.95em" style="text-anchor: middle; visibility: hidden; font-family: Roboto, sans-serif; font-size: 12px; font-weight: 200;" fill="rgb(50, 49, 63)" stroke="none" stroke-width="1px">500</text><text x="164.609375" y="0" dx="0em" dy="0.95em" style="text-anchor: middle; visibility: inherit; font-family: Roboto, sans-serif; font-size: 12px; font-weight: 200;" fill="rgb(50, 49, 63)" stroke="none" stroke-width="1px">600</text><text x="188.125" y="0" dx="0em" dy="0.95em" style="text-anchor: middle; visibility: hidden; font-family: Roboto, sans-serif; font-size: 12px; font-weight: 200;" fill="rgb(50, 49, 63)" stroke="none" stroke-width="1px">700</text><text x="211.640625" y="0" dx="0em" dy="0.95em" style="text-anchor: middle; visibility: inherit; font-family: Roboto, sans-serif; font-size: 12px; font-weight: 200;" fill="rgb(50, 49, 63)" stroke="none" stroke-width="1px">800</text><text x="235.15625" y="0" dx="0em" dy="0.95em" style="text-anchor: middle; visibility: hidden; font-family: Roboto, sans-serif; font-size: 12px; font-weight: 200;" fill="rgb(50, 49, 63)" stroke="none" stroke-width="1px">900</text><text x="258.671875" y="0" dx="0em" dy="0.95em" style="text-anchor: middle; visibility: inherit; font-family: Roboto, sans-serif; font-size: 12px; font-weight: 200;" fill="rgb(50, 49, 63)" stroke="none" stroke-width="1px">1k</text><text x="282.1875" y="0" dx="0em" dy="0.95em" style="text-anchor: middle; visibility: hidden; font-family: Roboto, sans-serif; font-size: 12px; font-weight: 200;" fill="rgb(50, 49, 63)" stroke="none" stroke-width="1px">1.1k</text></g><line x1="0" y1="0" x2="282.1875" y2="0" fill="rgb(0, 0, 0)" stroke="rgb(204, 204, 204)" stroke-width="1px"></line></g></g></g></g></svg>