<?xml version="1.0" encoding="utf-8" standalone="no"?>
<!DOCTYPE svg PUBLIC "-//W3C//DTD SVG 1.1//EN"
  "http://www.w3.org/Graphics/SVG/1.1/DTD/svg11.dtd">
<svg height="153.9pt" version="1.1" viewBox="0 0 293.4 153.9" width="293.4pt" xmlns="http://www.w3.org/2000/svg" xmlns:xlink="http://www.w3.org/1999/xlink">
 <metadata>
  <rdf:RDF xmlns:cc="http://creativecommons.org/ns#" xmlns:dc="http://purl.org/dc/elements/1.1/" xmlns:rdf="http://www.w3.org/1999/02/22-rdf-syntax-ns#">
   <cc:Work>
    <dc:type rdf:resource="http://purl.org/dc/dcmitype/StillImage"/>
    <dc:date>2022-06-24T23:30:27.959471</dc:date>
    <dc:format>image/svg+xml</dc:format>
    <dc:creator>
     <cc:Agent>
      <dc:title>Matplotlib v3.4.3, https://matplotlib.org/</dc:title>
     </cc:Agent>
    </dc:creator>
   </cc:Work>
  </rdf:RDF>
 </metadata>
 <defs>
  <style type="text/css">*{stroke-linecap:butt;stroke-linejoin:round;}</style>
 </defs>
 <g id="figure_1">
  <g id="patch_1">
   <path d="M 0 153.9 
L 293.4 153.9 
L 293.4 0 
L 0 0 
z
" style="fill:none;"/>
  </g>
  <g id="axes_1">
   <g id="line2d_1">
    <path clip-path="url(#p615c4d5a3c)" d="M 30.45 53.7 
L 42.075 53.7 
" style="fill:none;stroke:#648fff;stroke-linecap:square;stroke-width:4;"/>
   </g>
   <g id="line2d_2">
    <path clip-path="url(#p615c4d5a3c)" d="M 53.7 53.7 
L 42.075 53.7 
" style="fill:none;stroke:#648fff;stroke-linecap:square;stroke-width:4;"/>
   </g>
   <g id="line2d_3">
    <path clip-path="url(#p615c4d5a3c)" d="M 53.7 53.7 
L 53.7 65.325 
" style="fill:none;stroke:#000000;stroke-linecap:square;stroke-width:4;"/>
   </g>
   <g id="line2d_4">
    <path clip-path="url(#p615c4d5a3c)" d="M 53.7 53.7 
L 65.325 53.7 
" style="fill:none;stroke:#000000;stroke-linecap:square;stroke-width:4;"/>
   </g>
   <g id="line2d_5">
    <path clip-path="url(#p615c4d5a3c)" d="M 53.7 76.95 
L 53.7 65.325 
" style="fill:none;stroke:#000000;stroke-linecap:square;stroke-width:4;"/>
   </g>
   <g id="line2d_6">
    <path clip-path="url(#p615c4d5a3c)" d="M 53.7 76.95 
L 53.7 88.575 
" style="fill:none;stroke:#000000;stroke-linecap:square;stroke-width:4;"/>
   </g>
   <g id="line2d_7">
    <path clip-path="url(#p615c4d5a3c)" d="M 53.7 100.2 
L 53.7 88.575 
" style="fill:none;stroke:#000000;stroke-linecap:square;stroke-width:4;"/>
   </g>
   <g id="line2d_8">
    <path clip-path="url(#p615c4d5a3c)" d="M 53.7 100.2 
L 65.325 100.2 
" style="fill:none;stroke:#000000;stroke-linecap:square;stroke-width:4;"/>
   </g>
   <g id="line2d_9">
    <path clip-path="url(#p615c4d5a3c)" d="M 76.95 53.7 
L 65.325 53.7 
" style="fill:none;stroke:#000000;stroke-linecap:square;stroke-width:4;"/>
   </g>
   <g id="line2d_10">
    <path clip-path="url(#p615c4d5a3c)" d="M 76.95 53.7 
L 88.575 53.7 
" style="fill:none;stroke:#648fff;stroke-linecap:square;stroke-width:4;"/>
   </g>
   <g id="line2d_11">
    <path clip-path="url(#p615c4d5a3c)" d="M 76.95 100.2 
L 65.325 100.2 
" style="fill:none;stroke:#000000;stroke-linecap:square;stroke-width:4;"/>
   </g>
   <g id="line2d_12">
    <path clip-path="url(#p615c4d5a3c)" d="M 76.95 100.2 
L 88.575 100.2 
" style="fill:none;stroke:#000000;stroke-linecap:square;stroke-width:4;"/>
   </g>
   <g id="line2d_13">
    <path clip-path="url(#p615c4d5a3c)" d="M 100.2 30.45 
L 100.2 42.075 
" style="fill:none;stroke:#648fff;stroke-linecap:square;stroke-width:4;"/>
   </g>
   <g id="line2d_14">
    <path clip-path="url(#p615c4d5a3c)" d="M 100.2 53.7 
L 88.575 53.7 
" style="fill:none;stroke:#648fff;stroke-linecap:square;stroke-width:4;"/>
   </g>
   <g id="line2d_15">
    <path clip-path="url(#p615c4d5a3c)" d="M 100.2 53.7 
L 100.2 42.075 
" style="fill:none;stroke:#648fff;stroke-linecap:square;stroke-width:4;"/>
   </g>
   <g id="line2d_16">
    <path clip-path="url(#p615c4d5a3c)" d="M 100.2 53.7 
L 111.825 53.7 
" style="fill:none;stroke:#648fff;stroke-linecap:square;stroke-width:4;"/>
   </g>
   <g id="line2d_17">
    <path clip-path="url(#p615c4d5a3c)" d="M 100.2 100.2 
L 88.575 100.2 
" style="fill:none;stroke:#000000;stroke-linecap:square;stroke-width:4;"/>
   </g>
   <g id="line2d_18">
    <path clip-path="url(#p615c4d5a3c)" d="M 100.2 100.2 
L 100.2 111.825 
" style="fill:none;stroke:#648fff;stroke-linecap:square;stroke-width:4;"/>
   </g>
   <g id="line2d_19">
    <path clip-path="url(#p615c4d5a3c)" d="M 100.2 100.2 
L 111.825 100.2 
" style="fill:none;stroke:#000000;stroke-linecap:square;stroke-width:4;"/>
   </g>
   <g id="line2d_20">
    <path clip-path="url(#p615c4d5a3c)" d="M 100.2 123.45 
L 100.2 111.825 
" style="fill:none;stroke:#648fff;stroke-linecap:square;stroke-width:4;"/>
   </g>
   <g id="line2d_21">
    <path clip-path="url(#p615c4d5a3c)" d="M 123.45 53.7 
L 111.825 53.7 
" style="fill:none;stroke:#648fff;stroke-linecap:square;stroke-width:4;"/>
   </g>
   <g id="line2d_22">
    <path clip-path="url(#p615c4d5a3c)" d="M 123.45 53.7 
L 135.075 53.7 
" style="fill:none;stroke:#648fff;stroke-linecap:square;stroke-width:4;"/>
   </g>
   <g id="line2d_23">
    <path clip-path="url(#p615c4d5a3c)" d="M 123.45 100.2 
L 111.825 100.2 
" style="fill:none;stroke:#000000;stroke-linecap:square;stroke-width:4;"/>
   </g>
   <g id="line2d_24">
    <path clip-path="url(#p615c4d5a3c)" d="M 123.45 100.2 
L 135.075 100.2 
" style="fill:none;stroke:#000000;stroke-linecap:square;stroke-width:4;"/>
   </g>
   <g id="line2d_25">
    <path clip-path="url(#p615c4d5a3c)" d="M 146.7 53.7 
L 135.075 53.7 
" style="fill:none;stroke:#648fff;stroke-linecap:square;stroke-width:4;"/>
   </g>
   <g id="line2d_26">
    <path clip-path="url(#p615c4d5a3c)" d="M 146.7 53.7 
L 146.7 65.325 
" style="fill:none;stroke:#648fff;stroke-linecap:square;stroke-width:4;"/>
   </g>
   <g id="line2d_27">
    <path clip-path="url(#p615c4d5a3c)" d="M 146.7 53.7 
L 158.325 53.7 
" style="fill:none;stroke:#648fff;stroke-linecap:square;stroke-width:4;"/>
   </g>
   <g id="line2d_28">
    <path clip-path="url(#p615c4d5a3c)" d="M 146.7 76.95 
L 146.7 65.325 
" style="fill:none;stroke:#648fff;stroke-linecap:square;stroke-width:4;"/>
   </g>
   <g id="line2d_29">
    <path clip-path="url(#p615c4d5a3c)" d="M 146.7 76.95 
L 146.7 88.575 
" style="fill:none;stroke:#648fff;stroke-linecap:square;stroke-width:4;"/>
   </g>
   <g id="line2d_30">
    <path clip-path="url(#p615c4d5a3c)" d="M 146.7 100.2 
L 135.075 100.2 
" style="fill:none;stroke:#000000;stroke-linecap:square;stroke-width:4;"/>
   </g>
   <g id="line2d_31">
    <path clip-path="url(#p615c4d5a3c)" d="M 146.7 100.2 
L 146.7 88.575 
" style="fill:none;stroke:#648fff;stroke-linecap:square;stroke-width:4;"/>
   </g>
   <g id="line2d_32">
    <path clip-path="url(#p615c4d5a3c)" d="M 146.7 100.2 
L 158.325 100.2 
" style="fill:none;stroke:#000000;stroke-linecap:square;stroke-width:4;"/>
   </g>
   <g id="line2d_33">
    <path clip-path="url(#p615c4d5a3c)" d="M 169.95 53.7 
L 158.325 53.7 
" style="fill:none;stroke:#648fff;stroke-linecap:square;stroke-width:4;"/>
   </g>
   <g id="line2d_34">
    <path clip-path="url(#p615c4d5a3c)" d="M 169.95 53.7 
L 181.575 53.7 
" style="fill:none;stroke:#648fff;stroke-linecap:square;stroke-width:4;"/>
   </g>
   <g id="line2d_35">
    <path clip-path="url(#p615c4d5a3c)" d="M 169.95 100.2 
L 158.325 100.2 
" style="fill:none;stroke:#000000;stroke-linecap:square;stroke-width:4;"/>
   </g>
   <g id="line2d_36">
    <path clip-path="url(#p615c4d5a3c)" d="M 169.95 100.2 
L 181.575 100.2 
" style="fill:none;stroke:#648fff;stroke-linecap:square;stroke-width:4;"/>
   </g>
   <g id="line2d_37">
    <path clip-path="url(#p615c4d5a3c)" d="M 193.2 30.45 
L 193.2 42.075 
" style="fill:none;stroke:#648fff;stroke-linecap:square;stroke-width:4;"/>
   </g>
   <g id="line2d_38">
    <path clip-path="url(#p615c4d5a3c)" d="M 193.2 53.7 
L 181.575 53.7 
" style="fill:none;stroke:#648fff;stroke-linecap:square;stroke-width:4;"/>
   </g>
   <g id="line2d_39">
    <path clip-path="url(#p615c4d5a3c)" d="M 193.2 53.7 
L 193.2 42.075 
" style="fill:none;stroke:#648fff;stroke-linecap:square;stroke-width:4;"/>
   </g>
   <g id="line2d_40">
    <path clip-path="url(#p615c4d5a3c)" d="M 193.2 53.7 
L 204.825 53.7 
" style="fill:none;stroke:#648fff;stroke-linecap:square;stroke-width:4;"/>
   </g>
   <g id="line2d_41">
    <path clip-path="url(#p615c4d5a3c)" d="M 193.2 100.2 
L 181.575 100.2 
" style="fill:none;stroke:#648fff;stroke-linecap:square;stroke-width:4;"/>
   </g>
   <g id="line2d_42">
    <path clip-path="url(#p615c4d5a3c)" d="M 193.2 100.2 
L 193.2 111.825 
" style="fill:none;stroke:#648fff;stroke-linecap:square;stroke-width:4;"/>
   </g>
   <g id="line2d_43">
    <path clip-path="url(#p615c4d5a3c)" d="M 193.2 100.2 
L 204.825 100.2 
" style="fill:none;stroke:#648fff;stroke-linecap:square;stroke-width:4;"/>
   </g>
   <g id="line2d_44">
    <path clip-path="url(#p615c4d5a3c)" d="M 193.2 123.45 
L 193.2 111.825 
" style="fill:none;stroke:#648fff;stroke-linecap:square;stroke-width:4;"/>
   </g>
   <g id="line2d_45">
    <path clip-path="url(#p615c4d5a3c)" d="M 216.45 53.7 
L 204.825 53.7 
" style="fill:none;stroke:#648fff;stroke-linecap:square;stroke-width:4;"/>
   </g>
   <g id="line2d_46">
    <path clip-path="url(#p615c4d5a3c)" d="M 216.45 53.7 
L 228.075 53.7 
" style="fill:none;stroke:#648fff;stroke-linecap:square;stroke-width:4;"/>
   </g>
   <g id="line2d_47">
    <path clip-path="url(#p615c4d5a3c)" d="M 216.45 100.2 
L 204.825 100.2 
" style="fill:none;stroke:#648fff;stroke-linecap:square;stroke-width:4;"/>
   </g>
   <g id="line2d_48">
    <path clip-path="url(#p615c4d5a3c)" d="M 216.45 100.2 
L 228.075 100.2 
" style="fill:none;stroke:#648fff;stroke-linecap:square;stroke-width:4;"/>
   </g>
   <g id="line2d_49">
    <path clip-path="url(#p615c4d5a3c)" d="M 239.7 53.7 
L 228.075 53.7 
" style="fill:none;stroke:#648fff;stroke-linecap:square;stroke-width:4;"/>
   </g>
   <g id="line2d_50">
    <path clip-path="url(#p615c4d5a3c)" d="M 239.7 53.7 
L 239.7 65.325 
" style="fill:none;stroke:#648fff;stroke-linecap:square;stroke-width:4;"/>
   </g>
   <g id="line2d_51">
    <path clip-path="url(#p615c4d5a3c)" d="M 239.7 76.95 
L 239.7 65.325 
" style="fill:none;stroke:#648fff;stroke-linecap:square;stroke-width:4;"/>
   </g>
   <g id="line2d_52">
    <path clip-path="url(#p615c4d5a3c)" d="M 239.7 76.95 
L 239.7 88.575 
" style="fill:none;stroke:#648fff;stroke-linecap:square;stroke-width:4;"/>
   </g>
   <g id="line2d_53">
    <path clip-path="url(#p615c4d5a3c)" d="M 239.7 100.2 
L 228.075 100.2 
" style="fill:none;stroke:#648fff;stroke-linecap:square;stroke-width:4;"/>
   </g>
   <g id="line2d_54">
    <path clip-path="url(#p615c4d5a3c)" d="M 239.7 100.2 
L 239.7 88.575 
" style="fill:none;stroke:#648fff;stroke-linecap:square;stroke-width:4;"/>
   </g>
   <g id="line2d_55">
    <path clip-path="url(#p615c4d5a3c)" d="M 239.7 100.2 
L 251.325 100.2 
" style="fill:none;stroke:#648fff;stroke-linecap:square;stroke-width:4;"/>
   </g>
   <g id="line2d_56">
    <path clip-path="url(#p615c4d5a3c)" d="M 262.95 100.2 
L 251.325 100.2 
" style="fill:none;stroke:#648fff;stroke-linecap:square;stroke-width:4;"/>
   </g>
   <g id="patch_2">
    <path clip-path="url(#p615c4d5a3c)" d="M 30.45 60.48125 
C 32.248409 60.48125 33.973401 59.766735 35.245068 58.495068 
C 36.516735 57.223401 37.23125 55.498409 37.23125 53.7 
C 37.23125 51.901591 36.516735 50.176599 35.245068 48.904932 
C 33.973401 47.633265 32.248409 46.91875 30.45 46.91875 
C 28.651591 46.91875 26.926599 47.633265 25.654932 48.904932 
C 24.383265 50.176599 23.66875 51.901591 23.66875 53.7 
C 23.66875 55.498409 24.383265 57.223401 25.654932 58.495068 
C 26.926599 59.766735 28.651591 60.48125 30.45 60.48125 
z
" style="fill:#648fff;stroke:#648fff;stroke-linejoin:miter;"/>
   </g>
   <g id="patch_3">
    <path clip-path="url(#p615c4d5a3c)" d="M 53.7 60.48125 
C 55.498409 60.48125 57.223401 59.766735 58.495068 58.495068 
C 59.766735 57.223401 60.48125 55.498409 60.48125 53.7 
C 60.48125 51.901591 59.766735 50.176599 58.495068 48.904932 
C 57.223401 47.633265 55.498409 46.91875 53.7 46.91875 
C 51.901591 46.91875 50.176599 47.633265 48.904932 48.904932 
C 47.633265 50.176599 46.91875 51.901591 46.91875 53.7 
C 46.91875 55.498409 47.633265 57.223401 48.904932 58.495068 
C 50.176599 59.766735 51.901591 60.48125 53.7 60.48125 
z
" style="stroke:#000000;stroke-linejoin:miter;"/>
   </g>
   <g id="patch_4">
    <path clip-path="url(#p615c4d5a3c)" d="M 53.7 83.73125 
C 55.498409 83.73125 57.223401 83.016735 58.495068 81.745068 
C 59.766735 80.473401 60.48125 78.748409 60.48125 76.95 
C 60.48125 75.151591 59.766735 73.426599 58.495068 72.154932 
C 57.223401 70.883265 55.498409 70.16875 53.7 70.16875 
C 51.901591 70.16875 50.176599 70.883265 48.904932 72.154932 
C 47.633265 73.426599 46.91875 75.151591 46.91875 76.95 
C 46.91875 78.748409 47.633265 80.473401 48.904932 81.745068 
C 50.176599 83.016735 51.901591 83.73125 53.7 83.73125 
z
" style="stroke:#000000;stroke-linejoin:miter;"/>
   </g>
   <g id="patch_5">
    <path clip-path="url(#p615c4d5a3c)" d="M 53.7 106.98125 
C 55.498409 106.98125 57.223401 106.266735 58.495068 104.995068 
C 59.766735 103.723401 60.48125 101.998409 60.48125 100.2 
C 60.48125 98.401591 59.766735 96.676599 58.495068 95.404932 
C 57.223401 94.133265 55.498409 93.41875 53.7 93.41875 
C 51.901591 93.41875 50.176599 94.133265 48.904932 95.404932 
C 47.633265 96.676599 46.91875 98.401591 46.91875 100.2 
C 46.91875 101.998409 47.633265 103.723401 48.904932 104.995068 
C 50.176599 106.266735 51.901591 106.98125 53.7 106.98125 
z
" style="stroke:#000000;stroke-linejoin:miter;"/>
   </g>
   <g id="patch_6">
    <path clip-path="url(#p615c4d5a3c)" d="M 76.95 60.48125 
C 78.748409 60.48125 80.473401 59.766735 81.745068 58.495068 
C 83.016735 57.223401 83.73125 55.498409 83.73125 53.7 
C 83.73125 51.901591 83.016735 50.176599 81.745068 48.904932 
C 80.473401 47.633265 78.748409 46.91875 76.95 46.91875 
C 75.151591 46.91875 73.426599 47.633265 72.154932 48.904932 
C 70.883265 50.176599 70.16875 51.901591 70.16875 53.7 
C 70.16875 55.498409 70.883265 57.223401 72.154932 58.495068 
C 73.426599 59.766735 75.151591 60.48125 76.95 60.48125 
z
" style="stroke:#000000;stroke-linejoin:miter;"/>
   </g>
   <g id="patch_7">
    <path clip-path="url(#p615c4d5a3c)" d="M 76.95 106.98125 
C 78.748409 106.98125 80.473401 106.266735 81.745068 104.995068 
C 83.016735 103.723401 83.73125 101.998409 83.73125 100.2 
C 83.73125 98.401591 83.016735 96.676599 81.745068 95.404932 
C 80.473401 94.133265 78.748409 93.41875 76.95 93.41875 
C 75.151591 93.41875 73.426599 94.133265 72.154932 95.404932 
C 70.883265 96.676599 70.16875 98.401591 70.16875 100.2 
C 70.16875 101.998409 70.883265 103.723401 72.154932 104.995068 
C 73.426599 106.266735 75.151591 106.98125 76.95 106.98125 
z
" style="stroke:#000000;stroke-linejoin:miter;"/>
   </g>
   <g id="patch_8">
    <path clip-path="url(#p615c4d5a3c)" d="M 100.2 37.23125 
C 101.998409 37.23125 103.723401 36.516735 104.995068 35.245068 
C 106.266735 33.973401 106.98125 32.248409 106.98125 30.45 
C 106.98125 28.651591 106.266735 26.926599 104.995068 25.654932 
C 103.723401 24.383265 101.998409 23.66875 100.2 23.66875 
C 98.401591 23.66875 96.676599 24.383265 95.404932 25.654932 
C 94.133265 26.926599 93.41875 28.651591 93.41875 30.45 
C 93.41875 32.248409 94.133265 33.973401 95.404932 35.245068 
C 96.676599 36.516735 98.401591 37.23125 100.2 37.23125 
z
" style="fill:#648fff;stroke:#648fff;stroke-linejoin:miter;"/>
   </g>
   <g id="patch_9">
    <path clip-path="url(#p615c4d5a3c)" d="M 100.2 60.48125 
C 101.998409 60.48125 103.723401 59.766735 104.995068 58.495068 
C 106.266735 57.223401 106.98125 55.498409 106.98125 53.7 
C 106.98125 51.901591 106.266735 50.176599 104.995068 48.904932 
C 103.723401 47.633265 101.998409 46.91875 100.2 46.91875 
C 98.401591 46.91875 96.676599 47.633265 95.404932 48.904932 
C 94.133265 50.176599 93.41875 51.901591 93.41875 53.7 
C 93.41875 55.498409 94.133265 57.223401 95.404932 58.495068 
C 96.676599 59.766735 98.401591 60.48125 100.2 60.48125 
z
" style="fill:#648fff;stroke:#648fff;stroke-linejoin:miter;"/>
   </g>
   <g id="patch_10">
    <path clip-path="url(#p615c4d5a3c)" d="M 100.2 106.98125 
C 101.998409 106.98125 103.723401 106.266735 104.995068 104.995068 
C 106.266735 103.723401 106.98125 101.998409 106.98125 100.2 
C 106.98125 98.401591 106.266735 96.676599 104.995068 95.404932 
C 103.723401 94.133265 101.998409 93.41875 100.2 93.41875 
C 98.401591 93.41875 96.676599 94.133265 95.404932 95.404932 
C 94.133265 96.676599 93.41875 98.401591 93.41875 100.2 
C 93.41875 101.998409 94.133265 103.723401 95.404932 104.995068 
C 96.676599 106.266735 98.401591 106.98125 100.2 106.98125 
z
" style="stroke:#000000;stroke-linejoin:miter;"/>
   </g>
   <g id="patch_11">
    <path clip-path="url(#p615c4d5a3c)" d="M 100.2 130.23125 
C 101.998409 130.23125 103.723401 129.516735 104.995068 128.245068 
C 106.266735 126.973401 106.98125 125.248409 106.98125 123.45 
C 106.98125 121.651591 106.266735 119.926599 104.995068 118.654932 
C 103.723401 117.383265 101.998409 116.66875 100.2 116.66875 
C 98.401591 116.66875 96.676599 117.383265 95.404932 118.654932 
C 94.133265 119.926599 93.41875 121.651591 93.41875 123.45 
C 93.41875 125.248409 94.133265 126.973401 95.404932 128.245068 
C 96.676599 129.516735 98.401591 130.23125 100.2 130.23125 
z
" style="fill:#648fff;stroke:#648fff;stroke-linejoin:miter;"/>
   </g>
   <g id="patch_12">
    <path clip-path="url(#p615c4d5a3c)" d="M 123.45 60.48125 
C 125.248409 60.48125 126.973401 59.766735 128.245068 58.495068 
C 129.516735 57.223401 130.23125 55.498409 130.23125 53.7 
C 130.23125 51.901591 129.516735 50.176599 128.245068 48.904932 
C 126.973401 47.633265 125.248409 46.91875 123.45 46.91875 
C 121.651591 46.91875 119.926599 47.633265 118.654932 48.904932 
C 117.383265 50.176599 116.66875 51.901591 116.66875 53.7 
C 116.66875 55.498409 117.383265 57.223401 118.654932 58.495068 
C 119.926599 59.766735 121.651591 60.48125 123.45 60.48125 
z
" style="fill:#648fff;stroke:#648fff;stroke-linejoin:miter;"/>
   </g>
   <g id="patch_13">
    <path clip-path="url(#p615c4d5a3c)" d="M 123.45 106.98125 
C 125.248409 106.98125 126.973401 106.266735 128.245068 104.995068 
C 129.516735 103.723401 130.23125 101.998409 130.23125 100.2 
C 130.23125 98.401591 129.516735 96.676599 128.245068 95.404932 
C 126.973401 94.133265 125.248409 93.41875 123.45 93.41875 
C 121.651591 93.41875 119.926599 94.133265 118.654932 95.404932 
C 117.383265 96.676599 116.66875 98.401591 116.66875 100.2 
C 116.66875 101.998409 117.383265 103.723401 118.654932 104.995068 
C 119.926599 106.266735 121.651591 106.98125 123.45 106.98125 
z
" style="stroke:#000000;stroke-linejoin:miter;"/>
   </g>
   <g id="patch_14">
    <path clip-path="url(#p615c4d5a3c)" d="M 146.7 60.48125 
C 148.498409 60.48125 150.223401 59.766735 151.495068 58.495068 
C 152.766735 57.223401 153.48125 55.498409 153.48125 53.7 
C 153.48125 51.901591 152.766735 50.176599 151.495068 48.904932 
C 150.223401 47.633265 148.498409 46.91875 146.7 46.91875 
C 144.901591 46.91875 143.176599 47.633265 141.904932 48.904932 
C 140.633265 50.176599 139.91875 51.901591 139.91875 53.7 
C 139.91875 55.498409 140.633265 57.223401 141.904932 58.495068 
C 143.176599 59.766735 144.901591 60.48125 146.7 60.48125 
z
" style="fill:#648fff;stroke:#648fff;stroke-linejoin:miter;"/>
   </g>
   <g id="patch_15">
    <path clip-path="url(#p615c4d5a3c)" d="M 146.7 83.73125 
C 148.498409 83.73125 150.223401 83.016735 151.495068 81.745068 
C 152.766735 80.473401 153.48125 78.748409 153.48125 76.95 
C 153.48125 75.151591 152.766735 73.426599 151.495068 72.154932 
C 150.223401 70.883265 148.498409 70.16875 146.7 70.16875 
C 144.901591 70.16875 143.176599 70.883265 141.904932 72.154932 
C 140.633265 73.426599 139.91875 75.151591 139.91875 76.95 
C 139.91875 78.748409 140.633265 80.473401 141.904932 81.745068 
C 143.176599 83.016735 144.901591 83.73125 146.7 83.73125 
z
" style="fill:#648fff;stroke:#648fff;stroke-linejoin:miter;"/>
   </g>
   <g id="patch_16">
    <path clip-path="url(#p615c4d5a3c)" d="M 146.7 106.98125 
C 148.498409 106.98125 150.223401 106.266735 151.495068 104.995068 
C 152.766735 103.723401 153.48125 101.998409 153.48125 100.2 
C 153.48125 98.401591 152.766735 96.676599 151.495068 95.404932 
C 150.223401 94.133265 148.498409 93.41875 146.7 93.41875 
C 144.901591 93.41875 143.176599 94.133265 141.904932 95.404932 
C 140.633265 96.676599 139.91875 98.401591 139.91875 100.2 
C 139.91875 101.998409 140.633265 103.723401 141.904932 104.995068 
C 143.176599 106.266735 144.901591 106.98125 146.7 106.98125 
z
" style="stroke:#000000;stroke-linejoin:miter;"/>
   </g>
   <g id="patch_17">
    <path clip-path="url(#p615c4d5a3c)" d="M 169.95 60.48125 
C 171.748409 60.48125 173.473401 59.766735 174.745068 58.495068 
C 176.016735 57.223401 176.73125 55.498409 176.73125 53.7 
C 176.73125 51.901591 176.016735 50.176599 174.745068 48.904932 
C 173.473401 47.633265 171.748409 46.91875 169.95 46.91875 
C 168.151591 46.91875 166.426599 47.633265 165.154932 48.904932 
C 163.883265 50.176599 163.16875 51.901591 163.16875 53.7 
C 163.16875 55.498409 163.883265 57.223401 165.154932 58.495068 
C 166.426599 59.766735 168.151591 60.48125 169.95 60.48125 
z
" style="fill:#648fff;stroke:#648fff;stroke-linejoin:miter;"/>
   </g>
   <g id="patch_18">
    <path clip-path="url(#p615c4d5a3c)" d="M 169.95 106.98125 
C 171.748409 106.98125 173.473401 106.266735 174.745068 104.995068 
C 176.016735 103.723401 176.73125 101.998409 176.73125 100.2 
C 176.73125 98.401591 176.016735 96.676599 174.745068 95.404932 
C 173.473401 94.133265 171.748409 93.41875 169.95 93.41875 
C 168.151591 93.41875 166.426599 94.133265 165.154932 95.404932 
C 163.883265 96.676599 163.16875 98.401591 163.16875 100.2 
C 163.16875 101.998409 163.883265 103.723401 165.154932 104.995068 
C 166.426599 106.266735 168.151591 106.98125 169.95 106.98125 
z
" style="stroke:#000000;stroke-linejoin:miter;"/>
   </g>
   <g id="patch_19">
    <path clip-path="url(#p615c4d5a3c)" d="M 193.2 37.23125 
C 194.998409 37.23125 196.723401 36.516735 197.995068 35.245068 
C 199.266735 33.973401 199.98125 32.248409 199.98125 30.45 
C 199.98125 28.651591 199.266735 26.926599 197.995068 25.654932 
C 196.723401 24.383265 194.998409 23.66875 193.2 23.66875 
C 191.401591 23.66875 189.676599 24.383265 188.404932 25.654932 
C 187.133265 26.926599 186.41875 28.651591 186.41875 30.45 
C 186.41875 32.248409 187.133265 33.973401 188.404932 35.245068 
C 189.676599 36.516735 191.401591 37.23125 193.2 37.23125 
z
" style="fill:#648fff;stroke:#648fff;stroke-linejoin:miter;"/>
   </g>
   <g id="patch_20">
    <path clip-path="url(#p615c4d5a3c)" d="M 193.2 60.48125 
C 194.998409 60.48125 196.723401 59.766735 197.995068 58.495068 
C 199.266735 57.223401 199.98125 55.498409 199.98125 53.7 
C 199.98125 51.901591 199.266735 50.176599 197.995068 48.904932 
C 196.723401 47.633265 194.998409 46.91875 193.2 46.91875 
C 191.401591 46.91875 189.676599 47.633265 188.404932 48.904932 
C 187.133265 50.176599 186.41875 51.901591 186.41875 53.7 
C 186.41875 55.498409 187.133265 57.223401 188.404932 58.495068 
C 189.676599 59.766735 191.401591 60.48125 193.2 60.48125 
z
" style="fill:#648fff;stroke:#648fff;stroke-linejoin:miter;"/>
   </g>
   <g id="patch_21">
    <path clip-path="url(#p615c4d5a3c)" d="M 193.2 106.98125 
C 194.998409 106.98125 196.723401 106.266735 197.995068 104.995068 
C 199.266735 103.723401 199.98125 101.998409 199.98125 100.2 
C 199.98125 98.401591 199.266735 96.676599 197.995068 95.404932 
C 196.723401 94.133265 194.998409 93.41875 193.2 93.41875 
C 191.401591 93.41875 189.676599 94.133265 188.404932 95.404932 
C 187.133265 96.676599 186.41875 98.401591 186.41875 100.2 
C 186.41875 101.998409 187.133265 103.723401 188.404932 104.995068 
C 189.676599 106.266735 191.401591 106.98125 193.2 106.98125 
z
" style="fill:#648fff;stroke:#648fff;stroke-linejoin:miter;"/>
   </g>
   <g id="patch_22">
    <path clip-path="url(#p615c4d5a3c)" d="M 193.2 130.23125 
C 194.998409 130.23125 196.723401 129.516735 197.995068 128.245068 
C 199.266735 126.973401 199.98125 125.248409 199.98125 123.45 
C 199.98125 121.651591 199.266735 119.926599 197.995068 118.654932 
C 196.723401 117.383265 194.998409 116.66875 193.2 116.66875 
C 191.401591 116.66875 189.676599 117.383265 188.404932 118.654932 
C 187.133265 119.926599 186.41875 121.651591 186.41875 123.45 
C 186.41875 125.248409 187.133265 126.973401 188.404932 128.245068 
C 189.676599 129.516735 191.401591 130.23125 193.2 130.23125 
z
" style="fill:#648fff;stroke:#648fff;stroke-linejoin:miter;"/>
   </g>
   <g id="patch_23">
    <path clip-path="url(#p615c4d5a3c)" d="M 216.45 60.48125 
C 218.248409 60.48125 219.973401 59.766735 221.245068 58.495068 
C 222.516735 57.223401 223.23125 55.498409 223.23125 53.7 
C 223.23125 51.901591 222.516735 50.176599 221.245068 48.904932 
C 219.973401 47.633265 218.248409 46.91875 216.45 46.91875 
C 214.651591 46.91875 212.926599 47.633265 211.654932 48.904932 
C 210.383265 50.176599 209.66875 51.901591 209.66875 53.7 
C 209.66875 55.498409 210.383265 57.223401 211.654932 58.495068 
C 212.926599 59.766735 214.651591 60.48125 216.45 60.48125 
z
" style="fill:#648fff;stroke:#648fff;stroke-linejoin:miter;"/>
   </g>
   <g id="patch_24">
    <path clip-path="url(#p615c4d5a3c)" d="M 216.45 106.98125 
C 218.248409 106.98125 219.973401 106.266735 221.245068 104.995068 
C 222.516735 103.723401 223.23125 101.998409 223.23125 100.2 
C 223.23125 98.401591 222.516735 96.676599 221.245068 95.404932 
C 219.973401 94.133265 218.248409 93.41875 216.45 93.41875 
C 214.651591 93.41875 212.926599 94.133265 211.654932 95.404932 
C 210.383265 96.676599 209.66875 98.401591 209.66875 100.2 
C 209.66875 101.998409 210.383265 103.723401 211.654932 104.995068 
C 212.926599 106.266735 214.651591 106.98125 216.45 106.98125 
z
" style="fill:#648fff;stroke:#648fff;stroke-linejoin:miter;"/>
   </g>
   <g id="patch_25">
    <path clip-path="url(#p615c4d5a3c)" d="M 239.7 60.48125 
C 241.498409 60.48125 243.223401 59.766735 244.495068 58.495068 
C 245.766735 57.223401 246.48125 55.498409 246.48125 53.7 
C 246.48125 51.901591 245.766735 50.176599 244.495068 48.904932 
C 243.223401 47.633265 241.498409 46.91875 239.7 46.91875 
C 237.901591 46.91875 236.176599 47.633265 234.904932 48.904932 
C 233.633265 50.176599 232.91875 51.901591 232.91875 53.7 
C 232.91875 55.498409 233.633265 57.223401 234.904932 58.495068 
C 236.176599 59.766735 237.901591 60.48125 239.7 60.48125 
z
" style="fill:#648fff;stroke:#648fff;stroke-linejoin:miter;"/>
   </g>
   <g id="patch_26">
    <path clip-path="url(#p615c4d5a3c)" d="M 239.7 83.73125 
C 241.498409 83.73125 243.223401 83.016735 244.495068 81.745068 
C 245.766735 80.473401 246.48125 78.748409 246.48125 76.95 
C 246.48125 75.151591 245.766735 73.426599 244.495068 72.154932 
C 243.223401 70.883265 241.498409 70.16875 239.7 70.16875 
C 237.901591 70.16875 236.176599 70.883265 234.904932 72.154932 
C 233.633265 73.426599 232.91875 75.151591 232.91875 76.95 
C 232.91875 78.748409 233.633265 80.473401 234.904932 81.745068 
C 236.176599 83.016735 237.901591 83.73125 239.7 83.73125 
z
" style="fill:#648fff;stroke:#648fff;stroke-linejoin:miter;"/>
   </g>
   <g id="patch_27">
    <path clip-path="url(#p615c4d5a3c)" d="M 239.7 106.98125 
C 241.498409 106.98125 243.223401 106.266735 244.495068 104.995068 
C 245.766735 103.723401 246.48125 101.998409 246.48125 100.2 
C 246.48125 98.401591 245.766735 96.676599 244.495068 95.404932 
C 243.223401 94.133265 241.498409 93.41875 239.7 93.41875 
C 237.901591 93.41875 236.176599 94.133265 234.904932 95.404932 
C 233.633265 96.676599 232.91875 98.401591 232.91875 100.2 
C 232.91875 101.998409 233.633265 103.723401 234.904932 104.995068 
C 236.176599 106.266735 237.901591 106.98125 239.7 106.98125 
z
" style="fill:#648fff;stroke:#648fff;stroke-linejoin:miter;"/>
   </g>
   <g id="patch_28">
    <path clip-path="url(#p615c4d5a3c)" d="M 262.95 106.98125 
C 264.748409 106.98125 266.473401 106.266735 267.745068 104.995068 
C 269.016735 103.723401 269.73125 101.998409 269.73125 100.2 
C 269.73125 98.401591 269.016735 96.676599 267.745068 95.404932 
C 266.473401 94.133265 264.748409 93.41875 262.95 93.41875 
C 261.151591 93.41875 259.426599 94.133265 258.154932 95.404932 
C 256.883265 96.676599 256.16875 98.401591 256.16875 100.2 
C 256.16875 101.998409 256.883265 103.723401 258.154932 104.995068 
C 259.426599 106.266735 261.151591 106.98125 262.95 106.98125 
z
" style="fill:#648fff;stroke:#648fff;stroke-linejoin:miter;"/>
   </g>
   <g id="text_1">
    <!-- 1 -->
    <g style="fill:#ffffff;" transform="translate(50.221094 56.459375)scale(0.1 -0.1)">
     <defs>
      <path d="M 750 831 
L 1813 831 
L 1813 3847 
L 722 3622 
L 722 4441 
L 1806 4666 
L 2950 4666 
L 2950 831 
L 4013 831 
L 4013 0 
L 750 0 
L 750 831 
z
" id="DejaVuSans-Bold-31" transform="scale(0.015625)"/>
     </defs>
     <use xlink:href="#DejaVuSans-Bold-31"/>
    </g>
   </g>
   <g id="text_2">
    <!-- 2 -->
    <g style="fill:#ffffff;" transform="translate(50.221094 79.709375)scale(0.1 -0.1)">
     <defs>
      <path d="M 1844 884 
L 3897 884 
L 3897 0 
L 506 0 
L 506 884 
L 2209 2388 
Q 2438 2594 2547 2791 
Q 2656 2988 2656 3200 
Q 2656 3528 2436 3728 
Q 2216 3928 1850 3928 
Q 1569 3928 1234 3808 
Q 900 3688 519 3450 
L 519 4475 
Q 925 4609 1322 4679 
Q 1719 4750 2100 4750 
Q 2938 4750 3402 4381 
Q 3866 4013 3866 3353 
Q 3866 2972 3669 2642 
Q 3472 2313 2841 1759 
L 1844 884 
z
" id="DejaVuSans-Bold-32" transform="scale(0.015625)"/>
     </defs>
     <use xlink:href="#DejaVuSans-Bold-32"/>
    </g>
   </g>
   <g id="text_3">
    <!-- 3 -->
    <g style="fill:#ffffff;" transform="translate(50.221094 102.959375)scale(0.1 -0.1)">
     <defs>
      <path d="M 2981 2516 
Q 3453 2394 3698 2092 
Q 3944 1791 3944 1325 
Q 3944 631 3412 270 
Q 2881 -91 1863 -91 
Q 1503 -91 1142 -33 
Q 781 25 428 141 
L 428 1069 
Q 766 900 1098 814 
Q 1431 728 1753 728 
Q 2231 728 2486 893 
Q 2741 1059 2741 1369 
Q 2741 1688 2480 1852 
Q 2219 2016 1709 2016 
L 1228 2016 
L 1228 2791 
L 1734 2791 
Q 2188 2791 2409 2933 
Q 2631 3075 2631 3366 
Q 2631 3634 2415 3781 
Q 2200 3928 1806 3928 
Q 1516 3928 1219 3862 
Q 922 3797 628 3669 
L 628 4550 
Q 984 4650 1334 4700 
Q 1684 4750 2022 4750 
Q 2931 4750 3382 4451 
Q 3834 4153 3834 3553 
Q 3834 3144 3618 2883 
Q 3403 2622 2981 2516 
z
" id="DejaVuSans-Bold-33" transform="scale(0.015625)"/>
     </defs>
     <use xlink:href="#DejaVuSans-Bold-33"/>
    </g>
   </g>
   <g id="text_4">
    <!-- 4 -->
    <g style="fill:#ffffff;" transform="translate(73.471094 56.459375)scale(0.1 -0.1)">
     <defs>
      <path d="M 2356 3675 
L 1038 1722 
L 2356 1722 
L 2356 3675 
z
M 2156 4666 
L 3494 4666 
L 3494 1722 
L 4159 1722 
L 4159 850 
L 3494 850 
L 3494 0 
L 2356 0 
L 2356 850 
L 288 850 
L 288 1881 
L 2156 4666 
z
" id="DejaVuSans-Bold-34" transform="scale(0.015625)"/>
     </defs>
     <use xlink:href="#DejaVuSans-Bold-34"/>
    </g>
   </g>
   <g id="text_5">
    <!-- 5 -->
    <g style="fill:#ffffff;" transform="translate(73.471094 102.959375)scale(0.1 -0.1)">
     <defs>
      <path d="M 678 4666 
L 3669 4666 
L 3669 3781 
L 1638 3781 
L 1638 3059 
Q 1775 3097 1914 3117 
Q 2053 3138 2203 3138 
Q 3056 3138 3531 2711 
Q 4006 2284 4006 1522 
Q 4006 766 3489 337 
Q 2972 -91 2053 -91 
Q 1656 -91 1267 -14 
Q 878 63 494 219 
L 494 1166 
Q 875 947 1217 837 
Q 1559 728 1863 728 
Q 2300 728 2551 942 
Q 2803 1156 2803 1522 
Q 2803 1891 2551 2103 
Q 2300 2316 1863 2316 
Q 1603 2316 1309 2248 
Q 1016 2181 678 2041 
L 678 4666 
z
" id="DejaVuSans-Bold-35" transform="scale(0.015625)"/>
     </defs>
     <use xlink:href="#DejaVuSans-Bold-35"/>
    </g>
   </g>
   <g id="text_6">
    <!-- 8 -->
    <g style="fill:#ffffff;" transform="translate(96.721094 102.959375)scale(0.1 -0.1)">
     <defs>
      <path d="M 2228 2088 
Q 1891 2088 1709 1903 
Q 1528 1719 1528 1375 
Q 1528 1031 1709 848 
Q 1891 666 2228 666 
Q 2563 666 2741 848 
Q 2919 1031 2919 1375 
Q 2919 1722 2741 1905 
Q 2563 2088 2228 2088 
z
M 1350 2484 
Q 925 2613 709 2878 
Q 494 3144 494 3541 
Q 494 4131 934 4440 
Q 1375 4750 2228 4750 
Q 3075 4750 3515 4442 
Q 3956 4134 3956 3541 
Q 3956 3144 3739 2878 
Q 3522 2613 3097 2484 
Q 3572 2353 3814 2058 
Q 4056 1763 4056 1313 
Q 4056 619 3595 264 
Q 3134 -91 2228 -91 
Q 1319 -91 855 264 
Q 391 619 391 1313 
Q 391 1763 633 2058 
Q 875 2353 1350 2484 
z
M 1631 3419 
Q 1631 3141 1786 2991 
Q 1941 2841 2228 2841 
Q 2509 2841 2662 2991 
Q 2816 3141 2816 3419 
Q 2816 3697 2662 3845 
Q 2509 3994 2228 3994 
Q 1941 3994 1786 3844 
Q 1631 3694 1631 3419 
z
" id="DejaVuSans-Bold-38" transform="scale(0.015625)"/>
     </defs>
     <use xlink:href="#DejaVuSans-Bold-38"/>
    </g>
   </g>
   <g id="text_7">
    <!-- 11 -->
    <g style="fill:#ffffff;" transform="translate(116.492187 102.959375)scale(0.1 -0.1)">
     <use xlink:href="#DejaVuSans-Bold-31"/>
     <use x="69.580078" xlink:href="#DejaVuSans-Bold-31"/>
    </g>
   </g>
   <g id="text_8">
    <!-- 14 -->
    <g style="fill:#ffffff;" transform="translate(139.742188 102.959375)scale(0.1 -0.1)">
     <use xlink:href="#DejaVuSans-Bold-31"/>
     <use x="69.580078" xlink:href="#DejaVuSans-Bold-34"/>
    </g>
   </g>
   <g id="text_9">
    <!-- 16 -->
    <g style="fill:#ffffff;" transform="translate(162.992188 102.959375)scale(0.1 -0.1)">
     <defs>
      <path d="M 2316 2303 
Q 2000 2303 1842 2098 
Q 1684 1894 1684 1484 
Q 1684 1075 1842 870 
Q 2000 666 2316 666 
Q 2634 666 2792 870 
Q 2950 1075 2950 1484 
Q 2950 1894 2792 2098 
Q 2634 2303 2316 2303 
z
M 3803 4544 
L 3803 3681 
Q 3506 3822 3243 3889 
Q 2981 3956 2731 3956 
Q 2194 3956 1894 3657 
Q 1594 3359 1544 2772 
Q 1750 2925 1990 3001 
Q 2231 3078 2516 3078 
Q 3231 3078 3670 2659 
Q 4109 2241 4109 1563 
Q 4109 813 3618 361 
Q 3128 -91 2303 -91 
Q 1394 -91 895 523 
Q 397 1138 397 2266 
Q 397 3422 980 4083 
Q 1563 4744 2578 4744 
Q 2900 4744 3203 4694 
Q 3506 4644 3803 4544 
z
" id="DejaVuSans-Bold-36" transform="scale(0.015625)"/>
     </defs>
     <use xlink:href="#DejaVuSans-Bold-31"/>
     <use x="69.580078" xlink:href="#DejaVuSans-Bold-36"/>
    </g>
   </g>
  </g>
 </g>
 <defs>
  <clipPath id="p615c4d5a3c">
   <rect height="139.5" width="279" x="7.2" y="7.2"/>
  </clipPath>
 </defs>
</svg>
